<?xml version="1.0" encoding="utf-8"?>
<!-- Generator: Adobe Illustrator 18.1.1, SVG Export Plug-In . SVG Version: 6.00 Build 0)  -->
<svg version="1.1" id="Layer_1" xmlns="http://www.w3.org/2000/svg" xmlns:xlink="http://www.w3.org/1999/xlink" x="0px" y="0px"
	 viewBox="0 0 546.3 244.8" enable-background="new 0 0 546.3 244.8" xml:space="preserve">
<path fill="#E800BC" d="M382.7,37h-63.9c-0.6-8-4.5-14.1-9.2-14.1c-4.7,0-8.6,6.1-9.2,14.1H129.7c-1.6,0-3.1,0.4-4.3,1.6
	c-1.1,1.1-1.8,2.5-1.7,4.2l0,11.3c0,0.5-0.2,1-0.6,1.4s-0.9,0.6-1.4,0.6l-21.3,0c-0.6-7.9-4.5-14-9.2-14c-4.7,0-8.6,6.2-9.2,14
	l-20.7,0c-2.7,0-5,1.8-5.8,4.3l-24,82.9c-0.2,0.6-0.6,1.1-1.2,1.3L3.8,155.6c-2.2,0.9-3.8,3.1-3.8,5.5v45.4c0,3.3,2.9,6.4,6.2,6.4
	h21.1c0.6,0,1.2-0.3,1.8-0.5c1,17.9,15.9,32,34,32c18.2,0,33.1-14.2,34-32.2c0.7,0.3,1.5,0.7,2.4,0.7H295c1.2,17,16,31.8,34,31.8
	s32.8-14.8,34-31.8h19.7c3.3,0,6.3-3.1,6.3-6.4v-164C389,39.3,386,37,382.7,37z M63,240.4c-16.6,0-30.1-13.5-30.1-30.1
	c0-0.8,0-1.5,0.1-2.3c0.1-0.3,0.1-0.5,0.2-0.8c0.2-1.9,0.6-4.3,1.4-6.9c3.3-9.4,11.2-16.7,20.9-19.2c2.1-0.4,4.4-0.6,6.9-0.6l0.4,0
	c3.5,0,6.7,0.5,9.5,1.2c12,4,20.6,15.3,20.6,28.5C93.1,226.9,79.6,240.4,63,240.4z M329,240.4c-16.6,0-30-13.5-30.1-30
	c0-1,0.2-5,1.7-9.9c3.9-11.2,14.3-19.5,26.7-20.2c0.6,0,1.1-0.1,1.7-0.1c0.6,0,1.2,0,1.7,0.1c12.1,0.7,22.3,8.6,26.4,19.4
	c1.7,5.3,1.9,9.8,1.9,10.7C359,227,345.5,240.4,329,240.4z M385,206.6c0,1.1-1.2,2.4-2.3,2.4H363c-0.2-4-1.1-8.1-2.6-11.7
	c-0.4-1.2-0.9-2.5-1.5-3.7c-3.7-7.6-11.6-16.5-27.8-17.3c-0.7,0-1.4-0.1-2.1-0.1c-0.6,0-1.2,0-1.8,0c-17.2,0.7-25.3,10.7-29,19.7
	c-1.8,3.9-3,8-3.2,13H99.4c-1,0-1.8-0.9-2-1.9c-1.1-7.8-5.6-24.5-24.3-29.1c-3.2-1-6.6-1.6-10.1-1.6c-2.6,0-5.2,0.3-7.6,0.8
	c-15.8,2.6-22.2,13.7-24.7,22.5c-0.8,2.5-1.4,5.2-1.6,7.9c-0.3,0.7-1,1.4-1.8,1.4H6.2c-1.1,0-2.2-1.3-2.2-2.4v-45.4
	c0-0.8,0.6-1.5,1.3-1.8l26.6-11.1c1.7-0.7,3-2.1,3.5-3.9l24-82.9c0.2-0.8,1-1.4,1.9-1.4l60.4,0c1.6,0,3.1-0.6,4.2-1.8
	s1.8-2.7,1.7-4.3l0-11.4c0-0.5,0.2-0.8,0.6-1.2c0.4-0.4,0.9-0.4,1.4-0.4h253c1.1,0,2.3,0.5,2.3,1.6V206.6z"/>
<rect x="124" y="54" fill="#E800BC" width="4" height="157"/>
<path fill="#E800BC" d="M216.4,195.3h-63.1c-3.3,0-6-2.7-6-6V68.7c0-3.3,2.7-6,6-6h63.1c3.3,0,6,2.7,6,6v120.6
	C222.4,192.6,219.8,195.3,216.4,195.3z M153.3,66.7c-1.1,0-2,0.9-2,2v120.6c0,1.1,0.9,2,2,2h63.1c1.1,0,2-0.9,2-2V68.7
	c0-1.1-0.9-2-2-2H153.3z"/>
<g>
	<path fill="#E800BC" d="M302.8,143.4v-16.7h-17c-1.8,0-3.4-0.6-4.7-1.9c-1.3-1.3-1.9-2.8-1.9-4.6c0-1.8,0.6-3.4,1.9-4.7
		c1.3-1.3,2.8-2,4.7-2h17V96.9c0-1.9,0.7-3.5,2-4.9c1.3-1.3,2.9-2,4.8-2c1.9,0,3.5,0.7,4.9,2c1.4,1.3,2,2.9,2,4.9v16.7h17
		c1.8,0,3.4,0.7,4.7,2c1.3,1.3,1.9,2.9,1.9,4.7c0,1.8-0.6,3.3-1.9,4.6c-1.3,1.3-2.8,1.9-4.7,1.9h-17v16.7c0,1.9-0.7,3.5-2,4.9
		c-1.4,1.3-3,2-4.9,2c-1.9,0-3.5-0.7-4.8-2C303.4,147,302.8,145.4,302.8,143.4z"/>
</g>
<path fill="#E800BC" d="M62.7,229.1c-10.3,0-18.6-8.3-18.6-18.6s8.3-18.6,18.6-18.6s18.6,8.3,18.6,18.6S73,229.1,62.7,229.1z
	 M62.7,195.9c-8.1,0-14.6,6.6-14.6,14.6c0,8.1,6.6,14.6,14.6,14.6c8.1,0,14.6-6.6,14.6-14.6C77.3,202.4,70.8,195.9,62.7,195.9z"/>
<path fill="#E800BC" d="M328.7,230.1c-10.3,0-18.6-8.3-18.6-18.6s8.3-18.6,18.6-18.6s18.6,8.3,18.6,18.6S339,230.1,328.7,230.1z
	 M328.7,196.9c-8.1,0-14.6,6.6-14.6,14.6c0,8.1,6.6,14.6,14.6,14.6c8.1,0,14.6-6.6,14.6-14.6C343.3,203.4,336.8,196.9,328.7,196.9z"
	/>
<path fill="#E800BC" d="M296.7,22.5c-0.5,0-0.9-0.2-1.3-0.5l-7.9-7.1c-0.8-0.7-0.9-2-0.2-2.8c0.7-0.8,2-0.9,2.8-0.2L298,19
	c0.8,0.7,0.9,2,0.2,2.8C297.8,22.3,297.2,22.5,296.7,22.5z"/>
<path fill="#E800BC" d="M322.2,20.8c-0.6,0-1.1-0.2-1.5-0.7c-0.7-0.8-0.7-2.1,0.2-2.8l7.9-7.1c0.8-0.7,2.1-0.7,2.8,0.2
	c0.7,0.8,0.7,2.1-0.2,2.8l-7.9,7.1C323.1,20.6,322.6,20.8,322.2,20.8z"/>
<path fill="#E800BC" d="M310,17c-1.1,0-2-0.9-2-2V2c0-1.1,0.9-2,2-2s2,0.9,2,2v13C312,16.1,311.1,17,310,17z"/>
<path fill="#E800BC" d="M78.7,41.5c-0.5,0-0.9-0.2-1.3-0.5l-7.9-7.1c-0.8-0.7-0.9-2-0.2-2.8c0.7-0.8,2-0.9,2.8-0.2L80,38
	c0.8,0.7,0.9,2,0.2,2.8C79.8,41.3,79.2,41.5,78.7,41.5z"/>
<path fill="#E800BC" d="M104.2,39.8c-0.6,0-1.1-0.2-1.5-0.7c-0.7-0.8-0.7-2.1,0.2-2.8l7.9-7.1c0.8-0.7,2.1-0.7,2.8,0.2
	c0.7,0.8,0.7,2.1-0.2,2.8l-7.9,7.1C105.1,39.6,104.6,39.8,104.2,39.8z"/>
<path fill="#E800BC" d="M92,36c-1.1,0-2-0.9-2-2V21c0-1.1,0.9-2,2-2s2,0.9,2,2v13C94,35.1,93.1,36,92,36z"/>
<path fill="#E800BC" d="M106,66l-34.7-0.2c-2.7,0-5.1,1.8-5.8,4.4l-18.8,67.2c-0.5,1.8-0.1,3.7,1,5.2c1.1,1.5,2.9,2.4,4.8,2.4H106
	c3.3,0,6-2.7,6-6V72C112,68.7,109.3,66,106,66z M51,140.2c-0.4-0.5-0.5-1.1-0.3-1.7l18.8-67.2c0.2-0.9,1-1.5,1.9-1.5l2,0L55.1,141
	h-2.6C51.9,141,51.4,140.7,51,140.2z M108,139c0,1.1-0.9,2-2,2H59.3l18.2-71.2L106,70c1.1,0,2,0.9,2,2V139z"/>
<path fill="#E800BC" d="M204.7,73h-38.1c-0.2,0-0.4-0.1-0.6-0.1s-0.4,0.1-0.6,0.1h-2.2c-3.3,0-6.2,2.8-6.2,6.1v41.5
	c0,3.3,2.9,6.4,6.2,6.4h41.5c3.3,0,6.3-3.1,6.3-6.4V79.1C211,75.8,208,73,204.7,73z M161,120.6V79.1c0-1.1,1.1-2.1,2.2-2.1h0.8v46
	h-0.8C162.1,123,161,121.7,161,120.6z M207,120.6c0,1.1-1.2,2.4-2.3,2.4H168V77h36.7c1.1,0,2.3,1,2.3,2.1V120.6z"/>
<path fill="#E800BC" d="M508.6,194.7c-1.1,0-2-0.9-2-2s0.9-2,2-2c13.6,0,25.2-3.3,30.5-8.5c2.2-2.2,3.3-4.7,3.3-7.5
	c-0.1-11.8-11.3-18.1-33.5-18.9c-25-0.8-54.2,0-54.5,0c-1.1,0.1-2-0.8-2.1-1.9c0-1.1,0.8-2,1.9-2.1c0.3,0,29.6-0.8,54.7,0
	c24.7,0.8,37.3,8.5,37.3,22.9c0,3.9-1.5,7.4-4.4,10.4C535.9,191.1,523.4,194.7,508.6,194.7z"/>
<path fill="#E800BC" d="M477.3,89.5c-23.1,0-46.6-0.4-47-0.4c-1.1,0-2-0.9-2-2c0-1.1,0.9-2,2-2c0.5,0,53.4,0.8,78.4,0
	c22.2-0.7,33.4-7.1,33.5-18.9c0-2.9-1.1-5.3-3.3-7.5c-5.2-5.2-16.9-8.5-30.5-8.5c-1.1,0-2-0.9-2-2s0.9-2,2-2
	c14.8,0,27.3,3.6,33.3,9.7c3,3,4.4,6.5,4.4,10.4c-0.1,14.3-12.6,22-37.3,22.9C500.6,89.4,489,89.5,477.3,89.5z"/>
<path fill="#E800BC" d="M465,121h-35c-1.1,0-2-0.9-2-2s0.9-2,2-2h35c1.1,0,2,0.9,2,2S466.1,121,465,121z"/>
<path fill="#E800BC" d="M524,121h-49c-1.1,0-2-0.9-2-2s0.9-2,2-2h49c1.1,0,2,0.9,2,2S525.1,121,524,121z"/>
<path fill="#E800BC" d="M447,156h-17c-1.1,0-2-0.9-2-2s0.9-2,2-2h17c1.1,0,2,0.9,2,2S448.1,156,447,156z"/>
</svg>
