<?xml version="1.0" encoding="utf-8"?>
<!-- Generator: Adobe Illustrator 18.1.1, SVG Export Plug-In . SVG Version: 6.00 Build 0)  -->
<svg version="1.1" id="Layer_1" xmlns="http://www.w3.org/2000/svg" xmlns:xlink="http://www.w3.org/1999/xlink" x="0px" y="0px"
	 viewBox="0 0 317 125" enable-background="new 0 0 317 125" xml:space="preserve">
<path fill="#E800BC" d="M232.3,107.7c-26.1,0-47.3-21.2-47.3-47.3c0-26.1,21.2-47.3,47.3-47.3s47.3,21.2,47.3,47.3
	C279.7,86.4,258.4,107.7,232.3,107.7z M232.3,17C208.4,17,189,36.4,189,60.3s19.4,43.3,43.3,43.3c23.9,0,43.3-19.4,43.3-43.3
	S256.2,17,232.3,17z"/>
<path fill="#E800BC" d="M232.3,99.7c-21.1,0-38.3-17.2-38.3-38.3c0-21.1,17.2-38.3,38.3-38.3s38.3,17.2,38.3,38.3
	C270.7,82.5,253.5,99.7,232.3,99.7z M232.3,27C213.4,27,198,42.4,198,61.3s15.4,34.3,34.3,34.3c18.9,0,34.3-15.4,34.3-34.3
	S251.3,27,232.3,27z"/>
<path fill="#E800BC" d="M207.3,62h-4c0-16,13.7-29.7,29.7-29.7v4C219,36.3,207.3,48,207.3,62z"/>
<path fill="#E800BC" d="M122,34H25c-2.2,0-4-1.8-4-4s1.8-4,4-4h97c2.2,0,4,1.8,4,4S124.2,34,122,34z"/>
<path fill="#E800BC" d="M122,50H25c-2.2,0-4-1.8-4-4s1.8-4,4-4h97c2.2,0,4,1.8,4,4S124.2,50,122,50z"/>
<path fill="#E800BC" d="M122,65H25c-2.2,0-4-1.8-4-4s1.8-4,4-4h97c2.2,0,4,1.8,4,4S124.2,65,122,65z"/>
<path fill="#E800BC" d="M122,81H25c-2.2,0-4-1.8-4-4s1.8-4,4-4h97c2.2,0,4,1.8,4,4S124.2,81,122,81z"/>
<circle fill="#E800BC" cx="156.3" cy="33" r="8"/>
<path fill="#E800BC" d="M302.2,0H15.4C7.1,0,0,6.7,0,15v78.7c0,2.3,1.5,4.4,3.6,5.4l16.7,8c0.7,7.7,7.2,13.9,15,13.9h18.1
	c-0.1,0-0.2,0.6-0.2,1c0,1.7,1.4,3,3.1,3h13c1.7,0,3.1-1.3,3.1-3c0-0.4-0.1-1-0.2-1h177.5c-0.1,0-0.2,0.6-0.2,1c0,1.7,1.4,3,3.1,3
	h13c1.7,0,3.1-1.3,3.1-3c0-0.4-0.1-1-0.2-1h13.7c7.8,0,14.3-6.2,14.9-13.9l16.6-8.3c2-1,3.3-3.2,3.3-5.5V15C317,6.7,310.5,0,302.2,0
	z M313,93.4c0,0.8-0.3,1.5-1,1.8l-17.7,8.7c-0.7,0.3-1.1,1.2-1.1,2c0,6.1-4.9,11.2-11,11.2H35.4c-6.1,0-11-5.1-11-11.2
	c0-0.8-0.4-1.6-1.1-1.9L5.3,95.5C4.6,95.2,4,94.4,4,93.7V15C4,8.9,9.3,4,15.4,4h286.8c6.1,0,10.8,4.9,10.8,11V93.4z"/>
</svg>
