<?xml version="1.0" encoding="utf-8"?>
<!-- Generator: Adobe Illustrator 18.1.1, SVG Export Plug-In . SVG Version: 6.00 Build 0)  -->
<svg version="1.1" id="Layer_1" xmlns="http://www.w3.org/2000/svg" xmlns:xlink="http://www.w3.org/1999/xlink" x="0px" y="0px"
	 viewBox="0 0 264 221" enable-background="new 0 0 264 221" xml:space="preserve">
<line fill="#FFFFFF" x1="132" y1="181" x2="132" y2="187"/>
<path fill="#E800BC" d="M254.7,14H253V5.4c0-2.9-2.3-5.4-4.9-5.4h-99.8c-7.4,0-13.8,4.9-16.2,11.6C129.7,4.9,123.5,0,116.2,0H16.4
	C13.6,0,11,2.6,11,5.4V14H9c-5,0-9,4-9,9v176.2c0,5,4.1,8.8,9,8.8h88v13l9-7.4l9,7.4v-13h139.7c5,0,9.3-3.9,9.3-8.8V23
	C264,18,259.7,14,254.7,14z M148.3,2h99.8c1.7,0,2.9,1.8,2.9,3.4V14c0,1,0,1,0,2v153.8c0,1.7-1.3,3.2-2.9,3.2h-98.2
	c-9.5,0-14.5,3.9-16.8,6V17.4C133,9,140,2,148.3,2z M141.9,195c-0.2-2.1-1-3.9-2.3-5.4c1.3-0.2,4.2-0.6,10-0.6h98
	c1.2,0,2.4-0.6,3.3-1.5c0,1.2-0.2,2.8-0.7,4.3c-0.8,2.2-2.4,3.3-4.7,3.3H141.9z M125.8,187.9c-1-0.4-3.8-0.9-10.8-0.9v-5
	c12,0.1,15.3,2.7,16,3.4v0.7C129.2,186.2,127.2,186.9,125.8,187.9z M122,195h-7v-6c6,0,7.8,0.3,9.1,0.6
	C122.8,191.1,122.3,192.9,122,195z M251,173.9l0,2.6c0,1.6-1.8,3.4-3.4,3.4h-98.5c-9.4,0-14,1.6-16.2,2.9v-1.2
	c0.2-0.2,0.5-0.4,0.8-0.7c2-1.8,6.5-6,16-6h98.2C249.2,175,250.2,174.6,251,173.9z M131,182.9c-2.2-1.3-6.8-2.9-16.2-2.9H16.4
	c-1.6,0-3.4-1.8-3.4-3.4l0-2.8c0.9,0.8,2.1,1.2,3.4,1.2h98.2c9.5,0,13.8,4.2,15.7,6c0.3,0.3,0.5,0.5,0.7,0.7V182.9z M13,180.6
	c1,0.8,2.2,1.4,3.4,1.4H97v5H16.4c-1.5,0-3.4-2.2-3.4-4L13,180.6z M16.4,189H97v6H18.4c-2.3,0-3.8-1.1-4.7-3.3
	c-0.6-1.4-0.7-3.1-0.7-4.3C13.9,188.4,15.1,189,16.4,189z M133,185.4c0.7-0.7,4.2-3.4,16.2-3.4h98.5c1.2,0,2.4-0.5,3.4-1.4l0,2.3
	c0,1.8-1.8,4-3.4,4h-98c-7.7,0-10.6,0.5-11.7,0.9c-1.4-1-3.1-1.7-4.9-1.9V185.4z M13,5.4C13,3.7,14.7,2,16.4,2h99.8
	c8.2,0,14.8,6.9,14.8,15.4v161.5c-2-2.1-7.1-5.9-16.4-5.9H16.4c-1.7,0-3.4-1.6-3.4-3.2V16c0-1,0-1,0-2V5.4z M9,206c-3.9,0-7-3-7-6.8
	V23c0-3.9,3.2-7,7-7h2v153.8c0,0.3,0,0.6,0.1,0.8c0,0.1-0.1,0.2-0.1,0.4l0,5.6c0,0.1,0,0.3,0,0.4c0,0,0,0,0,0l0,6c0,0,0,0,0,0
	c0,0,0,0,0,0v3.4c0,1.2,0,3.7,0.9,6c1.1,3,3.4,4.5,6.5,4.5H97v9H9z M262,199.2c0,3.9-3.5,6.8-7.3,6.8H115v-9h8c0.6,0,1-0.4,1-1
	c0,0,0,0,0,0c0,0,0,0,0,0c0-4.4,3.6-8,8-8s8,3.6,8,8c0,0.6,0.4,1,1,1h104.6c3.1,0,5.4-1.6,6.5-4.5c0.9-2.3,0.9-4.8,0.9-6V183
	c0,0,0,0,0,0c0,0,0,0,0,0l0-6c0,0,0,0,0,0c0-0.1,0-0.3,0-0.4l0-5.6c0-0.1,0-0.2-0.1-0.3c0-0.3,0.1-0.6,0.1-0.9V16h1.7
	c3.9,0,7.3,3.1,7.3,7V199.2z"/>
<path fill="#E800BC" d="M110.6,73.2H28c-2.2,0-4-1.8-4-4V18c0-2.2,1.8-4,4-4h80.6c3.3,0,6,2.7,6,6v49.2
	C114.6,71.4,112.8,73.2,110.6,73.2z"/>
<path fill="#E800BC" d="M95.5,94H26c-1.1,0-2-0.9-2-2v-7c0-1.1,0.9-2,2-2h69.5c1.1,0,2,0.9,2,2v7C97.5,93.1,96.6,94,95.5,94z"/>
<path fill="#E800BC" d="M113.1,106.5H25.5c-0.8,0-1.5-0.7-1.5-1.5l0,0c0-0.8,0.7-1.5,1.5-1.5h87.6c0.8,0,1.5,0.7,1.5,1.5l0,0
	C114.6,105.8,113.9,106.5,113.1,106.5z"/>
<path fill="#E800BC" d="M107.1,114.1H25.5c-0.8,0-1.5-0.7-1.5-1.5l0,0c0-0.8,0.7-1.5,1.5-1.5h81.6c0.8,0,1.5,0.7,1.5,1.5l0,0
	C108.6,113.4,107.9,114.1,107.1,114.1z"/>
<path fill="#E800BC" d="M96,121.8H25.5c-0.8,0-1.5-0.7-1.5-1.5l0,0c0-0.8,0.7-1.5,1.5-1.5H96c0.8,0,1.5,0.7,1.5,1.5l0,0
	C97.5,121.1,96.8,121.8,96,121.8z"/>
<path fill="#E800BC" d="M107.6,129.4H25.5c-0.8,0-1.5-0.7-1.5-1.5l0,0c0-0.8,0.7-1.5,1.5-1.5h82.1c0.8,0,1.5,0.7,1.5,1.5l0,0
	C109.1,128.7,108.5,129.4,107.6,129.4z"/>
<path fill="#E800BC" d="M96,136.5H25.5c-0.8,0-1.5-0.7-1.5-1.5l0,0c0-0.8,0.7-1.5,1.5-1.5H96c0.8,0,1.5,0.7,1.5,1.5l0,0
	C97.5,135.8,96.8,136.5,96,136.5z"/>
<path fill="#E800BC" d="M238.8,20.9h-87.6c-0.8,0-1.5-0.7-1.5-1.5v0c0-0.8,0.7-1.5,1.5-1.5h87.6c0.8,0,1.5,0.7,1.5,1.5v0
	C240.3,20.2,239.6,20.9,238.8,20.9z"/>
<path fill="#E800BC" d="M232.8,28.5h-81.6c-0.8,0-1.5-0.7-1.5-1.5v0c0-0.8,0.7-1.5,1.5-1.5h81.6c0.8,0,1.5,0.7,1.5,1.5v0
	C234.3,27.8,233.6,28.5,232.8,28.5z"/>
<path fill="#E800BC" d="M221.7,36.1h-70.5c-0.8,0-1.5-0.7-1.5-1.5l0,0c0-0.8,0.7-1.5,1.5-1.5h70.5c0.8,0,1.5,0.7,1.5,1.5l0,0
	C223.2,35.5,222.5,36.1,221.7,36.1z"/>
<path fill="#E800BC" d="M233.3,43.8h-82.1c-0.8,0-1.5-0.7-1.5-1.5l0,0c0-0.8,0.7-1.5,1.5-1.5h82.1c0.8,0,1.5,0.7,1.5,1.5l0,0
	C234.8,43.1,234.2,43.8,233.3,43.8z"/>
<path fill="#E800BC" d="M221.7,50.9h-70.5c-0.8,0-1.5-0.7-1.5-1.5l0,0c0-0.8,0.7-1.5,1.5-1.5h70.5c0.8,0,1.5,0.7,1.5,1.5l0,0
	C223.2,50.2,222.5,50.9,221.7,50.9z"/>
<path fill="#E800BC" d="M193.6,80.5h-42.5c-0.8,0-1.5-0.7-1.5-1.5l0,0c0-0.8,0.7-1.5,1.5-1.5h42.5c0.8,0,1.5,0.7,1.5,1.5l0,0
	C195.1,79.8,194.5,80.5,193.6,80.5z"/>
<path fill="#E800BC" d="M190.6,88.1h-39.4c-0.8,0-1.5-0.7-1.5-1.5l0,0c0-0.8,0.7-1.5,1.5-1.5h39.4c0.8,0,1.5,0.7,1.5,1.5l0,0
	C192.1,87.4,191.4,88.1,190.6,88.1z"/>
<path fill="#E800BC" d="M185.1,95.8h-33.9c-0.8,0-1.5-0.7-1.5-1.5l0,0c0-0.8,0.7-1.5,1.5-1.5h33.9c0.8,0,1.5,0.7,1.5,1.5l0,0
	C186.6,95.1,185.9,95.8,185.1,95.8z"/>
<path fill="#E800BC" d="M190.9,103.4h-39.7c-0.8,0-1.5-0.7-1.5-1.5l0,0c0-0.8,0.7-1.5,1.5-1.5h39.7c0.8,0,1.5,0.7,1.5,1.5l0,0
	C192.4,102.7,191.7,103.4,190.9,103.4z"/>
<path fill="#E800BC" d="M185.1,110.5h-33.9c-0.8,0-1.5-0.7-1.5-1.5l0,0c0-0.8,0.7-1.5,1.5-1.5h33.9c0.8,0,1.5,0.7,1.5,1.5l0,0
	C186.6,109.8,185.9,110.5,185.1,110.5z"/>
<path fill="#E800BC" d="M238.8,120h-87.6c-0.8,0-1.5-0.7-1.5-1.5l0,0c0-0.8,0.7-1.5,1.5-1.5h87.6c0.8,0,1.5,0.7,1.5,1.5l0,0
	C240.3,119.3,239.6,120,238.8,120z"/>
<path fill="#E800BC" d="M232.8,127.6h-81.6c-0.8,0-1.5-0.7-1.5-1.5l0,0c0-0.8,0.7-1.5,1.5-1.5h81.6c0.8,0,1.5,0.7,1.5,1.5l0,0
	C234.3,126.9,233.6,127.6,232.8,127.6z"/>
<path fill="#E800BC" d="M221.7,135.2h-70.5c-0.8,0-1.5-0.7-1.5-1.5l0,0c0-0.8,0.7-1.5,1.5-1.5h70.5c0.8,0,1.5,0.7,1.5,1.5l0,0
	C223.2,134.6,222.5,135.2,221.7,135.2z"/>
<path fill="#E800BC" d="M233.3,142.9h-82.1c-0.8,0-1.5-0.7-1.5-1.5l0,0c0-0.8,0.7-1.5,1.5-1.5h82.1c0.8,0,1.5,0.7,1.5,1.5l0,0
	C234.8,142.2,234.2,142.9,233.3,142.9z"/>
<path fill="#E800BC" d="M221.7,150h-70.5c-0.8,0-1.5-0.7-1.5-1.5l0,0c0-0.8,0.7-1.5,1.5-1.5h70.5c0.8,0,1.5,0.7,1.5,1.5l0,0
	C223.2,149.3,222.5,150,221.7,150z"/>
<path fill="#E800BC" d="M233.2,111.1h-24.6c-2.2,0-4-1.8-4-4V81.5c0-2.2,1.8-4,4-4h24.6c2.2,0,4,1.8,4,4v25.6
	C237.2,109.3,235.4,111.1,233.2,111.1z"/>
</svg>
