<?xml version="1.0" encoding="utf-8"?>
<!-- Generator: Adobe Illustrator 18.1.1, SVG Export Plug-In . SVG Version: 6.00 Build 0)  -->
<svg version="1.1" id="Layer_1" xmlns="http://www.w3.org/2000/svg" xmlns:xlink="http://www.w3.org/1999/xlink" x="0px" y="0px"
	 viewBox="328.8 0 622.3 800.9" enable-background="new 328.8 0 622.3 800.9" xml:space="preserve">
<g id="outline">
	<path fill="#E800BC" d="M427.1,224.8c-10.6,2.8-16.9,13.8-14.1,24.7l4.2-1.2c-2.3-8.5,2.7-17.2,10.9-19.4c8.3-2.2,16.9,3,19,11.6
		l4.2-1.1C448.6,228.6,437.7,222.1,427.1,224.8z"/>
	<path fill="#E800BC" d="M541.5,224.8c-10.7-2.4-21.3,4.5-23.8,15.5l4.2,1c1.9-8.7,10.3-14.1,18.6-12.2c8.3,1.8,13.6,10.4,11.7,18.9
		l4.2,1C558.9,238,552.2,227.1,541.5,224.8z"/>
	<path fill="#E800BC" d="M479,294c-9.5,0-17.3,7.8-17.3,17.3c0,0.3,0,0.6,0,1l0.1,2.2H496l0.3-2.2c0-0.3,0-0.6,0-1
		C496.3,301.8,488.5,294,479,294z M466,310.1c0.5-6.7,6.3-11.8,13-11.8s12.3,5.2,12.9,11.8H466z"/>
	<path fill="#E800BC" d="M875.8,684.3L950.7,572c0.3-0.3,0.4-0.9,0.4-1.3c0-0.5,0-1.1-0.3-1.4l-75-112.8V289.5
		c0-1.2-1.3-1.7-2.5-1.7H757.5c-1.2,0-1.8,0.5-1.8,1.7v58.2c-4.3,8.1-8.4,17.6-9.5,20l-74.6,56c-0.8-1-1.9-2.5-3.7-4.8
		c-3.8-5-10.5-13.4-21.6-27.8c-36.7-46.8-71.3-55.3-83.5-56.7c15.6-17.6,27.4-40.3,33.5-66.5c0.9,0.1,1.6,0.2,2.5,0.2
		c10.2,0,18.4-8.4,18.4-18.8c0-9.6-7.1-17.6-16.3-18.7c0-1.1,0-2.2,0-3.1c0-1.7,0-3.6-0.1-5.3l0.1-0.2c5.8-37.6,6.9-74.5,3-103.9
		c-1.4-10.6-3.7-22.4-9.6-30.2c-5-6.4-11.4-8.9-17.5-11.2c-3.8-1.5-7.2-2.8-10.5-5c-10.9-7.4-20.5-14.9-20.8-15
		c-0.2-0.1-21-15.4-32.1-26.5c-2.2-2.2-3.6-3-5-3c-1.3,0-2.3,0.8-2.7,1.9c-1.8,5.3,9.8,26.2,24.4,38.8c-1.2,0.3-2.5,0.4-3.7,0.4
		c-18.3,0-40.6-29-51.1-42.8c-5.9-7.7-6.9-9-8.8-9h-0.2c-1.2,0.1-2.2,1-2.8,2.5c-1.9,4.5-2.9,19.9,0.2,30.3
		c-6.9-4.1-15.7-9.6-24.3-14.9c-24.7-15.6-35.8-22.3-39.1-22.3c-1.1,0-2.1,0.5-2.5,1.5c-0.8,1.6,0.3,3.2,2.6,5.7
		c9.4,10.4,18,23.5,26.1,36.1c3.6,5.5,7.2,11.2,11,16.7c-1.4,0.3-2.8,0.4-4.2,0.4c-26,0-56.7-44.4-69.9-63.4
		c-5.7-8.3-6.3-9.2-7.9-9.2c-0.6,0-2.1,0.2-3,1.9c-5.9,10.5-0.5,94.3,19.2,136.6c-1.2-0.3-2.4-0.4-3.7-0.4c-8.7,0-17.4,7.6-20.7,18
		c-4.1,13,5.4,31.7,13.1,46.6c2.3,4.4,4.3,8.5,5.8,12l0.2,0.5c-0.2,4-0.4,8.1-0.4,12.2c0,1,0,1.9,0,3.1c-9.3,1-16.4,9-16.4,18.7
		c0,10.4,8.2,18.8,18.4,18.8c0.9,0,1.7-0.1,2.7-0.2c6.1,26.1,17.8,48.8,33.3,66.4c-22,1.7-41.5,14.3-55.7,35.6
		c-13.1,19.8-20.1,45.2-19.5,69.5c1.4,46.2,0,234.8,0,236.6c0,1.2,1,2.2,2.2,2.2s2.2-0.9,2.2-2.1c0-1.5,0.9-113.7,0.5-186.1h52v186
		c0,1.2,1,2.2,2.2,2.2s2.2-1,2.2-2.2V428.7c0-1.2-1-2.2-2.2-2.2s-2.2,1-2.2,2.2v57h-52c-0.1-19.5-0.2-36.4-0.5-46.4
		c-1.4-47,27.6-98.8,73-100.7c0.4,0,0.8-0.1,1.1-0.4c20.8,21.7,47.5,34.6,76,34.6c28.3,0,54.9-12.7,75.6-34.1
		c2.6,0.1,11.9,0.9,25.1,6.6c14.3,6.3,36.1,19.7,58.7,48.7c1.3,1.6,2.5,3.2,3.7,4.8l-42.6,42.4c-12.4-13.9-21-22.7-21.2-22.8
		c-0.6-0.6-1.4-0.9-2.2-0.5c-0.9,0.3-1.2,1.1-1.2,2.1v256.4c0,1.2,1,2.2,2.2,2.2c1.2,0,2.2-1,2.2-2.2V425.1
		c7.6,8.3,26.9,29.1,47.6,54.4c21.4,26.2,48.1,11.9,53.3,8.8c0.1-0.1,0.3-0.1,0.4-0.2l70.6-61.1v30.3c0,0-0.1,0-0.1,0.1
		c0,0.1-0.1,0.1-0.1,0.2s0,0.2,0,0.3c0,0.1,0,0.1,0,0.2s0.1,0.2,0.1,0.3c0,0,0,0.1,0.1,0.1l75.2,112.2l-74.9,112.4v0.1
		c0,0,0,0-0.1,0.1c0,0.1,0,0.1-0.1,0.2c0,0.1-0.1,0.2-0.1,0.3c0,0.1,0,0.2,0,0.3c0,0.1,0,0.2,0,0.3c0,0.1,0,0.2,0,0.3
		c0,0.1,0,0.2,0,0.3c0,0.1,0.1,0.2,0.1,0.3c0,0.1,0,0.1,0.1,0.2c0,0,0,0.1,0.1,0.1v0.1l75.7,113.8c0.4,0.6,1.1,1.2,1.8,1.2h115.7
		c1.2,0,2.2-1.2,2.2-2.4c0-0.5-0.2-1.2-0.5-1.5L875.8,684.3z M364.1,200.8c-7.2-14.3-16.3-32.1-12.8-43.4
		c2.7-8.5,9.8-14.9,16.5-14.9c3.1,0,5.8,1.4,7.8,4c0.5,0.9,1.1,1.7,1.6,2.6l3.7-2.2c-0.5-1-1.1-1.9-1.7-2.8
		c-9.6-16.3-17.7-46.2-22.1-82c-3.7-30.4-3.1-50.6-1.6-56.4c1.1,1.5,2.6,3.8,4.2,6.1c13.5,19.6,45.1,65.3,73.3,65.3
		c2.9,0,5.7-0.5,8.4-1.4l2.7-1l-1.6-2.3c-4.3-6.2-8.5-12.8-12.7-19c-7.7-11.8-15.6-24-24.3-34.2c7.7,3.8,21,12.1,31.4,18.6
		c11.2,7,22.9,14.4,30.4,18.5l9.1,5l-6.3-8.2c-5.2-6.7-4.8-25.3-3.2-31.3c1.2,1.5,3,3.8,4.9,6.2c12,15.6,34.2,44.6,54.6,44.6
		c3.1,0,6.2-0.8,9-2.2l3.1-1.5l-2.7-2.1c-13.5-10.3-22.8-26.7-25.3-33.6c11.4,11.4,31.7,26.3,32.5,26.8c0.1,0.1,9.9,7.8,21,15.2
		c3.7,2.5,7.6,4,11.4,5.4c5.8,2.3,11.5,4.4,15.7,9.8c5.4,6.9,7.5,18.2,8.8,28.1c3.2,24.9,2.9,55.2-0.9,86.8
		c-2.5-11.8-7-20.7-14.5-32.8c-4.4-7.1-11.7-10.9-21.1-10.9c-11.6,0-22.9,5.4-28.8,8.7c-13.7,7.8-29,11.9-44.1,11.9
		c-10.2,0-20.2-1.8-30-5.4c-5.6-2.1-11.2-4.6-16.8-7.2c-11.9-5.7-24.3-11.5-37.3-11.5h-0.1c-21.6,0-30.1,24.1-38.6,50.2
		C366.6,205.9,365.4,203.3,364.1,200.8z M483.4,368.4c-50.7,0-95.6-42.5-109.1-103.5l-0.5-2.3l-2.2,0.6c-1.3,0.3-2.5,0.5-3.7,0.5
		c-7.8,0-14.1-6.5-14.1-14.5c0-8,6.3-14.5,14.1-14.5c0.1,0,0.2,0,0.2,0h2.3l-0.1-2.3c-0.1-1.9-0.1-3.6-0.1-5.1
		c0-4.9,0.2-9.7,0.5-14.5h-0.2l0.8-2.2c8.7-26.2,16-48.8,35-48.8c12,0,23.4,5.4,35.4,11.2c5.5,2.7,11.4,5.4,17.1,7.6
		c10.2,3.8,20.8,5.6,31.5,5.6c15.8,0,31.8-4.3,46.2-12.4c9.2-5.2,18.9-8.1,26.6-8.1c7.9,0,13.7,3,17.4,8.9
		c9.3,15.1,14.1,24.8,15.8,44.3c0.1,2.7,0.2,5.5,0.2,8.3c0,1.5,0,3.1-0.1,5.1l-0.1,2.3h2.3h0.1c7.8,0,14.1,6.6,14.1,14.5
		c0,8-6.3,14.5-14.1,14.5c-1.2,0-2.4-0.2-3.6-0.5l-2.2-0.5l-0.5,2.2C579,325.9,534.1,368.4,483.4,368.4z M755.7,380v0.6v40.6
		l-73.3,63.5c-6.6,4-29.2,14.8-47.8-7.9c-9.9-12.2-19.6-23.2-27.8-32.4l42.4-42.2c10.8,13.8,15.9,20.3,18.2,23.4
		c0.1,0.2,0.2,0.4,0.3,0.6c0.1,0.1,0.2,0.2,0.2,0.3l-4.6,3.5c-1,0.8-1.2,2.1-0.4,3c0.8,1,2.1,1.2,3,0.4l83.2-62.5
		c0.3-0.2,0.5-0.5,0.6-0.9c1.9-4.4,6.2-13.7,9.8-21c3.1-6.2,7.2-11.8,9.6-13.4c0.3-0.2,0.5-0.3,0.8-0.3c0.6,0.5,1.3,1.2,1.7,1.9
		c0.4,1.4,0.8,3.9,0.8,8.2c-0.1,1.6-0.4,3.4-1,5.2c-4.1,12.9-15.2,27.9-15.4,28.1C755.7,379,755.7,379.6,755.7,380z M760,422.2
		v-40.9c1.1-2.2,6.5-9.4,10.8-17.7v4c0,1.2,0.6,2.4,1.8,2.4h83.7c1.2,0,2.1-1.2,2.1-2.4V360c0-1.2-0.9-1.9-2.1-1.9h-83.2
		c1-2.2,1.8-4.4,2.4-6.6c0.8-2.6,1.3-5.3,1.5-7.5h47c1.2,0,1.8-1.4,1.8-2.6v-35c0-1.2-0.6-2.3-1.8-2.3h-48.6c-1.2,0-2.6,1.1-2.6,2.3
		v25.5c0-0.3-0.6-0.6-1.2-0.8c-0.5-0.2-1-0.3-1.6-0.3c-0.5,0-1,0.1-1.5,0.3c-2.1,0.6-4.2,2.5-6.7,5.5c-0.6,0.8-1.9,1.8-1.9,3.1
		v-47.6h111.4v163.3H760V422.2z M761.5,459.7h110.5l72.8,109.2H834.4L761.5,459.7z M834.4,573.2h110.5l-72.8,109.2H761.5
		L834.4,573.2z M834.4,796l-72.8-109.2h110.5L944.9,796H834.4z"/>
	<path fill="#E800BC" d="M856.3,386.2H773c-1.2,0-2.2,1-2.2,2.2v2.2c0,1.2,1,2.2,2.2,2.2h83.3c1.2,0,2.2-1,2.2-2.2v-2.2
		C858.4,387.1,857.5,386.2,856.3,386.2z"/>
	<path fill="#E800BC" d="M773,403.5h55.2c1.2,0,2.2-1,2.2-2.2v-2.2c0-1.2-1-2.2-2.2-2.2H773c-1.2,0-2.2,1-2.2,2.2v2.2
		C770.8,402.6,771.8,403.5,773,403.5z"/>
	<path fill="#E800BC" d="M773,414.3h44.3c1.2,0,2.2-1,2.2-2.2v-2.2c0-1.2-1-2.2-2.2-2.2H773c-1.2,0-2.2,1-2.2,2.2v2.2
		C770.8,413.4,771.8,414.3,773,414.3z"/>
	<path fill="#E800BC" d="M833.6,418.6H773c-1.2,0-2.2,1-2.2,2.2v2.2c0,1.2,1,2.2,2.2,2.2h60.6c1.2,0,2.2-1,2.2-2.2v-2.2
		C835.7,419.6,834.8,418.6,833.6,418.6z"/>
	<path fill="#E800BC" d="M874.7,479.2V477c0-1.2-1-2.2-2.2-2.2h-83.3c-1.2,0-2.2,1-2.2,2.2v2.2c0,1.2,1,2.2,2.2,2.2h83.3
		C873.7,481.3,874.7,480.5,874.7,479.2z"/>
	<path fill="#E800BC" d="M854.1,488.9v-2.2c0-1.2-1-2.2-2.2-2.2h-55.2c-1.2,0-2.2,1-2.2,2.2v2.2c0,1.2,1,2.2,2.2,2.2h55.2
		C853.1,491.1,854.1,490.2,854.1,488.9z"/>
	<path fill="#E800BC" d="M849.8,499.7v-2.2c0-1.2-1-2.2-2.2-2.2h-44.3c-1.2,0-2.2,1-2.2,2.2v2.2c0,1.2,1,2.2,2.2,2.2h44.3
		C848.8,501.9,849.8,501,849.8,499.7z"/>
	<path fill="#E800BC" d="M873.6,510.5v-2.2c0-1.2-1-2.2-2.2-2.2h-60.6c-1.2,0-2.2,1-2.2,2.2v2.2c0,1.2,1,2.2,2.2,2.2h60.6
		C872.6,512.7,873.6,511.8,873.6,510.5z"/>
	<path fill="#E800BC" d="M901.7,521.3v-2.2c0-1.2-1-2.2-2.2-2.2h-83.3c-1.2,0-2.2,1-2.2,2.2v2.2c0,1.2,1,2.2,2.2,2.2h83.3
		C900.7,523.5,901.7,522.6,901.7,521.3z"/>
	<path fill="#E800BC" d="M881.1,531.1v-2.2c0-1.2-1-2.2-2.2-2.2h-55.2c-1.2,0-2.2,1-2.2,2.2v2.2c0,1.2,1,2.2,2.2,2.2H879
		C880.2,533.2,881.1,532.4,881.1,531.1z"/>
	<path fill="#E800BC" d="M876.8,541.9v-2.2c0-1.2-1-2.2-2.2-2.2h-44.3c-1.2,0-2.2,1-2.2,2.2v2.2c0,1.2,1,2.2,2.2,2.2h44.3
		C875.8,544,876.8,543.2,876.8,541.9z"/>
	<path fill="#E800BC" d="M898.4,548.4h-60.6c-1.2,0-2.2,1-2.2,2.2v2.2c0,1.2,1,2.2,2.2,2.2h60.6c1.2,0,2.2-1,2.2-2.2v-2.2
		C900.6,549.3,899.6,548.4,898.4,548.4z"/>
	<path fill="#E800BC" d="M874.5,653.6l45.2-67.3c0.8-1.2,0.3-2.2-1.1-2.2h-71.6c-1.4,0-3.1,1.1-4,2.3l-45.2,67
		c-0.8,1.2-0.3,1.9,1.1,1.9h71.6C872,655.4,873.7,654.8,874.5,653.6z"/>
	<path fill="#E800BC" d="M855.2,661.9h-60.6c-1.2,0-2.2,1-2.2,2.2v2.2c0,1.2,1,2.2,2.2,2.2h60.6c1.2,0,2.2-1,2.2-2.2v-2.2
		C857.4,662.9,856.4,661.9,855.2,661.9z"/>
	<path fill="#E800BC" d="M787.1,699.8v2.2c0,1.2,1,2.2,2.2,2.2h83.3c1.2,0,2.2-1,2.2-2.2v-2.2c0-1.2-1-2.2-2.2-2.2h-83.3
		C788,697.6,787.1,698.6,787.1,699.8z"/>
	<path fill="#E800BC" d="M854.1,712.7v-2.2c0-1.2-1-2.2-2.2-2.2h-55.2c-1.2,0-2.2,1-2.2,2.2v2.2c0,1.2,1,2.2,2.2,2.2h55.2
		C853.1,714.9,854.1,714,854.1,712.7z"/>
	<path fill="#E800BC" d="M849.8,723.5v-2.2c0-1.2-1-2.2-2.2-2.2h-44.3c-1.2,0-2.2,1-2.2,2.2v2.2c0,1.2,1,2.2,2.2,2.2h44.3
		C848.8,725.7,849.8,724.8,849.8,723.5z"/>
	<path fill="#E800BC" d="M873.6,734.4v-2.2c0-1.2-1-2.2-2.2-2.2h-60.6c-1.2,0-2.2,1-2.2,2.2v2.2c0,1.2,1,2.2,2.2,2.2h60.6
		C872.6,736.5,873.6,735.7,873.6,734.4z"/>
	<path fill="#E800BC" d="M814.1,741.9v2.2c0,1.2,1,2.2,2.2,2.2h83.3c1.2,0,2.2-1,2.2-2.2v-2.2c0-1.2-1-2.2-2.2-2.2h-83.3
		C815.1,739.8,814.1,740.7,814.1,741.9z"/>
	<path fill="#E800BC" d="M881.1,754.9v-2.2c0-1.2-1-2.2-2.2-2.2h-55.2c-1.2,0-2.2,1-2.2,2.2v2.2c0,1.2,1,2.2,2.2,2.2H879
		C880.2,757.1,881.1,756.2,881.1,754.9z"/>
	<path fill="#E800BC" d="M876.8,765.7v-2.2c0-1.2-1-2.2-2.2-2.2h-44.3c-1.2,0-2.2,1-2.2,2.2v2.2c0,1.2,1,2.2,2.2,2.2h44.3
		C875.8,767.9,876.8,767,876.8,765.7z"/>
	<path fill="#E800BC" d="M898.4,771.1h-60.6c-1.2,0-2.2,1-2.2,2.2v2.2c0,1.2,1,2.2,2.2,2.2h60.6c1.2,0,2.2-1,2.2-2.2v-2.2
		C900.6,772.1,899.6,771.1,898.4,771.1z"/>
</g>
<g id="shadow-face_1_" opacity="0.1">
	<g>
		<path fill="#E800BC" d="M600.3,119.5c-0.8-10.9-2.4-16.8-9-28.2c-4.1-7.1-10.8-8.5-17.4-11.2c14.8,32.5,18.2,56.7,4,85.4
			c3.4,1.5,4,3.5,6.3,7c9.7,15.8,10.1,15.7,14.3,35.8C602.2,177.6,602.8,155.1,600.3,119.5z"/>
	</g>
</g>
<g id="shadow-face" opacity="0.1">
	<g>
		<path fill="#E800BC" d="M471.3,369c-20.3-0.2,7.8,0.8,11.8,0.8c53.1,0,97.8-44.6,111.2-105.1c1.3,0.3,2.7,0.5,4.1,0.5
			c9,0,16.2-7.5,16.2-16.7s-7.2-16.7-16.2-16.7h-0.1c0-1.7,0.1-3.5,0.1-5.2c0-13.4-4.2-38.6-4.2-38.6
			C590.1,269.3,533.9,369.7,471.3,369z"/>
	</g>
</g>
<g id="shadow-shoulder" opacity="0.1" enable-background="new    ">
	<path fill="#E800BC" d="M557.2,338.6c0,0,41.7-0.8,86.3,56.2c35.8,45.9,24.9,32.1,24.9,32.1l-6.7,5L637,400
		c-17.7-24.4-65.6-54.3-86.2-55L557.2,338.6z"/>
</g>
</svg>
