<?xml version="1.0" encoding="utf-8"?>
<!-- Generator: Adobe Illustrator 18.1.1, SVG Export Plug-In . SVG Version: 6.00 Build 0)  -->
<svg version="1.1" id="Layer_1" xmlns="http://www.w3.org/2000/svg" xmlns:xlink="http://www.w3.org/1999/xlink" x="0px" y="0px"
	 viewBox="0 0 200 204" enable-background="new 0 0 200 204" xml:space="preserve">
<path fill="#E800BC" d="M87.8,131.5c1.1,0,2,0.4,2.8,1.2c0.8,0.8,1.2,1.7,1.2,2.8c0,1.1-0.4,2-1.2,2.8c-0.8,0.8-1.7,1.2-2.8,1.2
	H62.2c-1.2,0-2.2-0.4-3-1.3s-1.1-1.8-1-2.9s0.5-2,1.3-2.8l21.3-19.3c2-1.8,3-4,3-6.6s-0.9-4.8-2.6-6.7C79.5,98,77.4,97,74.8,97
	c-2.6,0-4.8,0.8-6.6,2.4l-2.2,2c-0.8,0.8-1.8,1.1-2.8,1c-1.1-0.1-2-0.5-2.8-1.3c-0.7-0.8-1.1-1.8-1-2.8c0-1.1,0.5-2,1.3-2.8l2.2-2
	c3.2-3,7.2-4.5,12-4.5c4.8,0,9,1.9,12.4,5.7c3,3.2,4.5,7.2,4.5,12c0,4.8-1.9,9-5.7,12.4l-13.6,12.3H87.8z"/>
<path fill="#E800BC" d="M130.3,131.5c1.1,0,2,0.4,2.8,1.2c0.8,0.8,1.2,1.7,1.2,2.8c0,1.1-0.4,2-1.2,2.8c-0.8,0.8-1.7,1.2-2.8,1.2
	h-25.6c-1.2,0-2.2-0.4-3-1.3s-1.1-1.8-1-2.9s0.5-2,1.3-2.8l21.3-19.3c2-1.8,3-4,3-6.6s-0.9-4.8-2.6-6.7c-1.7-1.9-3.8-2.8-6.4-2.8
	c-2.6,0-4.8,0.8-6.6,2.4l-2.2,2c-0.8,0.8-1.8,1.1-2.8,1c-1.1-0.1-2-0.5-2.8-1.3c-0.7-0.8-1.1-1.8-1-2.8c0-1.1,0.5-2,1.3-2.8l2.2-2
	c3.2-3,7.2-4.5,12-4.5c4.8,0,9,1.9,12.4,5.7c3,3.2,4.5,7.2,4.5,12c0,4.8-1.9,9-5.7,12.4L115,131.5H130.3z"/>
<path fill="none" stroke="#E800BC" stroke-width="4" stroke-linecap="round" stroke-linejoin="round" stroke-miterlimit="10" d="
	M97.1,147.1"/>
<path fill="#E800BC" d="M0,187.2c0,3.3,2.3,5.8,5.6,5.8h179.3c3.3,0,6.1-2.5,6.1-5.8V18.4c0-3.3-2.8-6.5-6.1-6.5H165V6.3
	c0-3.5-3-6.3-6.5-6.3C155,0,152,2.8,152,6.3V12H37V6.6c0-3.5-2.5-6.3-6-6.3c-3.5,0-6,2.8-6,6.3V12H5.6C2.3,12,0,15,0,18.3 M156,16
	c0-1,0-3,0-4V6.3c0-1.3,1.2-2.3,2.5-2.3s2.5,1,2.5,2.3V12c0,1.4,0,2.4,0,4v6.6c0,1.3-1.2,2.3-2.5,2.3s-2.5-1-2.5-2.3V16z M29,16
	c0-1,0-3,0-4V6.6c0-1.3,0.7-2.3,2-2.3c1.3,0,2,1,2,2.3V12c0,1,0,3,0,4v6.9c0,1.3-0.7,2.3-2,2.3c-1.3,0-2-1-2-2.3V16z M5.6,16H25v6.9
	c0,3.5,2.5,6.3,6,6.3c3.5,0,6-2.8,6-6.3V16h115v6.6c0,3.5,3,6.3,6.5,6.3c3.5,0,6.5-2.8,6.5-6.3V16h19.9c1.1,0,2.1,1.4,2.1,2.5v22
	l-4.5-5.6c-0.4-0.5-0.9-0.9-1.5-0.9c0,0,0,0,0,0c-0.6,0-1.2,0.4-1.5,0.8l-6.8,8.2l-8.2-8.2c-0.4-0.4-0.9-0.6-1.5-0.6
	c-0.6,0-1.1,0.3-1.4,0.7l-7.2,8.1l-8.4-8.2c-0.8-0.7-1.9-0.8-2.7-0.1l-9.2,8.2l-5.1-7.8c-0.3-0.5-0.8-0.8-1.3-0.9
	c-0.5-0.1-1.1,0-1.6,0.4l-11,8.4l-5.2-7.9c-0.3-0.5-0.8-0.8-1.4-0.9c-0.5-0.1-1.1,0.1-1.6,0.4l-12.7,10l-11.1-10
	c-0.8-0.7-1.9-0.7-2.7,0L71,43.2l-8.7-8.4c-0.7-0.7-1.8-0.8-2.6-0.2l-12.3,8.8l-9.1-8.6c-0.8-0.7-2-0.7-2.7,0l-9.1,8.5l-10.8-8.6
	c-0.7-0.6-1.7-0.6-2.5,0l-9.3,7V18.4C4,17.3,4.5,16,5.6,16z M184.9,189H5.6c-1.1,0-1.6-0.7-1.6-1.8V46.7l10.5-7.9l10.9,8.8
	c0.8,0.6,1.9,0.6,2.6-0.1L37,39l8.9,8.4c0.7,0.7,1.8,0.7,2.5,0.2l12.3-8.8l8.8,8.6c0.8,0.7,1.9,0.8,2.7,0.1l9.6-8.5l11,9.9
	c0.4,0.3,0.9,0.5,1.3,0.5c0.4,0,0.9-0.1,1.2-0.4l12.3-9.7l5.2,7.9c0.3,0.5,0.8,0.8,1.3,0.9c0.5,0.1,1.1,0,1.6-0.4l11-8.4L132,47
	c0.3,0.5,0.8,0.8,1.4,0.9c0.6,0.1,1.2-0.1,1.6-0.5l9.5-8.5l8.5,8.4c0.4,0.4,0.9,0.6,1.5,0.6c0.5,0,1.1-0.3,1.4-0.7l7.2-8.1l8.2,8.2
	c0.4,0.4,0.9,0.6,1.5,0.6c0.6,0,1.1-0.3,1.4-0.7l6.6-7.9l6.1,7.4v140.4C187,188.3,186,189,184.9,189z"/>
<path fill="#E800BC" d="M198,204H8c-1.1,0-2-0.9-2-2s0.9-2,2-2h188V33c0-1.1,0.9-2,2-2s2,0.9,2,2v169C200,203.1,199.1,204,198,204z"
	/>
</svg>
