<?xml version="1.0" encoding="utf-8"?>
<!-- Generator: Adobe Illustrator 18.1.1, SVG Export Plug-In . SVG Version: 6.00 Build 0)  -->
<svg version="1.1" id="Layer_1" xmlns="http://www.w3.org/2000/svg" xmlns:xlink="http://www.w3.org/1999/xlink" x="0px" y="0px"
	 viewBox="0 0 366 333.3" enable-background="new 0 0 366 333.3" xml:space="preserve">
<path fill="#E800BC" d="M360.7,25.7h-3h-1.9H198.6L181.6,2.1c-1-1.3-2.6-2.1-4.4-2.1s-3.5,0.8-4.4,2.1l-17.1,23.6H9.5h-1H4.7
	C2,25.7,0,27.9,0,30.5v14.7c0,2.7,2.1,4.9,4.8,4.9h0.2C5.6,50.1,6,50,7,49.7v226c0,3.3,2.2,6,5.5,6h168.6l-0.1,27.8
	c-5.7,1-10,5.9-10,11.8c0,6.6,5.4,12,12,12c6.6,0,12-5.4,12-12c0-5.9-4.3-10.9-10-11.8l0.1-27.8h168.6c3.3,0,6.3-2.7,6.3-6V50
	c0,0.1,0.5,0.1,0.8,0.1h0.1c2.7,0,5-2.2,5-4.9V30.5C366,27.9,363.4,25.7,360.7,25.7z M191,321.3c0,4.4-3.6,8-8,8s-8-3.6-8-8
	s3.6-8,8-8S191,316.9,191,321.3z M176,4.5c0.4-0.6,1.9-0.6,2.3,0l15.4,21.2h-33.1L176,4.5z M356,275.7c0,1.1-1.2,2-2.3,2H12.5
	c-1.1,0-1.5-0.9-1.5-2v-246h345V275.7z"/>
<path fill="#E800BC" d="M114.2,166.4l2.6-79.3c-38,0.6-68.6,31.6-68.6,69.7c0,38.5,31.2,69.7,69.7,69.7s69.7-31.2,69.7-69.7
	c0-3.3-0.2-6.6-0.7-9.7L114.2,166.4z"/>
<path fill="#E800BC" d="M128.6,72.7c-0.4,0-0.8,0-1.1,0l-2.6,79.3l72.8-19.4C192.8,98.7,163.8,72.7,128.6,72.7z"/>
<path fill="#E800BC" d="M330,132.7h-94c-2.2,0-4-1.8-4-4s1.8-4,4-4h94c2.2,0,4,1.8,4,4S332.2,132.7,330,132.7z"/>
<path fill="#E800BC" d="M305,158.7h-69c-2.2,0-4-1.8-4-4s1.8-4,4-4h69c2.2,0,4,1.8,4,4S307.2,158.7,305,158.7z"/>
<path fill="#E800BC" d="M315,183.7h-79c-2.2,0-4-1.8-4-4s1.8-4,4-4h79c2.2,0,4,1.8,4,4S317.2,183.7,315,183.7z"/>
</svg>
