<?xml version="1.0" encoding="utf-8"?>
<!-- Generator: Adobe Illustrator 18.1.1, SVG Export Plug-In . SVG Version: 6.00 Build 0)  -->
<svg version="1.1" id="Layer_1" xmlns="http://www.w3.org/2000/svg" xmlns:xlink="http://www.w3.org/1999/xlink" x="0px" y="0px"
	 viewBox="463.3 0.1 353.4 799.9" enable-background="new 463.3 0.1 353.4 799.9" xml:space="preserve">
<g>
	<path fill="#E800BC" d="M559.8,301.2c-1.6-5.9-0.7-12.3,2.2-17.6c3.1-5.3,7.9-9.2,13.9-10.7c5.8-1.5,12-0.6,17.2,2.6
		c5.2,3.2,9,8.2,10.5,14.3l-4.8,1.2c-1.2-4.7-4.2-8.7-8.3-11.3c-4.1-2.5-8.9-3.2-13.5-2s-8.4,4.1-10.8,8.3c-2.4,4.2-3,9.2-1.7,13.9
		L559.8,301.2z"/>
</g>
<g>
	<path fill="#E800BC" d="M724.2,300.5l-4.8-1.1c1.1-4.8,0.2-9.7-2.2-13.8c-2.5-4.1-6.4-6.9-11-7.9c-4.6-1-9.4-0.1-13.4,2.5
		c-4.1,2.6-6.8,6.7-7.9,11.5l-4.8-1.1c1.4-6.1,5-11.3,10-14.6c5.2-3.3,11.3-4.5,17.2-3.1c5.9,1.4,11,5,14.3,10.2
		C724.4,288.2,725.4,294.4,724.2,300.5z"/>
</g>
<g>
	<path fill="#E800BC" d="M635.2,375.6c-10.9,0-19.8-8.9-19.8-19.8c0-0.4,0-0.7,0-1.1l0.1-2.5h39.2l0.1,2.5c0,0.4,0,0.7,0,1.1
		C655.1,366.7,646.1,375.6,635.2,375.6z M620.5,357.1c0.6,7.6,7.1,13.5,14.7,13.5c7.7,0,14.1-5.9,14.7-13.5H620.5z"/>
</g>
<g opacity="0.1">
	<path fill="#E800BC" d="M626.6,438.2c-23.3-0.2,8.9,0.9,13.5,0.9c60.8,0,112-51.1,127.4-120.4c1.5,0.4,3.1,0.6,4.7,0.6
		c10.3,0,18.6-8.6,18.6-19.1s-8.3-19.1-18.6-19.1H772c0-2,0.1-4,0.1-5.9c0-15.4-4.8-44.2-4.8-44.2
		C762.7,323.9,698.3,439,626.6,438.2z"/>
</g>
<g opacity="0.1">
	<path fill="#E800BC" d="M777.7,28.1c16.1,39-2.5,86.2-30.7,96.3c0,0,8.6,13.9,12.4,14.5C767.2,140.4,825.1,87.4,777.7,28.1z"/>
</g>
<g opacity="0.1">
	<path fill="#E800BC" d="M757.5,144.7c9,18.3,14.1,76.1-3,84c13.6,5.8,18.8,11.6,24,18.8C794.5,222.9,778.6,163.7,757.5,144.7z"/>
</g>
<path fill="#E800BC" d="M816.6,518.8c0.9-27.9-7.3-57-22.3-79.7c-16-24.2-38.2-38.4-62.8-40.6c17.7-20.1,31.2-46.2,38.3-76.1
	c1,0.1,1.9,0.2,2.9,0.2c11.6,0,21.2-9.7,21.2-21.6c0-11-8.1-20.2-18.6-21.4c0-1.2,0.2-2.5,0.2-3.6v-2.2c0-10.7-0.2-17-1.5-24.9
	c0.9,1.4,1.7,3,2.6,4.7l1.6,3.2l2.4-2.9c13.5-16.1,12.4-50.9-2.9-84.8c-4.2-9.3-9.3-18.1-15.1-26.1c23.9-12,37.7-36.3,37.7-67
	c0-41.9-32.2-76-71.9-76c-39.5,0-71.9,34.1-71.9,76v1c0,3.3,0,5.5,0.4,8.1c-1.5-0.1-2.9-0.1-4.3-0.1c-1,0-2.1,0-3.2,0
	c-17.2,0-61.5,3.5-99.1,35.1c-37.1,31.1-56,78.9-56,142.1v5.3l4.3-3.3c2.6-2.1,5.1-4.1,7.3-5.8c-0.5,4.1-0.4,6.4-0.2,10.2
	c0,2,0.1,4.3,0.1,7.6c0,1.1,0,2.2,0,3.6c-10.7,1.1-18.8,10.3-18.8,21.4c0,11.9,9.4,21.6,21.1,21.6c1,0,2-0.1,3.1-0.2
	c6.9,29.9,20.4,55.9,38.2,76.1c-24.9,1.9-47.5,16.2-63.6,40.6c-15,22.7-23,51.7-22.3,79.7c1.6,52.9,0,276.5,0,278.7
	c0,1.4,1.1,2.5,2.5,2.5l0,0c1.4,0,2.5-1,2.5-2.4c0-1.7,1-135.2,0.6-220.7h59.9v207.3c0,1.4,1.1,2.5,2.5,2.5c1.4,0,2.5-1.1,2.5-2.5
	V506.6c0-1.4-1.1-2.5-2.5-2.5c-1.4,0-2.5,1.1-2.5,2.5v65.6h-59.9c-0.1-23.5-0.2-42-0.6-53.3c-1.6-53.9,31.6-113.3,83.6-115.5
	c0.5,0,1-0.2,1.4-0.5c23.8,24.9,54.4,39.5,87.1,39.5c32.6,0,63.1-14.6,86.9-39.4c0.2,0.1,0.5,0.1,0.7,0.1
	c52,2.2,85.3,61.6,83.6,115.5c-0.4,11.3-0.5,29.7-0.6,53.3h-60.3v-65.6c0-1.4-1.1-2.5-2.5-2.5c-1.4,0-2.5,1.1-2.5,2.5V784
	c0,1.4,1.1,2.5,2.5,2.5c1.4,0,2.5-1.1,2.5-2.5V577h60.3c-0.2,85.5,0.6,219,0.6,220.7c0,1.4,1.1,2.4,2.5,2.4l0,0
	c1.4,0,2.5-1.1,2.5-2.5C816.6,795.3,815,571.7,816.6,518.8z M661.5,76c0-39.2,30.1-71,66.9-71c36.8,0,66.9,31.8,66.9,71
	c0,29.1-13,51.9-35.7,62.9c-5.8-7.6-12.1-14.4-19.2-20.6c2.1-0.6,4.7-1.7,7.4-3.5c5.9-3.8,13.6-11.6,16.4-27.1l-4.8-0.9
	c-4.1,23-19.7,26.9-23.7,27.5c-1.1-0.9-2.2-1.7-3.3-2.6c-20.4-15.4-44.1-24.3-70.5-26.5c-0.5-2.7-0.5-4.7-0.5-8.4V76H661.5z
	 M499.7,257c1-59.1,19.2-103.8,54-133.2c36.4-30.6,79.1-34,95.8-34c1,0,2.1,0,3.1,0c29.1,0.6,55,9.4,77,26
	c23.4,17.6,36.7,39.9,43.6,55.4c13.4,29.6,15.5,60.8,5.8,76.6c-2.4-4-4.7-6.8-7.3-9.2c0-0.2-0.1-0.4-0.1-0.6l-0.5,0.1
	c-4.7-4.1-10-6.3-16.9-9.2c-6.8-2.9-15.4-6.4-26.8-13.4c-25.7-15.6-11.9-49.7-8.3-57.2c1.7-1.9,2.5-3.1,1.9-4.6l-0.6-1.7h-1.7
	c-1,0-1.7,0.7-2.6,1.6l-0.4,0.5l-0.2,0.5c0,0-0.1,0.4-0.5,1c-2.5,2.6-7.3,7.6-14.5,14.5c-17.1,17-78.9,48.6-101.9,58.1
	c13.4-13.3,31.4-38.9,41.6-54.3l0,0c4.8-5.7,7.6-10,7.6-12.1v-8.4l-4.6,7.1c0,0-2.7,4.2-6.9,10.5c-5.8,6.9-18.1,19.6-43.4,41.1
	c-24.3,20.8-34.4,21.6-45.2,22.6C536.6,235.6,525.2,236.6,499.7,257z M640.4,437.5c-58.1,0-109.5-48.7-125-118.6l-0.6-2.6l-2.5,0.7
	c-1.5,0.4-2.9,0.6-4.2,0.6c-8.9,0-16.1-7.4-16.1-16.6s7.2-16.6,16.1-16.6l0,0c0.1,0,0.2-0.1,0.2-0.1h2.6l-0.1-2.6
	c-0.1-2.2-0.1-4.1-0.1-5.8c0-3.3-0.1-5.8-0.1-7.7c-0.1-4.8-0.2-7.1,1-14.1c18.2-13,27.4-13.8,36.4-14.5c11-0.9,22.6-1.9,48.2-23.8
	c8.7-7.4,16.5-14.3,23-20.4c-9.9,13.5-20.8,27.1-28.7,33.5c-1.6,1.2-3.7,3-3,5.2c0.1,0.5,0.9,1.9,3,1.9c9.8,0,94.3-43.5,113.5-62.5
	c2.5-2.4,4.6-4.6,6.4-6.4c-1.5,4.7-2.7,10.3-3.1,16.4c-1,16.2,5,28.7,17.5,36.3c11.8,7.2,20.4,10.8,27.5,13.8
	c6.3,2.6,11.2,4.6,15.1,7.8c2.9,12.5,3.1,18.7,3.1,32.5v2.2c0,1.7-0.2,3.7-0.4,5.9l-0.2,2.6h2.6l0.1-0.1c8.9,0,16.1,7.4,16.1,16.6
	s-7.2,16.6-16.1,16.6c-1.4,0-2.7-0.2-4.1-0.6l-2.5-0.6l-0.6,2.5C750,388.7,698.6,437.5,640.4,437.5z"/>
<g opacity="0.1">
	<path fill="#E800BC" d="M715.5,414.4c0,0,30.1,11.3,60.1,47.1c15.2,19.7,15.2,73.5,15.2,110.2c0,0,11.5,0.1,20.1,0
		c0.9-50.9,5.9-94.1-17.5-124.4c-7.4-15.5-26.1-44.2-65.3-44.1C725.1,404.2,715.5,414.4,715.5,414.4z"/>
</g>
</svg>
