<?xml version="1.0" encoding="utf-8"?>
<!-- Generator: Adobe Illustrator 18.1.1, SVG Export Plug-In . SVG Version: 6.00 Build 0)  -->
<svg version="1.1" id="Layer_1" xmlns="http://www.w3.org/2000/svg" xmlns:xlink="http://www.w3.org/1999/xlink" x="0px" y="0px"
	 viewBox="0 0 372.6 598" enable-background="new 0 0 372.6 598" xml:space="preserve">
<path fill="#E800BC" d="M119.5,195.4c-1.3-4.8-0.6-9.9,1.8-14.2c2.5-4.3,6.4-7.4,11.2-8.6c4.7-1.2,9.7-0.5,13.9,2.1
	c4.2,2.6,7.3,6.6,8.5,11.5l-3.9,1c-1-3.8-3.4-7-6.7-9.1c-3.3-2-7.2-2.6-10.9-1.6c-3.7,1-6.8,3.3-8.7,6.7c-1.9,3.4-2.4,7.4-1.4,11.2
	L119.5,195.4z"/>
<path fill="#E800BC" d="M252.1,194.9l-3.9-0.9c0.9-3.9,0.2-7.8-1.8-11.1c-2-3.3-5.2-5.6-8.9-6.4c-3.7-0.8-7.6-0.1-10.8,2
	c-3.3,2.1-5.5,5.4-6.4,9.3l-3.9-0.9c1.1-4.9,4-9.1,8.1-11.8c4.2-2.7,9.1-3.6,13.9-2.5c4.8,1.1,8.9,4,11.5,8.2
	C252.4,185,253.2,190,252.1,194.9z"/>
<path fill="#E800BC" d="M180.4,255.5c-8.8,0-16-7.2-16-16c0-0.3,0-0.6,0-0.9l0.1-2h31.6l0.1,2c0,0.3,0,0.6,0,0.9
	C196.3,248.3,189.2,255.5,180.4,255.5z M168.4,240.6c0.5,6.1,5.7,10.9,11.9,10.9s11.4-4.8,11.9-10.9H168.4z"/>
<path opacity="0.1" fill="#E800BC" d="M173.3,306c-18.8-0.2,7.2,0.7,10.9,0.7c49.1,0,90.4-41.2,102.8-97.2c1.2,0.3,2.5,0.5,3.8,0.5
	c8.3,0,15-6.9,15-15.4s-6.7-15.4-15-15.4c0,0-0.1,0-0.1,0c0-1.6,0.1-3.2,0.1-4.8c0-5,0.4-13.9-0.6-17.7c-1.4-5.5-8.6-7.2-8.6-7.2
	C280.1,222.6,231.2,306.7,173.3,306z"/>
<path fill="#E800BC" d="M96.6,359.1c-1.1,0-2,0.9-2,2v224.1c0,1.1,0.9,2,2,2s2-0.9,2-2V361.1C98.6,360,97.7,359.1,96.6,359.1z"/>
<path fill="#E800BC" d="M272.6,359.1c-1.1,0-2,0.9-2,2v224.1c0,1.1,0.9,2,2,2s2-0.9,2-2V361.1C274.6,360,273.7,359.1,272.6,359.1z"
	/>
<path fill="#E800BC" d="M371.4,75.8l-45.6-18.7c-0.3-0.6-1-1.1-1.8-1.1c0,0,0,0,0,0c-0.2,0-0.4,0-0.6,0.1l-136.3-56
	c-0.5-0.2-1-0.2-1.5,0L1.2,75.3c-0.7,0.3-1.2,1-1.2,1.8C0,78,0.5,78.7,1.2,79l72.4,31.3v46.3c0,0.8,0.4,1.5,1.1,1.8
	c0.3,0.1,0.4,0.2,0.7,0.2c0.1,0,0.2,0,0.2-0.1v16.5c0,0.9,0.2,1.8,0.2,2.9c-8.6,0.9-15.1,8.3-15.1,17.3c0,9.6,7.7,17.4,17.1,17.4
	c0.8,0,1.7-0.1,2.5-0.2c5.6,24.1,16.5,45.1,30.8,61.4c-5,0.4-9.9,1.4-14.7,3c0,0,0,0-0.1,0c-14.2,4.8-26.8,15-36.6,29.8
	c-12.1,18.3-18.7,41.7-18,64.3c1.3,42.7,0,223.1,0,224.9c0,1.1,0.9,2,2,2c0,0,0,0,0,0c1.1,0,2-0.9,2-2c0-1.8,1.3-182.3,0-225.1
	c-1.1-37.4,18.5-77.9,50.6-89.7c8,7.3,69.3,64.8,82.1,111.2c0.2,0.9,1,1.6,1.9,1.6c0,0,0,0,0,0c0.9,0,1.7-0.7,1.9-1.6
	c13.3-49.2,84.3-108.2,88.7-111.8c33.1,11.1,53.4,52.3,52.3,90.3c-1.3,42.8,0,223.3,0,225.1c0,1.1,0.9,2,2,2c0,0,0,0,0,0
	c1.1,0,2-0.9,2-2c0-1.8-1.3-182.2,0-224.9c0.7-22.5-5.9-46-18-64.3c-13-19.7-31.1-31.3-51.3-32.8c14.3-16.2,25.2-37.2,30.8-61.3
	c0.8,0.1,1.5,0.2,2.3,0.2c9.4,0,17-7.8,17-17.4c0-8.9-6.6-16.3-15.1-17.3c0-1,0-2,0-2.9l-0.1-16.5c0.4,0.1,0.9,0.1,1.3-0.1
	c0.7-0.3,1.1-1,1.1-1.8v-46.3l26.2-10.7l-0.2,33.7c-3.4,1-5.8,4.2-5.8,7.9c0,3.4,2.1,6.3,5,7.6l-6,38.2l2,0.3l4.9-30.9l-1.5,31.5
	l2,0.1l1.6-32.4l3.9,32.5l2-0.2l-4-34l7,33.4l2-0.4l-7.9-37.9c3.3-1.1,5.7-4.2,5.7-7.8c0-4-2.9-7.3-6.6-8.1l0.2-35.1l45.6-18.5
	c0.8-0.3,1.2-1,1.2-1.8S372.2,76.1,371.4,75.8z M134.8,315c-14.7-16.8-28.5-30.1-34.1-35.3c4-1.1,8.2-1.8,12.5-2
	c0.4,0,0.7-0.1,1-0.3l40.5,44.5c0.4,0.5,1,0.7,1.6,0.6c0.6,0,1.2-0.4,1.5-0.9l8-11.9l3.2,8.6l-5.9,33.3
	C155.6,340.2,146.2,328,134.8,315z M135.5,294.9c8.7,5.4,17.9,9.5,27.6,11.9l-7.1,10.6L135.5,294.9z M180.4,385.1
	c-3.1-8.8-7.8-18.3-14.1-28.4l6.8-38.1c0.1-0.3,0-0.7-0.1-1l-3.5-9.4c4.9,0.9,10,1.3,15.1,1.3c1.2,0,2.5,0,3.7-0.1l-3.8,10.2
	c-0.1,0.4-0.2,0.8-0.1,1.1l8.8,38.3c0,0.1,0,0.1,0.1,0.2C187.6,368.3,183.2,377,180.4,385.1z M229,314.6
	c-13.4,14.1-24.3,27.5-32.7,40l-7.8-34.2l3.1-8.5l8,11.9c0.3,0.5,0.8,0.8,1.4,0.9c0.6,0.1,1.1-0.1,1.6-0.5l52.9-46.4
	c0.1,0,0.3,0,0.4,0.1c3.6,0.2,7.2,0.7,10.6,1.5C260.6,284.1,245.3,297.4,229,314.6z M194.4,308.9c10.1-1.1,19.8-4,29-8.4l-21.8,19.1
	L194.4,308.9z M304.2,195.3c0,7.4-5.8,13.4-13,13.4c-1.1,0-2.2-0.2-3.3-0.5l-2-0.5l-0.5,2c-12.5,56.3-53.9,95.6-100.9,95.6
	c-46.9,0-88.4-39.3-100.9-95.7l-0.5-2.1l-2,0.6c-1.2,0.3-2.3,0.5-3.4,0.5c-7.2,0-13-6-13-13.4c0-7.4,5.8-13.4,13-13.4c0,0,0,0,0,0
	c0.1,0,0.2-0.1,0.2-0.1l2.1,0l-0.2-2.1c-0.1-1.8-0.3-3.3-0.3-4.7v-18.9c12-7,53-27.5,103.7,2.2c0.4,0.2,0.8,0.3,1.2,0.3
	c0.4,0,0.8-0.1,1.2-0.3c31.1-18.2,58.4-17.3,75.9-13.3c13.2,3,22.9,8.2,27.6,11.1l0.1,19c0,1.4,0,2.9-0.1,4.7l-0.1,2.1l2.2,0
	C298.4,181.9,304.2,187.9,304.2,195.3z M77.6,152.9V109c0,0,0,0,0,0V85.8C98.7,73.9,139,61.8,212,70.5c39.6,4.7,72.4,13.7,79.5,15.7
	V109c0,0,0,0,0,0v43.9c-4.8-3-14.9-8.5-29-11.7c-18-4.2-46.1-5.2-78,13.2c-20.8-12-40-15.7-55.8-15.7c-8.5,0-16,1.1-22.3,2.5
	C92.5,144.4,82.4,149.9,77.6,152.9z M321.8,95.4L295.6,106V84.6c0-0.9-0.6-1.7-1.4-1.9c-0.4-0.1-36.7-10.9-81.6-16.2
	c-41.6-5-99.3-6.1-138,16.4c-0.6,0.4-1,1-1,1.7V106L7.2,77.2L186.3,4.2L322,59.9L321.8,95.4z M325.8,93.7l0.2-32.2l39.3,16.2
	L325.8,93.7z"/>
<polygon opacity="0.1" fill="#E800BC" points="280.6,81.5 280.6,147.5 292.8,154.7 293.9,84.6 "/>
<path opacity="0.1" fill="#E800BC" d="M272.2,278.9l-10.6,7.1c0,0,50.9,28.4,53.9,81.9c3,53.5,9.4,145.1,9.4,145.1
	s0.5-37.3,0.5-82.1C325.4,368.8,332.8,311.2,272.2,278.9z"/>
</svg>
