<?xml version="1.0" encoding="utf-8"?>
<!-- Generator: Adobe Illustrator 18.1.1, SVG Export Plug-In . SVG Version: 6.00 Build 0)  -->
<svg version="1.1" id="Layer_1" xmlns="http://www.w3.org/2000/svg" xmlns:xlink="http://www.w3.org/1999/xlink" x="0px" y="0px"
	 viewBox="0 0 563.8 543.5" enable-background="new 0 0 563.8 543.5" xml:space="preserve">
<path opacity="0.1" fill="#E800BC" d="M389.5,183.6c-4.4-0.1,1.7,0.2,2.5,0.2c11.4,0,21-9.6,23.9-22.6c0.3,0.1,0.6,0.1,0.9,0.1
	c1.9,0,3.5-1.6,3.5-3.6c0-2-1.6-3.6-3.5-3.6c0,0,0,0,0,0c0-0.4,0-0.7,0-1.1c0-2.9-0.9-8.3-0.9-8.3
	C415,162.2,402.9,183.8,389.5,183.6z"/>
<g>
	<path fill="#E800BC" d="M377.4,158.3c-0.2,0-0.4-0.1-0.5-0.4c-0.6-2.3,0.8-4.7,3-5.3c1.1-0.3,2.3-0.1,3.3,0.5c1,0.6,1.7,1.6,2,2.7
		c0.1,0.3-0.1,0.5-0.4,0.6c-0.3,0.1-0.5-0.1-0.6-0.4c-0.2-0.9-0.8-1.6-1.5-2.1c-0.8-0.5-1.6-0.6-2.5-0.4c-1.8,0.5-2.8,2.3-2.3,4.1
		c0.1,0.3-0.1,0.5-0.4,0.6C377.5,158.3,377.5,158.3,377.4,158.3z"/>
</g>
<g>
	<path fill="#E800BC" d="M407.3,158.2c0,0-0.1,0-0.1,0c-0.3-0.1-0.4-0.3-0.4-0.6c0.2-0.9,0-1.8-0.4-2.6c-0.5-0.8-1.2-1.3-2.1-1.5
		c-0.9-0.2-1.7,0-2.5,0.5c-0.8,0.5-1.3,1.2-1.5,2.1c-0.1,0.3-0.3,0.4-0.6,0.4c-0.3-0.1-0.4-0.3-0.4-0.6c0.3-1.1,0.9-2.1,1.9-2.8
		c1-0.6,2.1-0.8,3.2-0.6c1.1,0.3,2.1,0.9,2.7,1.9c0.6,1,0.8,2.2,0.5,3.3C407.7,158.1,407.5,158.2,407.3,158.2z"/>
</g>
<g>
	<path fill="#E800BC" d="M391.1,171.9c-2.1,0-3.7-1.7-3.7-3.7c0-0.1,0-0.1,0-0.2c0-0.3,0.2-0.5,0.5-0.5h6.5c0.3,0,0.5,0.2,0.5,0.5
		c0,0.1,0,0.2,0,0.3C394.8,170.3,393.2,171.9,391.1,171.9z M388.4,168.5c0.1,1.4,1.3,2.5,2.7,2.5s2.6-1.1,2.7-2.5H388.4z"/>
</g>
<path fill="none" stroke="#E800BC" stroke-width="4" stroke-miterlimit="10" d="M363.8,164.3"/>
<path fill="none" stroke="#E800BC" stroke-width="4" stroke-miterlimit="10" d="M375.7,176.6"/>
<path fill="none" stroke="#E800BC" stroke-width="4" stroke-linecap="round" stroke-linejoin="round" stroke-miterlimit="10" d="
	M365.2,162.2"/>
<path fill="#F4E6F4" d="M432.8,125.6c-0.3,0-0.3,0.5,0,0.5C433.1,126,433.1,125.6,432.8,125.6z"/>
<path opacity="0.1" fill="#E800BC" d="M417.8,106.8c3,7.3-0.5,16.2-5.8,18.1c0,0,1.6,2.6,2.3,2.7
	C415.8,127.8,426.7,117.9,417.8,106.8"/>
<path opacity="0.1" fill="#E800BC" d="M414,128.6c1.7,3.4,2.7,14.3-0.5,15.7c2.5,1.1,3.5,2.2,4.5,3.5
	C420.9,143.3,418,132.2,414,128.6z"/>
<path opacity="0.1" fill="#E800BC" d="M420.1,200.2c-0.2-5-0.9-9.9-2.7-12.2c-5.6-6.7-11.3-8.8-11.3-8.8s1.8-1.9,2.4-2.1
	c7.3,0,10.8,5.4,12.2,8.3c2.9,3.8,3.5,8.7,3.5,14.3L420.1,200.2z"/>
<path fill="none" stroke="#E800BC" stroke-width="2" stroke-linecap="round" stroke-linejoin="round" stroke-miterlimit="10" d="
	M156.4,423.8"/>
<g>
	<path fill="#E800BC" d="M124.7,514.5c-1.2,0-2.3-0.2-3.5-0.5c-5.2-1.4-9.6-6.1-11.1-11.8c-1.6-6,0.2-12.1,4.9-16.7
		c14.1-13.8,47.7-47.7,48.1-48.1c0.4-0.4,1-0.4,1.4,0c0.4,0.4,0.4,1,0,1.4c-0.3,0.3-34,34.3-48.1,48.1c-4.1,4-5.7,9.4-4.3,14.8
		c1.3,5.1,5.1,9.2,9.7,10.4c4.4,1.2,9.1-0.4,13.3-4.5c7.7-7.7,9.1-13,8.8-16.1c-0.2-3.3-2.2-4.9-2.3-4.9c-0.4-0.3-0.5-1-0.2-1.4
		c0.3-0.4,0.9-0.5,1.4-0.2c0.1,0.1,2.8,2.1,3.1,6.3c0.4,5.1-2.8,11.1-9.4,17.8C132.8,512.7,128.8,514.5,124.7,514.5z"/>
</g>
<g>
	<path fill="#E800BC" d="M40.3,428.6c-1.4,0-2.9-0.2-4.3-0.6c-5.8-1.5-10.4-5.9-11.9-11.1c-1.4-5.2,0.4-10.6,5-15.2
		c6.7-6.7,12.6-9.8,17.8-9.4c4.2,0.3,6.2,3,6.3,3.1c0.3,0.4,0.2,1.1-0.2,1.4c-0.4,0.3-1.1,0.2-1.4-0.2c-0.1-0.1-1.6-2.1-4.9-2.3
		c-3.1-0.2-8.4,1.1-16.1,8.8c-4.1,4.1-5.7,8.8-4.5,13.3c1.2,4.6,5.3,8.4,10.4,9.7c5.3,1.4,10.7-0.2,14.8-4.3
		C65,407.6,98.9,374,99.3,373.7c0.4-0.4,1-0.4,1.4,0c0.4,0.4,0.4,1,0,1.4c-0.3,0.3-34.2,34-48.1,48.1
		C49.1,426.7,44.8,428.6,40.3,428.6z"/>
</g>
<g>
	<path fill="#E800BC" d="M27.1,477.9c-0.3,0-0.5-0.1-0.7-0.3c-0.4-0.4-0.4-1,0-1.4l11.3-11.3c0.4-0.4,1-0.4,1.4,0s0.4,1,0,1.4
		l-11.3,11.3C27.7,477.8,27.4,477.9,27.1,477.9z"/>
</g>
<g>
	<path fill="#E800BC" d="M56.8,516.1c-0.3,0-0.5-0.1-0.7-0.3c-0.4-0.4-0.4-1,0-1.4l41.7-41.7c0.4-0.4,1-0.4,1.4,0s0.4,1,0,1.4
		l-41.7,41.7C57.4,516,57.1,516.1,56.8,516.1z"/>
</g>
<g>
	<path fill="#E800BC" d="M434.4,104.5c-0.3,0-0.5-0.1-0.7-0.3c-8.5-8.5-22.9-13.8-37.5-13.8c-0.2,0-0.3,0-0.5,0
		c-12.6,0.1-23.2,4-30,11c-0.4,0.4-1,0.4-1.4,0c-0.4-0.4-0.4-1,0-1.4c7.1-7.4,18.3-11.5,31.4-11.6c0.2,0,0.3,0,0.5,0
		c15.1,0,30,5.5,38.9,14.4c0.4,0.4,0.4,1,0,1.4C434.9,104.4,434.7,104.5,434.4,104.5z"/>
</g>
<path opacity="0.1" fill="#E800BC" d="M535.5,85.5c-14.7,64.3-58.1,149.5-128.7,220.1c-18.7,18.7-40.1,33.5-62.2,46
	c-5.7,39.5-23.2,133.1-62.1,190.1c0,0,6.8-119.2-24.3-149.9c-6.5,2.7-13,5.5-19.6,8.8l-13.3-13.3c1.5-0.7,3-1.4,4.5-2.2
	c68-32,137-62,188-119c57.4-63.9,94.6-139.6,111.4-221.2L535.5,85.5z"/>
<g>
	<path fill="#E800BC" d="M44.8,460.2c-0.3,0-0.5-0.1-0.7-0.3c-0.4-0.4-0.4-1,0-1.4l70-70c0.4-0.4,1-0.4,1.4,0s0.4,1,0,1.4l-70,70
		C45.3,460.1,45.1,460.2,44.8,460.2z"/>
</g>
<g>
	<path fill="#E800BC" d="M28.6,510.4c-0.3,0-0.5-0.1-0.7-0.3c-0.4-0.4-0.4-1,0-1.4l103.2-103.2c0.4-0.4,1-0.4,1.4,0s0.4,1,0,1.4
		L29.3,510.1C29.1,510.3,28.8,510.4,28.6,510.4z"/>
</g>
<g>
	<path fill="#E800BC" d="M107.1,465.9c-0.3,0-0.5-0.1-0.7-0.3c-0.4-0.4-0.4-1,0-1.4l41.7-41.7c0.4-0.4,1-0.4,1.4,0s0.4,1,0,1.4
		l-41.7,41.7C107.6,465.8,107.3,465.9,107.1,465.9z"/>
</g>
<path fill="#E800BC" d="M396.3,74.3c-17.6,0-34.2,6.9-46.7,19.3c-25.7,25.7-25.7,67.6,0,93.3c12.5,12.5,29,19.3,46.7,19.3
	s34.2-6.9,46.7-19.3c25.7-25.7,25.7-67.6,0-93.3C430.5,81.2,413.9,74.3,396.3,74.3z M371.8,199.6v-3.2c0-0.3-0.2-0.5-0.5-0.5
	c-0.3,0-0.5,0.2-0.5,0.5v2.8c-3-1.6-7.3-3.6-10.7-6c1.6-8.3,7.3-15.8,15.3-16.2c0.1,0,0.2,0,0.3-0.1c4.5,4.7,10.2,7.5,16.4,7.5
	c6.1,0,11.9-2.8,16.3-7.4c0,0,0.1,0,0.1,0c9.5,0.4,15.7,11,15.7,20.9c-3.7,1.8-7.4,3.2-11.4,4.2v-5.7c0-0.3-0.2-0.5-0.5-0.5
	s-0.5,0.2-0.5,0.5v6c-5,1.3-10.4,1.9-15.7,1.9C387.6,204.3,379.8,202.7,371.8,199.6z M414.9,117.3c-0.3,0-0.5,0.1-0.6,0.4
	c-0.8,4.8-4.3,5.1-4.5,5.1c0,0,0,0-0.1,0c-3.8-3-8.5-4.9-13.6-5.3c-0.1-0.6-0.1-1.2-0.1-1.7c0-7.3,5.6-13.3,12.6-13.3
	s12.4,6,12.4,13.3c0,4.9-2.7,9.5-6.8,11.7c-1.2-1.5-2.5-2.9-3.9-4.1c1.2-0.2,4-1.3,4.8-5.7C415.4,117.4,415.2,117.4,414.9,117.3z
	 M416.9,133.6c2.5,5.5,2.9,11.3,1.1,14.3c-1.3-2.1-2.6-2.6-4.6-3.5c-1.3-0.5-2.9-1.2-5-2.5c-5.3-3.3-1.6-10.6-1.5-10.9
	c0.1-0.1,0.3-0.4,0.1-0.7c-0.1-0.2-0.3-0.3-0.4-0.3c-0.3,0-0.4,0-3.3,3.4c-2.9,3.2-14.7,9.2-19,10.9c3-3,7.3-9.5,8.7-11.5
	c0.5-0.6,0.5-0.8,0.5-0.9c0.1-0.2-0.1-0.5-0.3-0.6c-0.2-0.1-0.5,0-0.6,0.2l-0.4,0.6c-0.7,0.9-2.8,3.3-9,9.1
	c-4.5,4.1-6.4,4.2-8.4,4.4c-2,0.1-4.3,0.3-9,4c0.2-11,3.6-19.4,10.1-24.9c6.8-5.7,14.8-6.4,17.9-6.4c0.2,0,0.4,0,0.6,0
	C404.3,118.6,412.7,124.3,416.9,133.6z M367.3,154.5c0.1,0,0.3,0.1,0.4,0c0.1-0.1,0.1-0.1,0.1-0.3c0-0.4,0-0.7,0-1.1
	c0-1.3,0.1-2.6,0.2-3.9c0-0.1,0-0.1,0-0.2c3.3-2.3,5.1-2.4,6.8-2.6c2.2-0.1,4.3-0.3,9-4.6c1.9-1.7,3.4-3.2,4.6-4.4
	c-1.9,2.7-4.2,5.5-5.7,6.8c-0.3,0.2-0.7,0.6-0.6,1c0,0.1,0.2,0.4,0.6,0.4c2,0,17.9-7.9,21.3-11.7c0.5-0.5,0.9-1,1.2-1.3
	c-0.9,2.8-1.5,7.5,2.7,10c2.2,1.3,3.8,2,5.2,2.6c1.2,0.5,2,0.9,2.8,1.5c0,0,0,0.1,0,0.1c0.4,2.1,0.5,4.2,0.5,6.4c0,0.4,0,0.7,0,1.1
	c0,0.1,0.1,0.3,0.2,0.4c0.1,0.1,0.2,0.2,0.4,0.2c1.6,0,3,1.4,3,3.1c0,2-1.8,3.5-3.7,3c-0.1,0-0.3,0-0.4,0.1
	c-0.1,0.1-0.2,0.2-0.2,0.3c-2.9,13.1-12.5,22.2-23.4,22.2c-10.9,0-20.5-9.1-23.4-22.2c0-0.1-0.1-0.3-0.2-0.3s-0.3-0.1-0.4-0.1
	c-1.9,0.5-3.8-1.2-3.8-3.2C364.3,156,365.6,154.5,367.3,154.5C367.3,154.5,367.3,154.5,367.3,154.5z M441.5,185.6
	c-4.9,4.9-10.4,8.9-16.4,11.9c-0.1-4.8-1.6-9.8-4.2-13.7c-3-4.5-7.1-7.2-11.8-7.6c3.3-3.8,5.9-8.6,7.2-14.2c2.4,0.3,4.5-1.6,4.5-4.1
	c0-2.1-1.5-3.8-3.5-4.1c0-0.2,0-0.4,0-0.6c0-1.7-0.1-3.4-0.3-5.1c0.2,0.3,0.4,0.6,0.5,0.9c0.1,0.1,0.2,0.2,0.4,0.3
	c0.2,0,0.3,0,0.4-0.2c2.5-3,2.3-9.6-0.5-15.9c-0.8-1.8-1.7-3.4-2.8-4.9c4.3-2.5,7.2-7.3,7.2-12.5c0-7.9-6.4-14.3-13.4-14.3
	c-8,0-13.6,6.4-13.6,14.3c0,0.6,0,1.1,0,1.7c-0.3,0-0.6,0-0.8,0c-0.2,0-0.4,0-0.6,0c-3.2,0-11.5,0.6-18.6,6.6
	c-6.9,5.8-10.5,14.8-10.5,26.7c0,0.2,0.1,0.4,0.3,0.5c0.1,0,0.1,0,0.2,0c0.1,0,0.2,0,0.3-0.1c0.5-0.4,1-0.8,1.4-1.1
	c-0.1,1.1-0.2,2.2-0.2,3.3c0,0.2,0,0.4,0,0.6c-2,0.2-3.5,2-3.5,4.1c0,2.4,2.1,4.4,4.5,4c1.3,5.6,3.8,10.5,7.2,14.2
	c-4.7,0.4-8.9,3-11.9,7.6c-1.7,2.6-3,5.7-3.6,8.9c-3-2.1-5.8-4.5-8.4-7.1c-25-25-25-65.6,0-90.5c12.1-12.1,28.2-18.7,45.3-18.7
	s33.2,6.7,45.3,18.7C466.5,120,466.5,160.6,441.5,185.6z"/>
<path fill="#E800BC" d="M536.5,87.3c8.2-34.9,8-63.9-1.1-81.4c-0.1-0.2-0.3-0.4-0.5-0.5C526.3,1.8,515.1,0,501.8,0
	C436.4,0,323,44,241.5,125.4c-19.5,19.5-36.6,43.1-52.4,72.2C151,203.2,57.4,220.4,0.4,259.3c-0.4,0.3-0.5,0.7-0.4,1.1
	c0.1,0.4,0.6,0.7,1,0.7c0.1,0,10.3-0.5,25.2-0.5c37,0,102.1,3.2,123.5,24.9c-2.8,7.1-5.2,13.1-8.1,19.4c-0.2,0.4-0.1,0.8,0.2,1.1
	l3.7,3.7l-32.9,45.8c-0.3,0.4-0.2,0.9,0.1,1.3l74.7,74.7c0.2,0.2,0.4,0.3,0.7,0.3c0.2,0,0.4-0.1,0.6-0.2l45.8-32.9l3.4,3.4
	c0.3,0.3,0.8,0.4,1.1,0.2c6.9-3.3,13.4-6.2,19-8.5c29.9,30.8,23.6,147.4,23.6,148.6c0,0.4,0.3,0.9,0.7,1c0.1,0,0.2,0.1,0.3,0.1
	c0.3,0,0.6-0.2,0.8-0.4c17-24.8,31.6-59.1,43.6-101.9c10.3-36.7,16-70.8,18.6-88.1c24.9-14,45.2-29.1,62-45.9
	c49.6-49.6,90.1-111,114.1-172.9c6.2-16.1,11.1-31.6,14.5-46.1c0.1-0.2,0.2-0.4,0.2-0.6C536.5,87.4,536.5,87.4,536.5,87.3z
	 M533.8,7.1c8,15.8,8.5,41.9,2.1,73.2c-0.5-5.2-1.4-12.7-2.7-20.6c-3.3-19.7-8-32.6-13.7-38.3c-5.8-5.8-18.4-10.1-37.6-12.9
	c-7.5-1.1-14.6-1.8-19.6-2.1C476.7,3.4,490,2,501.8,2C514.7,2,525.5,3.7,533.8,7.1z M114.8,356l31.9-44.5l8.8,8.8l-32.2,44.2
	L114.8,356z M124.8,365.9l32.2-44.2l9.4,9.4l-35.3,41.1L124.8,365.9z M132.6,373.7l35.3-41.1l8.7,8.7l-36.9,39.5L132.6,373.7z
	 M141.1,382.2l36.9-39.5l10.1,10.1L149.8,391L141.1,382.2z M151.2,392.4l38.2-38.2l10.4,10.4l-39.5,36.9L151.2,392.4z M161.8,402.9
	l39.5-36.9l8.7,8.7L168.8,410L161.8,402.9z M170.3,411.4l41.1-35.3l9.4,9.4l-44.2,32.2L170.3,411.4z M188.3,429.5l-10.3-10.3
	l44.2-32.2l10.5,10.5L188.3,429.5z M519.9,133.5c-23.9,61.6-64.2,122.8-113.6,172.2c-16.8,16.8-37.1,31.8-62,45.8
	c-0.3,0.2-0.5,0.4-0.5,0.7c-15.7,108.2-45.8,165-59.9,186.7c0.4-9,1.1-33.4-0.7-59.9c-2.9-44.9-11-74.2-24.1-87.1
	c-0.2-0.2-0.4-0.3-0.7-0.3c-0.1,0-0.3,0-0.4,0.1c-5.5,2.3-12.1,5.1-19,8.5l-48.4-48.4c0,0,0,0,0,0s0,0,0,0l-46.7-46.7
	c2.8-6.3,5.3-12.4,8.1-19.5c0.1-0.4,0.1-0.8-0.2-1.1c-21.4-22.6-87.8-26-125.4-26c-9.8,0-17.5,0.2-21.8,0.4
	c57.1-37.4,148.3-54,185.4-59.5c0.3,0,0.6-0.2,0.7-0.5c15.7-29.1,32.8-52.7,52.3-72.1c63.9-63.9,147.5-104.6,211.9-119
	c0.8,0,50.2,1.9,63.3,14.9C530.3,35,534,80.5,534.4,86.8C531,101.5,526.2,117.2,519.9,133.5z"/>
</svg>
