<?xml version="1.0" encoding="utf-8"?>
<!-- Generator: Adobe Illustrator 18.1.1, SVG Export Plug-In . SVG Version: 6.00 Build 0)  -->
<svg version="1.1" id="Layer_1" xmlns="http://www.w3.org/2000/svg" xmlns:xlink="http://www.w3.org/1999/xlink" x="0px" y="0px"
	 viewBox="0 0 259.5 157.6" enable-background="new 0 0 259.5 157.6" xml:space="preserve">
<path fill="#E800BC" d="M2,157.6c-0.9,0-1.7-0.6-1.9-1.5c-0.3-1.1,0.4-2.1,1.4-2.4l1.5-0.4c15.5-4.8,30.8-27,34.5-32.6
	c-12-12.5-18.3-27-18.3-41.9C19.2,35.4,73.1,0,139.4,0s120.2,35.4,120.2,78.8c0,43.5-53.9,78.8-120.2,78.8
	c-27.1,0-53.6-6.1-74.7-17.1L4.1,157.1c-0.6,0.2-1.1,0.3-1.7,0.5C2.3,157.6,2.2,157.6,2,157.6z M64.8,136.4c0.3,0,0.6,0.1,0.9,0.2
	c20.7,10.9,46.8,17,73.6,17c64.1,0,116.2-33.6,116.2-74.8S203.4,4,139.4,4C75.3,4,23.2,37.6,23.2,78.8c0,14.3,6.3,28.2,18.2,40.2
	c0.7,0.7,0.8,1.7,0.3,2.5c-0.6,0.9-10.6,17.1-23.7,27.7l46-12.6C64.3,136.5,64.6,136.4,64.8,136.4z"/>
<path fill="#E800BC" d="M241.5,67.8c-0.8,0-1.6-0.5-1.9-1.3c-8.8-23.4-27.6-38-57.6-44.4c-1.1-0.2-1.8-1.3-1.5-2.4
	c0.2-1.1,1.3-1.8,2.4-1.5c31,6.6,51.4,22.4,60.5,46.9c0.4,1-0.1,2.2-1.2,2.6C242,67.8,241.8,67.8,241.5,67.8z"/>
<path fill="#E800BC" d="M150.8,50.5c3.8,3.8,5.7,8.1,5.7,13.1c0,4.9-1.4,9.1-4.2,12.6c-2.8,3.5-6.4,5.7-10.7,6.8v6
	c0,1.3-0.4,2.4-1.3,3.2c-0.9,0.9-1.9,1.3-3.2,1.3c-1.3,0-2.3-0.4-3.2-1.3c-0.9-0.9-1.3-1.9-1.3-3.2v-9.6c0-0.1,0-0.1,0-0.1
	c0,0,0,0,0-0.1c0-0.1,0-0.1,0-0.2c0-1.2,0.4-2.2,1.3-3.1c0.9-0.9,1.9-1.4,3.2-1.4c2.9,0,5.4-1,7.4-3c2.1-2,3.1-4.5,3.1-7.3
	s-1-5.3-3.1-7.3c-2.1-2-4.5-3-7.4-3c-3.9,0-6.9,1.7-8.8,5.1c-0.7,1.1-1.6,1.8-2.8,2.1c-1.2,0.3-2.3,0.2-3.5-0.5
	c-1-0.7-1.7-1.6-2-2.8c-0.3-1.2-0.2-2.3,0.5-3.4c1.7-2.9,4-5.2,6.9-6.9c3-1.7,6.2-2.6,9.7-2.6C142.4,44.9,147,46.8,150.8,50.5z
	 M133.9,99.9c0.9-0.9,2-1.3,3.2-1.3c1.3,0,2.3,0.4,3.2,1.3c0.9,0.9,1.3,1.9,1.3,3.2v1.7c0,1.3-0.4,2.4-1.3,3.2
	c-0.9,0.9-1.9,1.3-3.2,1.3c-1.3,0-2.3-0.4-3.2-1.3c-0.9-0.9-1.3-1.9-1.3-3.2v-1.7C132.6,101.9,133,100.8,133.9,99.9z"/>
</svg>
