<?xml version="1.0" encoding="utf-8"?>
<!-- Generator: Adobe Illustrator 18.1.1, SVG Export Plug-In . SVG Version: 6.00 Build 0)  -->
<svg version="1.1" id="Layer_1" xmlns="http://www.w3.org/2000/svg" xmlns:xlink="http://www.w3.org/1999/xlink" x="0px" y="0px"
	 viewBox="0 0 299.7 230.5" enable-background="new 0 0 299.7 230.5" xml:space="preserve">
<path fill="#E800BC" d="M183.6,230.5H3.4c-1.9,0-3.4-1.3-3.4-3V3c0-1.6,1.5-3,3.4-3h180.2c1.9,0,3.4,1.3,3.4,3v224.6
	C187.1,229.2,185.5,230.5,183.6,230.5z M3.4,2.3C3,2.3,2.6,2.6,2.6,3v224.6c0,0.4,0.4,0.7,0.8,0.7h180.2c0.4,0,0.8-0.3,0.8-0.7V3
	c0-0.4-0.4-0.7-0.8-0.7H3.4z"/>
<path fill="#E800BC" d="M76.4,81.2H19.9c-1.9,0-3.4-1.5-3.4-3.4V21.2c0-1.9,1.5-3.4,3.4-3.4h56.5c1.9,0,3.4,1.5,3.4,3.4v56.5
	C79.8,79.6,78.3,81.2,76.4,81.2z M19.9,20.5c-0.4,0-0.8,0.4-0.8,0.8v56.5c0,0.4,0.4,0.8,0.8,0.8h56.5c0.4,0,0.8-0.4,0.8-0.8V21.2
	c0-0.4-0.4-0.8-0.8-0.8H19.9z"/>
<path fill="#E800BC" d="M151.1,81.1H119c-1.3,0-2.6-0.7-3.3-1.9L99.6,51.5c-0.7-1.2-0.7-2.6,0-3.8L115.7,20c0.7-1.2,1.9-1.9,3.3-1.9
	h32.1c1.3,0,2.6,0.7,3.3,1.9l16.1,27.7c0.7,1.2,0.7,2.6,0,3.8l-16.1,27.7C153.7,80.4,152.4,81.1,151.1,81.1z M119,20.8
	c-0.4,0-0.8,0.2-1,0.6l-16.1,27.7c-0.2,0.4-0.2,0.8,0,1.1L118,77.9c0.2,0.4,0.6,0.6,1,0.6h32.1c0.4,0,0.8-0.2,1-0.6l16.1-27.7
	c0.2-0.4,0.2-0.8,0-1.1l-16.1-27.7c-0.2-0.4-0.6-0.6-1-0.6H119z"/>
<path fill="#E800BC" d="M78.4,162.5H19.1c-1.4,0-2.6-0.7-3.3-1.9c-0.7-1.2-0.7-2.6,0-3.8l29.7-51.4c0.7-1.2,1.9-1.9,3.3-1.9
	s2.6,0.7,3.3,1.9l29.7,51.4c0.7,1.2,0.7,2.6,0,3.8S79.8,162.5,78.4,162.5z M48.8,106.1c-0.2,0-0.7,0.1-1,0.6l-29.7,51.4
	c-0.3,0.5-0.1,1,0,1.1c0.1,0.2,0.4,0.6,1,0.6h59.4c0.6,0,0.9-0.4,1-0.6c0.1-0.2,0.3-0.6,0-1.1l-29.7-51.4
	C49.4,106.2,49,106.1,48.8,106.1z"/>
<path fill="#E800BC" d="M133.4,164.3c-18.5,0-33.5-15-33.5-33.5c0-18.5,15-33.5,33.5-33.5c18.5,0,33.5,15,33.5,33.5
	C166.9,149.2,151.9,164.3,133.4,164.3z M133.4,99.9c-17,0-30.9,13.8-30.9,30.9c0,17,13.8,30.9,30.9,30.9c17,0,30.9-13.8,30.9-30.9
	C164.3,113.7,150.4,99.9,133.4,99.9z"/>
<path fill="#E800BC" d="M24,213.4c-0.8,0-1.5-0.2-2.2-0.7c-1.8-1.2-2.4-3.7-1.1-5.6c0.6-0.8,13.9-20.7,34.7-22.4
	c0.9-0.1,1.7-0.1,2.6-0.1c8.9,0,15.1,3.8,21.1,7.5c6.8,4.2,13.8,8.5,26,7.9c24.6-1.1,50.7-9.4,55.6-14.2c0.8-0.7,1.8-1.2,2.8-1.2
	c1.1,0,2.1,0.4,2.9,1.2c1.6,1.6,1.5,4.1,0,5.7c-4.9,4.8-18,8.8-23.5,10.4c-12.2,3.4-25.5,5.6-37.4,6.1c-14.6,0.7-23.1-4.5-30.5-9.1
	c-5.5-3.4-10.2-6.3-16.9-6.3c-0.6,0-1.3,0-1.9,0.1c-16.9,1.3-28.6,18.7-28.7,18.8C26.6,212.8,25.3,213.4,24,213.4z M57.9,186.7
	c-0.8,0-1.6,0-2.4,0.1c-19.8,1.6-32.7,20.7-33.2,21.5c-0.6,0.9-0.4,2.2,0.6,2.8c0.9,0.6,2.2,0.3,2.8-0.6
	c0.1-0.2,12.4-18.3,30.2-19.7c0.7-0.1,1.4-0.1,2.1-0.1c7.2,0,12.2,3,17.9,6.6c7.2,4.4,15.4,9.4,29.4,8.8c11.7-0.5,24.9-2.7,36.9-6.1
	c5.3-1.5,18.1-5.4,22.6-9.9c0.8-0.8,0.8-2.1,0-2.8c-0.8-0.8-2.1-0.8-2.8,0c-2.7,2.6-10.8,6.1-21.1,8.9c-11.8,3.3-24.5,5.3-35.8,5.9
	c-12.8,0.6-20.1-3.9-27.1-8.2C72.2,190.3,66.2,186.7,57.9,186.7z"/>
<path fill="#E800BC" d="M299.7,196.1c0-0.2-0.1-0.5-0.2-0.6L225.9,15.3c-0.5-1.3-1.8-2.1-3.2-2.1c-0.4,0-0.9,0.1-1.3,0.3l-0.8,0.3
	l-3.2-8.4c-0.8-2-3.2-3-5.2-2.2l-12.2,5c-2,0.8-3,3.2-2.2,5.2l3.2,8.4l-0.5,0.2c-0.8,0.3-1.5,1-1.9,1.8s-0.4,1.8,0,2.6l73.6,180.4
	c0.1,0.3,0.4,0.5,0.6,0.7c0,0,0,0.1,0.1,0.1l19,17c0.6,0.5,1.3,0.8,2.1,0.8c0.4,0,0.9-0.1,1.3-0.3c1.1-0.5,1.8-1.6,1.8-2.9l2.2-25.2
	L299.7,196.1z M222.5,15.9c0.1,0,0.2-0.1,0.3-0.1c0.3,0,0.6,0.2,0.7,0.5L295.6,193l-3.1-1.9c-0.5-0.3-1.1-0.5-1.7-0.5
	c-0.4,0-0.8,0.1-1.1,0.2L218.8,17.3L222.5,15.9z M217.8,17.7l70.9,173.6c-0.7,0.5-1.2,1.2-1.3,2.1l-1.2,6.1c0,0.2-0.1,0.3-0.2,0.4
	l-73.5-180L217.8,17.7z M277.4,195.9L206.6,22.3l4.9-2L284.8,200l-4.6-3.5c-0.6-0.5-1.3-0.7-2.1-0.7
	C277.9,195.8,277.7,195.8,277.4,195.9z M273.5,202.4l-72.3-177c-0.1-0.2-0.1-0.4,0-0.6c0.1-0.2,0.2-0.3,0.4-0.4l4-1.6l70.8,173.5
	c-0.7,0.4-1.3,1.1-1.6,1.9L273.5,202.4z M295.9,215.3l-7.5,3.1l-13.4-12l2.4-7.4c0.1-0.4,0.5-0.5,0.8-0.5c0.2,0,0.3,0.1,0.5,0.2
	l4.7,3.5c0.6,0.5,1.3,0.7,2.1,0.7c1.6,0,3-1.2,3.4-2.7l1.2-6.1c0.1-0.4,0.5-0.6,0.8-0.6c0.1,0,0.3,0,0.4,0.1l6.4,3.8L295.9,215.3z"
	/>
</svg>
