<?xml version="1.0" encoding="utf-8"?>
<!-- Generator: Adobe Illustrator 18.1.1, SVG Export Plug-In . SVG Version: 6.00 Build 0)  -->
<svg version="1.1" id="Layer_1" xmlns="http://www.w3.org/2000/svg" xmlns:xlink="http://www.w3.org/1999/xlink" x="0px" y="0px"
	 viewBox="0 0 329 385" enable-background="new 0 0 329 385" xml:space="preserve">
<path fill="#E800BC" d="M76.6,83H108l-0.1,129H40.6c-0.3,0-0.5,0-0.8,0c-0.5,0-1.3,0-1.3,0v0.1c-14,1.1-24.9,12.8-24.9,26.9
	c0,1.1-1.9,107.8-13.2,137.9c-0.7,1.8-0.5,3.9,0.7,5.5c1.1,1.6,2.9,2.6,4.9,2.6h235.7c2.2,0,4.3-1.2,5.3-3.2
	c13.2-24.9,14.9-59.8,15-72.8h42c13.8,0,24.5-11.2,24.5-25V25c0-13.8-10.8-25-24.5-25H113.6h-23h-1.8C61.1,0,43.9,16.9,43.9,44.1
	c0,19.8,12.4,34.7,32.4,38.9L76.6,83z M77.1,79C77.1,79,77,79,77.1,79c-18.3-3.9-29.2-16.9-29.2-34.9C47.9,19,63.2,4,88.8,4h1.5
	c15,5,17.6,34.6,17.7,36.2l0,5.8H77.1c-1.1,0-2,0.9-2,2s0.9,2,2,2c9.1,0,16.5,7.4,16.5,16.5C93.6,77.8,82,79,77.1,79z M91.7,79
	c3.8-2.8,5.9-7.1,5.9-12.5c0-6.8-3.3-12.8-8.3-16.5H108l0,29H91.7z M107.9,216l0,56.7c0,0,0,0.1,0,0.1c0,0.4,0.1,3.2-0.4,7.1
	c-2.3,15.7-12.4,25-27.4,25c-6.3,0-12.3-2.6-16.1-7.1c-4.2-4.9-5.7-11.8-4.4-20.1c0.6-3.8,1.8-8.5,3.1-13.4
	c3.8-14.5,8.6-32.5,0.3-43.3c-1.6-2.1-3.5-3.7-5.9-5.1H107.9z M243.4,379.9c-0.4,0.7-1,1.1-1.8,1.1H6c-0.7,0-1.3-0.3-1.6-0.9
	c-0.4-0.5-0.5-1.2-0.2-1.8c4.9-12.9,8.6-40.3,11.1-81.4c1.9-30.5,2.3-57.6,2.3-57.9c0-12.4,9.9-22.5,22.2-23
	c9.8,0.2,16.4,2.7,20.1,7.5c7.1,9.2,2.6,26.2-1,39.8c-1.3,5-2.6,9.8-3.2,13.8c-1.8,12,1.9,19.3,5.4,23.4c4.5,5.3,11.7,8.5,19.1,8.5
	c0.8,0,1.5,0,2.3-0.1c0.2,0,0.3,0.1,0.5,0.1H258C257.6,350,246.8,373.6,243.4,379.9z M324.6,284c0,11.6-9,21-20.6,21H97
	c6.3-3.8,9.9-9.6,12-15.3c1.2-3,2.1-6.4,2.5-10l-0.1,0c0.5-3.8,0.4-6.6,0.4-7L112,40.1c0,0,0-0.1,0-0.1c-0.1-1.2-1.9-25.5-13.9-36
	h15.5H304c11.6,0,20.6,9.4,20.6,21V284z"/>
<g>
	<path fill="#E800BC" d="M156.1,61.3l-2.4-6.2h-11.7l-2.4,6.2c-0.4,1.1-1.2,1.7-2.3,1.7s-1.9-0.4-2.4-1.2s-0.6-1.6-0.3-2.4
		l10.6-28.3c0.2-0.5,0.6-0.9,1-1.2c0.5-0.3,1-0.5,1.5-0.4c1.2-0.1,2.1,0.5,2.5,1.7L161,59.4c0.3,0.8,0.2,1.6-0.3,2.4
		c-0.5,0.8-1.3,1.2-2.4,1.2S156.5,62.4,156.1,61.3z M144,49.8h7.8l-3.9-10.3L144,49.8z"/>
	<path fill="#E800BC" d="M187.1,61.3l-2.4-6.2h-11.7l-2.4,6.2c-0.4,1.1-1.2,1.7-2.3,1.7s-1.9-0.4-2.4-1.2s-0.6-1.6-0.3-2.4
		l10.6-28.3c0.2-0.5,0.6-0.9,1-1.2c0.5-0.3,1-0.5,1.5-0.4c1.2-0.1,2.1,0.5,2.5,1.7L192,59.4c0.3,0.8,0.2,1.6-0.3,2.4
		c-0.5,0.8-1.3,1.2-2.4,1.2S187.5,62.4,187.1,61.3z M175,49.8h7.8l-3.9-10.3L175,49.8z"/>
</g>
<g>
	<path fill="#E800BC" d="M149.9,95.7l-1.8-4.7h-8.7l-1.8,4.7c-0.3,0.8-0.9,1.3-1.7,1.3s-1.4-0.3-1.8-0.9c-0.4-0.6-0.4-1.2-0.2-1.8
		l8-21.2c0.2-0.4,0.4-0.7,0.8-0.9c0.3-0.2,0.7-0.3,1.1-0.3c0.9,0,1.5,0.4,1.9,1.3l8,21.2c0.2,0.6,0.1,1.2-0.2,1.8s-1,0.9-1.8,0.9
		C150.8,97,150.3,96.6,149.9,95.7z M140.9,87.1h5.8l-2.9-7.7L140.9,87.1z"/>
	<path fill="#E800BC" d="M173.2,95.7l-1.8-4.7h-8.7l-1.8,4.7c-0.3,0.8-0.9,1.3-1.7,1.3s-1.4-0.3-1.8-0.9c-0.4-0.6-0.4-1.2-0.2-1.8
		l8-21.2c0.2-0.4,0.4-0.7,0.8-0.9c0.3-0.2,0.7-0.3,1.1-0.3c0.9,0,1.5,0.4,1.9,1.3l8,21.2c0.2,0.6,0.1,1.2-0.2,1.8
		c-0.4,0.6-1,0.9-1.8,0.9S173.5,96.6,173.2,95.7z M164.1,87.1h5.8l-2.9-7.7L164.1,87.1z"/>
</g>
<path fill="#E800BC" d="M293.6,54h-75c-2.2,0-4-1.8-4-4v-4.5c0-2.2,1.8-4,4-4h75c2.2,0,4,1.8,4,4V50C297.6,52.2,295.8,54,293.6,54z"
	/>
<path fill="#E800BC" d="M270.1,89.8h-52c-1.9,0-3.5-1.6-3.5-3.5l0,0c0-1.9,1.6-3.5,3.5-3.5h52c1.9,0,3.5,1.6,3.5,3.5l0,0
	C273.6,88.2,272,89.8,270.1,89.8z"/>
<path fill="#E800BC" d="M174.3,181h-30.7c-2.2,0-4-1.8-4-4v-30.7c0-2.2,1.8-4,4-4h30.7c2.2,0,4,1.8,4,4V177
	C178.3,179.2,176.5,181,174.3,181z"/>
<path fill="#E800BC" d="M228.4,181h-30.7c-2.2,0-4-1.8-4-4v-30.7c0-2.2,1.8-4,4-4h30.7c2.2,0,4,1.8,4,4V177
	C232.4,179.2,230.6,181,228.4,181z"/>
<path fill="#E800BC" d="M282.6,181h-30.7c-2.2,0-4-1.8-4-4v-30.7c0-2.2,1.8-4,4-4h30.7c2.2,0,4,1.8,4,4V177
	C286.6,179.2,284.8,181,282.6,181z"/>
<circle fill="#E800BC" cx="211.3" cy="237.5" r="16.6"/>
<circle fill="#E800BC" cx="156.3" cy="237.5" r="16.6"/>
<path fill="#E800BC" d="M192.7,130h-50.1c-2.2,0-4-1.8-4-4v-1c0-2.2,1.8-4,4-4h50.1c2.2,0,4,1.8,4,4v1
	C196.7,128.2,194.9,130,192.7,130z"/>
<path fill="#E800BC" d="M192.7,210h-50.1c-2.2,0-4-1.8-4-4v-1c0-2.2,1.8-4,4-4h50.1c2.2,0,4,1.8,4,4v1
	C196.7,208.2,194.9,210,192.7,210z"/>
<path fill="#E800BC" d="M45.4,375.1H16.2c-0.8,0-1.6-0.4-2.1-1c-0.5-0.6-0.7-1.5-0.5-2.3c3.8-14.8,4.9-28.8,4.9-29l4,0.3
	c0,0.1-1,13.4-4.6,27.9h27.4V375.1z"/>
<path fill="#E800BC" d="M212.6,375.1l0-4l22.9,0c0.8,0,1.5-0.4,1.7-0.9c2.8-6.9,4.5-12.3,7.8-28.2l3.9,0.8
	c-3.4,16.2-5.1,21.8-8,28.9c-0.8,2.1-3,3.4-5.4,3.4L212.6,375.1z"/>
</svg>
