<?xml version="1.0" encoding="utf-8"?>
<!-- Generator: Adobe Illustrator 18.1.1, SVG Export Plug-In . SVG Version: 6.00 Build 0)  -->
<svg version="1.1" id="Layer_1" xmlns="http://www.w3.org/2000/svg" xmlns:xlink="http://www.w3.org/1999/xlink" x="0px" y="0px"
	 viewBox="0 0 302 257.2" enable-background="new 0 0 302 257.2" xml:space="preserve">
<path fill="#E800BC" d="M57.6,84l-3.4-9.1h-17L33.7,84c-0.7,1.6-1.8,2.4-3.4,2.4c-1.6,0-2.8-0.6-3.5-1.7c-0.7-1.1-0.8-2.3-0.4-3.5
	l15.5-41.2c0.3-0.7,0.8-1.4,1.5-1.8c0.7-0.5,1.4-0.7,2.2-0.6c1.8-0.1,3,0.7,3.7,2.4l15.4,41.2c0.4,1.2,0.3,2.4-0.4,3.5
	c-0.7,1.1-1.9,1.7-3.5,1.7C59.3,86.5,58.2,85.7,57.6,84z M39.9,67.3h11.3l-5.7-15L39.9,67.3z"/>
<path fill="#E800BC" d="M102.7,84l-3.4-9.1h-17L78.9,84c-0.7,1.6-1.8,2.4-3.4,2.4c-1.6,0-2.8-0.6-3.5-1.7c-0.7-1.1-0.8-2.3-0.4-3.5
	l15.5-41.2c0.3-0.7,0.8-1.4,1.5-1.8c0.7-0.5,1.4-0.7,2.2-0.6c1.8-0.1,3,0.7,3.7,2.4l15.4,41.2c0.4,1.2,0.3,2.4-0.4,3.5
	c-0.7,1.1-1.9,1.7-3.5,1.7C104.4,86.5,103.3,85.7,102.7,84z M85.1,67.3h11.3l-5.7-15L85.1,67.3z"/>
<path fill="#E800BC" d="M51.2,140.2l-2.7-7.3H34.9l-2.7,7.3c-0.5,1.3-1.4,2-2.7,2s-2.2-0.5-2.8-1.4c-0.6-0.9-0.7-1.9-0.3-2.8
	l12.4-32.9c0.3-0.6,0.7-1.1,1.2-1.5c0.5-0.4,1.1-0.5,1.8-0.5c1.4-0.1,2.4,0.6,3,2L57,138c0.3,1,0.2,1.9-0.3,2.8
	c-0.6,0.9-1.5,1.4-2.8,1.4C52.6,142.2,51.7,141.6,51.2,140.2z M37.1,126.8h9.1l-4.5-12L37.1,126.8z"/>
<path fill="#E800BC" d="M87.3,140.2l-2.7-7.3H71l-2.7,7.3c-0.5,1.3-1.4,2-2.7,2s-2.2-0.5-2.8-1.4c-0.6-0.9-0.7-1.9-0.3-2.8
	l12.4-32.9c0.3-0.6,0.7-1.1,1.2-1.5c0.5-0.4,1.1-0.5,1.8-0.5c1.4-0.1,2.4,0.6,3,2L93.1,138c0.3,1,0.2,1.9-0.3,2.8
	c-0.6,0.9-1.5,1.4-2.8,1.4C88.7,142.2,87.8,141.6,87.3,140.2z M73.2,126.8h9.1l-4.5-12L73.2,126.8z"/>
<path fill="#E800BC" d="M42.5,181.9l-1.8-4.8h-9.1l-1.8,4.8c-0.3,0.9-1,1.3-1.8,1.3c-0.9,0-1.5-0.3-1.8-0.9
	c-0.4-0.6-0.4-1.2-0.2-1.9l8.2-22c0.2-0.4,0.4-0.7,0.8-1c0.4-0.2,0.8-0.4,1.2-0.3c0.9,0,1.6,0.4,2,1.3l8.2,22
	c0.2,0.6,0.1,1.3-0.2,1.9c-0.4,0.6-1,0.9-1.8,0.9S42.8,182.7,42.5,181.9z M33.1,172.9h6l-3-8L33.1,172.9z"/>
<path fill="#E800BC" d="M66.6,181.9l-1.8-4.8h-9.1l-1.8,4.8c-0.3,0.9-1,1.3-1.8,1.3c-0.9,0-1.5-0.3-1.8-0.9
	c-0.4-0.6-0.4-1.2-0.2-1.9l8.2-22c0.2-0.4,0.4-0.7,0.8-1c0.4-0.2,0.8-0.4,1.2-0.3c0.9,0,1.6,0.4,2,1.3l8.2,22
	c0.2,0.6,0.1,1.3-0.2,1.9c-0.4,0.6-1,0.9-1.8,0.9S66.9,182.7,66.6,181.9z M57.2,172.9h6l-3-8L57.2,172.9z"/>
<path fill="#E800BC" d="M38.5,216.2l-1.4-3.6h-6.8l-1.4,3.6c-0.3,0.7-0.7,1-1.4,1c-0.6,0-1.1-0.2-1.4-0.7s-0.3-0.9-0.2-1.4l6.2-16.5
	c0.1-0.3,0.3-0.5,0.6-0.7s0.6-0.3,0.9-0.3c0.7,0,1.2,0.3,1.5,1l6.2,16.5c0.2,0.5,0.1,1-0.2,1.4c-0.3,0.5-0.7,0.7-1.4,0.7
	C39.2,217.1,38.7,216.8,38.5,216.2z M31.4,209.5H36l-2.3-6L31.4,209.5z"/>
<path fill="#E800BC" d="M56.6,216.2l-1.4-3.6h-6.8l-1.4,3.6c-0.3,0.7-0.7,1-1.4,1c-0.6,0-1.1-0.2-1.4-0.7s-0.3-0.9-0.2-1.4l6.2-16.5
	c0.1-0.3,0.3-0.5,0.6-0.7s0.6-0.3,0.9-0.3c0.7,0,1.2,0.3,1.5,1l6.2,16.5c0.2,0.5,0.1,1-0.2,1.4c-0.3,0.5-0.7,0.7-1.4,0.7
	C57.2,217.1,56.8,216.8,56.6,216.2z M49.5,209.5H54l-2.3-6L49.5,209.5z"/>
<path fill="#E800BC" d="M289.1,0H5.6C2.8,0,0,2.3,0,5.1v239.2c0,2.8,2.8,4.7,5.6,4.7h241.3c0.4,0,0.9,0.1,1.2-0.2l45.2-35.1
	c0.5-0.4,0.7-0.8,0.7-1.5V5.1C294,2.3,291.9,0,289.1,0z M248.9,215.4c0-0.3,0.5-0.9,1.3-1.1l36.2,0l-37.5,29.1L248.9,215.4z
	 M4,244.3V5.1C4,4.5,5,4,5.6,4h283.5c0.6,0,0.9,0.5,0.9,1.1v205.1l-40.1,0l-0.3,0c-2.6,0.5-4.7,2.5-4.7,4.9l0.1,29.8H5.6
	C5,245,4,245,4,244.3z"/>
<path fill="#E800BC" d="M296.9,257.2H10.3c-1.1,0-2-0.9-2-2s0.9-2,2-2h286.6c0.6,0,1.1-0.5,1.1-1.1V12.9c0-1.1,0.9-2,2-2s2,0.9,2,2
	v239.2C302,254.9,299.7,257.2,296.9,257.2z"/>
<path fill="#E800BC" d="M274.1,67.5H133c-2.2,0-4-1.8-4-4v-9c0-2.2,1.8-4,4-4h141.1c2.2,0,4,1.8,4,4v9
	C278.1,65.7,276.3,67.5,274.1,67.5z"/>
<path fill="#E800BC" d="M240.9,129.4H133c-2.2,0-4-1.8-4-4v-5.7c0-2.2,1.8-4,4-4h107.9c2.2,0,4,1.8,4,4v5.7
	C244.9,127.6,243.1,129.4,240.9,129.4z"/>
<path fill="#E800BC" d="M217.9,173.5H133c-2.2,0-4-1.8-4-4v-0.8c0-2.2,1.8-4,4-4h84.9c2.2,0,4,1.8,4,4v0.8
	C221.9,171.7,220.1,173.5,217.9,173.5z"/>
<path fill="#E800BC" d="M198.9,212.2h-66.9c-1.7,0-3.1-1.4-3.1-3.1l0,0c0-1.7,1.4-3.1,3.1-3.1h66.9c1.7,0,3.1,1.4,3.1,3.1l0,0
	C202.1,210.8,200.7,212.2,198.9,212.2z"/>
</svg>
