<?xml version="1.0" encoding="utf-8"?>
<!-- Generator: Adobe Illustrator 18.1.1, SVG Export Plug-In . SVG Version: 6.00 Build 0)  -->
<svg version="1.1" id="Layer_1" xmlns="http://www.w3.org/2000/svg" xmlns:xlink="http://www.w3.org/1999/xlink" x="0px" y="0px"
	 viewBox="0 0 255.8 297" enable-background="new 0 0 255.8 297" xml:space="preserve">
<path fill="#E800BC" d="M225.9,95.2c-0.8,0-1.5-0.6-1.5-1.4v-74c0-0.8,0.7-1.4,1.5-1.4s1.5,0.6,1.5,1.4v74
	C227.4,94.5,226.7,95.2,225.9,95.2z"/>
<path fill="#E800BC" d="M239.9,95.2c-0.8,0-1.5-0.6-1.5-1.4v-74c0-0.8,0.7-1.4,1.5-1.4s1.5,0.6,1.5,1.4v74
	C241.4,94.5,240.7,95.2,239.9,95.2z"/>
<path fill="#E800BC" d="M255.5,136.3l-3.1-16.4c0-0.2,0-0.5,0.1-0.7l3.1-9c0.2-0.5,0.3-1,0.2-1.5l-3.3-93.5
	c-0.1-2.3-1.9-4.2-4.2-4.2h-30.4c-2.3,0-4.1,1.9-4.2,4.2l-4,93.9c0,0.6,0.1,1.3,0.4,1.9l3.5,7.9c0.1,0.3,0.2,0.6,0.1,0.9l-3.9,16.4
	c-0.1,0.3-0.2,0.6-0.2,1v1.7c0,2.3,2.1,4.2,4.5,4.2h13.5v118.2c0,0.3,0,0.5-0.2,0.8l-4.6,7.1c-0.7,1-0.8,2.2-0.5,3.4l4.9,18.4
	c0.5,1.8,2.2,3.2,4.1,3.2h4.2c1.9,0,3.6-1.4,4.1-3.2l5.1-18.9c0.3-1.2,0.1-2.5-0.6-3.6l-5-6.8c-0.2-0.2-0.5-0.5-0.5-0.8V143h13.2
	c2.3,0,3.8-1.8,3.8-4.2v-1.7C255.4,136.9,255.6,136.6,255.5,136.3z M236.7,290c-0.2,0.6-0.7,1-1.4,1h-4.2c-0.6,0-1.2-0.4-1.4-1
	l-0.8-3h8.5L236.7,290z M241.6,269.9c0.2,0.3,0.2,0.8,0.1,1.2l-3.5,12.9h-10.1l-3.3-12.3c-0.1-0.4,0-0.8,0.2-1.1l4.7-7.1
	c0.5-0.7,0.7-1.5,0.7-2.3V144h5v116.7c0,0.9,0.1,1.7,0.6,2.4L241.6,269.9z M253.4,138.8c0,0.8-1,1.2-1.8,1.2h-37.8
	c-0.8,0-1.5-0.4-1.5-1.2v-1.7c0-0.1,0-0.2,0.1-0.3l3.8-16.4c0.2-0.9,0.1-1.8-0.2-2.7l-3.5-7.9c-0.1-0.2-0.1-0.4-0.1-0.6l4-93.9
	c0-0.8,0.7-1.4,1.4-1.4h30.4c0.8,0,1.4,0.6,1.4,1.4l3.3,93.4c0,0.2,0,0.3-0.1,0.5l-3,9c-0.2,0.7-0.3,1.5-0.1,2.2l3.4,16.4
	c0,0.1,0.2,0.2,0.2,0.3V138.8z"/>
<path fill="#E800BC" d="M161.7,0h-14.1c-2.1,0-3.2,1.6-3.2,3.6v8.7c0,0.5-0.5,0.9-1,0.9c-0.5,0-1-0.4-1-0.9v-1.5c0-2.1-2-3.8-4-3.8
	H63.8c-23,0-38.7,9.2-47.8,16.8c-9.6,8.1-14,16.1-14.4,16.8C0.2,43-0.6,46.9,0.6,49c0.5,0.9,1.4,1.5,2.4,1.5c1,0,2-0.5,3.1-1.5
	l0.1-0.1c0,0,3.8-3.7,12.1-7.4c8.1-3.5,22.1-7.8,43.2-7.4c1.1,0.1,11.9,2,11.9,15.3v17.2c0,1.8,1.5,3.2,3.2,3.5L77.8,293
	c0,2.3,2,4,4.3,4h19.5c2.3,0,4.2-1.7,4.2-3l-1.2-223.4l0-0.5h0.7c1.9,0,3.5-1.5,3.5-3.5l0.1-16.9c0-0.5,0.4-0.6,0.9-0.6h28.4
	c2.1,0,4-2.1,4-4.2V44c0-0.5,0.5-0.9,1-0.9c0.5,0,1,0.4,1,0.9v9.7c0,2.1,1.2,3.3,3.2,3.3h14.1c2.1,0,3.6-1.2,3.6-3.3V3.6
	C165.4,1.6,163.8,0,161.7,0z M101.7,295H82.1c-0.8,0-1.4-0.9-1.4-1.7L79.5,71h22.4l1.2,222.3C103.1,294.1,102.4,295,101.7,295z
	 M162.4,52.7c0,0.5-0.1,1.3-0.6,1.3h-13.1c-0.5,0-1.2-0.8-1.2-1.3V44c0-2.1-2-3.6-4-3.7c-2.5-0.1-4,1.7-4,3.7v0.8
	c0,0.5-0.5,1.2-1,1.2h-28.4c-2.1,0-3.7,1.5-3.7,3.6l-0.1,17c0,0.4-0.3,0.5-0.7,0.5H77.3c-0.4,0-0.9,0-0.9-0.4V49.4
	c0-16.2-14.4-18.1-14.6-18.1l-0.1,0c-0.9,0-1.8,0-2.7,0c-38.4,0-53.8,14.6-54.8,15.6c-0.6,0.5-1,0.7-1.1,0.7c-0.4-0.7-0.3-3.4,1-5.5
	L4.1,42C4.2,42,8.5,33.9,18,26c8.7-7.3,23.8-16,45.9-16h74.5c0.5,0,1,0.3,1,0.8v1.5c0,2.1,1.8,3.7,3.9,3.7c2.1,0,4.1-1.7,4.1-3.7
	V3.6c0-0.5,0.7-0.6,1.2-0.6h13.1c0.5,0,0.6,0.1,0.6,0.6V52.7z"/>
<path fill="#E800BC" d="M6.4,54.3c-0.4,0-0.7-0.1-1-0.4c-0.6-0.5-0.6-1.4,0-2C6,51.2,22.1,35.5,63,36.2c0.8,0,1.4,0.7,1.4,1.4
	c0,0.8-0.6,1.4-1.4,1.4c0,0,0,0,0,0c-20.7-0.4-34.7,3.7-42.8,7.1c-8.8,3.7-12.7,7.6-12.7,7.7C7.1,54.1,6.8,54.3,6.4,54.3z"/>
<path fill="#E800BC" d="M90.4,289.8c-0.4,0-1-0.3-1-0.7v-33.1c0-0.4,0.6-0.7,1-0.7c0.4,0,1,0.3,1,0.7v33.1
	C91.4,289.5,90.8,289.8,90.4,289.8z"/>
<path fill="#E800BC" d="M84.4,289.8c-0.4,0-1-0.3-1-0.7v-63.1c0-0.4,0.6-0.7,1-0.7c0.4,0,1,0.3,1,0.7v63.1
	C85.4,289.5,84.8,289.8,84.4,289.8z"/>
<path fill="#E800BC" d="M102.5,64.8H82c-1.9,0-3.5-1.6-3.5-3.5V49.3c0-0.4,0.3-0.7,0.7-0.7s0.7,0.3,0.7,0.7v11.9
	c0,1.2,0.9,2.1,2.1,2.1h20.5c0.4,0,0.7,0.3,0.7,0.7S102.9,64.8,102.5,64.8z"/>
</svg>
