<?xml version="1.0" encoding="UTF-8" standalone="no"?>
<svg width="468px" height="388px" viewBox="0 0 468 388" version="1.1" xmlns="http://www.w3.org/2000/svg" xmlns:xlink="http://www.w3.org/1999/xlink" xmlns:sketch="http://www.bohemiancoding.com/sketch/ns">
    <!-- Generator: Sketch 3.5.1 (25234) - http://www.bohemiancoding.com/sketch -->
    <title>Imported Layers Copy 2</title>
    <desc>Created with Sketch.</desc>
    <defs></defs>
    <g id="Logo-lang" stroke="none" stroke-width="1" fill="none" fill-rule="evenodd" sketch:type="MSPage">
        <g id="Imported-Layers-Copy-2" sketch:type="MSLayerGroup" transform="translate(2.300000, 2.000000)">
            <path d="M277.3994,213.5996 L389.2994,143.8996 L231.5994,44.2996 L231.5994,44.3996 L230.8994,45.7996 L230.8994,183.8996 L230.8994,183.9996 L277.3994,213.5996 Z" id="Fill-1" fill="#FFFFFF" sketch:type="MSShapeGroup"></path>
            <path d="M277.3994,213.5996 L389.2994,143.8996 L231.5994,44.2996 L231.5994,44.3996 L230.8994,45.7996 L230.8994,183.8996 L230.8994,183.9996 L277.3994,213.5996 L277.3994,213.5996 Z" id="Stroke-2" stroke="#000000" stroke-width="5" stroke-linejoin="round" sketch:type="MSShapeGroup"></path>
            <path d="M459.3994,100.3999 L301.8994,0.6999 L231.5994,44.2999 L389.2994,143.8999 L459.3994,100.3999 Z" id="Fill-3" fill="#FFFFFF" sketch:type="MSShapeGroup"></path>
            <path d="M459.3994,100.3999 L301.8994,0.6999 L231.5994,44.2999 L389.2994,143.8999 L459.3994,100.3999 L459.3994,100.3999 Z" id="Stroke-4" stroke="#000000" stroke-width="5" stroke-linejoin="round" sketch:type="MSShapeGroup"></path>
            <path d="M230.8999,45.7998 L231.5999,44.3998 L74.0999,142.4998 L184.8999,212.5998 L230.8999,183.8998 L230.8999,45.7998 Z" id="Fill-6" fill="#FFFFFF" sketch:type="MSShapeGroup"></path>
            <path d="M230.8999,45.7998 L231.5999,44.3998 L74.0999,142.4998 L184.8999,212.5998 L230.8999,183.8998 L230.8999,45.7998 L230.8999,45.7998 Z" id="Stroke-7" stroke="#000000" stroke-width="5" stroke-linejoin="round" sketch:type="MSShapeGroup"></path>
            <path d="M231.5996,44.3999 L231.5996,44.2999 L164.8996,2.0999 L7.2996,100.3999 L74.0996,142.4999 L231.5996,44.3999 Z" id="Fill-8" fill="#FFFFFF" sketch:type="MSShapeGroup"></path>
            <path d="M231.5996,44.3999 L231.5996,44.2999 L164.8996,2.0999 L7.2996,100.3999 L74.0996,142.4999 L231.5996,44.3999 L231.5996,44.3999 Z" id="Stroke-9" stroke="#000000" stroke-width="5" stroke-linejoin="round" sketch:type="MSShapeGroup"></path>
            <path d="M74.0996,142.4995 L0.4996,188.2995 L73.9996,234.5995 L158.1996,287.9005 L230.8996,242.6995 L230.8996,241.7985 L184.8996,212.5995 L74.0996,142.4995 Z" id="Fill-11" fill="#FFFFFF" sketch:type="MSShapeGroup"></path>
            <path d="M74.0996,142.4995 L0.4996,188.2995 L73.9996,234.5995 L158.1996,287.9005 L230.8996,242.6995 L230.8996,241.7985 L184.8996,212.5995 L74.0996,142.4995 L74.0996,142.4995 Z" id="Stroke-12" stroke="#000000" stroke-width="5" stroke-linejoin="round" sketch:type="MSShapeGroup"></path>
            <path d="M230.8999,183.9995 L230.8999,183.8995 L184.8999,212.5995 L230.8999,241.7985 L230.8999,241.0995 L230.8999,241.7985 L231.5999,242.2985 L277.3999,213.5995 L230.8999,183.9995 Z" id="Fill-14" fill="#FFFFFF" sketch:type="MSShapeGroup"></path>
            <path d="M230.8999,183.9995 L230.8999,183.8995 L184.8999,212.5995 L230.8999,241.7985 L230.8999,241.0995 L230.8999,241.7985 L231.5999,242.2985 L277.3999,213.5995 L230.8999,183.9995 L230.8999,183.9995 Z" id="Stroke-15" stroke="#000000" stroke-width="5" stroke-linejoin="round" sketch:type="MSShapeGroup"></path>
            <path d="M74.0996,283.5 L230.8996,382.6 L230.8996,242.699 L158.1996,287.9 L73.9996,234.6 L74.0996,283.5 Z" id="Fill-16" fill="#FFFFFF" sketch:type="MSShapeGroup"></path>
            <path d="M74.0996,283.5 L230.8996,382.6 L230.8996,242.699 L158.1996,287.9 L73.9996,234.6 L74.0996,283.5 L74.0996,283.5 Z" id="Stroke-17" stroke="#000000" stroke-width="5" stroke-linejoin="round" sketch:type="MSShapeGroup"></path>
            <path d="M388.8997,237.5 L389.3997,237.5 L389.3997,237.298 L388.8997,237.5 Z" id="Fill-19" fill="#FFFFFF" sketch:type="MSShapeGroup"></path>
            <path d="M388.8994,237.5 L389.3994,237.5 L389.3994,237.299 L388.8994,237.5 L388.8994,237.5 Z" id="Stroke-20" stroke="#000000" stroke-width="5" stroke-linejoin="round" sketch:type="MSShapeGroup"></path>
            <path d="M389.3994,237.5 L388.8994,237.5 L305.7004,289.199 L231.5994,242.299 L230.8994,242.699 L230.8994,382.6 L231.5994,383 L389.3994,284.9 L389.3994,284.4 L389.3994,237.5 Z" id="Fill-21" fill="#FFFFFF" sketch:type="MSShapeGroup"></path>
            <path d="M389.3994,237.5 L388.8994,237.5 L305.7004,289.199 L231.5994,242.299 L230.8994,242.699 L230.8994,382.6 L231.5994,383 L389.3994,284.9 L389.3994,284.4 L389.3994,237.5 L389.3994,237.5 Z" id="Stroke-22" stroke="#000000" stroke-width="5" stroke-linejoin="round" sketch:type="MSShapeGroup"></path>
            <path d="M388.8994,237.5 L389.3994,236.799 L463.2004,190.799 L389.2994,143.9 L277.3994,213.6 L231.5994,242.299 L305.7004,289.199 L388.8994,237.5 Z" id="Fill-24" fill="#FFFFFF" sketch:type="MSShapeGroup"></path>
            <path d="M388.8994,237.5 L389.3994,236.799 L463.2004,190.799 L389.2994,143.9 L277.3994,213.6 L231.5994,242.299 L305.7004,289.199 L388.8994,237.5 L388.8994,237.5 Z" id="Stroke-25" stroke="#000000" stroke-width="5" stroke-linejoin="round" sketch:type="MSShapeGroup"></path>
            <g id="Group-29" transform="translate(74.000000, 234.000000)" sketch:type="MSShapeGroup">
                <path d="M0,0.5996 L84.2,53.9006 L156.9,8.6996" id="Fill-27" fill="#FFFFFF"></path>
                <path d="M0,0.5996 L84.2,53.9006 L156.9,8.6996" id="Stroke-28" stroke="#000000" stroke-width="5" stroke-linecap="round" stroke-linejoin="round"></path>
            </g>
            <path d="M388.8997,237.5 L389.3997,237.298 L388.8997,237.5 Z" id="Fill-30" fill="#FFFFFF" sketch:type="MSShapeGroup"></path>
            <path d="M388.8994,237.5 L389.3994,237.299" id="Stroke-31" stroke="#000000" stroke-width="5" stroke-linecap="round" stroke-linejoin="round" sketch:type="MSShapeGroup"></path>
            <path d="M388.8997,237.5 L389.3997,236.799 L388.8997,237.5 Z" id="Fill-32" fill="#FFFFFF" sketch:type="MSShapeGroup"></path>
            <path d="M388.8994,237.5 L389.3994,236.799" id="Stroke-33" stroke="#000000" stroke-width="5" stroke-linecap="round" stroke-linejoin="round" sketch:type="MSShapeGroup"></path>
            <path d="M389.3992,237.2984 L389.3992,236.7994 L389.3992,237.2984 Z" id="Fill-34" fill="#FFFFFF" sketch:type="MSShapeGroup"></path>
            <path d="M389.3994,236.7988 L389.3994,237.2988" id="Stroke-35" stroke="#000000" stroke-width="5" stroke-linecap="round" stroke-linejoin="round" sketch:type="MSShapeGroup"></path>
            <g id="Group-38" transform="translate(277.000000, 143.000000)" sketch:type="MSShapeGroup">
                <path d="M0.3994,70.5996 L112.2994,0.8996" id="Fill-36" fill="#FFFFFF"></path>
                <path d="M0.3994,70.5996 L112.2994,0.8996" id="Stroke-37" stroke="#000000" stroke-width="5" stroke-linecap="round" stroke-linejoin="round"></path>
            </g>
            <path d="M389.2998,143.8999 L459.3998,100.3999 L301.8998,0.6999 L231.5998,44.2999" id="Fill-39" fill="#FFFFFF" sketch:type="MSShapeGroup"></path>
            <path d="M389.2998,143.8999 L459.3998,100.3999 L301.8998,0.6999 L231.5998,44.2999" id="Stroke-40" stroke="#000000" stroke-width="5" stroke-linecap="round" stroke-linejoin="round" sketch:type="MSShapeGroup"></path>
            <path d="M389.2998,143.8999 L463.1998,190.7989 L389.3998,236.7989" id="Fill-42" fill="#FFFFFF" sketch:type="MSShapeGroup"></path>
            <path d="M389.2998,143.8999 L463.1998,190.7989 L389.3998,236.7989" id="Stroke-43" stroke="#000000" stroke-width="5" stroke-linecap="round" stroke-linejoin="round" sketch:type="MSShapeGroup"></path>
            <path d="M230.9002,45.8 L230.9002,183.9 L231.5992,44.4 L230.9002,45.8 Z" id="Fill-45" fill="#FFFFFF" sketch:type="MSShapeGroup"></path>
            <path d="M230.8999,183.8999 L230.8999,45.7999 L231.5999,44.3999" id="Stroke-46" stroke="#000000" stroke-width="5" stroke-linecap="round" stroke-linejoin="round" sketch:type="MSShapeGroup"></path>
            <path d="M231.5995,44.3996 L231.5995,44.2996 L231.5995,44.3996 Z" id="Fill-47" fill="#FFFFFF" sketch:type="MSShapeGroup"></path>
            <path d="M231.5996,44.3999 L231.5996,44.2999" id="Stroke-48" stroke="#000000" stroke-width="5" stroke-linecap="round" stroke-linejoin="round" sketch:type="MSShapeGroup"></path>
            <path d="M74.0996,142.4995 L7.2996,100.3995 L164.8996,2.0995 L231.5996,44.2995" id="Fill-49" fill="#FFFFFF" sketch:type="MSShapeGroup"></path>
            <path d="M74.0996,142.4995 L7.2996,100.3995 L164.8996,2.0995 L231.5996,44.2995" id="Stroke-50" stroke="#000000" stroke-width="5" stroke-linecap="round" stroke-linejoin="round" sketch:type="MSShapeGroup"></path>
            <path d="M74.0996,142.4995 L0.4996,188.2995 L73.9996,234.5995" id="Fill-52" fill="#FFFFFF" sketch:type="MSShapeGroup"></path>
            <path d="M74.0996,142.4995 L0.4996,188.2995 L73.9996,234.5995" id="Stroke-53" stroke="#000000" stroke-width="5" stroke-linecap="round" stroke-linejoin="round" sketch:type="MSShapeGroup"></path>
            <g id="Group-57" transform="translate(230.000000, 183.000000)" sketch:type="MSShapeGroup">
                <path d="M0.8999,0.8999 L0.8999,0.9999 L47.3999,30.5999" id="Fill-55" fill="#FFFFFF"></path>
                <path d="M0.8999,0.8999 L0.8999,0.9999 L47.3999,30.5999" id="Stroke-56" stroke="#000000" stroke-width="5" stroke-linecap="round" stroke-linejoin="round"></path>
            </g>
            <path d="M231.5995,242.2988 L230.9005,241.7988 L231.5995,242.2988 Z" id="Fill-58" fill="#FFFFFF" sketch:type="MSShapeGroup"></path>
            <path d="M230.8999,241.7988 L231.5999,242.2988" id="Stroke-59" stroke="#000000" stroke-width="5" stroke-linecap="round" stroke-linejoin="round" sketch:type="MSShapeGroup"></path>
            <path d="M230.9002,241.7984 L230.9002,241.1004 L230.9002,241.7984 Z" id="Fill-60" fill="#FFFFFF" sketch:type="MSShapeGroup"></path>
            <path d="M230.8999,241.0996 L230.8999,241.7986" id="Stroke-61" stroke="#000000" stroke-width="5" stroke-linecap="round" stroke-linejoin="round" sketch:type="MSShapeGroup"></path>
            <path d="M230.9002,242.6993 L231.5992,242.2983 L230.9002,242.6993 Z" id="Fill-62" fill="#FFFFFF" sketch:type="MSShapeGroup"></path>
            <path d="M230.8999,242.6992 L231.5999,242.2992" id="Stroke-63" stroke="#000000" stroke-width="5" stroke-linecap="round" stroke-linejoin="round" sketch:type="MSShapeGroup"></path>
            <path d="M230.9002,242.6993 L230.9002,241.7983 L230.9002,242.6993 Z" id="Fill-64" fill="#FFFFFF" sketch:type="MSShapeGroup"></path>
            <path d="M230.8999,241.7988 L230.8999,242.6988" id="Stroke-65" stroke="#000000" stroke-width="5" stroke-linecap="round" stroke-linejoin="round" sketch:type="MSShapeGroup"></path>
            <g id="Group-68" transform="translate(184.000000, 212.000000)" sketch:type="MSShapeGroup">
                <path d="M0.8999,0.5996 L46.8999,29.7986" id="Fill-66" fill="#FFFFFF"></path>
                <path d="M0.8999,0.5996 L46.8999,29.7986" id="Stroke-67" stroke="#000000" stroke-width="5" stroke-linecap="round" stroke-linejoin="round"></path>
            </g>
            <g id="Group-71" transform="translate(184.000000, 183.000000)" sketch:type="MSShapeGroup">
                <path d="M0.8999,29.5996 L46.8999,0.8996" id="Fill-69" fill="#FFFFFF"></path>
                <path d="M0.8999,29.5996 L46.8999,0.8996" id="Stroke-70" stroke="#000000" stroke-width="5" stroke-linecap="round" stroke-linejoin="round"></path>
            </g>
            <g id="Group-74" transform="translate(74.000000, 142.000000)" sketch:type="MSShapeGroup">
                <path d="M0.0996,0.4995 L110.8996,70.5995" id="Fill-72" fill="#FFFFFF"></path>
                <path d="M0.0996,0.4995 L110.8996,70.5995" id="Stroke-73" stroke="#000000" stroke-width="5" stroke-linecap="round" stroke-linejoin="round"></path>
            </g>
            <g id="Group-77" transform="translate(74.000000, 44.000000)" sketch:type="MSShapeGroup">
                <path d="M0.0996,98.4995 L157.5996,0.3995" id="Fill-75" fill="#FFFFFF"></path>
                <path d="M0.0996,98.4995 L157.5996,0.3995" id="Stroke-76" stroke="#000000" stroke-width="5" stroke-linecap="round" stroke-linejoin="round"></path>
            </g>
            <path d="M231.5995,383.0003 L230.9005,382.5993 L231.5995,383.0003 Z" id="Fill-78" fill="#FFFFFF" sketch:type="MSShapeGroup"></path>
            <path d="M230.8999,382.5996 L231.5999,382.9996" id="Stroke-79" stroke="#000000" stroke-width="5" stroke-linecap="round" stroke-linejoin="round" sketch:type="MSShapeGroup"></path>
            <path d="M230.9002,383.4998 L231.5992,383.0008 L230.9002,382.5998 L230.9002,383.4998 Z" id="Fill-81" fill="#FFFFFF" sketch:type="MSShapeGroup"></path>
            <path d="M230.8999,382.5996 L230.8999,383.4996 L231.5999,382.9996" id="Stroke-82" stroke="#000000" stroke-width="5" stroke-linecap="round" stroke-linejoin="round" sketch:type="MSShapeGroup"></path>
            <path d="M74,234.5996 L74.1,283.4996 L230.9,382.5996" id="Fill-84" fill="#FFFFFF" sketch:type="MSShapeGroup"></path>
            <path d="M74,234.5996 L74.1,283.4996 L230.9,382.5996" id="Stroke-85" stroke="#000000" stroke-width="5" stroke-linecap="round" stroke-linejoin="round" sketch:type="MSShapeGroup"></path>
            <path d="M389.3992,284.9003 L389.3992,284.4013 L389.3992,284.9003 Z" id="Fill-87" fill="#FFFFFF" sketch:type="MSShapeGroup"></path>
            <path d="M389.3994,284.4004 L389.3994,284.9004" id="Stroke-88" stroke="#000000" stroke-width="5" stroke-linecap="round" stroke-linejoin="round" sketch:type="MSShapeGroup"></path>
            <path d="M389.3992,284.9003 L389.7002,284.6993 L389.3992,284.4013 L389.3992,284.9003 Z" id="Fill-89" fill="#FFFFFF" sketch:type="MSShapeGroup"></path>
            <path d="M389.3994,284.9004 L389.7004,284.6994 L389.3994,284.4004" id="Stroke-90" stroke="#000000" stroke-width="5" stroke-linecap="round" stroke-linejoin="round" sketch:type="MSShapeGroup"></path>
            <g id="Group-93" transform="translate(231.000000, 44.000000)" sketch:type="MSShapeGroup">
                <path d="M0.5996,0.2998 L158.2996,99.8998" id="Fill-91" fill="#FFFFFF"></path>
                <path d="M0.5996,0.2998 L158.2996,99.8998" id="Stroke-92" stroke="#000000" stroke-width="5" stroke-linecap="round" stroke-linejoin="round"></path>
            </g>
            <path d="M231.5996,383 L389.3996,284.9" id="Fill-94" fill="#FFFFFF" sketch:type="MSShapeGroup"></path>
            <path d="M231.5996,383 L389.3996,284.9" id="Stroke-95" stroke="#000000" stroke-width="5" stroke-linecap="round" stroke-linejoin="round" sketch:type="MSShapeGroup"></path>
            <path d="M230.9002,382.5998 L230.9002,242.6998 L230.9002,382.5998 Z" id="Fill-97" fill="#FFFFFF" sketch:type="MSShapeGroup"></path>
            <path d="M230.8999,242.6992 L230.8999,382.5992" id="Stroke-98" stroke="#000000" stroke-width="5" stroke-linecap="round" stroke-linejoin="round" sketch:type="MSShapeGroup"></path>
            <g id="Group-102" transform="translate(231.000000, 237.000000)" sketch:type="MSShapeGroup">
                <path d="M0.5996,5.2988 L74.7006,52.1988 L157.8996,0.4998" id="Fill-100" fill="#FFFFFF"></path>
                <path d="M0.5996,5.2988 L74.7006,52.1988 L157.8996,0.4998" id="Stroke-101" stroke="#000000" stroke-width="5" stroke-linecap="round" stroke-linejoin="round"></path>
            </g>
            <g id="Group-105" transform="translate(231.000000, 213.000000)" sketch:type="MSShapeGroup">
                <path d="M0.5996,29.2988 L46.3996,0.5998" id="Fill-103" fill="#FFFFFF"></path>
                <path d="M0.5996,29.2988 L46.3996,0.5998" id="Stroke-104" stroke="#000000" stroke-width="5" stroke-linecap="round" stroke-linejoin="round"></path>
            </g>
            <path d="M389.3992,237.5 L389.3992,284.401 L389.3992,237.298 L389.3992,237.5 Z" id="Fill-106" fill="#FFFFFF" sketch:type="MSShapeGroup"></path>
            <path d="M389.3994,237.2988 L389.3994,237.4998 L389.3994,284.4008" id="Stroke-107" stroke="#000000" stroke-width="5" stroke-linecap="round" stroke-linejoin="round" sketch:type="MSShapeGroup"></path>
            <path d="M389.3992,284.4008 L389.3992,237.4998 L389.3992,284.4008 Z" id="Fill-108" fill="#FFFFFF" sketch:type="MSShapeGroup"></path>
            <path d="M389.3994,284.4004 L389.3994,237.5004" id="Stroke-109" stroke="#000000" stroke-width="5" stroke-linecap="round" stroke-linejoin="round" sketch:type="MSShapeGroup"></path>
            <path d="M389.3992,237.5 L389.3992,237.298 L389.3992,237.5 Z" id="Fill-110" fill="#FFFFFF" sketch:type="MSShapeGroup"></path>
            <path d="M389.3994,237.5 L389.3994,237.299" id="Stroke-111" stroke="#000000" stroke-width="5" stroke-linecap="round" stroke-linejoin="round" sketch:type="MSShapeGroup"></path>
            <path d="M299.3848,191.0664 L299.3848,135.0984 L268.0428,154.6014 L268.0428,210.5694 L299.3848,191.0664 Z" id="Fill-112" fill="#FFFFFF" sketch:type="MSShapeGroup"></path>
            <path d="M299.3848,191.0664 L299.3848,135.0984 L268.0428,154.6014 L268.0428,210.5694 L299.3848,191.0664 L299.3848,191.0664 Z" id="Stroke-113" stroke="#DD1065" stroke-width="5" stroke-linecap="round" stroke-linejoin="round" sketch:type="MSShapeGroup"></path>
            <path d="M268.043,210.5693 L268.043,154.6013 L200.149,111.7213 L200.149,167.6893 L268.043,210.5693 Z" id="Fill-114" fill="#FFFFFF" sketch:type="MSShapeGroup"></path>
            <path d="M268.043,210.5693 L268.043,154.6013 L200.149,111.7213 L200.149,167.6893 L268.043,210.5693 L268.043,210.5693 Z" id="Stroke-115" stroke="#DD1065" stroke-width="5" stroke-linecap="round" stroke-linejoin="round" sketch:type="MSShapeGroup"></path>
            <path d="M299.3848,135.0981 L299.3848,134.7541 L231.8358,91.9601 L200.1498,111.7211 L268.0428,154.6011 L299.3848,135.0981 Z" id="Fill-116" fill="#FFFFFF" sketch:type="MSShapeGroup"></path>
            <path d="M299.3848,135.0981 L299.3848,134.7541 L231.8358,91.9601 L200.1498,111.7211 L268.0428,154.6011 L299.3848,135.0981 L299.3848,135.0981 Z" id="Stroke-117" stroke="#DD1065" stroke-width="5" stroke-linecap="round" stroke-linejoin="round" sketch:type="MSShapeGroup"></path>
            <g id="Group-120" transform="translate(200.000000, 91.000000)" sketch:type="MSShapeGroup">
                <path d="M0.1494,20.7212 L31.8364,0.9602 L99.3844,43.7542 L99.3844,44.0982" id="Fill-118" fill="#FFFFFF"></path>
                <path d="M0.1494,20.7212 L31.8364,0.9602 L99.3844,43.7542 L99.3844,44.0982" id="Stroke-119" stroke="#DD1065" stroke-width="5" stroke-linecap="round" stroke-linejoin="round"></path>
            </g>
            <g id="Group-123" transform="translate(268.000000, 135.000000)" sketch:type="MSShapeGroup">
                <path d="M0.043,75.5693 L31.385,56.0663 L31.385,0.0983" id="Fill-121" fill="#FFFFFF"></path>
                <path d="M0.043,75.5693 L31.385,56.0663 L31.385,0.0983" id="Stroke-122" stroke="#DD1065" stroke-width="5" stroke-linecap="round" stroke-linejoin="round"></path>
            </g>
            <path d="M268.0432,210.5693 L268.0432,154.6013 L268.0432,210.5693 Z" id="Fill-124" fill="#FFFFFF" sketch:type="MSShapeGroup"></path>
            <path d="M268.043,210.5693 L268.043,154.6013" id="Stroke-125" stroke="#DD1065" stroke-width="5" stroke-linecap="round" stroke-linejoin="round" sketch:type="MSShapeGroup"></path>
            <g id="Group-128" transform="translate(200.000000, 111.000000)" sketch:type="MSShapeGroup">
                <path d="M0.1494,0.7212 L0.1494,56.6892 L68.0434,99.5692" id="Fill-126" fill="#FFFFFF"></path>
                <path d="M0.1494,0.7212 L0.1494,56.6892 L68.0434,99.5692" id="Stroke-127" stroke="#DD1065" stroke-width="5" stroke-linecap="round" stroke-linejoin="round"></path>
            </g>
            <g id="Group-131" transform="translate(200.000000, 111.000000)" sketch:type="MSShapeGroup">
                <path d="M68.043,43.6011 L0.149,0.7211" id="Fill-129" fill="#FFFFFF"></path>
                <path d="M68.043,43.6011 L0.149,0.7211" id="Stroke-130" stroke="#DD1065" stroke-width="5" stroke-linecap="round" stroke-linejoin="round"></path>
            </g>
            <g id="Group-134" transform="translate(268.000000, 135.000000)" sketch:type="MSShapeGroup">
                <path d="M31.3848,0.0981 L0.0428,19.6011" id="Fill-132" fill="#FFFFFF"></path>
                <path d="M31.3848,0.0981 L0.0428,19.6011" id="Stroke-133" stroke="#DD1065" stroke-width="5" stroke-linecap="round" stroke-linejoin="round"></path>
            </g>
            <path d="M383.3516,265.5146 L383.3516,197.8016 L345.4326,221.3976 L345.4326,289.1106 L383.3516,265.5146 Z" id="Fill-135" fill="#FFFFFF" sketch:type="MSShapeGroup"></path>
            <path d="M383.3516,265.5146 L383.3516,197.8016 L345.4326,221.3976 L345.4326,289.1106 L383.3516,265.5146 L383.3516,265.5146 Z" id="Stroke-136" stroke="#DD1065" stroke-width="5" stroke-linecap="round" stroke-linejoin="round" sketch:type="MSShapeGroup"></path>
            <path d="M345.4321,289.1104 L345.4321,221.3974 L263.2911,169.5184 L263.2911,237.2314 L345.4321,289.1104 Z" id="Fill-137" fill="#FFFFFF" sketch:type="MSShapeGroup"></path>
            <path d="M345.4321,289.1104 L345.4321,221.3974 L263.2911,169.5184 L263.2911,237.2314 L345.4321,289.1104 L345.4321,289.1104 Z" id="Stroke-138" stroke="#DD1065" stroke-width="5" stroke-linecap="round" stroke-linejoin="round" sketch:type="MSShapeGroup"></path>
            <path d="M383.3516,197.8018 L383.3516,197.3848 L301.6266,145.6108 L263.2906,169.5188 L345.4326,221.3978 L383.3516,197.8018 Z" id="Fill-139" fill="#FFFFFF" sketch:type="MSShapeGroup"></path>
            <path d="M383.3516,197.8018 L383.3516,197.3848 L301.6266,145.6108 L263.2906,169.5188 L345.4326,221.3978 L383.3516,197.8018 L383.3516,197.8018 Z" id="Stroke-140" stroke="#DD1065" stroke-width="5" stroke-linecap="round" stroke-linejoin="round" sketch:type="MSShapeGroup"></path>
            <path d="M345.4324,289.1105 L345.4324,221.3975 L345.4324,289.1105 Z" id="Fill-141" fill="#FFFFFF" sketch:type="MSShapeGroup"></path>
            <path d="M345.4321,289.1104 L345.4321,221.3974" id="Stroke-142" stroke="#DD1065" stroke-width="5" stroke-linecap="round" stroke-linejoin="round" sketch:type="MSShapeGroup"></path>
            <g id="Group-145" transform="translate(263.000000, 169.000000)" sketch:type="MSShapeGroup">
                <path d="M0.291,0.5186 L0.291,68.2316 L82.432,120.1106" id="Fill-143" fill="#FFFFFF"></path>
                <path d="M0.291,0.5186 L0.291,68.2316 L82.432,120.1106" id="Stroke-144" stroke="#DD1065" stroke-width="5" stroke-linecap="round" stroke-linejoin="round"></path>
            </g>
            <g id="Group-148" transform="translate(263.000000, 169.000000)" sketch:type="MSShapeGroup">
                <path d="M82.4321,52.3975 L0.2911,0.5185" id="Fill-146" fill="#FFFFFF"></path>
                <path d="M82.4321,52.3975 L0.2911,0.5185" id="Stroke-147" stroke="#DD1065" stroke-width="5" stroke-linecap="round" stroke-linejoin="round"></path>
            </g>
            <g id="Group-151" transform="translate(345.000000, 197.000000)" sketch:type="MSShapeGroup">
                <path d="M38.3516,0.8018 L0.4326,24.3978" id="Fill-149" fill="#FFFFFF"></path>
                <path d="M38.3516,0.8018 L0.4326,24.3978" id="Stroke-150" stroke="#DD1065" stroke-width="5" stroke-linecap="round" stroke-linejoin="round"></path>
            </g>
            <path d="M250.9668,207.916 L250.9668,148.345 L217.6068,169.103 L217.6068,228.675 L250.9668,207.916 Z" id="Fill-152" fill="#FFFFFF" sketch:type="MSShapeGroup"></path>
            <path d="M250.9668,207.916 L250.9668,148.345 L217.6068,169.103 L217.6068,228.675 L250.9668,207.916 L250.9668,207.916 Z" id="Stroke-153" stroke="#DD1065" stroke-width="5" stroke-linejoin="round" sketch:type="MSShapeGroup"></path>
            <path d="M217.6069,228.6748 L217.6069,169.1038 L145.3429,123.4628 L145.3429,183.0338 L217.6069,228.6748 Z" id="Fill-154" fill="#FFFFFF" sketch:type="MSShapeGroup"></path>
            <path d="M217.6069,228.6748 L217.6069,169.1038 L145.3429,123.4628 L145.3429,183.0338 L217.6069,228.6748 L217.6069,228.6748 Z" id="Stroke-155" stroke="#DD1065" stroke-width="5" stroke-linejoin="round" sketch:type="MSShapeGroup"></path>
            <path d="M250.9668,148.3452 L250.9668,147.9792 L179.0688,102.4292 L145.3428,123.4632 L217.6068,169.1032 L250.9668,148.3452 Z" id="Fill-156" fill="#FFFFFF" sketch:type="MSShapeGroup"></path>
            <path d="M250.9668,148.3452 L250.9668,147.9792 L179.0688,102.4292 L145.3428,123.4632 L217.6068,169.1032 L250.9668,148.3452 L250.9668,148.3452 Z" id="Stroke-157" stroke="#DD1065" stroke-width="5" stroke-linejoin="round" sketch:type="MSShapeGroup"></path>
            <path d="M217.6072,228.6746 L217.6072,169.1036 L217.6072,228.6746 Z" id="Fill-158" fill="#FFFFFF" sketch:type="MSShapeGroup"></path>
            <path d="M217.6069,228.6748 L217.6069,169.1038" id="Stroke-159" stroke="#DD1065" stroke-width="5" stroke-linecap="round" stroke-linejoin="round" sketch:type="MSShapeGroup"></path>
            <g id="Group-162" transform="translate(145.000000, 123.000000)" sketch:type="MSShapeGroup">
                <path d="M72.6069,46.1035 L0.3429,0.4625" id="Fill-160" fill="#FFFFFF"></path>
                <path d="M72.6069,46.1035 L0.3429,0.4625" id="Stroke-161" stroke="#DD1065" stroke-width="5" stroke-linecap="round" stroke-linejoin="round"></path>
            </g>
            <g id="Group-165" transform="translate(217.000000, 148.000000)" sketch:type="MSShapeGroup">
                <path d="M33.9668,0.3452 L0.6068,21.1032" id="Fill-163" fill="#FFFFFF"></path>
                <path d="M33.9668,0.3452 L0.6068,21.1032" id="Stroke-164" stroke="#DD1065" stroke-width="5" stroke-linecap="round" stroke-linejoin="round"></path>
            </g>
            <path d="M387.25,248.9277 L387.25,191.6267 L355.161,211.5937 L355.161,268.8957 L387.25,248.9277 Z" id="Fill-166" fill="#FFFFFF" sketch:type="MSShapeGroup"></path>
            <path d="M387.25,248.9277 L387.25,191.6267 L355.161,211.5937 L355.161,268.8957 L387.25,248.9277 L387.25,248.9277 Z" id="Stroke-167" stroke="#DD1065" stroke-width="5" stroke-linejoin="round" sketch:type="MSShapeGroup"></path>
            <path d="M355.1611,268.8955 L355.1611,211.5935 L285.6491,167.6915 L285.6491,224.9945 L355.1611,268.8955 Z" id="Fill-168" fill="#FFFFFF" sketch:type="MSShapeGroup"></path>
            <path d="M355.1611,268.8955 L355.1611,211.5935 L285.6491,167.6915 L285.6491,224.9945 L355.1611,268.8955 L355.1611,268.8955 Z" id="Stroke-169" stroke="#DD1065" stroke-width="5" stroke-linejoin="round" sketch:type="MSShapeGroup"></path>
            <path d="M387.25,191.627 L387.25,191.274 L318.091,147.46 L285.649,167.692 L355.161,211.594 L387.25,191.627 Z" id="Fill-170" fill="#FFFFFF" sketch:type="MSShapeGroup"></path>
            <path d="M387.25,191.627 L387.25,191.274 L318.091,147.46 L285.649,167.692 L355.161,211.594 L387.25,191.627 L387.25,191.627 Z" id="Stroke-171" stroke="#DD1065" stroke-width="5" stroke-linejoin="round" sketch:type="MSShapeGroup"></path>
            <path d="M355.1614,268.8956 L355.1614,211.5936 L355.1614,268.8956 Z" id="Fill-172" fill="#FFFFFF" sketch:type="MSShapeGroup"></path>
            <path d="M355.1611,268.8955 L355.1611,211.5935" id="Stroke-173" stroke="#DD1065" stroke-width="5" stroke-linecap="round" stroke-linejoin="round" sketch:type="MSShapeGroup"></path>
            <g id="Group-176" transform="translate(285.000000, 167.000000)" sketch:type="MSShapeGroup">
                <path d="M70.1611,44.5937 L0.6491,0.6917" id="Fill-174" fill="#FFFFFF"></path>
                <path d="M70.1611,44.5937 L0.6491,0.6917" id="Stroke-175" stroke="#DD1065" stroke-width="5" stroke-linecap="round" stroke-linejoin="round"></path>
            </g>
            <g id="Group-179" transform="translate(355.000000, 191.000000)" sketch:type="MSShapeGroup">
                <path d="M32.25,0.627 L0.161,20.594" id="Fill-177" fill="#FFFFFF"></path>
                <path d="M32.25,0.627 L0.161,20.594" id="Stroke-178" stroke="#DD1065" stroke-width="5" stroke-linecap="round" stroke-linejoin="round"></path>
            </g>
            <path d="M328.1494,288.8037 L328.1494,220.8417 L290.0914,244.5247 L290.0914,312.4857 L328.1494,288.8037 Z" id="Fill-180" fill="#FFFFFF" sketch:type="MSShapeGroup"></path>
            <path d="M328.1494,288.8037 L328.1494,220.8417 L290.0914,244.5247 L290.0914,312.4857 L328.1494,288.8037 L328.1494,288.8037 Z" id="Stroke-181" stroke="#DD1065" stroke-width="5" stroke-linejoin="round" sketch:type="MSShapeGroup"></path>
            <path d="M290.0913,312.4854 L290.0913,244.5244 L207.6493,192.4564 L207.6493,260.4164 L290.0913,312.4854 Z" id="Fill-182" fill="#FFFFFF" sketch:type="MSShapeGroup"></path>
            <path d="M290.0913,312.4854 L290.0913,244.5244 L207.6493,192.4564 L207.6493,260.4164 L290.0913,312.4854 L290.0913,312.4854 Z" id="Stroke-183" stroke="#DD1065" stroke-width="5" stroke-linejoin="round" sketch:type="MSShapeGroup"></path>
            <path d="M328.1494,220.8418 L328.1494,220.4238 L246.1254,168.4598 L207.6494,192.4558 L290.0914,244.5248 L328.1494,220.8418 Z" id="Fill-184" fill="#FFFFFF" sketch:type="MSShapeGroup"></path>
            <path d="M328.1494,220.8418 L328.1494,220.4238 L246.1254,168.4598 L207.6494,192.4558 L290.0914,244.5248 L328.1494,220.8418 L328.1494,220.8418 Z" id="Stroke-185" stroke="#DD1065" stroke-width="5" stroke-linejoin="round" sketch:type="MSShapeGroup"></path>
            <path d="M290.0914,312.4853 L290.0914,244.5243 L290.0914,312.4853 Z" id="Fill-186" fill="#FFFFFF" sketch:type="MSShapeGroup"></path>
            <path d="M290.0913,312.4854 L290.0913,244.5244" id="Stroke-187" stroke="#DD1065" stroke-width="5" stroke-linecap="round" stroke-linejoin="round" sketch:type="MSShapeGroup"></path>
            <g id="Group-190" transform="translate(207.000000, 192.000000)" sketch:type="MSShapeGroup">
                <path d="M83.0913,52.5244 L0.6493,0.4564" id="Fill-188" fill="#FFFFFF"></path>
                <path d="M83.0913,52.5244 L0.6493,0.4564" id="Stroke-189" stroke="#DD1065" stroke-width="5" stroke-linecap="round" stroke-linejoin="round"></path>
            </g>
            <g id="Group-193" transform="translate(290.000000, 220.000000)" sketch:type="MSShapeGroup">
                <path d="M38.1494,0.8418 L0.0914,24.5248" id="Fill-191" fill="#FFFFFF"></path>
                <path d="M38.1494,0.8418 L0.0914,24.5248" id="Stroke-192" stroke="#DD1065" stroke-width="5" stroke-linecap="round" stroke-linejoin="round"></path>
            </g>
            <path d="M197.3457,242.3496 L197.3457,186.4336 L166.0327,205.9186 L166.0327,261.8346 L197.3457,242.3496 Z" id="Fill-194" fill="#FFFFFF" sketch:type="MSShapeGroup"></path>
            <path d="M197.3457,242.3496 L197.3457,186.4336 L166.0327,205.9186 L166.0327,261.8346 L197.3457,242.3496 L197.3457,242.3496 Z" id="Stroke-195" stroke="#DD1065" stroke-width="5" stroke-linejoin="round" sketch:type="MSShapeGroup"></path>
            <path d="M166.0322,261.835 L166.0322,205.919 L98.2012,163.078 L98.2012,218.994 L166.0322,261.835 Z" id="Fill-196" fill="#FFFFFF" sketch:type="MSShapeGroup"></path>
            <path d="M166.0322,261.835 L166.0322,205.919 L98.2012,163.078 L98.2012,218.994 L166.0322,261.835 L166.0322,261.835 Z" id="Stroke-197" stroke="#DD1065" stroke-width="5" stroke-linejoin="round" sketch:type="MSShapeGroup"></path>
            <path d="M197.3457,186.4336 L197.3457,186.0896 L129.8587,143.3346 L98.2017,163.0786 L166.0327,205.9186 L197.3457,186.4336 Z" id="Fill-198" fill="#FFFFFF" sketch:type="MSShapeGroup"></path>
            <path d="M197.3457,186.4336 L197.3457,186.0896 L129.8587,143.3346 L98.2017,163.0786 L166.0327,205.9186 L197.3457,186.4336 L197.3457,186.4336 Z" id="Stroke-199" stroke="#DD1065" stroke-width="5" stroke-linejoin="round" sketch:type="MSShapeGroup"></path>
            <path d="M166.0318,261.8351 L166.0318,205.9191 L166.0318,261.8351 Z" id="Fill-200" fill="#FFFFFF" sketch:type="MSShapeGroup"></path>
            <path d="M166.0322,261.835 L166.0322,205.919" id="Stroke-201" stroke="#DD1065" stroke-width="5" stroke-linecap="round" stroke-linejoin="round" sketch:type="MSShapeGroup"></path>
            <g id="Group-204" transform="translate(98.000000, 163.000000)" sketch:type="MSShapeGroup">
                <path d="M0.2017,0.0781 L0.2017,55.9941 L68.0327,98.8351" id="Fill-202" fill="#FFFFFF"></path>
                <path d="M0.2017,0.0781 L0.2017,55.9941 L68.0327,98.8351" id="Stroke-203" stroke="#DD1065" stroke-width="5" stroke-linecap="round" stroke-linejoin="round"></path>
            </g>
            <g id="Group-207" transform="translate(98.000000, 163.000000)" sketch:type="MSShapeGroup">
                <path d="M68.0322,42.9189 L0.2012,0.0779" id="Fill-205" fill="#FFFFFF"></path>
                <path d="M68.0322,42.9189 L0.2012,0.0779" id="Stroke-206" stroke="#DD1065" stroke-width="5" stroke-linecap="round" stroke-linejoin="round"></path>
            </g>
            <g id="Group-210" transform="translate(166.000000, 186.000000)" sketch:type="MSShapeGroup">
                <path d="M31.3457,0.4336 L0.0327,19.9186" id="Fill-208" fill="#FFFFFF"></path>
                <path d="M31.3457,0.4336 L0.0327,19.9186" id="Stroke-209" stroke="#DD1065" stroke-width="5" stroke-linecap="round" stroke-linejoin="round"></path>
            </g>
            <path d="M275.4731,304.9268 L275.4731,248.9588 L244.1311,268.4618 L244.1311,324.4298 L275.4731,304.9268 Z" id="Fill-211" fill="#FFFFFF" sketch:type="MSShapeGroup"></path>
            <path d="M275.4731,304.9268 L275.4731,248.9588 L244.1311,268.4618 L244.1311,324.4298 L275.4731,304.9268 L275.4731,304.9268 Z" id="Stroke-212" stroke="#DD1065" stroke-width="5" sketch:type="MSShapeGroup"></path>
            <path d="M244.1313,324.4297 L244.1313,268.4617 L176.2373,225.5817 L176.2373,281.5497 L244.1313,324.4297 Z" id="Fill-213" fill="#FFFFFF" sketch:type="MSShapeGroup"></path>
            <path d="M244.1313,324.4297 L244.1313,268.4617 L176.2373,225.5817 L176.2373,281.5497 L244.1313,324.4297 L244.1313,324.4297 Z" id="Stroke-214" stroke="#DD1065" stroke-width="5" sketch:type="MSShapeGroup"></path>
            <path d="M275.4731,248.959 L275.4731,248.614 L207.9241,205.82 L176.2381,225.582 L244.1311,268.462 L275.4731,248.959 Z" id="Fill-215" fill="#FFFFFF" sketch:type="MSShapeGroup"></path>
            <path d="M275.4731,248.959 L275.4731,248.614 L207.9241,205.82 L176.2381,225.582 L244.1311,268.462 L275.4731,248.959 L275.4731,248.959 Z" id="Stroke-216" stroke="#DD1065" stroke-width="5" sketch:type="MSShapeGroup"></path>
            <g id="Group-219" transform="translate(176.000000, 205.000000)" sketch:type="MSShapeGroup">
                <path d="M0.2378,20.582 L31.9248,0.82 L99.4728,43.614 L99.4728,43.959" id="Fill-217" fill="#FFFFFF"></path>
                <path d="M0.2378,20.582 L31.9248,0.82 L99.4728,43.614 L99.4728,43.959" id="Stroke-218" stroke="#DD1065" stroke-width="5" stroke-linecap="round" stroke-linejoin="round"></path>
            </g>
            <g id="Group-222" transform="translate(244.000000, 248.000000)" sketch:type="MSShapeGroup">
                <path d="M0.1313,76.4297 L31.4733,56.9267 L31.4733,0.9587" id="Fill-220" fill="#FFFFFF"></path>
                <path d="M0.1313,76.4297 L31.4733,56.9267 L31.4733,0.9587" id="Stroke-221" stroke="#DD1065" stroke-width="5" stroke-linecap="round" stroke-linejoin="round"></path>
            </g>
            <path d="M244.1311,324.4301 L244.1311,268.4621 L244.1311,324.4301 Z" id="Fill-223" fill="#FFFFFF" sketch:type="MSShapeGroup"></path>
            <path d="M244.1313,324.4297 L244.1313,268.4617" id="Stroke-224" stroke="#DD1065" stroke-width="5" stroke-linecap="round" stroke-linejoin="round" sketch:type="MSShapeGroup"></path>
            <g id="Group-227" transform="translate(176.000000, 225.000000)" sketch:type="MSShapeGroup">
                <path d="M0.2378,0.582 L0.2378,56.55 L68.1318,99.43" id="Fill-225" fill="#FFFFFF"></path>
                <path d="M0.2378,0.582 L0.2378,56.55 L68.1318,99.43" id="Stroke-226" stroke="#DD1065" stroke-width="5" stroke-linecap="round" stroke-linejoin="round"></path>
            </g>
            <g id="Group-230" transform="translate(176.000000, 225.000000)" sketch:type="MSShapeGroup">
                <path d="M68.1313,43.4619 L0.2373,0.5819" id="Fill-228" fill="#FFFFFF"></path>
                <path d="M68.1313,43.4619 L0.2373,0.5819" id="Stroke-229" stroke="#DD1065" stroke-width="5" stroke-linecap="round" stroke-linejoin="round"></path>
            </g>
            <g id="Group-233" transform="translate(244.000000, 248.000000)" sketch:type="MSShapeGroup">
                <path d="M31.4731,0.959 L0.1311,20.462" id="Fill-231" fill="#FFFFFF"></path>
                <path d="M31.4731,0.959 L0.1311,20.462" id="Stroke-232" stroke="#DD1065" stroke-width="5" stroke-linecap="round" stroke-linejoin="round"></path>
            </g>
            <path d="M459.3994,100.3999 L301.8994,0.6999 L231.5994,44.2999 L389.2994,143.8999 L459.3994,100.3999 Z" id="Fill-234" fill="#FFFFFF" sketch:type="MSShapeGroup"></path>
            <path d="M231.5996,44.3999 L231.5996,44.2999 L164.8996,2.0999 L7.2996,100.3999 L74.0996,142.4999 L231.5996,44.3999 Z" id="Fill-235" fill="#FFFFFF" sketch:type="MSShapeGroup"></path>
            <path d="M74.0996,142.4995 L0.4996,188.2995 L73.9996,234.5995 L158.1996,287.9005 L230.8996,242.6995 L230.8996,241.7985 L184.8996,212.5995 L74.0996,142.4995 Z" id="Fill-236" fill="#FFFFFF" sketch:type="MSShapeGroup"></path>
            <path d="M74.0996,283.5 L230.8996,382.6 L230.8996,242.699 L158.1996,287.9 L73.9996,234.6 L74.0996,283.5 Z" id="Fill-237" fill="#FFFFFF" sketch:type="MSShapeGroup"></path>
            <path d="M388.8997,237.5 L389.3997,237.5 L389.3997,237.298 L388.8997,237.5 Z" id="Fill-238" fill="#FFFFFF" sketch:type="MSShapeGroup"></path>
            <path d="M389.3994,237.5 L388.8994,237.5 L305.7004,289.199 L231.5994,242.299 L230.8994,242.699 L230.8994,382.6 L231.5994,383 L389.3994,284.9 L389.3994,284.4 L389.3994,237.5 Z" id="Fill-239" fill="#FFFFFF" sketch:type="MSShapeGroup"></path>
            <path d="M388.8994,237.5 L389.3994,236.799 L463.2004,190.799 L389.2994,143.9 L277.3994,213.6 L231.5994,242.299 L305.7004,289.199 L388.8994,237.5 Z" id="Fill-240" fill="#FFFFFF" sketch:type="MSShapeGroup"></path>
            <g id="Group-243" transform="translate(74.000000, 234.000000)" sketch:type="MSShapeGroup">
                <path d="M0,0.5996 L84.2,53.9006 L156.9,8.6996" id="Fill-241" fill="#FFFFFF"></path>
                <path d="M0,0.5996 L84.2,53.9006 L156.9,8.6996" id="Stroke-242" stroke="#000000" stroke-width="5" stroke-linecap="round" stroke-linejoin="round"></path>
            </g>
            <path d="M388.8997,237.5 L389.3997,237.298 L388.8997,237.5 Z" id="Fill-244" fill="#FFFFFF" sketch:type="MSShapeGroup"></path>
            <path d="M388.8994,237.5 L389.3994,237.299" id="Stroke-245" stroke="#000000" stroke-width="5" stroke-linecap="round" stroke-linejoin="round" sketch:type="MSShapeGroup"></path>
            <path d="M388.8997,237.5 L389.3997,236.799 L388.8997,237.5 Z" id="Fill-246" fill="#FFFFFF" sketch:type="MSShapeGroup"></path>
            <path d="M388.8994,237.5 L389.3994,236.799" id="Stroke-247" stroke="#000000" stroke-width="5" stroke-linecap="round" stroke-linejoin="round" sketch:type="MSShapeGroup"></path>
            <path d="M389.3992,237.2984 L389.3992,236.7994 L389.3992,237.2984 Z" id="Fill-248" fill="#FFFFFF" sketch:type="MSShapeGroup"></path>
            <path d="M389.3994,236.7988 L389.3994,237.2988" id="Stroke-249" stroke="#000000" stroke-width="5" stroke-linecap="round" stroke-linejoin="round" sketch:type="MSShapeGroup"></path>
            <g id="Group-252" transform="translate(277.000000, 143.000000)" sketch:type="MSShapeGroup">
                <path d="M0.3994,70.5996 L112.2994,0.8996" id="Fill-250" fill="#FFFFFF"></path>
                <path d="M0.3994,70.5996 L112.2994,0.8996" id="Stroke-251" stroke="#000000" stroke-width="5" stroke-linecap="round" stroke-linejoin="round"></path>
            </g>
            <path d="M389.2998,143.8999 L459.3998,100.3999 L301.8998,0.6999 L231.5998,44.2999" id="Fill-253" fill="#FFFFFF" sketch:type="MSShapeGroup"></path>
            <path d="M389.2998,143.8999 L459.3998,100.3999 L301.8998,0.6999 L231.5998,44.2999" id="Stroke-254" stroke="#000000" stroke-width="5" stroke-linecap="round" stroke-linejoin="round" sketch:type="MSShapeGroup"></path>
            <path d="M389.2998,143.8999 L463.1998,190.7989 L389.3998,236.7989" id="Fill-256" fill="#FFFFFF" sketch:type="MSShapeGroup"></path>
            <path d="M389.2998,143.8999 L463.1998,190.7989 L389.3998,236.7989" id="Stroke-257" stroke="#000000" stroke-width="5" stroke-linecap="round" stroke-linejoin="round" sketch:type="MSShapeGroup"></path>
            <path d="M230.9002,45.8 L231.5992,44.4 L230.9002,45.8 Z" id="Fill-259" fill="#FFFFFF" sketch:type="MSShapeGroup"></path>
            <path d="M230.8999,45.7998 L231.5999,44.3998" id="Stroke-260" stroke="#000000" stroke-width="5" stroke-linecap="round" stroke-linejoin="round" sketch:type="MSShapeGroup"></path>
            <path d="M231.5995,44.3996 L231.5995,44.2996 L231.5995,44.3996 Z" id="Fill-261" fill="#FFFFFF" sketch:type="MSShapeGroup"></path>
            <path d="M231.5996,44.3999 L231.5996,44.2999" id="Stroke-262" stroke="#000000" stroke-width="5" stroke-linecap="round" stroke-linejoin="round" sketch:type="MSShapeGroup"></path>
            <path d="M74.0996,142.4995 L7.2996,100.3995 L164.8996,2.0995 L231.5996,44.2995" id="Fill-263" fill="#FFFFFF" sketch:type="MSShapeGroup"></path>
            <path d="M74.0996,142.4995 L7.2996,100.3995 L164.8996,2.0995 L231.5996,44.2995" id="Stroke-264" stroke="#000000" stroke-width="5" stroke-linecap="round" stroke-linejoin="round" sketch:type="MSShapeGroup"></path>
            <path d="M74.0996,142.4995 L0.4996,188.2995 L73.9996,234.5995" id="Fill-266" fill="#FFFFFF" sketch:type="MSShapeGroup"></path>
            <path d="M74.0996,142.4995 L0.4996,188.2995 L73.9996,234.5995" id="Stroke-267" stroke="#000000" stroke-width="5" stroke-linecap="round" stroke-linejoin="round" sketch:type="MSShapeGroup"></path>
            <path d="M231.5995,242.2988 L230.9005,241.7988 L231.5995,242.2988 Z" id="Fill-269" fill="#FFFFFF" sketch:type="MSShapeGroup"></path>
            <path d="M230.8999,241.7988 L231.5999,242.2988" id="Stroke-270" stroke="#000000" stroke-width="5" stroke-linecap="round" stroke-linejoin="round" sketch:type="MSShapeGroup"></path>
            <path d="M230.9002,241.7984 L230.9002,241.1004 L230.9002,241.7984 Z" id="Fill-271" fill="#FFFFFF" sketch:type="MSShapeGroup"></path>
            <path d="M230.8999,241.0996 L230.8999,241.7986" id="Stroke-272" stroke="#000000" stroke-width="5" stroke-linecap="round" stroke-linejoin="round" sketch:type="MSShapeGroup"></path>
            <path d="M230.9002,242.6993 L231.5992,242.2983 L230.9002,242.6993 Z" id="Fill-273" fill="#FFFFFF" sketch:type="MSShapeGroup"></path>
            <path d="M230.8999,242.6992 L231.5999,242.2992" id="Stroke-274" stroke="#000000" stroke-width="5" stroke-linecap="round" stroke-linejoin="round" sketch:type="MSShapeGroup"></path>
            <path d="M230.9002,242.6993 L230.9002,241.7983 L230.9002,242.6993 Z" id="Fill-275" fill="#FFFFFF" sketch:type="MSShapeGroup"></path>
            <path d="M230.8999,241.7988 L230.8999,242.6988" id="Stroke-276" stroke="#000000" stroke-width="5" stroke-linecap="round" stroke-linejoin="round" sketch:type="MSShapeGroup"></path>
            <g id="Group-279" transform="translate(184.000000, 212.000000)" sketch:type="MSShapeGroup">
                <path d="M0.8999,0.5996 L46.8999,29.7986" id="Fill-277" fill="#FFFFFF"></path>
                <path d="M0.8999,0.5996 L46.8999,29.7986" id="Stroke-278" stroke="#000000" stroke-width="5" stroke-linecap="round" stroke-linejoin="round"></path>
            </g>
            <g id="Group-282" transform="translate(74.000000, 142.000000)" sketch:type="MSShapeGroup">
                <path d="M0.0996,0.4995 L110.8996,70.5995" id="Fill-280" fill="#FFFFFF"></path>
                <path d="M0.0996,0.4995 L110.8996,70.5995" id="Stroke-281" stroke="#000000" stroke-width="5" stroke-linecap="round" stroke-linejoin="round"></path>
            </g>
            <g id="Group-285" transform="translate(74.000000, 44.000000)" sketch:type="MSShapeGroup">
                <path d="M0.0996,98.4995 L157.5996,0.3995" id="Fill-283" fill="#FFFFFF"></path>
                <path d="M0.0996,98.4995 L157.5996,0.3995" id="Stroke-284" stroke="#000000" stroke-width="5" stroke-linecap="round" stroke-linejoin="round"></path>
            </g>
            <path d="M231.5995,383.0003 L230.9005,382.5993 L231.5995,383.0003 Z" id="Fill-286" fill="#FFFFFF" sketch:type="MSShapeGroup"></path>
            <path d="M230.8999,382.5996 L231.5999,382.9996" id="Stroke-287" stroke="#000000" stroke-width="5" stroke-linecap="round" stroke-linejoin="round" sketch:type="MSShapeGroup"></path>
            <path d="M230.9002,383.4998 L231.5992,383.0008 L230.9002,382.5998 L230.9002,383.4998 Z" id="Fill-289" fill="#FFFFFF" sketch:type="MSShapeGroup"></path>
            <path d="M230.8999,382.5996 L230.8999,383.4996 L231.5999,382.9996" id="Stroke-290" stroke="#000000" stroke-width="5" stroke-linecap="round" stroke-linejoin="round" sketch:type="MSShapeGroup"></path>
            <path d="M74,234.5996 L74.1,283.4996 L230.9,382.5996" id="Fill-292" fill="#FFFFFF" sketch:type="MSShapeGroup"></path>
            <path d="M74,234.5996 L74.1,283.4996 L230.9,382.5996" id="Stroke-293" stroke="#000000" stroke-width="5" stroke-linecap="round" stroke-linejoin="round" sketch:type="MSShapeGroup"></path>
            <path d="M389.3992,284.9003 L389.3992,284.4013 L389.3992,284.9003 Z" id="Fill-295" fill="#FFFFFF" sketch:type="MSShapeGroup"></path>
            <path d="M389.3994,284.4004 L389.3994,284.9004" id="Stroke-296" stroke="#000000" stroke-width="5" stroke-linecap="round" stroke-linejoin="round" sketch:type="MSShapeGroup"></path>
            <path d="M389.3992,284.9003 L389.7002,284.6993 L389.3992,284.4013 L389.3992,284.9003 Z" id="Fill-297" fill="#FFFFFF" sketch:type="MSShapeGroup"></path>
            <path d="M389.3994,284.9004 L389.7004,284.6994 L389.3994,284.4004" id="Stroke-298" stroke="#000000" stroke-width="5" stroke-linecap="round" stroke-linejoin="round" sketch:type="MSShapeGroup"></path>
            <g id="Group-301" transform="translate(231.000000, 44.000000)" sketch:type="MSShapeGroup">
                <path d="M0.5996,0.2998 L158.2996,99.8998" id="Fill-299" fill="#FFFFFF"></path>
                <path d="M0.5996,0.2998 L158.2996,99.8998" id="Stroke-300" stroke="#000000" stroke-width="5" stroke-linecap="round" stroke-linejoin="round"></path>
            </g>
            <path d="M231.5996,383 L389.3996,284.9" id="Fill-302" fill="#FFFFFF" sketch:type="MSShapeGroup"></path>
            <path d="M231.5996,383 L389.3996,284.9" id="Stroke-303" stroke="#000000" stroke-width="5" stroke-linecap="round" stroke-linejoin="round" sketch:type="MSShapeGroup"></path>
            <path d="M230.9002,382.5998 L230.9002,242.6998 L230.9002,382.5998 Z" id="Fill-305" fill="#FFFFFF" sketch:type="MSShapeGroup"></path>
            <path d="M230.8999,242.6992 L230.8999,382.5992" id="Stroke-306" stroke="#000000" stroke-width="5" stroke-linecap="round" stroke-linejoin="round" sketch:type="MSShapeGroup"></path>
            <g id="Group-310" transform="translate(231.000000, 237.000000)" sketch:type="MSShapeGroup">
                <path d="M0.5996,5.2988 L74.7006,52.1988 L157.8996,0.4998" id="Fill-308" fill="#FFFFFF"></path>
                <path d="M0.5996,5.2988 L74.7006,52.1988 L157.8996,0.4998" id="Stroke-309" stroke="#000000" stroke-width="5" stroke-linecap="round" stroke-linejoin="round"></path>
            </g>
            <g id="Group-313" transform="translate(231.000000, 213.000000)" sketch:type="MSShapeGroup">
                <path d="M0.5996,29.2988 L46.3996,0.5998" id="Fill-311" fill="#FFFFFF"></path>
                <path d="M0.5996,29.2988 L46.3996,0.5998" id="Stroke-312" stroke="#000000" stroke-width="5" stroke-linecap="round" stroke-linejoin="round"></path>
            </g>
            <path d="M389.3992,237.5 L389.3992,284.401 L389.3992,237.298 L389.3992,237.5 Z" id="Fill-314" fill="#FFFFFF" sketch:type="MSShapeGroup"></path>
            <path d="M389.3994,237.2988 L389.3994,237.4998 L389.3994,284.4008" id="Stroke-315" stroke="#000000" stroke-width="5" stroke-linecap="round" stroke-linejoin="round" sketch:type="MSShapeGroup"></path>
            <path d="M389.3992,284.4008 L389.3992,237.4998 L389.3992,284.4008 Z" id="Fill-316" fill="#FFFFFF" sketch:type="MSShapeGroup"></path>
            <path d="M389.3994,284.4004 L389.3994,237.5004" id="Stroke-317" stroke="#000000" stroke-width="5" stroke-linecap="round" stroke-linejoin="round" sketch:type="MSShapeGroup"></path>
            <path d="M389.3992,237.5 L389.3992,237.298 L389.3992,237.5 Z" id="Fill-318" fill="#FFFFFF" sketch:type="MSShapeGroup"></path>
            <path d="M389.3994,237.5 L389.3994,237.299" id="Stroke-319" stroke="#172982" stroke-width="5" stroke-linecap="round" stroke-linejoin="round" sketch:type="MSShapeGroup"></path>
        </g>
    </g>
</svg>