<?xml version="1.0" encoding="UTF-8" standalone="no"?>
<svg width="470px" height="507px" viewBox="0 0 470 507" version="1.1" xmlns="http://www.w3.org/2000/svg" xmlns:xlink="http://www.w3.org/1999/xlink" xmlns:sketch="http://www.bohemiancoding.com/sketch/ns">
    <!-- Generator: Sketch 3.5.1 (25234) - http://www.bohemiancoding.com/sketch -->
    <title>box</title>
    <desc>Created with Sketch.</desc>
    <defs></defs>
    <g id="Page-1" stroke="none" stroke-width="1" fill="none" fill-rule="evenodd" sketch:type="MSPage">
        <g id="Imported-Layers" sketch:type="MSLayerGroup" transform="translate(3.300000, 2.000000)">
            <path d="M277.3994,213.5996 L389.2994,143.8996 L231.5994,44.2996 L231.5994,44.3996 L230.8994,45.7996 L230.8994,183.8996 L230.8994,183.9996 L277.3994,213.5996 Z" id="Fill-1" fill="#FFFFFF" sketch:type="MSShapeGroup"></path>
            <path d="M277.3994,213.5996 L389.2994,143.8996 L231.5994,44.2996 L231.5994,44.3996 L230.8994,45.7996 L230.8994,183.8996 L230.8994,183.9996 L277.3994,213.5996 L277.3994,213.5996 Z" id="Stroke-2" stroke="#000000" stroke-width="5" stroke-linejoin="round" sketch:type="MSShapeGroup"></path>
            <path d="M459.3994,100.3999 L301.8994,0.6999 L231.5994,44.2999 L389.2994,143.8999 L459.3994,100.3999 Z" id="Fill-3" fill="#FFFFFF" sketch:type="MSShapeGroup"></path>
            <path d="M459.3994,100.3999 L301.8994,0.6999 L231.5994,44.2999 L389.2994,143.8999 L459.3994,100.3999 L459.3994,100.3999 Z" id="Stroke-4" stroke="#000000" stroke-width="5" stroke-linejoin="round" sketch:type="MSShapeGroup"></path>
            <path d="M230.8999,45.7998 L231.5999,44.3998 L74.0999,142.4998 L184.8999,212.5998 L230.8999,183.8998 L230.8999,45.7998 Z" id="Fill-6" fill="#FFFFFF" sketch:type="MSShapeGroup"></path>
            <path d="M230.8999,45.7998 L231.5999,44.3998 L74.0999,142.4998 L184.8999,212.5998 L230.8999,183.8998 L230.8999,45.7998 L230.8999,45.7998 Z" id="Stroke-7" stroke="#000000" stroke-width="5" stroke-linejoin="round" sketch:type="MSShapeGroup"></path>
            <path d="M231.5996,44.3999 L231.5996,44.2999 L164.8996,2.0999 L7.2996,100.3999 L74.0996,142.4999 L231.5996,44.3999 Z" id="Fill-8" fill="#FFFFFF" sketch:type="MSShapeGroup"></path>
            <path d="M231.5996,44.3999 L231.5996,44.2999 L164.8996,2.0999 L7.2996,100.3999 L74.0996,142.4999 L231.5996,44.3999 L231.5996,44.3999 Z" id="Stroke-9" stroke="#000000" stroke-width="5" stroke-linejoin="round" sketch:type="MSShapeGroup"></path>
            <path d="M74.0996,142.4995 L0.4996,188.2995 L73.9996,234.5995 L158.1996,287.9005 L230.8996,242.6995 L230.8996,241.7985 L184.8996,212.5995 L74.0996,142.4995 Z" id="Fill-11" fill="#FFFFFF" sketch:type="MSShapeGroup"></path>
            <path d="M74.0996,142.4995 L0.4996,188.2995 L73.9996,234.5995 L158.1996,287.9005 L230.8996,242.6995 L230.8996,241.7985 L184.8996,212.5995 L74.0996,142.4995 L74.0996,142.4995 Z" id="Stroke-12" stroke="#000000" stroke-width="5" stroke-linejoin="round" sketch:type="MSShapeGroup"></path>
            <path d="M230.8999,183.9995 L230.8999,183.8995 L184.8999,212.5995 L230.8999,241.7985 L230.8999,241.0995 L230.8999,241.7985 L231.5999,242.2985 L277.3999,213.5995 L230.8999,183.9995 Z" id="Fill-14" fill="#FFFFFF" sketch:type="MSShapeGroup"></path>
            <path d="M230.8999,183.9995 L230.8999,183.8995 L184.8999,212.5995 L230.8999,241.7985 L230.8999,241.0995 L230.8999,241.7985 L231.5999,242.2985 L277.3999,213.5995 L230.8999,183.9995 L230.8999,183.9995 Z" id="Stroke-15" stroke="#000000" stroke-width="5" stroke-linejoin="round" sketch:type="MSShapeGroup"></path>
            <path d="M74.0996,283.5 L230.8996,382.6 L230.8996,242.699 L158.1996,287.9 L73.9996,234.6 L74.0996,283.5 Z" id="Fill-16" fill="#FFFFFF" sketch:type="MSShapeGroup"></path>
            <path d="M74.0996,283.5 L230.8996,382.6 L230.8996,242.699 L158.1996,287.9 L73.9996,234.6 L74.0996,283.5 L74.0996,283.5 Z" id="Stroke-17" stroke="#000000" stroke-width="5" stroke-linejoin="round" sketch:type="MSShapeGroup"></path>
            <path d="M388.8997,237.5 L389.3997,237.5 L389.3997,237.298 L388.8997,237.5 Z" id="Fill-19" fill="#FFFFFF" sketch:type="MSShapeGroup"></path>
            <path d="M388.8994,237.5 L389.3994,237.5 L389.3994,237.299 L388.8994,237.5 L388.8994,237.5 Z" id="Stroke-20" stroke="#000000" stroke-width="5" stroke-linejoin="round" sketch:type="MSShapeGroup"></path>
            <path d="M389.3994,237.5 L388.8994,237.5 L305.7004,289.199 L231.5994,242.299 L230.8994,242.699 L230.8994,382.6 L231.5994,383 L389.3994,284.9 L389.3994,284.4 L389.3994,237.5 Z" id="Fill-21" fill="#FFFFFF" sketch:type="MSShapeGroup"></path>
            <path d="M389.3994,237.5 L388.8994,237.5 L305.7004,289.199 L231.5994,242.299 L230.8994,242.699 L230.8994,382.6 L231.5994,383 L389.3994,284.9 L389.3994,284.4 L389.3994,237.5 L389.3994,237.5 Z" id="Stroke-22" stroke="#000000" stroke-width="5" stroke-linejoin="round" sketch:type="MSShapeGroup"></path>
            <path d="M388.8994,237.5 L389.3994,236.799 L463.2004,190.799 L389.2994,143.9 L277.3994,213.6 L231.5994,242.299 L305.7004,289.199 L388.8994,237.5 Z" id="Fill-24" fill="#FFFFFF" sketch:type="MSShapeGroup"></path>
            <path d="M388.8994,237.5 L389.3994,236.799 L463.2004,190.799 L389.2994,143.9 L277.3994,213.6 L231.5994,242.299 L305.7004,289.199 L388.8994,237.5 L388.8994,237.5 Z" id="Stroke-25" stroke="#000000" stroke-width="5" stroke-linejoin="round" sketch:type="MSShapeGroup"></path>
            <g id="Group-29" transform="translate(74.000000, 234.000000)" sketch:type="MSShapeGroup">
                <path d="M0,0.5996 L84.2,53.9006 L156.9,8.6996" id="Fill-27" fill="#FFFFFF"></path>
                <path d="M0,0.5996 L84.2,53.9006 L156.9,8.6996" id="Stroke-28" stroke="#000000" stroke-width="5" stroke-linecap="round" stroke-linejoin="round"></path>
            </g>
            <path d="M388.8997,237.5 L389.3997,237.298 L388.8997,237.5 Z" id="Fill-30" fill="#FFFFFF" sketch:type="MSShapeGroup"></path>
            <path d="M388.8994,237.5 L389.3994,237.299" id="Stroke-31" stroke="#000000" stroke-width="5" stroke-linecap="round" stroke-linejoin="round" sketch:type="MSShapeGroup"></path>
            <path d="M388.8997,237.5 L389.3997,236.799 L388.8997,237.5 Z" id="Fill-32" fill="#FFFFFF" sketch:type="MSShapeGroup"></path>
            <path d="M388.8994,237.5 L389.3994,236.799" id="Stroke-33" stroke="#000000" stroke-width="5" stroke-linecap="round" stroke-linejoin="round" sketch:type="MSShapeGroup"></path>
            <path d="M389.3992,237.2984 L389.3992,236.7994 L389.3992,237.2984 Z" id="Fill-34" fill="#FFFFFF" sketch:type="MSShapeGroup"></path>
            <path d="M389.3994,236.7988 L389.3994,237.2988" id="Stroke-35" stroke="#000000" stroke-width="5" stroke-linecap="round" stroke-linejoin="round" sketch:type="MSShapeGroup"></path>
            <g id="Group-38" transform="translate(277.000000, 143.000000)" sketch:type="MSShapeGroup">
                <path d="M0.3994,70.5996 L112.2994,0.8996" id="Fill-36" fill="#FFFFFF"></path>
                <path d="M0.3994,70.5996 L112.2994,0.8996" id="Stroke-37" stroke="#000000" stroke-width="5" stroke-linecap="round" stroke-linejoin="round"></path>
            </g>
            <path d="M389.2998,143.8999 L459.3998,100.3999 L301.8998,0.6999 L231.5998,44.2999" id="Fill-39" fill="#FFFFFF" sketch:type="MSShapeGroup"></path>
            <path d="M389.2998,143.8999 L459.3998,100.3999 L301.8998,0.6999 L231.5998,44.2999" id="Stroke-40" stroke="#000000" stroke-width="5" stroke-linecap="round" stroke-linejoin="round" sketch:type="MSShapeGroup"></path>
            <path d="M389.2998,143.8999 L463.1998,190.7989 L389.3998,236.7989" id="Fill-42" fill="#FFFFFF" sketch:type="MSShapeGroup"></path>
            <path d="M389.2998,143.8999 L463.1998,190.7989 L389.3998,236.7989" id="Stroke-43" stroke="#000000" stroke-width="5" stroke-linecap="round" stroke-linejoin="round" sketch:type="MSShapeGroup"></path>
            <path d="M230.9002,45.8 L230.9002,183.9 L231.5992,44.4 L230.9002,45.8 Z" id="Fill-45" fill="#FFFFFF" sketch:type="MSShapeGroup"></path>
            <path d="M230.8999,183.8999 L230.8999,45.7999 L231.5999,44.3999" id="Stroke-46" stroke="#000000" stroke-width="5" stroke-linecap="round" stroke-linejoin="round" sketch:type="MSShapeGroup"></path>
            <path d="M231.5995,44.3996 L231.5995,44.2996 L231.5995,44.3996 Z" id="Fill-47" fill="#FFFFFF" sketch:type="MSShapeGroup"></path>
            <path d="M231.5996,44.3999 L231.5996,44.2999" id="Stroke-48" stroke="#000000" stroke-width="5" stroke-linecap="round" stroke-linejoin="round" sketch:type="MSShapeGroup"></path>
            <path d="M74.0996,142.4995 L7.2996,100.3995 L164.8996,2.0995 L231.5996,44.2995" id="Fill-49" fill="#FFFFFF" sketch:type="MSShapeGroup"></path>
            <path d="M74.0996,142.4995 L7.2996,100.3995 L164.8996,2.0995 L231.5996,44.2995" id="Stroke-50" stroke="#000000" stroke-width="5" stroke-linecap="round" stroke-linejoin="round" sketch:type="MSShapeGroup"></path>
            <path d="M74.0996,142.4995 L0.4996,188.2995 L73.9996,234.5995" id="Fill-52" fill="#FFFFFF" sketch:type="MSShapeGroup"></path>
            <path d="M74.0996,142.4995 L0.4996,188.2995 L73.9996,234.5995" id="Stroke-53" stroke="#000000" stroke-width="5" stroke-linecap="round" stroke-linejoin="round" sketch:type="MSShapeGroup"></path>
            <g id="Group-57" transform="translate(230.000000, 183.000000)" sketch:type="MSShapeGroup">
                <path d="M0.8999,0.8999 L0.8999,0.9999 L47.3999,30.5999" id="Fill-55" fill="#FFFFFF"></path>
                <path d="M0.8999,0.8999 L0.8999,0.9999 L47.3999,30.5999" id="Stroke-56" stroke="#000000" stroke-width="5" stroke-linecap="round" stroke-linejoin="round"></path>
            </g>
            <path d="M231.5995,242.2988 L230.9005,241.7988 L231.5995,242.2988 Z" id="Fill-58" fill="#FFFFFF" sketch:type="MSShapeGroup"></path>
            <path d="M230.8999,241.7988 L231.5999,242.2988" id="Stroke-59" stroke="#000000" stroke-width="5" stroke-linecap="round" stroke-linejoin="round" sketch:type="MSShapeGroup"></path>
            <path d="M230.9002,241.7984 L230.9002,241.1004 L230.9002,241.7984 Z" id="Fill-60" fill="#FFFFFF" sketch:type="MSShapeGroup"></path>
            <path d="M230.8999,241.0996 L230.8999,241.7986" id="Stroke-61" stroke="#000000" stroke-width="5" stroke-linecap="round" stroke-linejoin="round" sketch:type="MSShapeGroup"></path>
            <path d="M230.9002,242.6993 L231.5992,242.2983 L230.9002,242.6993 Z" id="Fill-62" fill="#FFFFFF" sketch:type="MSShapeGroup"></path>
            <path d="M230.8999,242.6992 L231.5999,242.2992" id="Stroke-63" stroke="#000000" stroke-width="5" stroke-linecap="round" stroke-linejoin="round" sketch:type="MSShapeGroup"></path>
            <path d="M230.9002,242.6993 L230.9002,241.7983 L230.9002,242.6993 Z" id="Fill-64" fill="#FFFFFF" sketch:type="MSShapeGroup"></path>
            <path d="M230.8999,241.7988 L230.8999,242.6988" id="Stroke-65" stroke="#000000" stroke-width="5" stroke-linecap="round" stroke-linejoin="round" sketch:type="MSShapeGroup"></path>
            <g id="Group-68" transform="translate(184.000000, 212.000000)" sketch:type="MSShapeGroup">
                <path d="M0.8999,0.5996 L46.8999,29.7986" id="Fill-66" fill="#FFFFFF"></path>
                <path d="M0.8999,0.5996 L46.8999,29.7986" id="Stroke-67" stroke="#000000" stroke-width="5" stroke-linecap="round" stroke-linejoin="round"></path>
            </g>
            <g id="Group-71" transform="translate(184.000000, 183.000000)" sketch:type="MSShapeGroup">
                <path d="M0.8999,29.5996 L46.8999,0.8996" id="Fill-69" fill="#FFFFFF"></path>
                <path d="M0.8999,29.5996 L46.8999,0.8996" id="Stroke-70" stroke="#000000" stroke-width="5" stroke-linecap="round" stroke-linejoin="round"></path>
            </g>
            <g id="Group-74" transform="translate(74.000000, 142.000000)" sketch:type="MSShapeGroup">
                <path d="M0.0996,0.4995 L110.8996,70.5995" id="Fill-72" fill="#FFFFFF"></path>
                <path d="M0.0996,0.4995 L110.8996,70.5995" id="Stroke-73" stroke="#000000" stroke-width="5" stroke-linecap="round" stroke-linejoin="round"></path>
            </g>
            <g id="Group-77" transform="translate(74.000000, 44.000000)" sketch:type="MSShapeGroup">
                <path d="M0.0996,98.4995 L157.5996,0.3995" id="Fill-75" fill="#FFFFFF"></path>
                <path d="M0.0996,98.4995 L157.5996,0.3995" id="Stroke-76" stroke="#000000" stroke-width="5" stroke-linecap="round" stroke-linejoin="round"></path>
            </g>
            <path d="M231.5995,383.0003 L230.9005,382.5993 L231.5995,383.0003 Z" id="Fill-78" fill="#FFFFFF" sketch:type="MSShapeGroup"></path>
            <path d="M230.8999,382.5996 L231.5999,382.9996" id="Stroke-79" stroke="#000000" stroke-width="5" stroke-linecap="round" stroke-linejoin="round" sketch:type="MSShapeGroup"></path>
            <path d="M230.9002,383.4998 L231.5992,383.0008 L230.9002,382.5998 L230.9002,383.4998 Z" id="Fill-81" fill="#FFFFFF" sketch:type="MSShapeGroup"></path>
            <path d="M230.8999,382.5996 L230.8999,383.4996 L231.5999,382.9996" id="Stroke-82" stroke="#000000" stroke-width="5" stroke-linecap="round" stroke-linejoin="round" sketch:type="MSShapeGroup"></path>
            <path d="M74,234.5996 L74.1,283.4996 L230.9,382.5996" id="Fill-84" fill="#FFFFFF" sketch:type="MSShapeGroup"></path>
            <path d="M74,234.5996 L74.1,283.4996 L230.9,382.5996" id="Stroke-85" stroke="#000000" stroke-width="5" stroke-linecap="round" stroke-linejoin="round" sketch:type="MSShapeGroup"></path>
            <path d="M389.3992,284.9003 L389.3992,284.4013 L389.3992,284.9003 Z" id="Fill-87" fill="#FFFFFF" sketch:type="MSShapeGroup"></path>
            <path d="M389.3994,284.4004 L389.3994,284.9004" id="Stroke-88" stroke="#000000" stroke-width="5" stroke-linecap="round" stroke-linejoin="round" sketch:type="MSShapeGroup"></path>
            <path d="M389.3992,284.9003 L389.7002,284.6993 L389.3992,284.4013 L389.3992,284.9003 Z" id="Fill-89" fill="#FFFFFF" sketch:type="MSShapeGroup"></path>
            <path d="M389.3994,284.9004 L389.7004,284.6994 L389.3994,284.4004" id="Stroke-90" stroke="#000000" stroke-width="5" stroke-linecap="round" stroke-linejoin="round" sketch:type="MSShapeGroup"></path>
            <g id="Group-93" transform="translate(231.000000, 44.000000)" sketch:type="MSShapeGroup">
                <path d="M0.5996,0.2998 L158.2996,99.8998" id="Fill-91" fill="#FFFFFF"></path>
                <path d="M0.5996,0.2998 L158.2996,99.8998" id="Stroke-92" stroke="#000000" stroke-width="5" stroke-linecap="round" stroke-linejoin="round"></path>
            </g>
            <path d="M231.5996,383 L389.3996,284.9" id="Fill-94" fill="#FFFFFF" sketch:type="MSShapeGroup"></path>
            <path d="M231.5996,383 L389.3996,284.9" id="Stroke-95" stroke="#000000" stroke-width="5" stroke-linecap="round" stroke-linejoin="round" sketch:type="MSShapeGroup"></path>
            <path d="M230.9002,382.5998 L230.9002,242.6998 L230.9002,382.5998 Z" id="Fill-97" fill="#FFFFFF" sketch:type="MSShapeGroup"></path>
            <path d="M230.8999,242.6992 L230.8999,382.5992" id="Stroke-98" stroke="#000000" stroke-width="5" stroke-linecap="round" stroke-linejoin="round" sketch:type="MSShapeGroup"></path>
            <g id="Group-102" transform="translate(231.000000, 237.000000)" sketch:type="MSShapeGroup">
                <path d="M0.5996,5.2988 L74.7006,52.1988 L157.8996,0.4998" id="Fill-100" fill="#FFFFFF"></path>
                <path d="M0.5996,5.2988 L74.7006,52.1988 L157.8996,0.4998" id="Stroke-101" stroke="#000000" stroke-width="5" stroke-linecap="round" stroke-linejoin="round"></path>
            </g>
            <g id="Group-105" transform="translate(231.000000, 213.000000)" sketch:type="MSShapeGroup">
                <path d="M0.5996,29.2988 L46.3996,0.5998" id="Fill-103" fill="#FFFFFF"></path>
                <path d="M0.5996,29.2988 L46.3996,0.5998" id="Stroke-104" stroke="#000000" stroke-width="5" stroke-linecap="round" stroke-linejoin="round"></path>
            </g>
            <path d="M389.3992,237.5 L389.3992,284.401 L389.3992,237.298 L389.3992,237.5 Z" id="Fill-106" fill="#FFFFFF" sketch:type="MSShapeGroup"></path>
            <path d="M389.3994,237.2988 L389.3994,237.4998 L389.3994,284.4008" id="Stroke-107" stroke="#000000" stroke-width="5" stroke-linecap="round" stroke-linejoin="round" sketch:type="MSShapeGroup"></path>
            <path d="M389.3992,284.4008 L389.3992,237.4998 L389.3992,284.4008 Z" id="Fill-108" fill="#FFFFFF" sketch:type="MSShapeGroup"></path>
            <path d="M389.3994,284.4004 L389.3994,237.5004" id="Stroke-109" stroke="#000000" stroke-width="5" stroke-linecap="round" stroke-linejoin="round" sketch:type="MSShapeGroup"></path>
            <path d="M389.3992,237.5 L389.3992,237.298 L389.3992,237.5 Z" id="Fill-110" fill="#FFFFFF" sketch:type="MSShapeGroup"></path>
            <path d="M389.3994,237.5 L389.3994,237.299" id="Stroke-111" stroke="#000000" stroke-width="5" stroke-linecap="round" stroke-linejoin="round" sketch:type="MSShapeGroup"></path>
            <path d="M299.3848,191.0664 L299.3848,135.0984 L268.0428,154.6014 L268.0428,210.5694 L299.3848,191.0664 Z" id="Fill-112" fill="#FFFFFF" sketch:type="MSShapeGroup"></path>
            <path d="M299.3848,191.0664 L299.3848,135.0984 L268.0428,154.6014 L268.0428,210.5694 L299.3848,191.0664 L299.3848,191.0664 Z" id="Stroke-113" stroke="#DD1065" stroke-width="5" stroke-linecap="round" stroke-linejoin="round" sketch:type="MSShapeGroup"></path>
            <path d="M268.043,210.5693 L268.043,154.6013 L200.149,111.7213 L200.149,167.6893 L268.043,210.5693 Z" id="Fill-114" fill="#FFFFFF" sketch:type="MSShapeGroup"></path>
            <path d="M268.043,210.5693 L268.043,154.6013 L200.149,111.7213 L200.149,167.6893 L268.043,210.5693 L268.043,210.5693 Z" id="Stroke-115" stroke="#DD1065" stroke-width="5" stroke-linecap="round" stroke-linejoin="round" sketch:type="MSShapeGroup"></path>
            <path d="M299.3848,135.0981 L299.3848,134.7541 L231.8358,91.9601 L200.1498,111.7211 L268.0428,154.6011 L299.3848,135.0981 Z" id="Fill-116" fill="#FFFFFF" sketch:type="MSShapeGroup"></path>
            <path d="M299.3848,135.0981 L299.3848,134.7541 L231.8358,91.9601 L200.1498,111.7211 L268.0428,154.6011 L299.3848,135.0981 L299.3848,135.0981 Z" id="Stroke-117" stroke="#DD1065" stroke-width="5" stroke-linecap="round" stroke-linejoin="round" sketch:type="MSShapeGroup"></path>
            <g id="Group-120" transform="translate(200.000000, 91.000000)" sketch:type="MSShapeGroup">
                <path d="M0.1494,20.7212 L31.8364,0.9602 L99.3844,43.7542 L99.3844,44.0982" id="Fill-118" fill="#FFFFFF"></path>
                <path d="M0.1494,20.7212 L31.8364,0.9602 L99.3844,43.7542 L99.3844,44.0982" id="Stroke-119" stroke="#DD1065" stroke-width="5" stroke-linecap="round" stroke-linejoin="round"></path>
            </g>
            <g id="Group-123" transform="translate(268.000000, 135.000000)" sketch:type="MSShapeGroup">
                <path d="M0.043,75.5693 L31.385,56.0663 L31.385,0.0983" id="Fill-121" fill="#FFFFFF"></path>
                <path d="M0.043,75.5693 L31.385,56.0663 L31.385,0.0983" id="Stroke-122" stroke="#DD1065" stroke-width="5" stroke-linecap="round" stroke-linejoin="round"></path>
            </g>
            <path d="M268.0432,210.5693 L268.0432,154.6013 L268.0432,210.5693 Z" id="Fill-124" fill="#FFFFFF" sketch:type="MSShapeGroup"></path>
            <path d="M268.043,210.5693 L268.043,154.6013" id="Stroke-125" stroke="#DD1065" stroke-width="5" stroke-linecap="round" stroke-linejoin="round" sketch:type="MSShapeGroup"></path>
            <g id="Group-128" transform="translate(200.000000, 111.000000)" sketch:type="MSShapeGroup">
                <path d="M0.1494,0.7212 L0.1494,56.6892 L68.0434,99.5692" id="Fill-126" fill="#FFFFFF"></path>
                <path d="M0.1494,0.7212 L0.1494,56.6892 L68.0434,99.5692" id="Stroke-127" stroke="#DD1065" stroke-width="5" stroke-linecap="round" stroke-linejoin="round"></path>
            </g>
            <g id="Group-131" transform="translate(200.000000, 111.000000)" sketch:type="MSShapeGroup">
                <path d="M68.043,43.6011 L0.149,0.7211" id="Fill-129" fill="#FFFFFF"></path>
                <path d="M68.043,43.6011 L0.149,0.7211" id="Stroke-130" stroke="#DD1065" stroke-width="5" stroke-linecap="round" stroke-linejoin="round"></path>
            </g>
            <g id="Group-134" transform="translate(268.000000, 135.000000)" sketch:type="MSShapeGroup">
                <path d="M31.3848,0.0981 L0.0428,19.6011" id="Fill-132" fill="#FFFFFF"></path>
                <path d="M31.3848,0.0981 L0.0428,19.6011" id="Stroke-133" stroke="#DD1065" stroke-width="5" stroke-linecap="round" stroke-linejoin="round"></path>
            </g>
            <path d="M383.3516,265.5146 L383.3516,197.8016 L345.4326,221.3976 L345.4326,289.1106 L383.3516,265.5146 Z" id="Fill-135" fill="#FFFFFF" sketch:type="MSShapeGroup"></path>
            <path d="M383.3516,265.5146 L383.3516,197.8016 L345.4326,221.3976 L345.4326,289.1106 L383.3516,265.5146 L383.3516,265.5146 Z" id="Stroke-136" stroke="#DD1065" stroke-width="5" stroke-linecap="round" stroke-linejoin="round" sketch:type="MSShapeGroup"></path>
            <path d="M345.4321,289.1104 L345.4321,221.3974 L263.2911,169.5184 L263.2911,237.2314 L345.4321,289.1104 Z" id="Fill-137" fill="#FFFFFF" sketch:type="MSShapeGroup"></path>
            <path d="M345.4321,289.1104 L345.4321,221.3974 L263.2911,169.5184 L263.2911,237.2314 L345.4321,289.1104 L345.4321,289.1104 Z" id="Stroke-138" stroke="#DD1065" stroke-width="5" stroke-linecap="round" stroke-linejoin="round" sketch:type="MSShapeGroup"></path>
            <path d="M383.3516,197.8018 L383.3516,197.3848 L301.6266,145.6108 L263.2906,169.5188 L345.4326,221.3978 L383.3516,197.8018 Z" id="Fill-139" fill="#FFFFFF" sketch:type="MSShapeGroup"></path>
            <path d="M383.3516,197.8018 L383.3516,197.3848 L301.6266,145.6108 L263.2906,169.5188 L345.4326,221.3978 L383.3516,197.8018 L383.3516,197.8018 Z" id="Stroke-140" stroke="#DD1065" stroke-width="5" stroke-linecap="round" stroke-linejoin="round" sketch:type="MSShapeGroup"></path>
            <path d="M345.4324,289.1105 L345.4324,221.3975 L345.4324,289.1105 Z" id="Fill-141" fill="#FFFFFF" sketch:type="MSShapeGroup"></path>
            <path d="M345.4321,289.1104 L345.4321,221.3974" id="Stroke-142" stroke="#DD1065" stroke-width="5" stroke-linecap="round" stroke-linejoin="round" sketch:type="MSShapeGroup"></path>
            <g id="Group-145" transform="translate(263.000000, 169.000000)" sketch:type="MSShapeGroup">
                <path d="M0.291,0.5186 L0.291,68.2316 L82.432,120.1106" id="Fill-143" fill="#FFFFFF"></path>
                <path d="M0.291,0.5186 L0.291,68.2316 L82.432,120.1106" id="Stroke-144" stroke="#DD1065" stroke-width="5" stroke-linecap="round" stroke-linejoin="round"></path>
            </g>
            <g id="Group-148" transform="translate(263.000000, 169.000000)" sketch:type="MSShapeGroup">
                <path d="M82.4321,52.3975 L0.2911,0.5185" id="Fill-146" fill="#FFFFFF"></path>
                <path d="M82.4321,52.3975 L0.2911,0.5185" id="Stroke-147" stroke="#DD1065" stroke-width="5" stroke-linecap="round" stroke-linejoin="round"></path>
            </g>
            <g id="Group-151" transform="translate(345.000000, 197.000000)" sketch:type="MSShapeGroup">
                <path d="M38.3516,0.8018 L0.4326,24.3978" id="Fill-149" fill="#FFFFFF"></path>
                <path d="M38.3516,0.8018 L0.4326,24.3978" id="Stroke-150" stroke="#DD1065" stroke-width="5" stroke-linecap="round" stroke-linejoin="round"></path>
            </g>
            <path d="M250.9668,207.916 L250.9668,148.345 L217.6068,169.103 L217.6068,228.675 L250.9668,207.916 Z" id="Fill-152" fill="#FFFFFF" sketch:type="MSShapeGroup"></path>
            <path d="M250.9668,207.916 L250.9668,148.345 L217.6068,169.103 L217.6068,228.675 L250.9668,207.916 L250.9668,207.916 Z" id="Stroke-153" stroke="#DD1065" stroke-width="5" stroke-linejoin="round" sketch:type="MSShapeGroup"></path>
            <path d="M217.6069,228.6748 L217.6069,169.1038 L145.3429,123.4628 L145.3429,183.0338 L217.6069,228.6748 Z" id="Fill-154" fill="#FFFFFF" sketch:type="MSShapeGroup"></path>
            <path d="M217.6069,228.6748 L217.6069,169.1038 L145.3429,123.4628 L145.3429,183.0338 L217.6069,228.6748 L217.6069,228.6748 Z" id="Stroke-155" stroke="#DD1065" stroke-width="5" stroke-linejoin="round" sketch:type="MSShapeGroup"></path>
            <path d="M250.9668,148.3452 L250.9668,147.9792 L179.0688,102.4292 L145.3428,123.4632 L217.6068,169.1032 L250.9668,148.3452 Z" id="Fill-156" fill="#FFFFFF" sketch:type="MSShapeGroup"></path>
            <path d="M250.9668,148.3452 L250.9668,147.9792 L179.0688,102.4292 L145.3428,123.4632 L217.6068,169.1032 L250.9668,148.3452 L250.9668,148.3452 Z" id="Stroke-157" stroke="#DD1065" stroke-width="5" stroke-linejoin="round" sketch:type="MSShapeGroup"></path>
            <path d="M217.6072,228.6746 L217.6072,169.1036 L217.6072,228.6746 Z" id="Fill-158" fill="#FFFFFF" sketch:type="MSShapeGroup"></path>
            <path d="M217.6069,228.6748 L217.6069,169.1038" id="Stroke-159" stroke="#DD1065" stroke-width="5" stroke-linecap="round" stroke-linejoin="round" sketch:type="MSShapeGroup"></path>
            <g id="Group-162" transform="translate(145.000000, 123.000000)" sketch:type="MSShapeGroup">
                <path d="M72.6069,46.1035 L0.3429,0.4625" id="Fill-160" fill="#FFFFFF"></path>
                <path d="M72.6069,46.1035 L0.3429,0.4625" id="Stroke-161" stroke="#DD1065" stroke-width="5" stroke-linecap="round" stroke-linejoin="round"></path>
            </g>
            <g id="Group-165" transform="translate(217.000000, 148.000000)" sketch:type="MSShapeGroup">
                <path d="M33.9668,0.3452 L0.6068,21.1032" id="Fill-163" fill="#FFFFFF"></path>
                <path d="M33.9668,0.3452 L0.6068,21.1032" id="Stroke-164" stroke="#DD1065" stroke-width="5" stroke-linecap="round" stroke-linejoin="round"></path>
            </g>
            <path d="M387.25,248.9277 L387.25,191.6267 L355.161,211.5937 L355.161,268.8957 L387.25,248.9277 Z" id="Fill-166" fill="#FFFFFF" sketch:type="MSShapeGroup"></path>
            <path d="M387.25,248.9277 L387.25,191.6267 L355.161,211.5937 L355.161,268.8957 L387.25,248.9277 L387.25,248.9277 Z" id="Stroke-167" stroke="#DD1065" stroke-width="5" stroke-linejoin="round" sketch:type="MSShapeGroup"></path>
            <path d="M355.1611,268.8955 L355.1611,211.5935 L285.6491,167.6915 L285.6491,224.9945 L355.1611,268.8955 Z" id="Fill-168" fill="#FFFFFF" sketch:type="MSShapeGroup"></path>
            <path d="M355.1611,268.8955 L355.1611,211.5935 L285.6491,167.6915 L285.6491,224.9945 L355.1611,268.8955 L355.1611,268.8955 Z" id="Stroke-169" stroke="#DD1065" stroke-width="5" stroke-linejoin="round" sketch:type="MSShapeGroup"></path>
            <path d="M387.25,191.627 L387.25,191.274 L318.091,147.46 L285.649,167.692 L355.161,211.594 L387.25,191.627 Z" id="Fill-170" fill="#FFFFFF" sketch:type="MSShapeGroup"></path>
            <path d="M387.25,191.627 L387.25,191.274 L318.091,147.46 L285.649,167.692 L355.161,211.594 L387.25,191.627 L387.25,191.627 Z" id="Stroke-171" stroke="#DD1065" stroke-width="5" stroke-linejoin="round" sketch:type="MSShapeGroup"></path>
            <path d="M355.1614,268.8956 L355.1614,211.5936 L355.1614,268.8956 Z" id="Fill-172" fill="#FFFFFF" sketch:type="MSShapeGroup"></path>
            <path d="M355.1611,268.8955 L355.1611,211.5935" id="Stroke-173" stroke="#DD1065" stroke-width="5" stroke-linecap="round" stroke-linejoin="round" sketch:type="MSShapeGroup"></path>
            <g id="Group-176" transform="translate(285.000000, 167.000000)" sketch:type="MSShapeGroup">
                <path d="M70.1611,44.5937 L0.6491,0.6917" id="Fill-174" fill="#FFFFFF"></path>
                <path d="M70.1611,44.5937 L0.6491,0.6917" id="Stroke-175" stroke="#DD1065" stroke-width="5" stroke-linecap="round" stroke-linejoin="round"></path>
            </g>
            <g id="Group-179" transform="translate(355.000000, 191.000000)" sketch:type="MSShapeGroup">
                <path d="M32.25,0.627 L0.161,20.594" id="Fill-177" fill="#FFFFFF"></path>
                <path d="M32.25,0.627 L0.161,20.594" id="Stroke-178" stroke="#DD1065" stroke-width="5" stroke-linecap="round" stroke-linejoin="round"></path>
            </g>
            <path d="M328.1494,288.8037 L328.1494,220.8417 L290.0914,244.5247 L290.0914,312.4857 L328.1494,288.8037 Z" id="Fill-180" fill="#FFFFFF" sketch:type="MSShapeGroup"></path>
            <path d="M328.1494,288.8037 L328.1494,220.8417 L290.0914,244.5247 L290.0914,312.4857 L328.1494,288.8037 L328.1494,288.8037 Z" id="Stroke-181" stroke="#DD1065" stroke-width="5" stroke-linejoin="round" sketch:type="MSShapeGroup"></path>
            <path d="M290.0913,312.4854 L290.0913,244.5244 L207.6493,192.4564 L207.6493,260.4164 L290.0913,312.4854 Z" id="Fill-182" fill="#FFFFFF" sketch:type="MSShapeGroup"></path>
            <path d="M290.0913,312.4854 L290.0913,244.5244 L207.6493,192.4564 L207.6493,260.4164 L290.0913,312.4854 L290.0913,312.4854 Z" id="Stroke-183" stroke="#DD1065" stroke-width="5" stroke-linejoin="round" sketch:type="MSShapeGroup"></path>
            <path d="M328.1494,220.8418 L328.1494,220.4238 L246.1254,168.4598 L207.6494,192.4558 L290.0914,244.5248 L328.1494,220.8418 Z" id="Fill-184" fill="#FFFFFF" sketch:type="MSShapeGroup"></path>
            <path d="M328.1494,220.8418 L328.1494,220.4238 L246.1254,168.4598 L207.6494,192.4558 L290.0914,244.5248 L328.1494,220.8418 L328.1494,220.8418 Z" id="Stroke-185" stroke="#DD1065" stroke-width="5" stroke-linejoin="round" sketch:type="MSShapeGroup"></path>
            <path d="M290.0914,312.4853 L290.0914,244.5243 L290.0914,312.4853 Z" id="Fill-186" fill="#FFFFFF" sketch:type="MSShapeGroup"></path>
            <path d="M290.0913,312.4854 L290.0913,244.5244" id="Stroke-187" stroke="#DD1065" stroke-width="5" stroke-linecap="round" stroke-linejoin="round" sketch:type="MSShapeGroup"></path>
            <g id="Group-190" transform="translate(207.000000, 192.000000)" sketch:type="MSShapeGroup">
                <path d="M83.0913,52.5244 L0.6493,0.4564" id="Fill-188" fill="#FFFFFF"></path>
                <path d="M83.0913,52.5244 L0.6493,0.4564" id="Stroke-189" stroke="#DD1065" stroke-width="5" stroke-linecap="round" stroke-linejoin="round"></path>
            </g>
            <g id="Group-193" transform="translate(290.000000, 220.000000)" sketch:type="MSShapeGroup">
                <path d="M38.1494,0.8418 L0.0914,24.5248" id="Fill-191" fill="#FFFFFF"></path>
                <path d="M38.1494,0.8418 L0.0914,24.5248" id="Stroke-192" stroke="#DD1065" stroke-width="5" stroke-linecap="round" stroke-linejoin="round"></path>
            </g>
            <path d="M197.3457,242.3496 L197.3457,186.4336 L166.0327,205.9186 L166.0327,261.8346 L197.3457,242.3496 Z" id="Fill-194" fill="#FFFFFF" sketch:type="MSShapeGroup"></path>
            <path d="M197.3457,242.3496 L197.3457,186.4336 L166.0327,205.9186 L166.0327,261.8346 L197.3457,242.3496 L197.3457,242.3496 Z" id="Stroke-195" stroke="#DD1065" stroke-width="5" stroke-linejoin="round" sketch:type="MSShapeGroup"></path>
            <path d="M166.0322,261.835 L166.0322,205.919 L98.2012,163.078 L98.2012,218.994 L166.0322,261.835 Z" id="Fill-196" fill="#FFFFFF" sketch:type="MSShapeGroup"></path>
            <path d="M166.0322,261.835 L166.0322,205.919 L98.2012,163.078 L98.2012,218.994 L166.0322,261.835 L166.0322,261.835 Z" id="Stroke-197" stroke="#DD1065" stroke-width="5" stroke-linejoin="round" sketch:type="MSShapeGroup"></path>
            <path d="M197.3457,186.4336 L197.3457,186.0896 L129.8587,143.3346 L98.2017,163.0786 L166.0327,205.9186 L197.3457,186.4336 Z" id="Fill-198" fill="#FFFFFF" sketch:type="MSShapeGroup"></path>
            <path d="M197.3457,186.4336 L197.3457,186.0896 L129.8587,143.3346 L98.2017,163.0786 L166.0327,205.9186 L197.3457,186.4336 L197.3457,186.4336 Z" id="Stroke-199" stroke="#DD1065" stroke-width="5" stroke-linejoin="round" sketch:type="MSShapeGroup"></path>
            <path d="M166.0318,261.8351 L166.0318,205.9191 L166.0318,261.8351 Z" id="Fill-200" fill="#FFFFFF" sketch:type="MSShapeGroup"></path>
            <path d="M166.0322,261.835 L166.0322,205.919" id="Stroke-201" stroke="#DD1065" stroke-width="5" stroke-linecap="round" stroke-linejoin="round" sketch:type="MSShapeGroup"></path>
            <g id="Group-204" transform="translate(98.000000, 163.000000)" sketch:type="MSShapeGroup">
                <path d="M0.2017,0.0781 L0.2017,55.9941 L68.0327,98.8351" id="Fill-202" fill="#FFFFFF"></path>
                <path d="M0.2017,0.0781 L0.2017,55.9941 L68.0327,98.8351" id="Stroke-203" stroke="#DD1065" stroke-width="5" stroke-linecap="round" stroke-linejoin="round"></path>
            </g>
            <g id="Group-207" transform="translate(98.000000, 163.000000)" sketch:type="MSShapeGroup">
                <path d="M68.0322,42.9189 L0.2012,0.0779" id="Fill-205" fill="#FFFFFF"></path>
                <path d="M68.0322,42.9189 L0.2012,0.0779" id="Stroke-206" stroke="#DD1065" stroke-width="5" stroke-linecap="round" stroke-linejoin="round"></path>
            </g>
            <g id="Group-210" transform="translate(166.000000, 186.000000)" sketch:type="MSShapeGroup">
                <path d="M31.3457,0.4336 L0.0327,19.9186" id="Fill-208" fill="#FFFFFF"></path>
                <path d="M31.3457,0.4336 L0.0327,19.9186" id="Stroke-209" stroke="#DD1065" stroke-width="5" stroke-linecap="round" stroke-linejoin="round"></path>
            </g>
            <path d="M275.4731,304.9268 L275.4731,248.9588 L244.1311,268.4618 L244.1311,324.4298 L275.4731,304.9268 Z" id="Fill-211" fill="#FFFFFF" sketch:type="MSShapeGroup"></path>
            <path d="M275.4731,304.9268 L275.4731,248.9588 L244.1311,268.4618 L244.1311,324.4298 L275.4731,304.9268 L275.4731,304.9268 Z" id="Stroke-212" stroke="#DD1065" stroke-width="5" sketch:type="MSShapeGroup"></path>
            <path d="M244.1313,324.4297 L244.1313,268.4617 L176.2373,225.5817 L176.2373,281.5497 L244.1313,324.4297 Z" id="Fill-213" fill="#FFFFFF" sketch:type="MSShapeGroup"></path>
            <path d="M244.1313,324.4297 L244.1313,268.4617 L176.2373,225.5817 L176.2373,281.5497 L244.1313,324.4297 L244.1313,324.4297 Z" id="Stroke-214" stroke="#DD1065" stroke-width="5" sketch:type="MSShapeGroup"></path>
            <path d="M275.4731,248.959 L275.4731,248.614 L207.9241,205.82 L176.2381,225.582 L244.1311,268.462 L275.4731,248.959 Z" id="Fill-215" fill="#FFFFFF" sketch:type="MSShapeGroup"></path>
            <path d="M275.4731,248.959 L275.4731,248.614 L207.9241,205.82 L176.2381,225.582 L244.1311,268.462 L275.4731,248.959 L275.4731,248.959 Z" id="Stroke-216" stroke="#DD1065" stroke-width="5" sketch:type="MSShapeGroup"></path>
            <g id="Group-219" transform="translate(176.000000, 205.000000)" sketch:type="MSShapeGroup">
                <path d="M0.2378,20.582 L31.9248,0.82 L99.4728,43.614 L99.4728,43.959" id="Fill-217" fill="#FFFFFF"></path>
                <path d="M0.2378,20.582 L31.9248,0.82 L99.4728,43.614 L99.4728,43.959" id="Stroke-218" stroke="#DD1065" stroke-width="5" stroke-linecap="round" stroke-linejoin="round"></path>
            </g>
            <g id="Group-222" transform="translate(244.000000, 248.000000)" sketch:type="MSShapeGroup">
                <path d="M0.1313,76.4297 L31.4733,56.9267 L31.4733,0.9587" id="Fill-220" fill="#FFFFFF"></path>
                <path d="M0.1313,76.4297 L31.4733,56.9267 L31.4733,0.9587" id="Stroke-221" stroke="#DD1065" stroke-width="5" stroke-linecap="round" stroke-linejoin="round"></path>
            </g>
            <path d="M244.1311,324.4301 L244.1311,268.4621 L244.1311,324.4301 Z" id="Fill-223" fill="#FFFFFF" sketch:type="MSShapeGroup"></path>
            <path d="M244.1313,324.4297 L244.1313,268.4617" id="Stroke-224" stroke="#DD1065" stroke-width="5" stroke-linecap="round" stroke-linejoin="round" sketch:type="MSShapeGroup"></path>
            <g id="Group-227" transform="translate(176.000000, 225.000000)" sketch:type="MSShapeGroup">
                <path d="M0.2378,0.582 L0.2378,56.55 L68.1318,99.43" id="Fill-225" fill="#FFFFFF"></path>
                <path d="M0.2378,0.582 L0.2378,56.55 L68.1318,99.43" id="Stroke-226" stroke="#DD1065" stroke-width="5" stroke-linecap="round" stroke-linejoin="round"></path>
            </g>
            <g id="Group-230" transform="translate(176.000000, 225.000000)" sketch:type="MSShapeGroup">
                <path d="M68.1313,43.4619 L0.2373,0.5819" id="Fill-228" fill="#FFFFFF"></path>
                <path d="M68.1313,43.4619 L0.2373,0.5819" id="Stroke-229" stroke="#DD1065" stroke-width="5" stroke-linecap="round" stroke-linejoin="round"></path>
            </g>
            <g id="Group-233" transform="translate(244.000000, 248.000000)" sketch:type="MSShapeGroup">
                <path d="M31.4731,0.959 L0.1311,20.462" id="Fill-231" fill="#FFFFFF"></path>
                <path d="M31.4731,0.959 L0.1311,20.462" id="Stroke-232" stroke="#DD1065" stroke-width="5" stroke-linecap="round" stroke-linejoin="round"></path>
            </g>
            <path d="M459.3994,100.3999 L301.8994,0.6999 L231.5994,44.2999 L389.2994,143.8999 L459.3994,100.3999 Z" id="Fill-234" fill="#FFFFFF" sketch:type="MSShapeGroup"></path>
            <path d="M231.5996,44.3999 L231.5996,44.2999 L164.8996,2.0999 L7.2996,100.3999 L74.0996,142.4999 L231.5996,44.3999 Z" id="Fill-235" fill="#FFFFFF" sketch:type="MSShapeGroup"></path>
            <path d="M74.0996,142.4995 L0.4996,188.2995 L73.9996,234.5995 L158.1996,287.9005 L230.8996,242.6995 L230.8996,241.7985 L184.8996,212.5995 L74.0996,142.4995 Z" id="Fill-236" fill="#FFFFFF" sketch:type="MSShapeGroup"></path>
            <path d="M74.0996,283.5 L230.8996,382.6 L230.8996,242.699 L158.1996,287.9 L73.9996,234.6 L74.0996,283.5 Z" id="Fill-237" fill="#FFFFFF" sketch:type="MSShapeGroup"></path>
            <path d="M388.8997,237.5 L389.3997,237.5 L389.3997,237.298 L388.8997,237.5 Z" id="Fill-238" fill="#FFFFFF" sketch:type="MSShapeGroup"></path>
            <path d="M389.3994,237.5 L388.8994,237.5 L305.7004,289.199 L231.5994,242.299 L230.8994,242.699 L230.8994,382.6 L231.5994,383 L389.3994,284.9 L389.3994,284.4 L389.3994,237.5 Z" id="Fill-239" fill="#FFFFFF" sketch:type="MSShapeGroup"></path>
            <path d="M388.8994,237.5 L389.3994,236.799 L463.2004,190.799 L389.2994,143.9 L277.3994,213.6 L231.5994,242.299 L305.7004,289.199 L388.8994,237.5 Z" id="Fill-240" fill="#FFFFFF" sketch:type="MSShapeGroup"></path>
            <g id="Group-243" transform="translate(74.000000, 234.000000)" sketch:type="MSShapeGroup">
                <path d="M0,0.5996 L84.2,53.9006 L156.9,8.6996" id="Fill-241" fill="#FFFFFF"></path>
                <path d="M0,0.5996 L84.2,53.9006 L156.9,8.6996" id="Stroke-242" stroke="#000000" stroke-width="5" stroke-linecap="round" stroke-linejoin="round"></path>
            </g>
            <path d="M388.8997,237.5 L389.3997,237.298 L388.8997,237.5 Z" id="Fill-244" fill="#FFFFFF" sketch:type="MSShapeGroup"></path>
            <path d="M388.8994,237.5 L389.3994,237.299" id="Stroke-245" stroke="#000000" stroke-width="5" stroke-linecap="round" stroke-linejoin="round" sketch:type="MSShapeGroup"></path>
            <path d="M388.8997,237.5 L389.3997,236.799 L388.8997,237.5 Z" id="Fill-246" fill="#FFFFFF" sketch:type="MSShapeGroup"></path>
            <path d="M388.8994,237.5 L389.3994,236.799" id="Stroke-247" stroke="#000000" stroke-width="5" stroke-linecap="round" stroke-linejoin="round" sketch:type="MSShapeGroup"></path>
            <path d="M389.3992,237.2984 L389.3992,236.7994 L389.3992,237.2984 Z" id="Fill-248" fill="#FFFFFF" sketch:type="MSShapeGroup"></path>
            <path d="M389.3994,236.7988 L389.3994,237.2988" id="Stroke-249" stroke="#000000" stroke-width="5" stroke-linecap="round" stroke-linejoin="round" sketch:type="MSShapeGroup"></path>
            <g id="Group-252" transform="translate(277.000000, 143.000000)" sketch:type="MSShapeGroup">
                <path d="M0.3994,70.5996 L112.2994,0.8996" id="Fill-250" fill="#FFFFFF"></path>
                <path d="M0.3994,70.5996 L112.2994,0.8996" id="Stroke-251" stroke="#000000" stroke-width="5" stroke-linecap="round" stroke-linejoin="round"></path>
            </g>
            <path d="M389.2998,143.8999 L459.3998,100.3999 L301.8998,0.6999 L231.5998,44.2999" id="Fill-253" fill="#FFFFFF" sketch:type="MSShapeGroup"></path>
            <path d="M389.2998,143.8999 L459.3998,100.3999 L301.8998,0.6999 L231.5998,44.2999" id="Stroke-254" stroke="#000000" stroke-width="5" stroke-linecap="round" stroke-linejoin="round" sketch:type="MSShapeGroup"></path>
            <path d="M389.2998,143.8999 L463.1998,190.7989 L389.3998,236.7989" id="Fill-256" fill="#FFFFFF" sketch:type="MSShapeGroup"></path>
            <path d="M389.2998,143.8999 L463.1998,190.7989 L389.3998,236.7989" id="Stroke-257" stroke="#000000" stroke-width="5" stroke-linecap="round" stroke-linejoin="round" sketch:type="MSShapeGroup"></path>
            <path d="M230.9002,45.8 L231.5992,44.4 L230.9002,45.8 Z" id="Fill-259" fill="#FFFFFF" sketch:type="MSShapeGroup"></path>
            <path d="M230.8999,45.7998 L231.5999,44.3998" id="Stroke-260" stroke="#000000" stroke-width="5" stroke-linecap="round" stroke-linejoin="round" sketch:type="MSShapeGroup"></path>
            <path d="M231.5995,44.3996 L231.5995,44.2996 L231.5995,44.3996 Z" id="Fill-261" fill="#FFFFFF" sketch:type="MSShapeGroup"></path>
            <path d="M231.5996,44.3999 L231.5996,44.2999" id="Stroke-262" stroke="#000000" stroke-width="5" stroke-linecap="round" stroke-linejoin="round" sketch:type="MSShapeGroup"></path>
            <path d="M74.0996,142.4995 L7.2996,100.3995 L164.8996,2.0995 L231.5996,44.2995" id="Fill-263" fill="#FFFFFF" sketch:type="MSShapeGroup"></path>
            <path d="M74.0996,142.4995 L7.2996,100.3995 L164.8996,2.0995 L231.5996,44.2995" id="Stroke-264" stroke="#000000" stroke-width="5" stroke-linecap="round" stroke-linejoin="round" sketch:type="MSShapeGroup"></path>
            <path d="M74.0996,142.4995 L0.4996,188.2995 L73.9996,234.5995" id="Fill-266" fill="#FFFFFF" sketch:type="MSShapeGroup"></path>
            <path d="M74.0996,142.4995 L0.4996,188.2995 L73.9996,234.5995" id="Stroke-267" stroke="#000000" stroke-width="5" stroke-linecap="round" stroke-linejoin="round" sketch:type="MSShapeGroup"></path>
            <path d="M231.5995,242.2988 L230.9005,241.7988 L231.5995,242.2988 Z" id="Fill-269" fill="#FFFFFF" sketch:type="MSShapeGroup"></path>
            <path d="M230.8999,241.7988 L231.5999,242.2988" id="Stroke-270" stroke="#000000" stroke-width="5" stroke-linecap="round" stroke-linejoin="round" sketch:type="MSShapeGroup"></path>
            <path d="M230.9002,241.7984 L230.9002,241.1004 L230.9002,241.7984 Z" id="Fill-271" fill="#FFFFFF" sketch:type="MSShapeGroup"></path>
            <path d="M230.8999,241.0996 L230.8999,241.7986" id="Stroke-272" stroke="#000000" stroke-width="5" stroke-linecap="round" stroke-linejoin="round" sketch:type="MSShapeGroup"></path>
            <path d="M230.9002,242.6993 L231.5992,242.2983 L230.9002,242.6993 Z" id="Fill-273" fill="#FFFFFF" sketch:type="MSShapeGroup"></path>
            <path d="M230.8999,242.6992 L231.5999,242.2992" id="Stroke-274" stroke="#000000" stroke-width="5" stroke-linecap="round" stroke-linejoin="round" sketch:type="MSShapeGroup"></path>
            <path d="M230.9002,242.6993 L230.9002,241.7983 L230.9002,242.6993 Z" id="Fill-275" fill="#FFFFFF" sketch:type="MSShapeGroup"></path>
            <path d="M230.8999,241.7988 L230.8999,242.6988" id="Stroke-276" stroke="#000000" stroke-width="5" stroke-linecap="round" stroke-linejoin="round" sketch:type="MSShapeGroup"></path>
            <g id="Group-279" transform="translate(184.000000, 212.000000)" sketch:type="MSShapeGroup">
                <path d="M0.8999,0.5996 L46.8999,29.7986" id="Fill-277" fill="#FFFFFF"></path>
                <path d="M0.8999,0.5996 L46.8999,29.7986" id="Stroke-278" stroke="#000000" stroke-width="5" stroke-linecap="round" stroke-linejoin="round"></path>
            </g>
            <g id="Group-282" transform="translate(74.000000, 142.000000)" sketch:type="MSShapeGroup">
                <path d="M0.0996,0.4995 L110.8996,70.5995" id="Fill-280" fill="#FFFFFF"></path>
                <path d="M0.0996,0.4995 L110.8996,70.5995" id="Stroke-281" stroke="#000000" stroke-width="5" stroke-linecap="round" stroke-linejoin="round"></path>
            </g>
            <g id="Group-285" transform="translate(74.000000, 44.000000)" sketch:type="MSShapeGroup">
                <path d="M0.0996,98.4995 L157.5996,0.3995" id="Fill-283" fill="#FFFFFF"></path>
                <path d="M0.0996,98.4995 L157.5996,0.3995" id="Stroke-284" stroke="#000000" stroke-width="5" stroke-linecap="round" stroke-linejoin="round"></path>
            </g>
            <path d="M231.5995,383.0003 L230.9005,382.5993 L231.5995,383.0003 Z" id="Fill-286" fill="#FFFFFF" sketch:type="MSShapeGroup"></path>
            <path d="M230.8999,382.5996 L231.5999,382.9996" id="Stroke-287" stroke="#000000" stroke-width="5" stroke-linecap="round" stroke-linejoin="round" sketch:type="MSShapeGroup"></path>
            <path d="M230.9002,383.4998 L231.5992,383.0008 L230.9002,382.5998 L230.9002,383.4998 Z" id="Fill-289" fill="#FFFFFF" sketch:type="MSShapeGroup"></path>
            <path d="M230.8999,382.5996 L230.8999,383.4996 L231.5999,382.9996" id="Stroke-290" stroke="#000000" stroke-width="5" stroke-linecap="round" stroke-linejoin="round" sketch:type="MSShapeGroup"></path>
            <path d="M74,234.5996 L74.1,283.4996 L230.9,382.5996" id="Fill-292" fill="#FFFFFF" sketch:type="MSShapeGroup"></path>
            <path d="M74,234.5996 L74.1,283.4996 L230.9,382.5996" id="Stroke-293" stroke="#000000" stroke-width="5" stroke-linecap="round" stroke-linejoin="round" sketch:type="MSShapeGroup"></path>
            <path d="M389.3992,284.9003 L389.3992,284.4013 L389.3992,284.9003 Z" id="Fill-295" fill="#FFFFFF" sketch:type="MSShapeGroup"></path>
            <path d="M389.3994,284.4004 L389.3994,284.9004" id="Stroke-296" stroke="#000000" stroke-width="5" stroke-linecap="round" stroke-linejoin="round" sketch:type="MSShapeGroup"></path>
            <path d="M389.3992,284.9003 L389.7002,284.6993 L389.3992,284.4013 L389.3992,284.9003 Z" id="Fill-297" fill="#FFFFFF" sketch:type="MSShapeGroup"></path>
            <path d="M389.3994,284.9004 L389.7004,284.6994 L389.3994,284.4004" id="Stroke-298" stroke="#000000" stroke-width="5" stroke-linecap="round" stroke-linejoin="round" sketch:type="MSShapeGroup"></path>
            <g id="Group-301" transform="translate(231.000000, 44.000000)" sketch:type="MSShapeGroup">
                <path d="M0.5996,0.2998 L158.2996,99.8998" id="Fill-299" fill="#FFFFFF"></path>
                <path d="M0.5996,0.2998 L158.2996,99.8998" id="Stroke-300" stroke="#000000" stroke-width="5" stroke-linecap="round" stroke-linejoin="round"></path>
            </g>
            <path d="M231.5996,383 L389.3996,284.9" id="Fill-302" fill="#FFFFFF" sketch:type="MSShapeGroup"></path>
            <path d="M231.5996,383 L389.3996,284.9" id="Stroke-303" stroke="#000000" stroke-width="5" stroke-linecap="round" stroke-linejoin="round" sketch:type="MSShapeGroup"></path>
            <path d="M230.9002,382.5998 L230.9002,242.6998 L230.9002,382.5998 Z" id="Fill-305" fill="#FFFFFF" sketch:type="MSShapeGroup"></path>
            <path d="M230.8999,242.6992 L230.8999,382.5992" id="Stroke-306" stroke="#000000" stroke-width="5" stroke-linecap="round" stroke-linejoin="round" sketch:type="MSShapeGroup"></path>
            <g id="Group-310" transform="translate(231.000000, 237.000000)" sketch:type="MSShapeGroup">
                <path d="M0.5996,5.2988 L74.7006,52.1988 L157.8996,0.4998" id="Fill-308" fill="#FFFFFF"></path>
                <path d="M0.5996,5.2988 L74.7006,52.1988 L157.8996,0.4998" id="Stroke-309" stroke="#000000" stroke-width="5" stroke-linecap="round" stroke-linejoin="round"></path>
            </g>
            <g id="Group-313" transform="translate(231.000000, 213.000000)" sketch:type="MSShapeGroup">
                <path d="M0.5996,29.2988 L46.3996,0.5998" id="Fill-311" fill="#FFFFFF"></path>
                <path d="M0.5996,29.2988 L46.3996,0.5998" id="Stroke-312" stroke="#000000" stroke-width="5" stroke-linecap="round" stroke-linejoin="round"></path>
            </g>
            <path d="M389.3992,237.5 L389.3992,284.401 L389.3992,237.298 L389.3992,237.5 Z" id="Fill-314" fill="#FFFFFF" sketch:type="MSShapeGroup"></path>
            <path d="M389.3994,237.2988 L389.3994,237.4998 L389.3994,284.4008" id="Stroke-315" stroke="#000000" stroke-width="5" stroke-linecap="round" stroke-linejoin="round" sketch:type="MSShapeGroup"></path>
            <path d="M389.3992,284.4008 L389.3992,237.4998 L389.3992,284.4008 Z" id="Fill-316" fill="#FFFFFF" sketch:type="MSShapeGroup"></path>
            <path d="M389.3994,284.4004 L389.3994,237.5004" id="Stroke-317" stroke="#000000" stroke-width="5" stroke-linecap="round" stroke-linejoin="round" sketch:type="MSShapeGroup"></path>
            <path d="M389.3992,237.5 L389.3992,237.298 L389.3992,237.5 Z" id="Fill-318" fill="#FFFFFF" sketch:type="MSShapeGroup"></path>
            <path d="M389.3994,237.5 L389.3994,237.299" id="Stroke-319" stroke="#172982" stroke-width="5" stroke-linecap="round" stroke-linejoin="round" sketch:type="MSShapeGroup"></path>
        </g>
        <g id="text-unten" sketch:type="MSLayerGroup" transform="translate(5.000000, 409.000000)" fill="#000000">
            <path d="M14.4096872,77.3340061 C14.4096872,73.6892028 13.3077699,69.2815338 7.41675076,69.2815338 C5.59434914,69.2815338 3.30575177,69.790111 1.48335015,71.0191726 L2.11907164,72.5025227 C3.56004036,71.4429869 5.42482341,70.9767911 7.20484359,70.9767911 C12.0363269,70.9344097 12.4177598,74.9606458 12.4177598,76.9949546 L12.4177598,77.5035318 C4.15338042,77.4187689 0,80.2583249 0,84.962664 C0,87.6750757 1.90716448,90.5570131 5.97578204,90.5570131 C9.23915237,90.5570131 11.4853683,88.7346115 12.4601413,87.1664985 L12.5872856,87.1664985 L12.8839556,90.0908174 L14.7063572,90.0908174 C14.4944501,88.5227043 14.4096872,86.8698285 14.4096872,85.259334 L14.4096872,77.3340061 Z M12.4177598,83.5640767 C12.4177598,83.9455096 12.332997,84.3693239 12.2058527,84.7931382 C11.4853683,86.7850656 9.57820383,88.8617558 6.1876892,88.8617558 C4.06861756,88.8617558 2.11907164,87.5479314 2.11907164,84.6236125 C2.11907164,79.7497477 7.96770938,79.0716448 12.4177598,79.1987891 L12.4177598,83.5640767 Z M21.0211907,90.0908174 L23.0131181,90.0908174 L23.0131181,77.5459132 C23.0131181,76.8678103 23.1402624,76.1473259 23.3521695,75.5963673 C24.1150353,73.2230071 26.234107,71.0191726 28.9889001,71.0191726 C32.2522704,71.0191726 34.0322906,73.6892028 34.0322906,77.3763875 L34.0322906,90.0908174 L36.024218,90.0908174 L36.024218,77.037336 C36.024218,76.3168517 36.1937437,75.6387487 36.4056509,75.0454087 C37.1685166,72.8839556 39.2028254,71.0191726 41.7457114,71.0191726 C45.2633703,71.0191726 47.0433905,73.7315843 47.0433905,78.308779 L47.0433905,90.0908174 L49.0353179,90.0908174 L49.0353179,78.0968718 C49.0353179,70.3834511 44.4157417,69.2815338 42.4238143,69.2815338 C40.2623613,69.2815338 38.863774,69.8748739 37.5499495,70.9767911 C36.7870838,71.6125126 36.0665994,72.5025227 35.4732593,73.7315843 L35.3884965,73.7315843 C34.5408678,71.1463169 32.3794147,69.2815338 29.5398587,69.2815338 C26.1917255,69.2815338 24.2421796,71.0191726 22.9707366,73.3501514 L22.8859738,73.3501514 L22.716448,69.7477296 L20.851665,69.7477296 C20.9364279,71.358224 21.0211907,72.7568113 21.0211907,74.6215943 L21.0211907,90.0908174 Z M83.7880928,87.4631685 C82.1775984,88.2684157 79.8042381,88.7769929 77.346115,88.7769929 C69.7174571,88.7769929 65.2674067,83.7759839 65.2674067,76.0201816 C65.2674067,67.7981837 69.9717457,62.7971746 77.6851665,62.7971746 C80.1009082,62.7971746 82.1775984,63.3057518 83.6185671,64.0262361 L84.29667,62.3309788 C83.4066599,61.864783 81.2875883,61.0595358 77.6427851,61.0595358 C68.6579213,61.0595358 63.1907164,67.5015136 63.1907164,75.9778002 C63.1907164,86.1069627 69.80222,90.5570131 76.7103935,90.5570131 C80.185671,90.5570131 82.9404642,89.8365288 84.3814329,89.073663 L83.7880928,87.4631685 Z M101.630676,77.3340061 C101.630676,73.6892028 100.528759,69.2815338 94.6377397,69.2815338 C92.815338,69.2815338 90.5267407,69.790111 88.7043391,71.0191726 L89.3400605,72.5025227 C90.7810293,71.4429869 92.6458123,70.9767911 94.4258325,70.9767911 C99.2573158,70.9344097 99.6387487,74.9606458 99.6387487,76.9949546 L99.6387487,77.5035318 C91.3743693,77.4187689 87.2209889,80.2583249 87.2209889,84.962664 C87.2209889,87.6750757 89.1281534,90.5570131 93.1967709,90.5570131 C96.4601413,90.5570131 98.7063572,88.7346115 99.6811302,87.1664985 L99.8082745,87.1664985 L100.104945,90.0908174 L101.927346,90.0908174 C101.715439,88.5227043 101.630676,86.8698285 101.630676,85.259334 L101.630676,77.3340061 Z M99.6387487,83.5640767 C99.6387487,83.9455096 99.5539859,84.3693239 99.4268416,84.7931382 C98.7063572,86.7850656 96.7991927,88.8617558 93.4086781,88.8617558 C91.2896065,88.8617558 89.3400605,87.5479314 89.3400605,84.6236125 C89.3400605,79.7497477 95.1886983,79.0716448 99.6387487,79.1987891 L99.6387487,83.5640767 Z M108.24218,90.0908174 L110.234107,90.0908174 L110.234107,77.5459132 C110.234107,76.8678103 110.361251,76.1473259 110.573158,75.5963673 C111.336024,73.2230071 113.455096,71.0191726 116.209889,71.0191726 C119.473259,71.0191726 121.25328,73.6892028 121.25328,77.3763875 L121.25328,90.0908174 L123.245207,90.0908174 L123.245207,77.037336 C123.245207,76.3168517 123.414733,75.6387487 123.62664,75.0454087 C124.389506,72.8839556 126.423814,71.0191726 128.9667,71.0191726 C132.484359,71.0191726 134.264379,73.7315843 134.264379,78.308779 L134.264379,90.0908174 L136.256307,90.0908174 L136.256307,78.0968718 C136.256307,70.3834511 131.636731,69.2815338 129.644803,69.2815338 C127.48335,69.2815338 126.084763,69.8748739 124.770938,70.9767911 C124.008073,71.6125126 123.287588,72.5025227 122.694248,73.7315843 L122.609485,73.7315843 C121.761857,71.1463169 119.600404,69.2815338 116.760848,69.2815338 C113.412714,69.2815338 111.463169,71.0191726 110.191726,73.3501514 L110.106963,73.3501514 L109.937437,69.7477296 L108.072654,69.7477296 C108.157417,71.358224 108.24218,72.7568113 108.24218,74.6215943 L108.24218,90.0908174 Z M142.952573,98.4823411 L144.944501,98.4823411 L144.944501,86.7850656 L145.029263,86.7850656 C146.427851,89.2431887 149.013118,90.5570131 151.937437,90.5570131 C156.853683,90.5570131 161.176589,86.8698285 161.176589,79.580222 C161.176589,73.60444 157.65893,69.2815338 152.446014,69.2815338 C148.885974,69.2815338 146.385469,70.8920283 144.944501,73.60444 L144.859738,73.60444 L144.690212,69.7477296 L142.783047,69.7477296 C142.86781,71.654894 142.952573,73.6892028 142.952573,76.2320888 L142.952573,98.4823411 Z M144.944501,78.0968718 C144.944501,77.5459132 145.114026,76.9101917 145.241171,76.3592331 C146.131181,73.0110999 149.013118,70.9344097 151.979818,70.9344097 C156.599395,70.9344097 159.142281,75.0877901 159.142281,79.6649849 C159.142281,85.0898083 156.47225,88.8617558 151.810293,88.8617558 C148.674067,88.8617558 145.961655,86.827447 145.114026,83.691221 C145.029263,83.1826438 144.944501,82.6316852 144.944501,82.0807265 L144.944501,78.0968718 Z M181.985873,69.7477296 L179.993946,69.7477296 L179.993946,82.419778 C179.993946,83.2250252 179.782038,84.0302725 179.570131,84.6659939 C178.722503,86.7003027 176.561049,88.7769929 173.594349,88.7769929 C169.568113,88.7769929 168.169526,85.5983855 168.169526,81.1907164 L168.169526,69.7477296 L166.177598,69.7477296 L166.177598,81.5721493 C166.177598,89.2855701 170.500505,90.5570131 173.085772,90.5570131 C176.730575,90.5570131 179.061554,88.3531786 180.078708,86.4883956 L180.163471,86.4883956 L180.290616,90.0908174 L182.155399,90.0908174 C182.070636,88.5227043 181.985873,86.9122099 181.985873,85.1321897 L181.985873,69.7477296 Z M187.283552,89.1160444 C188.639758,89.9636731 190.462159,90.5570131 192.454087,90.5570131 C196.607467,90.5570131 199.319879,88.1836529 199.319879,84.7083754 C199.319879,81.6145308 197.370333,79.9616549 194.064581,78.6902119 C191.309788,77.5459132 189.868819,76.6135217 189.868819,74.4944501 C189.868819,72.629667 191.225025,70.9767911 193.810293,70.9767911 C195.844601,70.9767911 197.158426,71.6972755 197.836529,72.2058527 L198.641776,70.5529768 C197.58224,69.8324924 196.014127,69.2815338 194.149344,69.2815338 C190.165489,69.2815338 187.876892,71.8668012 187.876892,74.7911201 C187.876892,77.2492432 189.699294,79.0716448 193.047427,80.3430878 C195.971746,81.5297679 197.327952,82.716448 197.327952,84.962664 C197.327952,87.0817356 195.80222,88.8193744 192.581231,88.8193744 C190.758829,88.8193744 189.105954,88.09889 188.004036,87.4207871 L187.283552,89.1160444 Z M234.454087,75.9354188 L225.808274,75.9354188 L225.808274,77.5882947 L232.462159,77.5882947 L232.462159,87.6750757 C231.402624,88.2260343 229.453078,88.6498486 226.486377,88.6498486 C218.942482,88.6498486 214.195762,83.8607467 214.195762,75.8082745 C214.195762,68.0524723 219.027245,62.9667003 226.910192,62.9667003 C229.622603,62.9667003 231.529768,63.4752775 233.013118,64.1957619 L233.64884,62.5005045 C232.546922,61.9919273 230.088799,61.2290616 226.994955,61.2290616 C217.289606,61.2290616 212.119072,67.9677094 212.119072,75.8930373 C212.119072,80.5126135 213.687185,84.3269425 216.018163,86.6155399 C218.900101,89.4127144 222.375378,90.3874874 226.147326,90.3874874 C230.046418,90.3874874 233.013118,89.4127144 234.454087,88.8193744 L234.454087,75.9354188 Z M256.026236,69.7477296 L254.034309,69.7477296 L254.034309,82.419778 C254.034309,83.2250252 253.822402,84.0302725 253.610494,84.6659939 C252.762866,86.7003027 250.601413,88.7769929 247.634712,88.7769929 C243.608476,88.7769929 242.209889,85.5983855 242.209889,81.1907164 L242.209889,69.7477296 L240.217962,69.7477296 L240.217962,81.5721493 C240.217962,89.2855701 244.540868,90.5570131 247.126135,90.5570131 C250.770938,90.5570131 253.101917,88.3531786 254.119072,86.4883956 L254.203835,86.4883956 L254.330979,90.0908174 L256.195762,90.0908174 C256.110999,88.5227043 256.026236,86.9122099 256.026236,85.1321897 L256.026236,69.7477296 Z M262.892028,90.0908174 L264.883956,90.0908174 L264.883956,77.5459132 C264.883956,76.8678103 265.0111,76.1473259 265.223007,75.5963673 C265.985873,73.2230071 268.104945,71.0191726 270.859738,71.0191726 C274.123108,71.0191726 275.903128,73.6892028 275.903128,77.3763875 L275.903128,90.0908174 L277.895055,90.0908174 L277.895055,77.037336 C277.895055,76.3168517 278.064581,75.6387487 278.276488,75.0454087 C279.039354,72.8839556 281.073663,71.0191726 283.616549,71.0191726 C287.134208,71.0191726 288.914228,73.7315843 288.914228,78.308779 L288.914228,90.0908174 L290.906155,90.0908174 L290.906155,78.0968718 C290.906155,70.3834511 286.286579,69.2815338 284.294652,69.2815338 C282.133199,69.2815338 280.734612,69.8748739 279.420787,70.9767911 C278.657921,71.6125126 277.937437,72.5025227 277.344097,73.7315843 L277.259334,73.7315843 C276.411705,71.1463169 274.250252,69.2815338 271.410696,69.2815338 C268.062563,69.2815338 266.113017,71.0191726 264.841574,73.3501514 L264.756811,73.3501514 L264.587286,69.7477296 L262.722503,69.7477296 C262.807265,71.358224 262.892028,72.7568113 262.892028,74.6215943 L262.892028,90.0908174 Z M297.602422,90.0908174 L299.594349,90.0908174 L299.594349,77.5459132 C299.594349,76.8678103 299.721493,76.1473259 299.933401,75.5963673 C300.696266,73.2230071 302.815338,71.0191726 305.570131,71.0191726 C308.833502,71.0191726 310.613522,73.6892028 310.613522,77.3763875 L310.613522,90.0908174 L312.605449,90.0908174 L312.605449,77.037336 C312.605449,76.3168517 312.774975,75.6387487 312.986882,75.0454087 C313.749748,72.8839556 315.784057,71.0191726 318.326942,71.0191726 C321.844601,71.0191726 323.624622,73.7315843 323.624622,78.308779 L323.624622,90.0908174 L325.616549,90.0908174 L325.616549,78.0968718 C325.616549,70.3834511 320.996973,69.2815338 319.005045,69.2815338 C316.843592,69.2815338 315.445005,69.8748739 314.131181,70.9767911 C313.368315,71.6125126 312.64783,72.5025227 312.05449,73.7315843 L311.969728,73.7315843 C311.122099,71.1463169 308.960646,69.2815338 306.12109,69.2815338 C302.772957,69.2815338 300.823411,71.0191726 299.551968,73.3501514 L299.467205,73.3501514 L299.297679,69.7477296 L297.432896,69.7477296 C297.517659,71.358224 297.602422,72.7568113 297.602422,74.6215943 L297.602422,90.0908174 Z M347.612513,79.7073663 C347.697275,79.3683148 347.697275,79.0292634 347.697275,78.4783047 C347.697275,75.5539859 346.425832,69.2815338 339.771948,69.2815338 C334.51665,69.2815338 330.617558,73.5196771 330.617558,80.3007064 C330.617558,86.2764884 334.262361,90.5570131 340.110999,90.5570131 C343.671039,90.5570131 345.74773,89.667003 346.510595,89.2431887 L346.002018,87.6326942 C344.857719,88.1836529 343.331988,88.7769929 340.365288,88.7769929 C336.169526,88.7769929 332.609485,86.234107 332.609485,79.7073663 L347.612513,79.7073663 Z M332.73663,78.0968718 C333.075681,74.9606458 335.025227,70.9344097 339.517659,70.9344097 C344.433905,70.9344097 345.620585,75.2573158 345.578204,78.0968718 L332.73663,78.0968718 Z M352.86781,90.0908174 L354.859738,90.0908174 L354.859738,78.8597376 C354.859738,78.1816347 354.944501,77.5035318 355.029263,76.9101917 C355.580222,73.6468214 357.572149,71.2310797 360.369324,71.2310797 C360.750757,71.2310797 361.047427,71.2310797 361.344097,71.3158426 L361.344097,69.3662967 C361.089808,69.3239152 360.793138,69.2815338 360.53885,69.2815338 C357.741675,69.2815338 355.622603,71.3158426 354.732593,73.8587286 L354.64783,73.8587286 L354.563068,69.7477296 L352.698285,69.7477296 C352.783047,71.6972755 352.86781,73.8163471 352.86781,75.8506559 L352.86781,90.0908174 Z M363.80222,89.1160444 C365.158426,89.9636731 366.980827,90.5570131 368.972755,90.5570131 C373.126135,90.5570131 375.838547,88.1836529 375.838547,84.7083754 C375.838547,81.6145308 373.889001,79.9616549 370.583249,78.6902119 C367.828456,77.5459132 366.387487,76.6135217 366.387487,74.4944501 C366.387487,72.629667 367.743693,70.9767911 370.328961,70.9767911 C372.363269,70.9767911 373.677094,71.6972755 374.355197,72.2058527 L375.160444,70.5529768 C374.100908,69.8324924 372.532795,69.2815338 370.668012,69.2815338 C366.684157,69.2815338 364.39556,71.8668012 364.39556,74.7911201 C364.39556,77.2492432 366.217962,79.0716448 369.566095,80.3430878 C372.490414,81.5297679 373.84662,82.716448 373.84662,84.962664 C373.84662,87.0817356 372.320888,88.8193744 369.099899,88.8193744 C367.277497,88.8193744 365.624622,88.09889 364.522704,87.4207871 L363.80222,89.1160444 Z M381.178607,85.3440969 C381.178607,86.8698285 381.093845,88.6498486 381.009082,90.0908174 L382.831483,90.0908174 L382.958628,86.4036327 L383.043391,86.4036327 C384.653885,89.2431887 387.069627,90.5570131 390.332997,90.5570131 C394.783047,90.5570131 399.402624,86.9545913 399.402624,79.7073663 C399.402624,73.5620585 395.842583,69.2815338 390.71443,69.2815338 C387.112008,69.2815338 384.611504,70.8920283 383.255298,73.5196771 L383.170535,73.5196771 L383.170535,60 L381.178607,60 L381.178607,85.3440969 Z M383.170535,78.1816347 C383.170535,77.4611504 383.297679,76.9101917 383.424823,76.4016145 C384.399596,73.0110999 387.239152,70.9344097 390.205853,70.9344097 C394.825429,70.9344097 397.368315,75.0877901 397.368315,79.7497477 C397.368315,85.0474268 394.698285,88.8617558 390.036327,88.8617558 C386.857719,88.8617558 384.230071,86.827447 383.340061,83.7336024 C383.255298,83.2250252 383.170535,82.716448 383.170535,82.2502523 L383.170535,78.1816347 Z M417.202825,77.3340061 C417.202825,73.6892028 416.100908,69.2815338 410.209889,69.2815338 C408.387487,69.2815338 406.09889,69.790111 404.276488,71.0191726 L404.91221,72.5025227 C406.353179,71.4429869 408.217962,70.9767911 409.997982,70.9767911 C414.829465,70.9344097 415.210898,74.9606458 415.210898,76.9949546 L415.210898,77.5035318 C406.946519,77.4187689 402.793138,80.2583249 402.793138,84.962664 C402.793138,87.6750757 404.700303,90.5570131 408.76892,90.5570131 C412.032291,90.5570131 414.278507,88.7346115 415.25328,87.1664985 L415.380424,87.1664985 L415.677094,90.0908174 L417.499495,90.0908174 C417.287588,88.5227043 417.202825,86.8698285 417.202825,85.259334 L417.202825,77.3340061 Z M415.210898,83.5640767 C415.210898,83.9455096 415.126135,84.3693239 414.998991,84.7931382 C414.278507,86.7850656 412.371342,88.8617558 408.980827,88.8617558 C406.861756,88.8617558 404.91221,87.5479314 404.91221,84.6236125 C404.91221,79.7497477 410.760848,79.0716448 415.210898,79.1987891 L415.210898,83.5640767 Z M437.291625,87.6326942 C436.189707,88.09889 434.621594,88.7769929 432.205853,88.7769929 C427.501514,88.7769929 424.15338,85.3017154 424.15338,80.0040363 C424.15338,75.2149344 426.950555,71.0191726 432.41776,71.0191726 C434.663976,71.0191726 436.232089,71.654894 437.249243,72.2058527 L437.969728,70.5529768 C437.16448,70.0020182 435.130172,69.2815338 432.629667,69.2815338 C426.526741,69.2815338 422.119072,73.6892028 422.119072,80.1311806 C422.119072,86.2764884 426.018163,90.5570131 431.909183,90.5570131 C434.833502,90.5570131 436.952573,89.667003 437.842583,89.2008073 L437.291625,87.6326942 Z M442.716448,90.0908174 L444.708375,90.0908174 L444.708375,77.6306761 C444.708375,76.8254289 444.793138,76.2320888 445.005045,75.6387487 C445.852674,73.0958628 448.268416,71.0191726 451.150353,71.0191726 C455.303734,71.0191726 456.744702,74.3673058 456.744702,78.0544904 L456.744702,90.0908174 L458.73663,90.0908174 L458.73663,77.8002018 C458.73663,70.2563068 453.608476,69.2815338 451.701312,69.2815338 C450.133199,69.2815338 448.734612,69.7053481 447.590313,70.4258325 C446.361251,71.1463169 445.386478,72.2482341 444.793138,73.3925328 L444.708375,73.3925328 L444.708375,60 L442.716448,60 L442.716448,90.0908174 Z" id="am-Campus-Gummersbac" sketch:type="MSShapeGroup"></path>
            <path d="M35.6897085,42.958731 L42.8395667,42.958731 L40.5158628,2.8003611 L30.9827186,2.8003611 L25.4415785,18.8875419 C23.8924426,23.5945319 22.5220531,28.5398504 21.4495744,32.8893474 L21.270828,32.8893474 C20.2579314,28.4206861 19.0067062,23.654114 17.5767346,18.9471241 L12.3335053,2.8003611 L2.6811968,2.8003611 L0,42.958731 L6.85194738,42.958731 L7.74567965,26.811968 C8.0435904,21.3304101 8.28191901,14.9551199 8.46066546,9.65230849 L8.57982977,9.65230849 C9.65230849,14.7167913 11.0822801,20.1983492 12.631416,25.3224142 L17.9938096,42.4820738 L23.654114,42.4820738 L29.4931648,25.0840856 C31.2806294,20.0196028 32.9489296,14.597627 34.2597369,9.65230849 L34.4384834,9.65230849 C34.3789012,15.1338664 34.676812,21.3899923 34.9151406,26.5736394 L35.6897085,42.958731 Z M74.894764,30.5060614 C75.0139283,29.8506577 75.1330926,28.778179 75.1330926,27.4077895 C75.1330926,21.0324994 72.0944029,13.2868197 62.6208409,13.2868197 C53.3260253,13.2868197 48.4402889,20.8537529 48.4402889,28.8973433 C48.4402889,37.7750838 53.9814289,43.6141346 63.3954088,43.6141346 C67.5661594,43.6141346 71.0219242,42.7799845 73.5243745,41.767088 L72.4518958,36.7026051 C70.2473562,37.5367552 67.804488,38.0134124 64.4083054,38.0134124 C59.7608976,38.0134124 55.6497292,35.7492907 55.4709827,30.5060614 L74.894764,30.5060614 Z M55.4709827,25.3819964 C55.7688935,22.4028888 57.6755223,18.2917204 62.2037658,18.2917204 C67.0895022,18.2917204 68.2811452,22.7007996 68.2215631,25.3819964 L55.4709827,25.3819964 Z M100.455507,0.655403663 L100.455507,17.1000774 L100.336343,17.1000774 C99.0255352,14.9551199 96.165592,13.2868197 92.1735878,13.2868197 C85.2024761,13.2868197 79.1250967,19.0662884 79.1846789,28.778179 C79.1846789,37.7155017 84.6662368,43.6141346 91.5777663,43.6141346 C95.808099,43.6141346 99.323446,41.5883415 101.051328,38.3709053 L101.170493,38.3709053 L101.468403,42.958731 L108.02244,42.958731 C107.903276,40.99252 107.784111,37.7750838 107.784111,34.7959763 L107.784111,0.655403663 L100.455507,0.655403663 Z M100.455507,30.3868971 C100.455507,31.1614651 100.395925,31.8764509 100.217178,32.5318545 C99.5021924,35.6897085 96.8805778,37.7155017 93.9014702,37.7155017 C89.2540624,37.7155017 86.6324478,33.8426619 86.6324478,28.5398504 C86.6324478,23.1178746 89.2540624,18.9471241 93.9610524,18.9471241 C97.2976528,18.9471241 99.6213567,21.270828 100.27676,24.1307712 C100.395925,24.7265927 100.455507,25.4415785 100.455507,26.0374001 L100.455507,30.3868971 Z M123.037142,42.958731 L123.037142,13.9422234 L115.648955,13.9422234 L115.648955,42.958731 L123.037142,42.958731 Z M119.343049,1.84704669 C116.900181,1.84704669 115.23188,3.57492907 115.23188,5.83905081 C115.23188,8.0435904 116.840598,9.77147279 119.283467,9.77147279 C121.845499,9.77147279 123.454217,8.0435904 123.454217,5.83905081 C123.394635,3.57492907 121.845499,1.84704669 119.343049,1.84704669 L119.343049,1.84704669 Z M155.509414,30.5060614 C155.628579,29.8506577 155.747743,28.778179 155.747743,27.4077895 C155.747743,21.0324994 152.709053,13.2868197 143.235491,13.2868197 C133.940676,13.2868197 129.054939,20.8537529 129.054939,28.8973433 C129.054939,37.7750838 134.596079,43.6141346 144.010059,43.6141346 C148.18081,43.6141346 151.636575,42.7799845 154.139025,41.767088 L153.066546,36.7026051 C150.862007,37.5367552 148.419139,38.0134124 145.022956,38.0134124 C140.375548,38.0134124 136.26438,35.7492907 136.085633,30.5060614 L155.509414,30.5060614 Z M136.085633,25.3819964 C136.383544,22.4028888 138.290173,18.2917204 142.818416,18.2917204 C147.704153,18.2917204 148.895796,22.7007996 148.836214,25.3819964 L136.085633,25.3819964 Z M161.646376,42.958731 L169.034563,42.958731 L169.034563,25.9182357 C169.034563,25.0840856 169.094145,24.1903534 169.332474,23.5349497 C170.107042,21.3304101 172.132835,19.2450348 175.05236,19.2450348 C179.044364,19.2450348 180.5935,22.4028888 180.5935,26.5736394 L180.5935,42.958731 L187.922105,42.958731 L187.922105,25.7394893 C187.922105,16.563838 182.678875,13.2868197 177.614393,13.2868197 C172.788238,13.2868197 169.630384,16.0275987 168.379159,18.2917204 L168.200413,18.2917204 L167.84292,13.9422234 L161.408047,13.9422234 C161.586794,16.4446737 161.646376,19.2450348 161.646376,22.5816353 L161.646376,42.958731 Z M203.115553,42.958731 L203.115553,13.9422234 L195.727367,13.9422234 L195.727367,42.958731 L203.115553,42.958731 Z M199.42146,1.84704669 C196.978592,1.84704669 195.310291,3.57492907 195.310291,5.83905081 C195.310291,8.0435904 196.91901,9.77147279 199.361878,9.77147279 C201.92391,9.77147279 203.532628,8.0435904 203.532628,5.83905081 C203.473046,3.57492907 201.92391,1.84704669 199.42146,1.84704669 L199.42146,1.84704669 Z M210.980397,42.958731 L218.368584,42.958731 L218.368584,25.9182357 C218.368584,25.0840856 218.428166,24.1903534 218.666495,23.5349497 C219.441063,21.3304101 221.466856,19.2450348 224.386381,19.2450348 C228.378385,19.2450348 229.927521,22.4028888 229.927521,26.5736394 L229.927521,42.958731 L237.256126,42.958731 L237.256126,25.7394893 C237.256126,16.563838 232.012897,13.2868197 226.948414,13.2868197 C222.122259,13.2868197 218.964405,16.0275987 217.71318,18.2917204 L217.534434,18.2917204 L217.176941,13.9422234 L210.742069,13.9422234 C210.920815,16.4446737 210.980397,19.2450348 210.980397,22.5816353 L210.980397,42.958731 Z M253.224142,42.958731 L253.224142,19.4237813 L259.53985,19.4237813 L259.53985,13.9422234 L253.16456,13.9422234 L253.16456,12.4526696 C253.16456,8.87774052 254.415785,5.83905081 258.050297,5.83905081 C259.361104,5.83905081 260.374001,6.07737942 261.148568,6.37529017 L261.684808,0.714985814 C260.493165,0.297910756 258.944029,0 256.977818,0 C254.475368,0 251.555842,0.774567965 249.410885,2.8003611 C246.908434,5.18364715 245.895538,8.93732267 245.895538,12.6909982 L245.895538,13.9422234 L241.963116,13.9422234 L241.963116,19.4237813 L245.895538,19.4237813 L245.895538,42.958731 L253.224142,42.958731 Z M276.580346,13.2868197 C267.821769,13.2868197 261.565644,19.1258705 261.565644,28.6590147 C261.565644,37.9538303 267.881352,43.6141346 276.103688,43.6141346 C283.491875,43.6141346 290.999226,38.8475625 290.999226,28.1823575 C290.999226,19.3641991 285.219758,13.2868197 276.580346,13.2868197 L276.580346,13.2868197 Z M276.401599,18.6492133 C281.4065,18.6492133 283.432293,23.8328605 283.432293,28.3611039 C283.432293,34.2001548 280.512768,38.3113232 276.342017,38.3113232 C271.873356,38.3113232 269.132577,34.0809905 269.132577,28.4802682 C269.132577,23.654114 271.217952,18.6492133 276.401599,18.6492133 L276.401599,18.6492133 Z M297.017023,42.958731 L304.345628,42.958731 L304.345628,27.9440289 C304.345628,27.1098788 304.464792,26.3353108 304.583957,25.6799071 C305.23936,22.4028888 307.622646,20.1387671 311.137993,20.1387671 C312.031726,20.1387671 312.687129,20.2579314 313.282951,20.3770957 L313.282951,13.4655662 C312.687129,13.3464019 312.270054,13.2868197 311.555068,13.2868197 C308.456796,13.2868197 305.060614,15.372195 303.630642,19.4833634 L303.392314,19.4833634 L303.153985,13.9422234 L296.778695,13.9422234 C296.957441,16.563838 297.017023,19.3641991 297.017023,23.2966211 L297.017023,42.958731 Z M318.228269,42.958731 L325.378127,42.958731 L325.378127,25.7990714 C325.378127,24.9649213 325.497292,24.1307712 325.795202,23.4157854 C326.450606,21.3899923 328.297653,19.2450348 331.038432,19.2450348 C334.434614,19.2450348 336.043332,22.1049781 336.043332,26.1565644 L336.043332,42.958731 L343.193191,42.958731 L343.193191,25.5607428 C343.193191,24.7265927 343.371937,23.8328605 343.550684,23.1178746 C344.325251,21.0324994 346.172298,19.2450348 348.674749,19.2450348 C352.190095,19.2450348 353.858396,22.1049781 353.858396,26.9311323 L353.858396,42.958731 L361.008254,42.958731 L361.008254,25.8586536 C361.008254,16.563838 356.122517,13.2868197 351.296363,13.2868197 C348.913077,13.2868197 347.06603,13.8826412 345.457312,15.0147021 C344.086923,15.8488522 342.89528,17.0404952 341.882383,18.6492133 L341.763219,18.6492133 C340.511994,15.4317771 337.532886,13.2868197 333.719629,13.2868197 C328.833892,13.2868197 326.212278,15.9680165 324.782306,18.2321383 L324.603559,18.2321383 L324.305649,13.9422234 L317.989941,13.9422234 C318.168687,16.4446737 318.228269,19.2450348 318.228269,22.5816353 L318.228269,42.958731 Z M391.275987,25.5011607 C391.275987,19.1854527 388.59479,13.2868197 379.299974,13.2868197 C374.712149,13.2868197 370.958473,14.5380449 368.813516,15.8488522 L370.243487,20.6154243 C372.209698,19.3641991 375.188806,18.4704669 378.048749,18.4704669 C383.172814,18.4704669 383.947382,21.6283209 383.947382,23.5349497 L383.947382,24.0116069 C373.222595,23.9520248 366.72814,27.6461181 366.72814,34.9747227 C366.72814,39.3838019 370.005159,43.6141346 375.844209,43.6141346 C379.597885,43.6141346 382.636575,42.0054166 384.424039,39.7412948 L384.602786,39.7412948 L385.079443,42.958731 L391.693062,42.958731 C391.395151,41.1712664 391.275987,38.6092339 391.275987,35.9876193 L391.275987,25.5011607 Z M384.126128,32.7701831 C384.126128,33.2468403 384.066546,33.8426619 383.8878,34.3789012 C383.232396,36.4642765 381.087439,38.3709053 378.167913,38.3709053 C375.844209,38.3709053 373.997163,37.060098 373.997163,34.2001548 C373.997163,29.7910756 378.942481,28.6590147 384.126128,28.778179 L384.126128,32.7701831 Z M399.915399,8.57982977 L399.915399,13.9422234 L395.744648,13.9422234 L395.744648,19.4237813 L399.915399,19.4237813 L399.915399,33.0680939 C399.915399,36.8813516 400.630384,39.5029662 402.17952,41.1712664 C403.54991,42.6608202 405.814031,43.6141346 408.495228,43.6141346 C410.818932,43.6141346 412.725561,43.2566417 413.79804,42.8395667 L413.678875,37.2388445 C412.844725,37.4771731 412.189322,37.5963374 410.818932,37.5963374 C408.018571,37.5963374 407.065257,35.7492907 407.065257,32.2339438 L407.065257,19.4237813 L414.036368,19.4237813 L414.036368,13.9422234 L407.065257,13.9422234 L407.065257,6.49445448 L399.915399,8.57982977 Z M426.965695,42.958731 L426.965695,13.9422234 L419.577508,13.9422234 L419.577508,42.958731 L426.965695,42.958731 Z M423.271602,1.84704669 C420.828734,1.84704669 419.160433,3.57492907 419.160433,5.83905081 C419.160433,8.0435904 420.769151,9.77147279 423.21202,9.77147279 C425.774052,9.77147279 427.38277,8.0435904 427.38277,5.83905081 C427.323188,3.57492907 425.774052,1.84704669 423.271602,1.84704669 L423.271602,1.84704669 Z M442.159144,0.655403663 L434.830539,0.655403663 L434.830539,42.958731 L442.159144,42.958731 L442.159144,33.0680939 L444.661594,30.1485685 L453.003095,42.958731 L462,42.958731 L449.726077,25.7990714 L460.450864,13.9422234 L451.632706,13.9422234 L444.602012,23.2966211 C443.827444,24.3095177 442.993294,25.5607428 442.278308,26.6928037 L442.159144,26.6928037 L442.159144,0.655403663 Z" id="Medieninformatik" sketch:type="MSShapeGroup"></path>
        </g>
    </g>
</svg>