<?xml version="1.0" encoding="UTF-8" standalone="no"?>
<svg width="470px" height="507px" viewBox="0 0 470 507" version="1.1" xmlns="http://www.w3.org/2000/svg" xmlns:xlink="http://www.w3.org/1999/xlink" xmlns:sketch="http://www.bohemiancoding.com/sketch/ns">
    <!-- Generator: Sketch 3.5.1 (25234) - http://www.bohemiancoding.com/sketch -->
    <title>box</title>
    <desc>Created with Sketch.</desc>
    <defs></defs>
    <g id="Logo" stroke="none" stroke-width="1" fill="none" fill-rule="evenodd" sketch:type="MSPage">
        <g id="Imported-Layers" sketch:type="MSLayerGroup" transform="translate(3.300000, 2.000000)">
            <path d="M277.3994,213.5996 L389.2994,143.8996 L231.5994,44.2996 L231.5994,44.3996 L230.8994,45.7996 L230.8994,183.8996 L230.8994,183.9996 L277.3994,213.5996 Z" id="Fill-1" fill="#FFFFFF" sketch:type="MSShapeGroup"></path>
            <path d="M277.3994,213.5996 L389.2994,143.8996 L231.5994,44.2996 L231.5994,44.3996 L230.8994,45.7996 L230.8994,183.8996 L230.8994,183.9996 L277.3994,213.5996 L277.3994,213.5996 Z" id="Stroke-2" stroke="#000000" stroke-width="5" stroke-linejoin="round" sketch:type="MSShapeGroup"></path>
            <path d="M459.3994,100.3999 L301.8994,0.6999 L231.5994,44.2999 L389.2994,143.8999 L459.3994,100.3999 Z" id="Fill-3" fill="#FFFFFF" sketch:type="MSShapeGroup"></path>
            <path d="M459.3994,100.3999 L301.8994,0.6999 L231.5994,44.2999 L389.2994,143.8999 L459.3994,100.3999 L459.3994,100.3999 Z" id="Stroke-4" stroke="#000000" stroke-width="5" stroke-linejoin="round" sketch:type="MSShapeGroup"></path>
            <path d="M230.8999,45.7998 L231.5999,44.3998 L74.0999,142.4998 L184.8999,212.5998 L230.8999,183.8998 L230.8999,45.7998 Z" id="Fill-6" fill="#FFFFFF" sketch:type="MSShapeGroup"></path>
            <path d="M230.8999,45.7998 L231.5999,44.3998 L74.0999,142.4998 L184.8999,212.5998 L230.8999,183.8998 L230.8999,45.7998 L230.8999,45.7998 Z" id="Stroke-7" stroke="#000000" stroke-width="5" stroke-linejoin="round" sketch:type="MSShapeGroup"></path>
            <path d="M231.5996,44.3999 L231.5996,44.2999 L164.8996,2.0999 L7.2996,100.3999 L74.0996,142.4999 L231.5996,44.3999 Z" id="Fill-8" fill="#FFFFFF" sketch:type="MSShapeGroup"></path>
            <path d="M231.5996,44.3999 L231.5996,44.2999 L164.8996,2.0999 L7.2996,100.3999 L74.0996,142.4999 L231.5996,44.3999 L231.5996,44.3999 Z" id="Stroke-9" stroke="#000000" stroke-width="5" stroke-linejoin="round" sketch:type="MSShapeGroup"></path>
            <path d="M74.0996,142.4995 L0.4996,188.2995 L73.9996,234.5995 L158.1996,287.9005 L230.8996,242.6995 L230.8996,241.7985 L184.8996,212.5995 L74.0996,142.4995 Z" id="Fill-11" fill="#FFFFFF" sketch:type="MSShapeGroup"></path>
            <path d="M74.0996,142.4995 L0.4996,188.2995 L73.9996,234.5995 L158.1996,287.9005 L230.8996,242.6995 L230.8996,241.7985 L184.8996,212.5995 L74.0996,142.4995 L74.0996,142.4995 Z" id="Stroke-12" stroke="#000000" stroke-width="5" stroke-linejoin="round" sketch:type="MSShapeGroup"></path>
            <path d="M230.8999,183.9995 L230.8999,183.8995 L184.8999,212.5995 L230.8999,241.7985 L230.8999,241.0995 L230.8999,241.7985 L231.5999,242.2985 L277.3999,213.5995 L230.8999,183.9995 Z" id="Fill-14" fill="#FFFFFF" sketch:type="MSShapeGroup"></path>
            <path d="M230.8999,183.9995 L230.8999,183.8995 L184.8999,212.5995 L230.8999,241.7985 L230.8999,241.0995 L230.8999,241.7985 L231.5999,242.2985 L277.3999,213.5995 L230.8999,183.9995 L230.8999,183.9995 Z" id="Stroke-15" stroke="#000000" stroke-width="5" stroke-linejoin="round" sketch:type="MSShapeGroup"></path>
            <path d="M74.0996,283.5 L230.8996,382.6 L230.8996,242.699 L158.1996,287.9 L73.9996,234.6 L74.0996,283.5 Z" id="Fill-16" fill="#FFFFFF" sketch:type="MSShapeGroup"></path>
            <path d="M74.0996,283.5 L230.8996,382.6 L230.8996,242.699 L158.1996,287.9 L73.9996,234.6 L74.0996,283.5 L74.0996,283.5 Z" id="Stroke-17" stroke="#000000" stroke-width="5" stroke-linejoin="round" sketch:type="MSShapeGroup"></path>
            <path d="M388.8997,237.5 L389.3997,237.5 L389.3997,237.298 L388.8997,237.5 Z" id="Fill-19" fill="#FFFFFF" sketch:type="MSShapeGroup"></path>
            <path d="M388.8994,237.5 L389.3994,237.5 L389.3994,237.299 L388.8994,237.5 L388.8994,237.5 Z" id="Stroke-20" stroke="#000000" stroke-width="5" stroke-linejoin="round" sketch:type="MSShapeGroup"></path>
            <path d="M389.3994,237.5 L388.8994,237.5 L305.7004,289.199 L231.5994,242.299 L230.8994,242.699 L230.8994,382.6 L231.5994,383 L389.3994,284.9 L389.3994,284.4 L389.3994,237.5 Z" id="Fill-21" fill="#FFFFFF" sketch:type="MSShapeGroup"></path>
            <path d="M389.3994,237.5 L388.8994,237.5 L305.7004,289.199 L231.5994,242.299 L230.8994,242.699 L230.8994,382.6 L231.5994,383 L389.3994,284.9 L389.3994,284.4 L389.3994,237.5 L389.3994,237.5 Z" id="Stroke-22" stroke="#000000" stroke-width="5" stroke-linejoin="round" sketch:type="MSShapeGroup"></path>
            <path d="M388.8994,237.5 L389.3994,236.799 L463.2004,190.799 L389.2994,143.9 L277.3994,213.6 L231.5994,242.299 L305.7004,289.199 L388.8994,237.5 Z" id="Fill-24" fill="#FFFFFF" sketch:type="MSShapeGroup"></path>
            <path d="M388.8994,237.5 L389.3994,236.799 L463.2004,190.799 L389.2994,143.9 L277.3994,213.6 L231.5994,242.299 L305.7004,289.199 L388.8994,237.5 L388.8994,237.5 Z" id="Stroke-25" stroke="#000000" stroke-width="5" stroke-linejoin="round" sketch:type="MSShapeGroup"></path>
            <g id="Group-29" transform="translate(74.000000, 234.000000)" sketch:type="MSShapeGroup">
                <path d="M0,0.5996 L84.2,53.9006 L156.9,8.6996" id="Fill-27" fill="#FFFFFF"></path>
                <path d="M0,0.5996 L84.2,53.9006 L156.9,8.6996" id="Stroke-28" stroke="#000000" stroke-width="5" stroke-linecap="round" stroke-linejoin="round"></path>
            </g>
            <path d="M388.8997,237.5 L389.3997,237.298 L388.8997,237.5 Z" id="Fill-30" fill="#FFFFFF" sketch:type="MSShapeGroup"></path>
            <path d="M388.8994,237.5 L389.3994,237.299" id="Stroke-31" stroke="#000000" stroke-width="5" stroke-linecap="round" stroke-linejoin="round" sketch:type="MSShapeGroup"></path>
            <path d="M388.8997,237.5 L389.3997,236.799 L388.8997,237.5 Z" id="Fill-32" fill="#FFFFFF" sketch:type="MSShapeGroup"></path>
            <path d="M388.8994,237.5 L389.3994,236.799" id="Stroke-33" stroke="#000000" stroke-width="5" stroke-linecap="round" stroke-linejoin="round" sketch:type="MSShapeGroup"></path>
            <path d="M389.3992,237.2984 L389.3992,236.7994 L389.3992,237.2984 Z" id="Fill-34" fill="#FFFFFF" sketch:type="MSShapeGroup"></path>
            <path d="M389.3994,236.7988 L389.3994,237.2988" id="Stroke-35" stroke="#000000" stroke-width="5" stroke-linecap="round" stroke-linejoin="round" sketch:type="MSShapeGroup"></path>
            <g id="Group-38" transform="translate(277.000000, 143.000000)" sketch:type="MSShapeGroup">
                <path d="M0.3994,70.5996 L112.2994,0.8996" id="Fill-36" fill="#FFFFFF"></path>
                <path d="M0.3994,70.5996 L112.2994,0.8996" id="Stroke-37" stroke="#000000" stroke-width="5" stroke-linecap="round" stroke-linejoin="round"></path>
            </g>
            <path d="M389.2998,143.8999 L459.3998,100.3999 L301.8998,0.6999 L231.5998,44.2999" id="Fill-39" fill="#FFFFFF" sketch:type="MSShapeGroup"></path>
            <path d="M389.2998,143.8999 L459.3998,100.3999 L301.8998,0.6999 L231.5998,44.2999" id="Stroke-40" stroke="#000000" stroke-width="5" stroke-linecap="round" stroke-linejoin="round" sketch:type="MSShapeGroup"></path>
            <path d="M389.2998,143.8999 L463.1998,190.7989 L389.3998,236.7989" id="Fill-42" fill="#FFFFFF" sketch:type="MSShapeGroup"></path>
            <path d="M389.2998,143.8999 L463.1998,190.7989 L389.3998,236.7989" id="Stroke-43" stroke="#000000" stroke-width="5" stroke-linecap="round" stroke-linejoin="round" sketch:type="MSShapeGroup"></path>
            <path d="M230.9002,45.8 L230.9002,183.9 L231.5992,44.4 L230.9002,45.8 Z" id="Fill-45" fill="#FFFFFF" sketch:type="MSShapeGroup"></path>
            <path d="M230.8999,183.8999 L230.8999,45.7999 L231.5999,44.3999" id="Stroke-46" stroke="#000000" stroke-width="5" stroke-linecap="round" stroke-linejoin="round" sketch:type="MSShapeGroup"></path>
            <path d="M231.5995,44.3996 L231.5995,44.2996 L231.5995,44.3996 Z" id="Fill-47" fill="#FFFFFF" sketch:type="MSShapeGroup"></path>
            <path d="M231.5996,44.3999 L231.5996,44.2999" id="Stroke-48" stroke="#000000" stroke-width="5" stroke-linecap="round" stroke-linejoin="round" sketch:type="MSShapeGroup"></path>
            <path d="M74.0996,142.4995 L7.2996,100.3995 L164.8996,2.0995 L231.5996,44.2995" id="Fill-49" fill="#FFFFFF" sketch:type="MSShapeGroup"></path>
            <path d="M74.0996,142.4995 L7.2996,100.3995 L164.8996,2.0995 L231.5996,44.2995" id="Stroke-50" stroke="#000000" stroke-width="5" stroke-linecap="round" stroke-linejoin="round" sketch:type="MSShapeGroup"></path>
            <path d="M74.0996,142.4995 L0.4996,188.2995 L73.9996,234.5995" id="Fill-52" fill="#FFFFFF" sketch:type="MSShapeGroup"></path>
            <path d="M74.0996,142.4995 L0.4996,188.2995 L73.9996,234.5995" id="Stroke-53" stroke="#000000" stroke-width="5" stroke-linecap="round" stroke-linejoin="round" sketch:type="MSShapeGroup"></path>
            <g id="Group-57" transform="translate(230.000000, 183.000000)" sketch:type="MSShapeGroup">
                <path d="M0.8999,0.8999 L0.8999,0.9999 L47.3999,30.5999" id="Fill-55" fill="#FFFFFF"></path>
                <path d="M0.8999,0.8999 L0.8999,0.9999 L47.3999,30.5999" id="Stroke-56" stroke="#000000" stroke-width="5" stroke-linecap="round" stroke-linejoin="round"></path>
            </g>
            <path d="M231.5995,242.2988 L230.9005,241.7988 L231.5995,242.2988 Z" id="Fill-58" fill="#FFFFFF" sketch:type="MSShapeGroup"></path>
            <path d="M230.8999,241.7988 L231.5999,242.2988" id="Stroke-59" stroke="#000000" stroke-width="5" stroke-linecap="round" stroke-linejoin="round" sketch:type="MSShapeGroup"></path>
            <path d="M230.9002,241.7984 L230.9002,241.1004 L230.9002,241.7984 Z" id="Fill-60" fill="#FFFFFF" sketch:type="MSShapeGroup"></path>
            <path d="M230.8999,241.0996 L230.8999,241.7986" id="Stroke-61" stroke="#000000" stroke-width="5" stroke-linecap="round" stroke-linejoin="round" sketch:type="MSShapeGroup"></path>
            <path d="M230.9002,242.6993 L231.5992,242.2983 L230.9002,242.6993 Z" id="Fill-62" fill="#FFFFFF" sketch:type="MSShapeGroup"></path>
            <path d="M230.8999,242.6992 L231.5999,242.2992" id="Stroke-63" stroke="#000000" stroke-width="5" stroke-linecap="round" stroke-linejoin="round" sketch:type="MSShapeGroup"></path>
            <path d="M230.9002,242.6993 L230.9002,241.7983 L230.9002,242.6993 Z" id="Fill-64" fill="#FFFFFF" sketch:type="MSShapeGroup"></path>
            <path d="M230.8999,241.7988 L230.8999,242.6988" id="Stroke-65" stroke="#000000" stroke-width="5" stroke-linecap="round" stroke-linejoin="round" sketch:type="MSShapeGroup"></path>
            <g id="Group-68" transform="translate(184.000000, 212.000000)" sketch:type="MSShapeGroup">
                <path d="M0.8999,0.5996 L46.8999,29.7986" id="Fill-66" fill="#FFFFFF"></path>
                <path d="M0.8999,0.5996 L46.8999,29.7986" id="Stroke-67" stroke="#000000" stroke-width="5" stroke-linecap="round" stroke-linejoin="round"></path>
            </g>
            <g id="Group-71" transform="translate(184.000000, 183.000000)" sketch:type="MSShapeGroup">
                <path d="M0.8999,29.5996 L46.8999,0.8996" id="Fill-69" fill="#FFFFFF"></path>
                <path d="M0.8999,29.5996 L46.8999,0.8996" id="Stroke-70" stroke="#000000" stroke-width="5" stroke-linecap="round" stroke-linejoin="round"></path>
            </g>
            <g id="Group-74" transform="translate(74.000000, 142.000000)" sketch:type="MSShapeGroup">
                <path d="M0.0996,0.4995 L110.8996,70.5995" id="Fill-72" fill="#FFFFFF"></path>
                <path d="M0.0996,0.4995 L110.8996,70.5995" id="Stroke-73" stroke="#000000" stroke-width="5" stroke-linecap="round" stroke-linejoin="round"></path>
            </g>
            <g id="Group-77" transform="translate(74.000000, 44.000000)" sketch:type="MSShapeGroup">
                <path d="M0.0996,98.4995 L157.5996,0.3995" id="Fill-75" fill="#FFFFFF"></path>
                <path d="M0.0996,98.4995 L157.5996,0.3995" id="Stroke-76" stroke="#000000" stroke-width="5" stroke-linecap="round" stroke-linejoin="round"></path>
            </g>
            <path d="M231.5995,383.0003 L230.9005,382.5993 L231.5995,383.0003 Z" id="Fill-78" fill="#FFFFFF" sketch:type="MSShapeGroup"></path>
            <path d="M230.8999,382.5996 L231.5999,382.9996" id="Stroke-79" stroke="#000000" stroke-width="5" stroke-linecap="round" stroke-linejoin="round" sketch:type="MSShapeGroup"></path>
            <path d="M230.9002,383.4998 L231.5992,383.0008 L230.9002,382.5998 L230.9002,383.4998 Z" id="Fill-81" fill="#FFFFFF" sketch:type="MSShapeGroup"></path>
            <path d="M230.8999,382.5996 L230.8999,383.4996 L231.5999,382.9996" id="Stroke-82" stroke="#000000" stroke-width="5" stroke-linecap="round" stroke-linejoin="round" sketch:type="MSShapeGroup"></path>
            <path d="M74,234.5996 L74.1,283.4996 L230.9,382.5996" id="Fill-84" fill="#FFFFFF" sketch:type="MSShapeGroup"></path>
            <path d="M74,234.5996 L74.1,283.4996 L230.9,382.5996" id="Stroke-85" stroke="#000000" stroke-width="5" stroke-linecap="round" stroke-linejoin="round" sketch:type="MSShapeGroup"></path>
            <path d="M389.3992,284.9003 L389.3992,284.4013 L389.3992,284.9003 Z" id="Fill-87" fill="#FFFFFF" sketch:type="MSShapeGroup"></path>
            <path d="M389.3994,284.4004 L389.3994,284.9004" id="Stroke-88" stroke="#000000" stroke-width="5" stroke-linecap="round" stroke-linejoin="round" sketch:type="MSShapeGroup"></path>
            <path d="M389.3992,284.9003 L389.7002,284.6993 L389.3992,284.4013 L389.3992,284.9003 Z" id="Fill-89" fill="#FFFFFF" sketch:type="MSShapeGroup"></path>
            <path d="M389.3994,284.9004 L389.7004,284.6994 L389.3994,284.4004" id="Stroke-90" stroke="#000000" stroke-width="5" stroke-linecap="round" stroke-linejoin="round" sketch:type="MSShapeGroup"></path>
            <g id="Group-93" transform="translate(231.000000, 44.000000)" sketch:type="MSShapeGroup">
                <path d="M0.5996,0.2998 L158.2996,99.8998" id="Fill-91" fill="#FFFFFF"></path>
                <path d="M0.5996,0.2998 L158.2996,99.8998" id="Stroke-92" stroke="#000000" stroke-width="5" stroke-linecap="round" stroke-linejoin="round"></path>
            </g>
            <path d="M231.5996,383 L389.3996,284.9" id="Fill-94" fill="#FFFFFF" sketch:type="MSShapeGroup"></path>
            <path d="M231.5996,383 L389.3996,284.9" id="Stroke-95" stroke="#000000" stroke-width="5" stroke-linecap="round" stroke-linejoin="round" sketch:type="MSShapeGroup"></path>
            <path d="M230.9002,382.5998 L230.9002,242.6998 L230.9002,382.5998 Z" id="Fill-97" fill="#FFFFFF" sketch:type="MSShapeGroup"></path>
            <path d="M230.8999,242.6992 L230.8999,382.5992" id="Stroke-98" stroke="#000000" stroke-width="5" stroke-linecap="round" stroke-linejoin="round" sketch:type="MSShapeGroup"></path>
            <g id="Group-102" transform="translate(231.000000, 237.000000)" sketch:type="MSShapeGroup">
                <path d="M0.5996,5.2988 L74.7006,52.1988 L157.8996,0.4998" id="Fill-100" fill="#FFFFFF"></path>
                <path d="M0.5996,5.2988 L74.7006,52.1988 L157.8996,0.4998" id="Stroke-101" stroke="#000000" stroke-width="5" stroke-linecap="round" stroke-linejoin="round"></path>
            </g>
            <g id="Group-105" transform="translate(231.000000, 213.000000)" sketch:type="MSShapeGroup">
                <path d="M0.5996,29.2988 L46.3996,0.5998" id="Fill-103" fill="#FFFFFF"></path>
                <path d="M0.5996,29.2988 L46.3996,0.5998" id="Stroke-104" stroke="#000000" stroke-width="5" stroke-linecap="round" stroke-linejoin="round"></path>
            </g>
            <path d="M389.3992,237.5 L389.3992,284.401 L389.3992,237.298 L389.3992,237.5 Z" id="Fill-106" fill="#FFFFFF" sketch:type="MSShapeGroup"></path>
            <path d="M389.3994,237.2988 L389.3994,237.4998 L389.3994,284.4008" id="Stroke-107" stroke="#000000" stroke-width="5" stroke-linecap="round" stroke-linejoin="round" sketch:type="MSShapeGroup"></path>
            <path d="M389.3992,284.4008 L389.3992,237.4998 L389.3992,284.4008 Z" id="Fill-108" fill="#FFFFFF" sketch:type="MSShapeGroup"></path>
            <path d="M389.3994,284.4004 L389.3994,237.5004" id="Stroke-109" stroke="#000000" stroke-width="5" stroke-linecap="round" stroke-linejoin="round" sketch:type="MSShapeGroup"></path>
            <path d="M389.3992,237.5 L389.3992,237.298 L389.3992,237.5 Z" id="Fill-110" fill="#FFFFFF" sketch:type="MSShapeGroup"></path>
            <path d="M389.3994,237.5 L389.3994,237.299" id="Stroke-111" stroke="#000000" stroke-width="5" stroke-linecap="round" stroke-linejoin="round" sketch:type="MSShapeGroup"></path>
            <path d="M299.3848,191.0664 L299.3848,135.0984 L268.0428,154.6014 L268.0428,210.5694 L299.3848,191.0664 Z" id="Fill-112" fill="#FFFFFF" sketch:type="MSShapeGroup"></path>
            <path d="M299.3848,191.0664 L299.3848,135.0984 L268.0428,154.6014 L268.0428,210.5694 L299.3848,191.0664 L299.3848,191.0664 Z" id="Stroke-113" stroke="#DD1065" stroke-width="5" stroke-linecap="round" stroke-linejoin="round" sketch:type="MSShapeGroup"></path>
            <path d="M268.043,210.5693 L268.043,154.6013 L200.149,111.7213 L200.149,167.6893 L268.043,210.5693 Z" id="Fill-114" fill="#FFFFFF" sketch:type="MSShapeGroup"></path>
            <path d="M268.043,210.5693 L268.043,154.6013 L200.149,111.7213 L200.149,167.6893 L268.043,210.5693 L268.043,210.5693 Z" id="Stroke-115" stroke="#DD1065" stroke-width="5" stroke-linecap="round" stroke-linejoin="round" sketch:type="MSShapeGroup"></path>
            <path d="M299.3848,135.0981 L299.3848,134.7541 L231.8358,91.9601 L200.1498,111.7211 L268.0428,154.6011 L299.3848,135.0981 Z" id="Fill-116" fill="#FFFFFF" sketch:type="MSShapeGroup"></path>
            <path d="M299.3848,135.0981 L299.3848,134.7541 L231.8358,91.9601 L200.1498,111.7211 L268.0428,154.6011 L299.3848,135.0981 L299.3848,135.0981 Z" id="Stroke-117" stroke="#DD1065" stroke-width="5" stroke-linecap="round" stroke-linejoin="round" sketch:type="MSShapeGroup"></path>
            <g id="Group-120" transform="translate(200.000000, 91.000000)" sketch:type="MSShapeGroup">
                <path d="M0.1494,20.7212 L31.8364,0.9602 L99.3844,43.7542 L99.3844,44.0982" id="Fill-118" fill="#FFFFFF"></path>
                <path d="M0.1494,20.7212 L31.8364,0.9602 L99.3844,43.7542 L99.3844,44.0982" id="Stroke-119" stroke="#DD1065" stroke-width="5" stroke-linecap="round" stroke-linejoin="round"></path>
            </g>
            <g id="Group-123" transform="translate(268.000000, 135.000000)" sketch:type="MSShapeGroup">
                <path d="M0.043,75.5693 L31.385,56.0663 L31.385,0.0983" id="Fill-121" fill="#FFFFFF"></path>
                <path d="M0.043,75.5693 L31.385,56.0663 L31.385,0.0983" id="Stroke-122" stroke="#DD1065" stroke-width="5" stroke-linecap="round" stroke-linejoin="round"></path>
            </g>
            <path d="M268.0432,210.5693 L268.0432,154.6013 L268.0432,210.5693 Z" id="Fill-124" fill="#FFFFFF" sketch:type="MSShapeGroup"></path>
            <path d="M268.043,210.5693 L268.043,154.6013" id="Stroke-125" stroke="#DD1065" stroke-width="5" stroke-linecap="round" stroke-linejoin="round" sketch:type="MSShapeGroup"></path>
            <g id="Group-128" transform="translate(200.000000, 111.000000)" sketch:type="MSShapeGroup">
                <path d="M0.1494,0.7212 L0.1494,56.6892 L68.0434,99.5692" id="Fill-126" fill="#FFFFFF"></path>
                <path d="M0.1494,0.7212 L0.1494,56.6892 L68.0434,99.5692" id="Stroke-127" stroke="#DD1065" stroke-width="5" stroke-linecap="round" stroke-linejoin="round"></path>
            </g>
            <g id="Group-131" transform="translate(200.000000, 111.000000)" sketch:type="MSShapeGroup">
                <path d="M68.043,43.6011 L0.149,0.7211" id="Fill-129" fill="#FFFFFF"></path>
                <path d="M68.043,43.6011 L0.149,0.7211" id="Stroke-130" stroke="#DD1065" stroke-width="5" stroke-linecap="round" stroke-linejoin="round"></path>
            </g>
            <g id="Group-134" transform="translate(268.000000, 135.000000)" sketch:type="MSShapeGroup">
                <path d="M31.3848,0.0981 L0.0428,19.6011" id="Fill-132" fill="#FFFFFF"></path>
                <path d="M31.3848,0.0981 L0.0428,19.6011" id="Stroke-133" stroke="#DD1065" stroke-width="5" stroke-linecap="round" stroke-linejoin="round"></path>
            </g>
            <path d="M383.3516,265.5146 L383.3516,197.8016 L345.4326,221.3976 L345.4326,289.1106 L383.3516,265.5146 Z" id="Fill-135" fill="#FFFFFF" sketch:type="MSShapeGroup"></path>
            <path d="M383.3516,265.5146 L383.3516,197.8016 L345.4326,221.3976 L345.4326,289.1106 L383.3516,265.5146 L383.3516,265.5146 Z" id="Stroke-136" stroke="#DD1065" stroke-width="5" stroke-linecap="round" stroke-linejoin="round" sketch:type="MSShapeGroup"></path>
            <path d="M345.4321,289.1104 L345.4321,221.3974 L263.2911,169.5184 L263.2911,237.2314 L345.4321,289.1104 Z" id="Fill-137" fill="#FFFFFF" sketch:type="MSShapeGroup"></path>
            <path d="M345.4321,289.1104 L345.4321,221.3974 L263.2911,169.5184 L263.2911,237.2314 L345.4321,289.1104 L345.4321,289.1104 Z" id="Stroke-138" stroke="#DD1065" stroke-width="5" stroke-linecap="round" stroke-linejoin="round" sketch:type="MSShapeGroup"></path>
            <path d="M383.3516,197.8018 L383.3516,197.3848 L301.6266,145.6108 L263.2906,169.5188 L345.4326,221.3978 L383.3516,197.8018 Z" id="Fill-139" fill="#FFFFFF" sketch:type="MSShapeGroup"></path>
            <path d="M383.3516,197.8018 L383.3516,197.3848 L301.6266,145.6108 L263.2906,169.5188 L345.4326,221.3978 L383.3516,197.8018 L383.3516,197.8018 Z" id="Stroke-140" stroke="#DD1065" stroke-width="5" stroke-linecap="round" stroke-linejoin="round" sketch:type="MSShapeGroup"></path>
            <path d="M345.4324,289.1105 L345.4324,221.3975 L345.4324,289.1105 Z" id="Fill-141" fill="#FFFFFF" sketch:type="MSShapeGroup"></path>
            <path d="M345.4321,289.1104 L345.4321,221.3974" id="Stroke-142" stroke="#DD1065" stroke-width="5" stroke-linecap="round" stroke-linejoin="round" sketch:type="MSShapeGroup"></path>
            <g id="Group-145" transform="translate(263.000000, 169.000000)" sketch:type="MSShapeGroup">
                <path d="M0.291,0.5186 L0.291,68.2316 L82.432,120.1106" id="Fill-143" fill="#FFFFFF"></path>
                <path d="M0.291,0.5186 L0.291,68.2316 L82.432,120.1106" id="Stroke-144" stroke="#DD1065" stroke-width="5" stroke-linecap="round" stroke-linejoin="round"></path>
            </g>
            <g id="Group-148" transform="translate(263.000000, 169.000000)" sketch:type="MSShapeGroup">
                <path d="M82.4321,52.3975 L0.2911,0.5185" id="Fill-146" fill="#FFFFFF"></path>
                <path d="M82.4321,52.3975 L0.2911,0.5185" id="Stroke-147" stroke="#DD1065" stroke-width="5" stroke-linecap="round" stroke-linejoin="round"></path>
            </g>
            <g id="Group-151" transform="translate(345.000000, 197.000000)" sketch:type="MSShapeGroup">
                <path d="M38.3516,0.8018 L0.4326,24.3978" id="Fill-149" fill="#FFFFFF"></path>
                <path d="M38.3516,0.8018 L0.4326,24.3978" id="Stroke-150" stroke="#DD1065" stroke-width="5" stroke-linecap="round" stroke-linejoin="round"></path>
            </g>
            <path d="M250.9668,207.916 L250.9668,148.345 L217.6068,169.103 L217.6068,228.675 L250.9668,207.916 Z" id="Fill-152" fill="#FFFFFF" sketch:type="MSShapeGroup"></path>
            <path d="M250.9668,207.916 L250.9668,148.345 L217.6068,169.103 L217.6068,228.675 L250.9668,207.916 L250.9668,207.916 Z" id="Stroke-153" stroke="#DD1065" stroke-width="5" stroke-linejoin="round" sketch:type="MSShapeGroup"></path>
            <path d="M217.6069,228.6748 L217.6069,169.1038 L145.3429,123.4628 L145.3429,183.0338 L217.6069,228.6748 Z" id="Fill-154" fill="#FFFFFF" sketch:type="MSShapeGroup"></path>
            <path d="M217.6069,228.6748 L217.6069,169.1038 L145.3429,123.4628 L145.3429,183.0338 L217.6069,228.6748 L217.6069,228.6748 Z" id="Stroke-155" stroke="#DD1065" stroke-width="5" stroke-linejoin="round" sketch:type="MSShapeGroup"></path>
            <path d="M250.9668,148.3452 L250.9668,147.9792 L179.0688,102.4292 L145.3428,123.4632 L217.6068,169.1032 L250.9668,148.3452 Z" id="Fill-156" fill="#FFFFFF" sketch:type="MSShapeGroup"></path>
            <path d="M250.9668,148.3452 L250.9668,147.9792 L179.0688,102.4292 L145.3428,123.4632 L217.6068,169.1032 L250.9668,148.3452 L250.9668,148.3452 Z" id="Stroke-157" stroke="#DD1065" stroke-width="5" stroke-linejoin="round" sketch:type="MSShapeGroup"></path>
            <path d="M217.6072,228.6746 L217.6072,169.1036 L217.6072,228.6746 Z" id="Fill-158" fill="#FFFFFF" sketch:type="MSShapeGroup"></path>
            <path d="M217.6069,228.6748 L217.6069,169.1038" id="Stroke-159" stroke="#DD1065" stroke-width="5" stroke-linecap="round" stroke-linejoin="round" sketch:type="MSShapeGroup"></path>
            <g id="Group-162" transform="translate(145.000000, 123.000000)" sketch:type="MSShapeGroup">
                <path d="M72.6069,46.1035 L0.3429,0.4625" id="Fill-160" fill="#FFFFFF"></path>
                <path d="M72.6069,46.1035 L0.3429,0.4625" id="Stroke-161" stroke="#DD1065" stroke-width="5" stroke-linecap="round" stroke-linejoin="round"></path>
            </g>
            <g id="Group-165" transform="translate(217.000000, 148.000000)" sketch:type="MSShapeGroup">
                <path d="M33.9668,0.3452 L0.6068,21.1032" id="Fill-163" fill="#FFFFFF"></path>
                <path d="M33.9668,0.3452 L0.6068,21.1032" id="Stroke-164" stroke="#DD1065" stroke-width="5" stroke-linecap="round" stroke-linejoin="round"></path>
            </g>
            <path d="M387.25,248.9277 L387.25,191.6267 L355.161,211.5937 L355.161,268.8957 L387.25,248.9277 Z" id="Fill-166" fill="#FFFFFF" sketch:type="MSShapeGroup"></path>
            <path d="M387.25,248.9277 L387.25,191.6267 L355.161,211.5937 L355.161,268.8957 L387.25,248.9277 L387.25,248.9277 Z" id="Stroke-167" stroke="#DD1065" stroke-width="5" stroke-linejoin="round" sketch:type="MSShapeGroup"></path>
            <path d="M355.1611,268.8955 L355.1611,211.5935 L285.6491,167.6915 L285.6491,224.9945 L355.1611,268.8955 Z" id="Fill-168" fill="#FFFFFF" sketch:type="MSShapeGroup"></path>
            <path d="M355.1611,268.8955 L355.1611,211.5935 L285.6491,167.6915 L285.6491,224.9945 L355.1611,268.8955 L355.1611,268.8955 Z" id="Stroke-169" stroke="#DD1065" stroke-width="5" stroke-linejoin="round" sketch:type="MSShapeGroup"></path>
            <path d="M387.25,191.627 L387.25,191.274 L318.091,147.46 L285.649,167.692 L355.161,211.594 L387.25,191.627 Z" id="Fill-170" fill="#FFFFFF" sketch:type="MSShapeGroup"></path>
            <path d="M387.25,191.627 L387.25,191.274 L318.091,147.46 L285.649,167.692 L355.161,211.594 L387.25,191.627 L387.25,191.627 Z" id="Stroke-171" stroke="#DD1065" stroke-width="5" stroke-linejoin="round" sketch:type="MSShapeGroup"></path>
            <path d="M355.1614,268.8956 L355.1614,211.5936 L355.1614,268.8956 Z" id="Fill-172" fill="#FFFFFF" sketch:type="MSShapeGroup"></path>
            <path d="M355.1611,268.8955 L355.1611,211.5935" id="Stroke-173" stroke="#DD1065" stroke-width="5" stroke-linecap="round" stroke-linejoin="round" sketch:type="MSShapeGroup"></path>
            <g id="Group-176" transform="translate(285.000000, 167.000000)" sketch:type="MSShapeGroup">
                <path d="M70.1611,44.5937 L0.6491,0.6917" id="Fill-174" fill="#FFFFFF"></path>
                <path d="M70.1611,44.5937 L0.6491,0.6917" id="Stroke-175" stroke="#DD1065" stroke-width="5" stroke-linecap="round" stroke-linejoin="round"></path>
            </g>
            <g id="Group-179" transform="translate(355.000000, 191.000000)" sketch:type="MSShapeGroup">
                <path d="M32.25,0.627 L0.161,20.594" id="Fill-177" fill="#FFFFFF"></path>
                <path d="M32.25,0.627 L0.161,20.594" id="Stroke-178" stroke="#DD1065" stroke-width="5" stroke-linecap="round" stroke-linejoin="round"></path>
            </g>
            <path d="M328.1494,288.8037 L328.1494,220.8417 L290.0914,244.5247 L290.0914,312.4857 L328.1494,288.8037 Z" id="Fill-180" fill="#FFFFFF" sketch:type="MSShapeGroup"></path>
            <path d="M328.1494,288.8037 L328.1494,220.8417 L290.0914,244.5247 L290.0914,312.4857 L328.1494,288.8037 L328.1494,288.8037 Z" id="Stroke-181" stroke="#DD1065" stroke-width="5" stroke-linejoin="round" sketch:type="MSShapeGroup"></path>
            <path d="M290.0913,312.4854 L290.0913,244.5244 L207.6493,192.4564 L207.6493,260.4164 L290.0913,312.4854 Z" id="Fill-182" fill="#FFFFFF" sketch:type="MSShapeGroup"></path>
            <path d="M290.0913,312.4854 L290.0913,244.5244 L207.6493,192.4564 L207.6493,260.4164 L290.0913,312.4854 L290.0913,312.4854 Z" id="Stroke-183" stroke="#DD1065" stroke-width="5" stroke-linejoin="round" sketch:type="MSShapeGroup"></path>
            <path d="M328.1494,220.8418 L328.1494,220.4238 L246.1254,168.4598 L207.6494,192.4558 L290.0914,244.5248 L328.1494,220.8418 Z" id="Fill-184" fill="#FFFFFF" sketch:type="MSShapeGroup"></path>
            <path d="M328.1494,220.8418 L328.1494,220.4238 L246.1254,168.4598 L207.6494,192.4558 L290.0914,244.5248 L328.1494,220.8418 L328.1494,220.8418 Z" id="Stroke-185" stroke="#DD1065" stroke-width="5" stroke-linejoin="round" sketch:type="MSShapeGroup"></path>
            <path d="M290.0914,312.4853 L290.0914,244.5243 L290.0914,312.4853 Z" id="Fill-186" fill="#FFFFFF" sketch:type="MSShapeGroup"></path>
            <path d="M290.0913,312.4854 L290.0913,244.5244" id="Stroke-187" stroke="#DD1065" stroke-width="5" stroke-linecap="round" stroke-linejoin="round" sketch:type="MSShapeGroup"></path>
            <g id="Group-190" transform="translate(207.000000, 192.000000)" sketch:type="MSShapeGroup">
                <path d="M83.0913,52.5244 L0.6493,0.4564" id="Fill-188" fill="#FFFFFF"></path>
                <path d="M83.0913,52.5244 L0.6493,0.4564" id="Stroke-189" stroke="#DD1065" stroke-width="5" stroke-linecap="round" stroke-linejoin="round"></path>
            </g>
            <g id="Group-193" transform="translate(290.000000, 220.000000)" sketch:type="MSShapeGroup">
                <path d="M38.1494,0.8418 L0.0914,24.5248" id="Fill-191" fill="#FFFFFF"></path>
                <path d="M38.1494,0.8418 L0.0914,24.5248" id="Stroke-192" stroke="#DD1065" stroke-width="5" stroke-linecap="round" stroke-linejoin="round"></path>
            </g>
            <path d="M197.3457,242.3496 L197.3457,186.4336 L166.0327,205.9186 L166.0327,261.8346 L197.3457,242.3496 Z" id="Fill-194" fill="#FFFFFF" sketch:type="MSShapeGroup"></path>
            <path d="M197.3457,242.3496 L197.3457,186.4336 L166.0327,205.9186 L166.0327,261.8346 L197.3457,242.3496 L197.3457,242.3496 Z" id="Stroke-195" stroke="#DD1065" stroke-width="5" stroke-linejoin="round" sketch:type="MSShapeGroup"></path>
            <path d="M166.0322,261.835 L166.0322,205.919 L98.2012,163.078 L98.2012,218.994 L166.0322,261.835 Z" id="Fill-196" fill="#FFFFFF" sketch:type="MSShapeGroup"></path>
            <path d="M166.0322,261.835 L166.0322,205.919 L98.2012,163.078 L98.2012,218.994 L166.0322,261.835 L166.0322,261.835 Z" id="Stroke-197" stroke="#DD1065" stroke-width="5" stroke-linejoin="round" sketch:type="MSShapeGroup"></path>
            <path d="M197.3457,186.4336 L197.3457,186.0896 L129.8587,143.3346 L98.2017,163.0786 L166.0327,205.9186 L197.3457,186.4336 Z" id="Fill-198" fill="#FFFFFF" sketch:type="MSShapeGroup"></path>
            <path d="M197.3457,186.4336 L197.3457,186.0896 L129.8587,143.3346 L98.2017,163.0786 L166.0327,205.9186 L197.3457,186.4336 L197.3457,186.4336 Z" id="Stroke-199" stroke="#DD1065" stroke-width="5" stroke-linejoin="round" sketch:type="MSShapeGroup"></path>
            <path d="M166.0318,261.8351 L166.0318,205.9191 L166.0318,261.8351 Z" id="Fill-200" fill="#FFFFFF" sketch:type="MSShapeGroup"></path>
            <path d="M166.0322,261.835 L166.0322,205.919" id="Stroke-201" stroke="#DD1065" stroke-width="5" stroke-linecap="round" stroke-linejoin="round" sketch:type="MSShapeGroup"></path>
            <g id="Group-204" transform="translate(98.000000, 163.000000)" sketch:type="MSShapeGroup">
                <path d="M0.2017,0.0781 L0.2017,55.9941 L68.0327,98.8351" id="Fill-202" fill="#FFFFFF"></path>
                <path d="M0.2017,0.0781 L0.2017,55.9941 L68.0327,98.8351" id="Stroke-203" stroke="#DD1065" stroke-width="5" stroke-linecap="round" stroke-linejoin="round"></path>
            </g>
            <g id="Group-207" transform="translate(98.000000, 163.000000)" sketch:type="MSShapeGroup">
                <path d="M68.0322,42.9189 L0.2012,0.0779" id="Fill-205" fill="#FFFFFF"></path>
                <path d="M68.0322,42.9189 L0.2012,0.0779" id="Stroke-206" stroke="#DD1065" stroke-width="5" stroke-linecap="round" stroke-linejoin="round"></path>
            </g>
            <g id="Group-210" transform="translate(166.000000, 186.000000)" sketch:type="MSShapeGroup">
                <path d="M31.3457,0.4336 L0.0327,19.9186" id="Fill-208" fill="#FFFFFF"></path>
                <path d="M31.3457,0.4336 L0.0327,19.9186" id="Stroke-209" stroke="#DD1065" stroke-width="5" stroke-linecap="round" stroke-linejoin="round"></path>
            </g>
            <path d="M275.4731,304.9268 L275.4731,248.9588 L244.1311,268.4618 L244.1311,324.4298 L275.4731,304.9268 Z" id="Fill-211" fill="#FFFFFF" sketch:type="MSShapeGroup"></path>
            <path d="M275.4731,304.9268 L275.4731,248.9588 L244.1311,268.4618 L244.1311,324.4298 L275.4731,304.9268 L275.4731,304.9268 Z" id="Stroke-212" stroke="#DD1065" stroke-width="5" sketch:type="MSShapeGroup"></path>
            <path d="M244.1313,324.4297 L244.1313,268.4617 L176.2373,225.5817 L176.2373,281.5497 L244.1313,324.4297 Z" id="Fill-213" fill="#FFFFFF" sketch:type="MSShapeGroup"></path>
            <path d="M244.1313,324.4297 L244.1313,268.4617 L176.2373,225.5817 L176.2373,281.5497 L244.1313,324.4297 L244.1313,324.4297 Z" id="Stroke-214" stroke="#DD1065" stroke-width="5" sketch:type="MSShapeGroup"></path>
            <path d="M275.4731,248.959 L275.4731,248.614 L207.9241,205.82 L176.2381,225.582 L244.1311,268.462 L275.4731,248.959 Z" id="Fill-215" fill="#FFFFFF" sketch:type="MSShapeGroup"></path>
            <path d="M275.4731,248.959 L275.4731,248.614 L207.9241,205.82 L176.2381,225.582 L244.1311,268.462 L275.4731,248.959 L275.4731,248.959 Z" id="Stroke-216" stroke="#DD1065" stroke-width="5" sketch:type="MSShapeGroup"></path>
            <g id="Group-219" transform="translate(176.000000, 205.000000)" sketch:type="MSShapeGroup">
                <path d="M0.2378,20.582 L31.9248,0.82 L99.4728,43.614 L99.4728,43.959" id="Fill-217" fill="#FFFFFF"></path>
                <path d="M0.2378,20.582 L31.9248,0.82 L99.4728,43.614 L99.4728,43.959" id="Stroke-218" stroke="#DD1065" stroke-width="5" stroke-linecap="round" stroke-linejoin="round"></path>
            </g>
            <g id="Group-222" transform="translate(244.000000, 248.000000)" sketch:type="MSShapeGroup">
                <path d="M0.1313,76.4297 L31.4733,56.9267 L31.4733,0.9587" id="Fill-220" fill="#FFFFFF"></path>
                <path d="M0.1313,76.4297 L31.4733,56.9267 L31.4733,0.9587" id="Stroke-221" stroke="#DD1065" stroke-width="5" stroke-linecap="round" stroke-linejoin="round"></path>
            </g>
            <path d="M244.1311,324.4301 L244.1311,268.4621 L244.1311,324.4301 Z" id="Fill-223" fill="#FFFFFF" sketch:type="MSShapeGroup"></path>
            <path d="M244.1313,324.4297 L244.1313,268.4617" id="Stroke-224" stroke="#DD1065" stroke-width="5" stroke-linecap="round" stroke-linejoin="round" sketch:type="MSShapeGroup"></path>
            <g id="Group-227" transform="translate(176.000000, 225.000000)" sketch:type="MSShapeGroup">
                <path d="M0.2378,0.582 L0.2378,56.55 L68.1318,99.43" id="Fill-225" fill="#FFFFFF"></path>
                <path d="M0.2378,0.582 L0.2378,56.55 L68.1318,99.43" id="Stroke-226" stroke="#DD1065" stroke-width="5" stroke-linecap="round" stroke-linejoin="round"></path>
            </g>
            <g id="Group-230" transform="translate(176.000000, 225.000000)" sketch:type="MSShapeGroup">
                <path d="M68.1313,43.4619 L0.2373,0.5819" id="Fill-228" fill="#FFFFFF"></path>
                <path d="M68.1313,43.4619 L0.2373,0.5819" id="Stroke-229" stroke="#DD1065" stroke-width="5" stroke-linecap="round" stroke-linejoin="round"></path>
            </g>
            <g id="Group-233" transform="translate(244.000000, 248.000000)" sketch:type="MSShapeGroup">
                <path d="M31.4731,0.959 L0.1311,20.462" id="Fill-231" fill="#FFFFFF"></path>
                <path d="M31.4731,0.959 L0.1311,20.462" id="Stroke-232" stroke="#DD1065" stroke-width="5" stroke-linecap="round" stroke-linejoin="round"></path>
            </g>
            <path d="M459.3994,100.3999 L301.8994,0.6999 L231.5994,44.2999 L389.2994,143.8999 L459.3994,100.3999 Z" id="Fill-234" fill="#FFFFFF" sketch:type="MSShapeGroup"></path>
            <path d="M231.5996,44.3999 L231.5996,44.2999 L164.8996,2.0999 L7.2996,100.3999 L74.0996,142.4999 L231.5996,44.3999 Z" id="Fill-235" fill="#FFFFFF" sketch:type="MSShapeGroup"></path>
            <path d="M74.0996,142.4995 L0.4996,188.2995 L73.9996,234.5995 L158.1996,287.9005 L230.8996,242.6995 L230.8996,241.7985 L184.8996,212.5995 L74.0996,142.4995 Z" id="Fill-236" fill="#FFFFFF" sketch:type="MSShapeGroup"></path>
            <path d="M74.0996,283.5 L230.8996,382.6 L230.8996,242.699 L158.1996,287.9 L73.9996,234.6 L74.0996,283.5 Z" id="Fill-237" fill="#FFFFFF" sketch:type="MSShapeGroup"></path>
            <path d="M388.8997,237.5 L389.3997,237.5 L389.3997,237.298 L388.8997,237.5 Z" id="Fill-238" fill="#FFFFFF" sketch:type="MSShapeGroup"></path>
            <path d="M389.3994,237.5 L388.8994,237.5 L305.7004,289.199 L231.5994,242.299 L230.8994,242.699 L230.8994,382.6 L231.5994,383 L389.3994,284.9 L389.3994,284.4 L389.3994,237.5 Z" id="Fill-239" fill="#FFFFFF" sketch:type="MSShapeGroup"></path>
            <path d="M388.8994,237.5 L389.3994,236.799 L463.2004,190.799 L389.2994,143.9 L277.3994,213.6 L231.5994,242.299 L305.7004,289.199 L388.8994,237.5 Z" id="Fill-240" fill="#FFFFFF" sketch:type="MSShapeGroup"></path>
            <g id="Group-243" transform="translate(74.000000, 234.000000)" sketch:type="MSShapeGroup">
                <path d="M0,0.5996 L84.2,53.9006 L156.9,8.6996" id="Fill-241" fill="#FFFFFF"></path>
                <path d="M0,0.5996 L84.2,53.9006 L156.9,8.6996" id="Stroke-242" stroke="#000000" stroke-width="5" stroke-linecap="round" stroke-linejoin="round"></path>
            </g>
            <path d="M388.8997,237.5 L389.3997,237.298 L388.8997,237.5 Z" id="Fill-244" fill="#FFFFFF" sketch:type="MSShapeGroup"></path>
            <path d="M388.8994,237.5 L389.3994,237.299" id="Stroke-245" stroke="#000000" stroke-width="5" stroke-linecap="round" stroke-linejoin="round" sketch:type="MSShapeGroup"></path>
            <path d="M388.8997,237.5 L389.3997,236.799 L388.8997,237.5 Z" id="Fill-246" fill="#FFFFFF" sketch:type="MSShapeGroup"></path>
            <path d="M388.8994,237.5 L389.3994,236.799" id="Stroke-247" stroke="#000000" stroke-width="5" stroke-linecap="round" stroke-linejoin="round" sketch:type="MSShapeGroup"></path>
            <path d="M389.3992,237.2984 L389.3992,236.7994 L389.3992,237.2984 Z" id="Fill-248" fill="#FFFFFF" sketch:type="MSShapeGroup"></path>
            <path d="M389.3994,236.7988 L389.3994,237.2988" id="Stroke-249" stroke="#000000" stroke-width="5" stroke-linecap="round" stroke-linejoin="round" sketch:type="MSShapeGroup"></path>
            <g id="Group-252" transform="translate(277.000000, 143.000000)" sketch:type="MSShapeGroup">
                <path d="M0.3994,70.5996 L112.2994,0.8996" id="Fill-250" fill="#FFFFFF"></path>
                <path d="M0.3994,70.5996 L112.2994,0.8996" id="Stroke-251" stroke="#000000" stroke-width="5" stroke-linecap="round" stroke-linejoin="round"></path>
            </g>
            <path d="M389.2998,143.8999 L459.3998,100.3999 L301.8998,0.6999 L231.5998,44.2999" id="Fill-253" fill="#FFFFFF" sketch:type="MSShapeGroup"></path>
            <path d="M389.2998,143.8999 L459.3998,100.3999 L301.8998,0.6999 L231.5998,44.2999" id="Stroke-254" stroke="#000000" stroke-width="5" stroke-linecap="round" stroke-linejoin="round" sketch:type="MSShapeGroup"></path>
            <path d="M389.2998,143.8999 L463.1998,190.7989 L389.3998,236.7989" id="Fill-256" fill="#FFFFFF" sketch:type="MSShapeGroup"></path>
            <path d="M389.2998,143.8999 L463.1998,190.7989 L389.3998,236.7989" id="Stroke-257" stroke="#000000" stroke-width="5" stroke-linecap="round" stroke-linejoin="round" sketch:type="MSShapeGroup"></path>
            <path d="M230.9002,45.8 L231.5992,44.4 L230.9002,45.8 Z" id="Fill-259" fill="#FFFFFF" sketch:type="MSShapeGroup"></path>
            <path d="M230.8999,45.7998 L231.5999,44.3998" id="Stroke-260" stroke="#000000" stroke-width="5" stroke-linecap="round" stroke-linejoin="round" sketch:type="MSShapeGroup"></path>
            <path d="M231.5995,44.3996 L231.5995,44.2996 L231.5995,44.3996 Z" id="Fill-261" fill="#FFFFFF" sketch:type="MSShapeGroup"></path>
            <path d="M231.5996,44.3999 L231.5996,44.2999" id="Stroke-262" stroke="#000000" stroke-width="5" stroke-linecap="round" stroke-linejoin="round" sketch:type="MSShapeGroup"></path>
            <path d="M74.0996,142.4995 L7.2996,100.3995 L164.8996,2.0995 L231.5996,44.2995" id="Fill-263" fill="#FFFFFF" sketch:type="MSShapeGroup"></path>
            <path d="M74.0996,142.4995 L7.2996,100.3995 L164.8996,2.0995 L231.5996,44.2995" id="Stroke-264" stroke="#000000" stroke-width="5" stroke-linecap="round" stroke-linejoin="round" sketch:type="MSShapeGroup"></path>
            <path d="M74.0996,142.4995 L0.4996,188.2995 L73.9996,234.5995" id="Fill-266" fill="#FFFFFF" sketch:type="MSShapeGroup"></path>
            <path d="M74.0996,142.4995 L0.4996,188.2995 L73.9996,234.5995" id="Stroke-267" stroke="#000000" stroke-width="5" stroke-linecap="round" stroke-linejoin="round" sketch:type="MSShapeGroup"></path>
            <path d="M231.5995,242.2988 L230.9005,241.7988 L231.5995,242.2988 Z" id="Fill-269" fill="#FFFFFF" sketch:type="MSShapeGroup"></path>
            <path d="M230.8999,241.7988 L231.5999,242.2988" id="Stroke-270" stroke="#000000" stroke-width="5" stroke-linecap="round" stroke-linejoin="round" sketch:type="MSShapeGroup"></path>
            <path d="M230.9002,241.7984 L230.9002,241.1004 L230.9002,241.7984 Z" id="Fill-271" fill="#FFFFFF" sketch:type="MSShapeGroup"></path>
            <path d="M230.8999,241.0996 L230.8999,241.7986" id="Stroke-272" stroke="#000000" stroke-width="5" stroke-linecap="round" stroke-linejoin="round" sketch:type="MSShapeGroup"></path>
            <path d="M230.9002,242.6993 L231.5992,242.2983 L230.9002,242.6993 Z" id="Fill-273" fill="#FFFFFF" sketch:type="MSShapeGroup"></path>
            <path d="M230.8999,242.6992 L231.5999,242.2992" id="Stroke-274" stroke="#000000" stroke-width="5" stroke-linecap="round" stroke-linejoin="round" sketch:type="MSShapeGroup"></path>
            <path d="M230.9002,242.6993 L230.9002,241.7983 L230.9002,242.6993 Z" id="Fill-275" fill="#FFFFFF" sketch:type="MSShapeGroup"></path>
            <path d="M230.8999,241.7988 L230.8999,242.6988" id="Stroke-276" stroke="#000000" stroke-width="5" stroke-linecap="round" stroke-linejoin="round" sketch:type="MSShapeGroup"></path>
            <g id="Group-279" transform="translate(184.000000, 212.000000)" sketch:type="MSShapeGroup">
                <path d="M0.8999,0.5996 L46.8999,29.7986" id="Fill-277" fill="#FFFFFF"></path>
                <path d="M0.8999,0.5996 L46.8999,29.7986" id="Stroke-278" stroke="#000000" stroke-width="5" stroke-linecap="round" stroke-linejoin="round"></path>
            </g>
            <g id="Group-282" transform="translate(74.000000, 142.000000)" sketch:type="MSShapeGroup">
                <path d="M0.0996,0.4995 L110.8996,70.5995" id="Fill-280" fill="#FFFFFF"></path>
                <path d="M0.0996,0.4995 L110.8996,70.5995" id="Stroke-281" stroke="#000000" stroke-width="5" stroke-linecap="round" stroke-linejoin="round"></path>
            </g>
            <g id="Group-285" transform="translate(74.000000, 44.000000)" sketch:type="MSShapeGroup">
                <path d="M0.0996,98.4995 L157.5996,0.3995" id="Fill-283" fill="#FFFFFF"></path>
                <path d="M0.0996,98.4995 L157.5996,0.3995" id="Stroke-284" stroke="#000000" stroke-width="5" stroke-linecap="round" stroke-linejoin="round"></path>
            </g>
            <path d="M231.5995,383.0003 L230.9005,382.5993 L231.5995,383.0003 Z" id="Fill-286" fill="#FFFFFF" sketch:type="MSShapeGroup"></path>
            <path d="M230.8999,382.5996 L231.5999,382.9996" id="Stroke-287" stroke="#000000" stroke-width="5" stroke-linecap="round" stroke-linejoin="round" sketch:type="MSShapeGroup"></path>
            <path d="M230.9002,383.4998 L231.5992,383.0008 L230.9002,382.5998 L230.9002,383.4998 Z" id="Fill-289" fill="#FFFFFF" sketch:type="MSShapeGroup"></path>
            <path d="M230.8999,382.5996 L230.8999,383.4996 L231.5999,382.9996" id="Stroke-290" stroke="#000000" stroke-width="5" stroke-linecap="round" stroke-linejoin="round" sketch:type="MSShapeGroup"></path>
            <path d="M74,234.5996 L74.1,283.4996 L230.9,382.5996" id="Fill-292" fill="#FFFFFF" sketch:type="MSShapeGroup"></path>
            <path d="M74,234.5996 L74.1,283.4996 L230.9,382.5996" id="Stroke-293" stroke="#000000" stroke-width="5" stroke-linecap="round" stroke-linejoin="round" sketch:type="MSShapeGroup"></path>
            <path d="M389.3992,284.9003 L389.3992,284.4013 L389.3992,284.9003 Z" id="Fill-295" fill="#FFFFFF" sketch:type="MSShapeGroup"></path>
            <path d="M389.3994,284.4004 L389.3994,284.9004" id="Stroke-296" stroke="#000000" stroke-width="5" stroke-linecap="round" stroke-linejoin="round" sketch:type="MSShapeGroup"></path>
            <path d="M389.3992,284.9003 L389.7002,284.6993 L389.3992,284.4013 L389.3992,284.9003 Z" id="Fill-297" fill="#FFFFFF" sketch:type="MSShapeGroup"></path>
            <path d="M389.3994,284.9004 L389.7004,284.6994 L389.3994,284.4004" id="Stroke-298" stroke="#000000" stroke-width="5" stroke-linecap="round" stroke-linejoin="round" sketch:type="MSShapeGroup"></path>
            <g id="Group-301" transform="translate(231.000000, 44.000000)" sketch:type="MSShapeGroup">
                <path d="M0.5996,0.2998 L158.2996,99.8998" id="Fill-299" fill="#FFFFFF"></path>
                <path d="M0.5996,0.2998 L158.2996,99.8998" id="Stroke-300" stroke="#000000" stroke-width="5" stroke-linecap="round" stroke-linejoin="round"></path>
            </g>
            <path d="M231.5996,383 L389.3996,284.9" id="Fill-302" fill="#FFFFFF" sketch:type="MSShapeGroup"></path>
            <path d="M231.5996,383 L389.3996,284.9" id="Stroke-303" stroke="#000000" stroke-width="5" stroke-linecap="round" stroke-linejoin="round" sketch:type="MSShapeGroup"></path>
            <path d="M230.9002,382.5998 L230.9002,242.6998 L230.9002,382.5998 Z" id="Fill-305" fill="#FFFFFF" sketch:type="MSShapeGroup"></path>
            <path d="M230.8999,242.6992 L230.8999,382.5992" id="Stroke-306" stroke="#000000" stroke-width="5" stroke-linecap="round" stroke-linejoin="round" sketch:type="MSShapeGroup"></path>
            <g id="Group-310" transform="translate(231.000000, 237.000000)" sketch:type="MSShapeGroup">
                <path d="M0.5996,5.2988 L74.7006,52.1988 L157.8996,0.4998" id="Fill-308" fill="#FFFFFF"></path>
                <path d="M0.5996,5.2988 L74.7006,52.1988 L157.8996,0.4998" id="Stroke-309" stroke="#000000" stroke-width="5" stroke-linecap="round" stroke-linejoin="round"></path>
            </g>
            <g id="Group-313" transform="translate(231.000000, 213.000000)" sketch:type="MSShapeGroup">
                <path d="M0.5996,29.2988 L46.3996,0.5998" id="Fill-311" fill="#FFFFFF"></path>
                <path d="M0.5996,29.2988 L46.3996,0.5998" id="Stroke-312" stroke="#000000" stroke-width="5" stroke-linecap="round" stroke-linejoin="round"></path>
            </g>
            <path d="M389.3992,237.5 L389.3992,284.401 L389.3992,237.298 L389.3992,237.5 Z" id="Fill-314" fill="#FFFFFF" sketch:type="MSShapeGroup"></path>
            <path d="M389.3994,237.2988 L389.3994,237.4998 L389.3994,284.4008" id="Stroke-315" stroke="#000000" stroke-width="5" stroke-linecap="round" stroke-linejoin="round" sketch:type="MSShapeGroup"></path>
            <path d="M389.3992,284.4008 L389.3992,237.4998 L389.3992,284.4008 Z" id="Fill-316" fill="#FFFFFF" sketch:type="MSShapeGroup"></path>
            <path d="M389.3994,284.4004 L389.3994,237.5004" id="Stroke-317" stroke="#000000" stroke-width="5" stroke-linecap="round" stroke-linejoin="round" sketch:type="MSShapeGroup"></path>
            <path d="M389.3992,237.5 L389.3992,237.298 L389.3992,237.5 Z" id="Fill-318" fill="#FFFFFF" sketch:type="MSShapeGroup"></path>
            <path d="M389.3994,237.5 L389.3994,237.299" id="Stroke-319" stroke="#172982" stroke-width="5" stroke-linecap="round" stroke-linejoin="round" sketch:type="MSShapeGroup"></path>
        </g>
        <g id="text-unten" sketch:type="MSLayerGroup" transform="translate(1.000000, 421.000000)">
            <path d="M7.4,72 L10.76,72 L10.76,47.92 L18,47.92 L18,45.04 L0.16,45.04 L0.16,47.92 L7.4,47.92 L7.4,72 Z M21,45.04 L21,72 L24.36,72 L24.36,59.36 L35.76,59.36 L35.76,72 L39.12,72 L39.12,45.04 L35.76,45.04 L35.76,56.4 L24.36,56.4 L24.36,45.04 L21,45.04 Z M52.68,72 L56.04,72 L56.04,61.68 L58.32,58.84 L66.16,72 L70.04,72 L60.64,56.52 L69.44,45.04 L65.4,45.04 L58.16,55 C57.52,55.92 56.84,56.92 56.16,58 L56.04,58 L56.04,45.04 L52.68,45.04 L52.68,72 Z M76.2,49.24 C77.32,49.24 78.08,48.36 78.08,47.28 C78.08,46.16 77.28,45.32 76.24,45.32 C75.12,45.32 74.28,46.2 74.28,47.28 C74.28,48.36 75.08,49.24 76.16,49.24 L76.2,49.24 Z M83.28,49.24 C84.36,49.24 85.16,48.36 85.16,47.28 C85.16,46.16 84.36,45.32 83.28,45.32 C82.16,45.32 81.32,46.2 81.32,47.28 C81.32,48.36 82.12,49.24 83.2,49.24 L83.28,49.24 Z M79.88,52.24 C75.16,52.24 71.2,55.8 71.2,62.44 C71.2,68.76 74.88,72.4 79.6,72.4 C83.76,72.4 88.28,69.44 88.28,62.2 C88.28,56.04 84.8,52.24 79.88,52.24 L79.88,52.24 Z M79.76,54.84 C83.52,54.84 84.84,59.08 84.84,62.28 C84.84,66.24 82.92,69.84 79.76,69.84 C76.52,69.84 74.64,66.28 74.64,62.36 C74.64,58.88 76.08,54.84 79.76,54.84 L79.76,54.84 Z M92.4,72 L95.8,72 L95.8,43.8 L92.4,43.8 L92.4,72 Z M101.28,72 L104.68,72 L104.68,60.2 C104.68,59.56 104.76,58.96 104.88,58.52 C105.44,56.52 107.08,55.04 109.08,55.04 C112.04,55.04 113,57.56 113,60.44 L113,72 L116.36,72 L116.36,60.04 C116.36,53.96 112.88,52.24 110.2,52.24 C107.36,52.24 105.32,53.84 104.4,55.56 L104.28,55.56 L104.12,52.64 L101.12,52.64 C101.2,54.24 101.28,55.72 101.28,57.8 L101.28,72 Z M145.44,69.68 C144.16,70.32 142.28,70.76 140.28,70.76 C134.2,70.76 130.24,66.6 130.24,58.64 C130.24,50.48 134.52,46.28 140.44,46.28 C142.52,46.28 144.08,46.72 145.24,47.28 L145.84,45.68 C145.08,45.28 143.36,44.68 140.52,44.68 C133.44,44.68 128.32,49.84 128.32,58.72 C128.32,68.44 133.92,72.36 139.76,72.36 C142.56,72.36 144.76,71.8 145.96,71.2 L145.44,69.68 Z M160.6,59.56 C160.6,55.76 159.24,52.4 154.6,52.4 C152.92,52.4 151,52.88 149.56,53.88 L150.12,55.24 C151.32,54.4 152.88,53.96 154.32,53.96 C158.36,53.96 158.76,57.28 158.76,59.6 L158.76,60.16 C152,60.12 148.2,62.64 148.2,67.12 C148.2,69.88 150.04,72.4 153.44,72.4 C156.08,72.4 157.92,70.92 158.8,69.44 L158.92,69.44 L159.16,72 L160.84,72 C160.64,70.6 160.6,69 160.6,67.52 L160.6,59.56 Z M158.76,65.88 C158.76,66.2 158.72,66.64 158.6,67.04 C158.04,69.04 156.36,70.84 153.64,70.84 C151.84,70.84 150.16,69.68 150.16,66.88 C150.16,62.12 155.4,61.64 158.76,61.72 L158.76,65.88 Z M166.36,72 L168.2,72 L168.2,60.04 C168.2,59.4 168.28,58.76 168.44,58.2 C169.04,55.88 170.92,54 173.2,54 C176.16,54 177.48,56.52 177.48,59.72 L177.48,72 L179.36,72 L179.36,59.64 C179.36,58.96 179.44,58.32 179.6,57.72 C180.28,55.64 182,54 184.16,54 C187.32,54 188.64,56.64 188.64,60.48 L188.64,72 L190.48,72 L190.48,60.16 C190.48,53.56 186.72,52.4 184.76,52.4 C183.04,52.4 181.88,52.88 180.76,53.76 C180.08,54.32 179.4,55.16 178.84,56.28 L178.76,56.28 C177.96,53.88 176.08,52.4 173.72,52.4 C170.88,52.4 169.2,53.88 168.12,55.92 L168.04,55.92 L167.92,52.8 L166.2,52.8 C166.28,54.28 166.36,55.4 166.36,57.36 L166.36,72 Z M196.28,79.84 L198.12,79.84 L198.12,69.2 L198.2,69.2 C199.28,71.16 201.28,72.4 203.8,72.4 C207.88,72.4 211.64,69.16 211.64,62.16 C211.64,56.12 208.56,52.4 204.24,52.4 C201.52,52.4 199.4,53.64 198.08,56.12 L198,56.12 L197.88,52.8 L196.12,52.8 C196.2,54.4 196.28,56.16 196.28,58.88 L196.28,79.84 Z M198.12,60.52 C198.12,60 198.24,59.44 198.32,58.92 C198.96,56.04 201.32,53.96 203.84,53.96 C207.76,53.96 209.76,57.96 209.76,62.24 C209.76,67.12 207.72,70.84 203.72,70.84 C201.36,70.84 199.04,69.32 198.24,66.12 C198.16,65.64 198.12,65.12 198.12,64.6 L198.12,60.52 Z M229.48,52.8 L227.64,52.8 L227.64,65.04 C227.64,65.76 227.52,66.44 227.36,67.04 C226.76,68.72 225.04,70.8 222.36,70.8 C218.92,70.8 217.88,67.92 217.88,63.96 L217.88,52.8 L216.04,52.8 L216.04,64.36 C216.04,70.8 219.28,72.4 221.92,72.4 C225,72.4 226.92,70.48 227.72,69 L227.8,69 L227.96,72 L229.64,72 C229.56,70.6 229.48,69.12 229.48,67.28 L229.48,52.8 Z M233.96,71.08 C235.08,71.88 236.72,72.36 238.4,72.36 C241.92,72.36 244.48,70.32 244.48,66.88 C244.48,63.92 242.52,62.36 239.8,61.12 C237.4,59.92 236.28,59.08 236.28,57.2 C236.28,55.52 237.48,53.96 239.76,53.96 C241.36,53.96 242.48,54.56 243.16,55.08 L243.92,53.56 C243.04,52.92 241.68,52.4 240,52.4 C236.64,52.4 234.44,54.68 234.44,57.48 C234.44,59.88 236.2,61.48 239.04,62.8 C241.6,64 242.64,65.2 242.64,67.16 C242.64,69.2 241.24,70.8 238.52,70.8 C236.92,70.8 235.56,70.12 234.64,69.56 L233.96,71.08 Z M274.36,58.64 L266.88,58.64 L266.88,60.16 L272.48,60.16 L272.48,69.88 C271.72,70.28 270.2,70.64 267.84,70.64 C261.72,70.64 257.52,66.64 257.52,58.48 C257.52,50.6 261.96,46.4 268.16,46.4 C270.4,46.4 271.92,46.84 273.12,47.4 L273.72,45.84 C272.72,45.36 270.72,44.76 268.24,44.76 C260.6,44.76 255.6,50.24 255.6,58.72 C255.6,63.32 257.04,66.92 259.12,69 C261.56,71.48 264.48,72.28 267.56,72.28 C270.6,72.28 273.04,71.52 274.36,70.96 L274.36,58.64 Z M292.84,52.8 L291,52.8 L291,65.04 C291,65.76 290.88,66.44 290.72,67.04 C290.12,68.72 288.4,70.8 285.72,70.8 C282.28,70.8 281.24,67.92 281.24,63.96 L281.24,52.8 L279.4,52.8 L279.4,64.36 C279.4,70.8 282.64,72.4 285.28,72.4 C288.36,72.4 290.28,70.48 291.08,69 L291.16,69 L291.32,72 L293,72 C292.92,70.6 292.84,69.12 292.84,67.28 L292.84,52.8 Z M298.76,72 L300.6,72 L300.6,60.04 C300.6,59.4 300.68,58.76 300.84,58.2 C301.44,55.88 303.32,54 305.6,54 C308.56,54 309.88,56.52 309.88,59.72 L309.88,72 L311.76,72 L311.76,59.64 C311.76,58.96 311.84,58.32 312,57.72 C312.68,55.64 314.4,54 316.56,54 C319.72,54 321.04,56.64 321.04,60.48 L321.04,72 L322.88,72 L322.88,60.16 C322.88,53.56 319.12,52.4 317.16,52.4 C315.44,52.4 314.28,52.88 313.16,53.76 C312.48,54.32 311.8,55.16 311.24,56.28 L311.16,56.28 C310.36,53.88 308.48,52.4 306.12,52.4 C303.28,52.4 301.6,53.88 300.52,55.92 L300.44,55.92 L300.32,52.8 L298.6,52.8 C298.68,54.28 298.76,55.4 298.76,57.36 L298.76,72 Z M328.68,72 L330.52,72 L330.52,60.04 C330.52,59.4 330.6,58.76 330.76,58.2 C331.36,55.88 333.24,54 335.52,54 C338.48,54 339.8,56.52 339.8,59.72 L339.8,72 L341.68,72 L341.68,59.64 C341.68,58.96 341.76,58.32 341.92,57.72 C342.6,55.64 344.32,54 346.48,54 C349.64,54 350.96,56.64 350.96,60.48 L350.96,72 L352.8,72 L352.8,60.16 C352.8,53.56 349.04,52.4 347.08,52.4 C345.36,52.4 344.2,52.88 343.08,53.76 C342.4,54.32 341.72,55.16 341.16,56.28 L341.08,56.28 C340.28,53.88 338.4,52.4 336.04,52.4 C333.2,52.4 331.52,53.88 330.44,55.92 L330.36,55.92 L330.24,52.8 L328.52,52.8 C328.6,54.28 328.68,55.4 328.68,57.36 L328.68,72 Z M371.6,62.04 C371.64,61.68 371.64,61.4 371.64,60.88 C371.64,57.92 370.52,52.4 364.96,52.4 C360.44,52.4 357.2,56.36 357.2,62.68 C357.2,68.36 360.24,72.36 365.36,72.36 C368.08,72.36 369.88,71.68 370.68,71.2 L370.2,69.76 C369.28,70.28 367.96,70.76 365.6,70.76 C362.2,70.76 359.04,68.68 359.04,62.04 L371.6,62.04 Z M359.12,60.56 C359.44,57.56 361.08,53.96 364.72,53.96 C368.4,53.96 369.76,57.28 369.72,60.56 L359.12,60.56 Z M376.12,72 L377.96,72 L377.96,61.2 C377.96,60.6 378,60 378.08,59.44 C378.48,56.6 380.24,54.24 382.84,54.24 C383.12,54.24 383.36,54.24 383.56,54.28 L383.56,52.44 C383.36,52.4 383.16,52.4 382.92,52.4 C380.48,52.4 378.6,54.28 377.84,56.48 L377.76,56.48 L377.68,52.8 L375.96,52.8 C376.04,54.48 376.12,56.4 376.12,58.16 L376.12,72 Z M385.56,71.08 C386.68,71.88 388.32,72.36 390,72.36 C393.52,72.36 396.08,70.32 396.08,66.88 C396.08,63.92 394.12,62.36 391.4,61.12 C389,59.92 387.88,59.08 387.88,57.2 C387.88,55.52 389.08,53.96 391.36,53.96 C392.96,53.96 394.08,54.56 394.76,55.08 L395.52,53.56 C394.64,52.92 393.28,52.4 391.6,52.4 C388.24,52.4 386.04,54.68 386.04,57.48 C386.04,59.88 387.8,61.48 390.64,62.8 C393.2,64 394.24,65.2 394.24,67.16 C394.24,69.2 392.84,70.8 390.12,70.8 C388.52,70.8 387.16,70.12 386.24,69.56 L385.56,71.08 Z M400.68,67.72 C400.68,68.96 400.6,70.84 400.52,72 L402.16,72 L402.28,68.76 L402.4,68.76 C403.64,71.08 405.52,72.4 408.36,72.4 C412.08,72.4 416.04,69.2 416.04,62.24 C416.04,56.12 412.92,52.4 408.72,52.4 C405.92,52.4 403.8,53.64 402.6,56.04 L402.52,56.04 L402.52,43.8 L400.68,43.8 L400.68,67.72 Z M402.52,60.48 C402.52,59.88 402.6,59.36 402.72,58.88 C403.4,56.04 405.72,53.96 408.24,53.96 C412.16,53.96 414.16,57.96 414.16,62.28 C414.16,67.08 412.12,70.84 408.16,70.84 C405.76,70.84 403.48,69.32 402.64,66.12 C402.56,65.72 402.52,65.24 402.52,64.8 L402.52,60.48 Z M431.44,59.56 C431.44,55.76 430.08,52.4 425.44,52.4 C423.76,52.4 421.84,52.88 420.4,53.88 L420.96,55.24 C422.16,54.4 423.72,53.96 425.16,53.96 C429.2,53.96 429.6,57.28 429.6,59.6 L429.6,60.16 C422.84,60.12 419.04,62.64 419.04,67.12 C419.04,69.88 420.88,72.4 424.28,72.4 C426.92,72.4 428.76,70.92 429.64,69.44 L429.76,69.44 L430,72 L431.68,72 C431.48,70.6 431.44,69 431.44,67.52 L431.44,59.56 Z M429.6,65.88 C429.6,66.2 429.56,66.64 429.44,67.04 C428.88,69.04 427.2,70.84 424.48,70.84 C422.68,70.84 421,69.68 421,66.88 C421,62.12 426.24,61.64 429.6,61.72 L429.6,65.88 Z M448.56,69.8 C447.6,70.24 446.36,70.76 444.48,70.76 C440.48,70.76 437.68,67.56 437.68,62.48 C437.68,58.12 439.92,54 444.56,54 C446.4,54 447.68,54.56 448.48,55 L449.12,53.44 C448.4,52.96 446.72,52.4 444.8,52.4 C439.44,52.4 435.8,56.72 435.8,62.56 C435.8,68.52 439.2,72.36 444.2,72.36 C446.52,72.36 448.24,71.68 449.04,71.24 L448.56,69.8 Z M453.16,72 L455,72 L455,59.96 C455,59.28 455.04,58.76 455.24,58.2 C455.96,55.8 457.92,54 460.36,54 C463.84,54 464.96,56.96 464.96,60.2 L464.96,72 L466.8,72 L466.8,59.88 C466.8,53.4 462.68,52.4 460.88,52.4 C459.52,52.4 458.4,52.76 457.4,53.36 C456.44,53.96 455.6,54.88 455.08,55.84 L455,55.84 L455,43.8 L453.16,43.8 L453.16,72 Z" id="TH-Kln-Campus-Gumme" fill="#1F191A" sketch:type="MSShapeGroup"></path>
            <path d="M24.28,29 L27.56,29 L25.92,2.04 L21.76,2.04 L17.48,14.88 C16.36,18.32 15.52,21.16 14.88,24 L14.76,24 C14.12,21.12 13.28,18.24 12.24,14.88 L8.08,2.04 L3.96,2.04 L2.16,29 L5.32,29 L5.96,17.48 C6.2,13.48 6.36,9.24 6.44,5.92 L6.52,5.92 C7.2,9.08 8.2,12.52 9.36,16.2 L13.36,28.84 L15.8,28.84 L20.12,15.88 C21.32,12.36 22.32,9 23.16,5.92 L23.28,5.92 C23.24,9.16 23.44,13.56 23.64,17.24 L24.28,29 Z M46.76,19.84 C46.8,19.44 46.84,18.92 46.84,18.16 C46.84,14.36 45.24,9.24 39.64,9.24 C34.52,9.24 31.28,13.64 31.28,19.6 C31.28,25.44 34.52,29.36 40.08,29.36 C42.68,29.36 44.68,28.8 45.88,28.24 L45.28,25.8 C44.16,26.28 42.72,26.72 40.56,26.72 C37.44,26.72 34.64,24.96 34.56,19.84 L46.76,19.84 Z M34.6,17.4 C34.84,14.88 36.2,11.72 39.32,11.72 C42.52,11.72 43.64,14.68 43.6,17.4 L34.6,17.4 Z M62.76,0.8 L62.76,12 L62.68,12 C61.84,10.44 60.04,9.24 57.52,9.24 C53.36,9.24 49.68,12.96 49.68,19.56 C49.68,25.56 52.92,29.4 57.2,29.4 C60.04,29.4 62.08,27.84 63,25.92 L63.12,25.92 L63.28,29 L66.28,29 C66.2,27.72 66.12,25.72 66.12,24.12 L66.12,0.8 L62.76,0.8 Z M62.76,21.28 C62.76,21.8 62.72,22.28 62.6,22.72 C61.92,25.4 60.04,26.64 58.12,26.64 C54.8,26.64 53.12,23.4 53.12,19.4 C53.12,15.28 54.88,11.96 58.2,11.96 C60.52,11.96 62.2,13.76 62.64,15.92 C62.72,16.4 62.76,16.92 62.76,17.36 L62.76,21.28 Z M74.88,29 L74.88,9.64 L71.48,9.64 L71.48,29 L74.88,29 Z M73.16,2.2 C71.96,2.2 71.08,3.12 71.12,4.32 C71.08,5.52 71.92,6.44 73.12,6.44 C74.44,6.44 75.24,5.52 75.24,4.32 C75.24,3.08 74.44,2.2 73.16,2.2 L73.16,2.2 Z M94.48,19.84 C94.52,19.44 94.56,18.92 94.56,18.16 C94.56,14.36 92.96,9.24 87.36,9.24 C82.24,9.24 79,13.64 79,19.6 C79,25.44 82.24,29.36 87.8,29.36 C90.4,29.36 92.4,28.8 93.6,28.24 L93,25.8 C91.88,26.28 90.44,26.72 88.28,26.72 C85.16,26.72 82.36,24.96 82.28,19.84 L94.48,19.84 Z M82.32,17.4 C82.56,14.88 83.92,11.72 87.04,11.72 C90.24,11.72 91.36,14.68 91.32,17.4 L82.32,17.4 Z M98.64,29 L102.04,29 L102.04,17.2 C102.04,16.56 102.12,15.96 102.24,15.52 C102.8,13.52 104.44,12.04 106.44,12.04 C109.4,12.04 110.36,14.56 110.36,17.44 L110.36,29 L113.72,29 L113.72,17.04 C113.72,10.96 110.24,9.24 107.56,9.24 C104.72,9.24 102.68,10.84 101.76,12.56 L101.64,12.56 L101.48,9.64 L98.48,9.64 C98.56,11.24 98.64,12.72 98.64,14.8 L98.64,29 Z M122.44,29 L122.44,9.64 L119.04,9.64 L119.04,29 L122.44,29 Z M120.72,2.2 C119.52,2.2 118.64,3.12 118.68,4.32 C118.64,5.52 119.48,6.44 120.68,6.44 C122,6.44 122.8,5.52 122.8,4.32 C122.8,3.08 122,2.2 120.72,2.2 L120.72,2.2 Z M127.8,29 L131.2,29 L131.2,17.2 C131.2,16.56 131.28,15.96 131.4,15.52 C131.96,13.52 133.6,12.04 135.6,12.04 C138.56,12.04 139.52,14.56 139.52,17.44 L139.52,29 L142.88,29 L142.88,17.04 C142.88,10.96 139.4,9.24 136.72,9.24 C133.88,9.24 131.84,10.84 130.92,12.56 L130.8,12.56 L130.64,9.64 L127.64,9.64 C127.72,11.24 127.8,12.72 127.8,14.8 L127.8,29 Z M152,29 L152,12.24 L156.36,12.24 L156.36,9.64 L152,9.64 L152,8.56 C152,5.72 152.72,3.16 155.44,3.16 C156.4,3.16 157.04,3.36 157.56,3.56 L158.04,0.96 C157.36,0.64 156.4,0.4 155.2,0.4 C153.72,0.4 152,0.88 150.72,2.16 C149.2,3.72 148.64,6.12 148.64,8.64 L148.64,9.64 L146.04,9.64 L146.04,12.24 L148.64,12.24 L148.64,29 L152,29 Z M166.16,9.24 C161.44,9.24 157.48,12.8 157.48,19.44 C157.48,25.76 161.16,29.4 165.88,29.4 C170.04,29.4 174.56,26.44 174.56,19.2 C174.56,13.04 171.08,9.24 166.16,9.24 L166.16,9.24 Z M166.04,11.84 C169.8,11.84 171.12,16.08 171.12,19.28 C171.12,23.24 169.2,26.84 166.04,26.84 C162.8,26.84 160.92,23.28 160.92,19.36 C160.92,15.88 162.36,11.84 166.04,11.84 L166.04,11.84 Z M178.68,29 L182.04,29 L182.04,18.56 C182.04,17.96 182.08,17.36 182.2,16.88 C182.6,14.36 184.28,12.52 186.6,12.52 C187,12.52 187.32,12.52 187.64,12.6 L187.64,9.32 C187.36,9.28 187.08,9.24 186.76,9.24 C184.56,9.24 182.6,10.84 181.76,13.2 L181.64,13.2 L181.52,9.64 L178.52,9.64 C178.6,11.36 178.68,13.28 178.68,15.36 L178.68,29 Z M190.8,29 L194.12,29 L194.12,17.16 C194.12,16.56 194.2,15.96 194.36,15.44 C194.88,13.6 196.36,12.04 198.28,12.04 C200.84,12.04 201.92,14.28 201.92,17.08 L201.92,29 L205.24,29 L205.24,16.88 C205.24,16.24 205.32,15.64 205.48,15.12 C206.04,13.4 207.44,12.04 209.24,12.04 C211.92,12.04 213,14.32 213,17.72 L213,29 L216.32,29 L216.32,17.16 C216.32,11 213.04,9.24 210.44,9.24 C208.88,9.24 207.72,9.64 206.68,10.44 C205.88,10.96 205.16,11.8 204.56,12.84 L204.48,12.84 C203.68,10.64 201.84,9.24 199.44,9.24 C196.56,9.24 194.88,10.8 193.88,12.56 L193.8,12.56 L193.6,9.64 L190.64,9.64 C190.72,11.24 190.8,12.72 190.8,14.8 L190.8,29 Z M234.2,16.88 C234.2,12.84 232.72,9.24 227.4,9.24 C225.12,9.24 222.92,9.92 221.56,10.8 L222.32,13.12 C223.56,12.28 225.2,11.8 226.8,11.8 C230.32,11.76 230.84,14.36 230.84,16.24 L230.84,16.72 C224.28,16.68 220.2,19.12 220.2,23.84 C220.2,26.8 222.2,29.4 225.72,29.4 C228.16,29.4 230.04,28.2 231.04,26.68 L231.16,26.68 L231.44,29 L234.48,29 C234.28,27.68 234.2,26.04 234.2,24.44 L234.2,16.88 Z M230.88,22.6 C230.88,22.96 230.88,23.36 230.76,23.72 C230.24,25.44 228.8,26.84 226.6,26.84 C225.04,26.84 223.6,25.84 223.6,23.48 C223.6,19.6 227.76,19.04 230.88,19.08 L230.88,22.6 Z M240,6.16 L240,9.64 L237.2,9.64 L237.2,12.24 L240,12.24 L240,23 C240,25.36 240.4,26.96 241.32,27.96 C242.12,28.88 243.4,29.36 244.88,29.36 C246.16,29.36 247.12,29.2 247.76,28.92 L247.6,26.36 C247.12,26.48 246.6,26.56 245.8,26.56 C244.08,26.56 243.36,25.4 243.36,22.96 L243.36,12.24 L248,12.24 L248,9.64 L243.36,9.64 L243.36,5.04 L240,6.16 Z M254.96,29 L254.96,9.64 L251.56,9.64 L251.56,29 L254.96,29 Z M253.24,2.2 C252.04,2.2 251.16,3.12 251.2,4.32 C251.16,5.52 252,6.44 253.2,6.44 C254.52,6.44 255.32,5.52 255.32,4.32 C255.32,3.08 254.52,2.2 253.24,2.2 L253.24,2.2 Z M263.68,0.8 L260.32,0.8 L260.32,29 L263.68,29 L263.68,21.72 L265.28,19.76 L271.2,29 L275.24,29 L267.6,17.68 L274.36,9.64 L270.4,9.64 L265.28,16.36 C264.76,17.04 264.2,17.84 263.76,18.56 L263.68,18.56 L263.68,0.8 Z" id="Medieninformatik" fill="#FF0D68" sketch:type="MSShapeGroup"></path>
        </g>
    </g>
</svg>