<?xml version="1.0" encoding="UTF-8" standalone="no"?>
<svg width="463px" height="81px" viewBox="0 0 463 81" version="1.1" xmlns="http://www.w3.org/2000/svg" xmlns:xlink="http://www.w3.org/1999/xlink" xmlns:sketch="http://www.bohemiancoding.com/sketch/ns">
    <!-- Generator: Sketch 3.5.1 (25234) - http://www.bohemiancoding.com/sketch -->
    <title>Group 5</title>
    <desc>Created with Sketch.</desc>
    <defs></defs>
    <g id="Logo-lang" stroke="none" stroke-width="1" fill="none" fill-rule="evenodd" sketch:type="MSPage">
        <g id="Group-5" sketch:type="MSLayerGroup">
            <path d="M7.49856227,72.3072441 L10.8234079,72.3072441 L10.8234079,48.5339672 L17.9876586,48.5339672 L17.9876586,45.6906517 L0.334311586,45.6906517 L0.334311586,48.5339672 L7.49856227,48.5339672 L7.49856227,72.3072441 Z M20.9562708,45.6906517 L20.9562708,72.3072441 L24.2811164,72.3072441 L24.2811164,59.8282483 L35.5618426,59.8282483 L35.5618426,72.3072441 L38.8866882,72.3072441 L38.8866882,45.6906517 L35.5618426,45.6906517 L35.5618426,56.9059518 L24.2811164,56.9059518 L24.2811164,45.6906517 L20.9562708,45.6906517 Z M52.3048152,72.3072441 L55.6296608,72.3072441 L55.6296608,62.1186969 L57.8858061,59.3148718 L65.6437792,72.3072441 L69.4831843,72.3072441 L60.1815328,57.0244232 L68.8894618,45.6906517 L64.8917308,45.6906517 L57.7274801,55.5237845 C57.0941762,56.4320658 56.4212907,57.4193282 55.7484053,58.4855715 L55.6296608,58.4855715 L55.6296608,45.6906517 L52.3048152,45.6906517 L52.3048152,72.3072441 Z M75.5787346,49.8371535 C76.6870164,49.8371535 77.4390649,48.9683626 77.4390649,47.9021193 C77.4390649,46.7963855 76.6474349,45.9670852 75.6183161,45.9670852 C74.5100342,45.9670852 73.6788228,46.835876 73.6788228,47.9021193 C73.6788228,48.9683626 74.4704527,49.8371535 75.5391531,49.8371535 L75.5787346,49.8371535 Z M82.5846593,49.8371535 C83.6533597,49.8371535 84.4449896,48.9683626 84.4449896,47.9021193 C84.4449896,46.7963855 83.6533597,45.9670852 82.5846593,45.9670852 C81.4763774,45.9670852 80.645166,46.835876 80.645166,47.9021193 C80.645166,48.9683626 81.4367959,49.8371535 82.5054963,49.8371535 L82.5846593,49.8371535 Z M79.2202322,52.7989405 C74.5496157,52.7989405 70.6310476,56.3135944 70.6310476,62.8690162 C70.6310476,69.1085141 74.2725452,72.702149 78.9431617,72.702149 C83.0596372,72.702149 87.5323462,69.7798525 87.5323462,62.6320733 C87.5323462,56.5505373 84.0887561,52.7989405 79.2202322,52.7989405 L79.2202322,52.7989405 Z M79.1014877,55.3658225 C82.8221482,55.3658225 84.1283376,59.5518148 84.1283376,62.7110543 C84.1283376,66.6206131 82.2284258,70.1747575 79.1014877,70.1747575 C75.8953865,70.1747575 74.0350562,66.6601036 74.0350562,62.7900352 C74.0350562,59.3543623 75.4599901,55.3658225 79.1014877,55.3658225 L79.1014877,55.3658225 Z M91.6092403,72.3072441 L94.9736674,72.3072441 L94.9736674,44.4664464 L91.6092403,44.4664464 L91.6092403,72.3072441 Z M100.396332,72.3072441 L103.760759,72.3072441 L103.760759,60.6575486 C103.760759,60.0257007 103.839922,59.4333433 103.958667,58.9989479 C104.512808,57.0244232 106.135649,55.563275 108.114724,55.563275 C111.043755,55.563275 111.99371,58.0511761 111.99371,60.8944916 L111.99371,72.3072441 L115.318556,72.3072441 L115.318556,60.4995866 C115.318556,54.4970317 111.874966,52.7989405 109.223006,52.7989405 C106.41272,52.7989405 104.394063,54.3785602 103.483689,56.0766514 L103.364944,56.0766514 L103.206618,53.1938454 L100.238006,53.1938454 C100.317169,54.7734651 100.396332,56.2346134 100.396332,58.288119 L100.396332,72.3072441 Z M144.094303,70.0167955 C142.827695,70.6486434 140.967365,71.0830388 138.98829,71.0830388 C132.971903,71.0830388 129.053335,66.9760275 129.053335,59.1174194 C129.053335,51.0613588 133.288555,46.914857 139.146616,46.914857 C141.204854,46.914857 142.748532,47.3492524 143.896396,47.9021193 L144.490118,46.3224996 C143.73807,45.9275947 142.036066,45.3352373 139.225779,45.3352373 C132.219855,45.3352373 127.153423,50.4295109 127.153423,59.1964004 C127.153423,68.7925902 132.694833,72.6626585 138.473731,72.6626585 C141.244436,72.6626585 143.421418,72.1097916 144.608863,71.5174342 L144.094303,70.0167955 Z M159.09569,60.0257007 C159.09569,56.2741039 157.749919,52.9569024 153.158466,52.9569024 C151.496043,52.9569024 149.596131,53.4307884 148.171197,54.4180507 L148.725338,55.7607275 C149.912783,54.9314271 151.456461,54.4970317 152.881395,54.4970317 C156.879126,54.4970317 157.274941,57.7747426 157.274941,60.0651912 L157.274941,60.6180581 C150.585669,60.5785676 146.825427,63.0664687 146.825427,67.4894039 C146.825427,70.214248 148.646175,72.702149 152.010602,72.702149 C154.622981,72.702149 156.44373,71.2410008 157.314523,69.7798525 L157.433267,69.7798525 L157.670756,72.3072441 L159.333179,72.3072441 C159.135272,70.9250768 159.09569,69.3454571 159.09569,67.8843089 L159.09569,60.0257007 Z M157.274941,66.2651986 C157.274941,66.5811226 157.23536,67.015518 157.116615,67.4104229 C156.562474,69.3849476 154.900052,71.1620198 152.20851,71.1620198 C150.427343,71.1620198 148.76492,70.0167955 148.76492,67.252461 C148.76492,62.5530923 153.950096,62.0792064 157.274941,62.1581873 L157.274941,66.2651986 Z M164.795425,72.3072441 L166.616174,72.3072441 L166.616174,60.4995866 C166.616174,59.8677387 166.695337,59.2358909 166.853663,58.683024 C167.447386,56.3925753 169.307716,54.5365222 171.563861,54.5365222 C174.492892,54.5365222 175.799081,57.0244232 175.799081,60.1836627 L175.799081,72.3072441 L177.659412,72.3072441 L177.659412,60.1046817 C177.659412,59.4333433 177.738575,58.8014954 177.8969,58.209138 C178.569786,56.1556324 180.27179,54.5365222 182.409191,54.5365222 C185.536129,54.5365222 186.842318,57.1428947 186.842318,60.9339821 L186.842318,72.3072441 L188.663067,72.3072441 L188.663067,60.6180581 C188.663067,54.1021267 184.942407,52.9569024 183.002913,52.9569024 C181.300909,52.9569024 180.153046,53.4307884 179.044764,54.2995792 C178.371878,54.8524461 177.698993,55.6817465 177.144852,56.7874803 L177.065689,56.7874803 C176.274059,54.4180507 174.413729,52.9569024 172.078421,52.9569024 C169.268134,52.9569024 167.605712,54.4180507 166.537011,56.4320658 L166.457848,56.4320658 L166.339104,53.3518074 L164.637099,53.3518074 C164.716262,54.8129556 164.795425,55.9186894 164.795425,57.8537236 L164.795425,72.3072441 Z M194.402384,80.0473807 L196.223133,80.0473807 L196.223133,69.5429096 L196.302296,69.5429096 C197.370996,71.4779437 199.350071,72.702149 201.843705,72.702149 C205.881018,72.702149 209.601678,69.5034191 209.601678,62.5925828 C209.601678,56.6295183 206.553903,52.9569024 202.279102,52.9569024 C199.58756,52.9569024 197.489741,54.1811077 196.183551,56.6295183 L196.104388,56.6295183 L195.985644,53.3518074 L194.244058,53.3518074 C194.323221,54.9314271 194.402384,56.6690088 194.402384,59.3543623 L194.402384,80.0473807 Z M196.223133,60.9734726 C196.223133,60.4600961 196.341877,59.9072292 196.42104,59.3938528 C197.054344,56.5505373 199.389653,54.4970317 201.883287,54.4970317 C205.762273,54.4970317 207.741348,58.446081 207.741348,62.6715638 C207.741348,67.4894039 205.722692,71.1620198 201.764542,71.1620198 C199.429234,71.1620198 197.133507,69.661381 196.341877,66.5021416 C196.262714,66.0282557 196.223133,65.5148793 196.223133,65.0015029 L196.223133,60.9734726 Z M227.255025,53.3518074 L225.434277,53.3518074 L225.434277,65.4358983 C225.434277,66.1467272 225.315532,66.8180655 225.157206,67.4104229 C224.563484,69.0690236 222.861479,71.1225293 220.209519,71.1225293 C216.805511,71.1225293 215.776392,68.2792138 215.776392,64.369655 L215.776392,53.3518074 L213.955643,53.3518074 L213.955643,64.7645599 C213.955643,71.1225293 217.161744,72.702149 219.774123,72.702149 C222.821898,72.702149 224.72181,70.8066053 225.51344,69.3454571 L225.592603,69.3454571 L225.750929,72.3072441 L227.413351,72.3072441 C227.334188,70.9250768 227.255025,69.4639286 227.255025,67.6473659 L227.255025,53.3518074 Z M231.688153,71.3989627 C232.796435,72.1887726 234.419276,72.6626585 236.081699,72.6626585 C239.564871,72.6626585 242.098086,70.6486434 242.098086,67.252461 C242.098086,64.3301645 240.158593,62.7900352 237.467051,61.56583 C235.092162,60.3811152 233.98388,59.5518148 233.98388,57.6957616 C233.98388,56.0371609 235.171324,54.4970317 237.42747,54.4970317 C239.01073,54.4970317 240.119011,55.0893891 240.791897,55.6027655 L241.543945,54.1021267 C240.673152,53.4702789 239.327382,52.9569024 237.664959,52.9569024 C234.340113,52.9569024 232.163131,55.2078606 232.163131,57.9721951 C232.163131,60.3416247 233.904717,61.9212444 236.715003,63.2244307 C239.248219,64.4091455 240.277337,65.5938603 240.277337,67.5288944 C240.277337,69.5429096 238.891985,71.1225293 236.200443,71.1225293 C234.617184,71.1225293 233.271413,70.4511909 232.361038,69.898324 L231.688153,71.3989627 Z M271.665463,59.1174194 L264.263724,59.1174194 L264.263724,60.6180581 L269.805133,60.6180581 L269.805133,70.214248 C269.053085,70.6091529 267.548988,70.9645673 265.21368,70.9645673 C259.157711,70.9645673 255.001654,67.015518 255.001654,58.9594574 C255.001654,51.1798303 259.3952,47.0333285 265.530332,47.0333285 C267.746895,47.0333285 269.250992,47.4677239 270.438437,48.0205908 L271.032159,46.4804616 C270.042622,46.0065756 268.063547,45.4142183 265.609495,45.4142183 C258.049429,45.4142183 253.101742,50.8244158 253.101742,59.1964004 C253.101742,63.7378071 254.526676,67.2919515 256.584914,69.3454571 C258.999385,71.7938677 261.888834,72.5836775 264.936609,72.5836775 C267.944803,72.5836775 270.359274,71.8333582 271.665463,71.2804913 L271.665463,59.1174194 Z M289.952114,53.3518074 L288.131366,53.3518074 L288.131366,65.4358983 C288.131366,66.1467272 288.012621,66.8180655 287.854295,67.4104229 C287.260573,69.0690236 285.558568,71.1225293 282.906608,71.1225293 C279.502599,71.1225293 278.473481,68.2792138 278.473481,64.369655 L278.473481,53.3518074 L276.652732,53.3518074 L276.652732,64.7645599 C276.652732,71.1225293 279.858833,72.702149 282.471212,72.702149 C285.518987,72.702149 287.418899,70.8066053 288.210528,69.3454571 L288.289691,69.3454571 L288.448017,72.3072441 L290.11044,72.3072441 C290.031277,70.9250768 289.952114,69.4639286 289.952114,67.6473659 L289.952114,53.3518074 Z M295.810176,72.3072441 L297.630924,72.3072441 L297.630924,60.4995866 C297.630924,59.8677387 297.710087,59.2358909 297.868413,58.683024 C298.462136,56.3925753 300.322466,54.5365222 302.578611,54.5365222 C305.507642,54.5365222 306.813831,57.0244232 306.813831,60.1836627 L306.813831,72.3072441 L308.674162,72.3072441 L308.674162,60.1046817 C308.674162,59.4333433 308.753325,58.8014954 308.911651,58.209138 C309.584536,56.1556324 311.28654,54.5365222 313.423941,54.5365222 C316.550879,54.5365222 317.857069,57.1428947 317.857069,60.9339821 L317.857069,72.3072441 L319.677817,72.3072441 L319.677817,60.6180581 C319.677817,54.1021267 315.957157,52.9569024 314.017664,52.9569024 C312.315659,52.9569024 311.167796,53.4307884 310.059514,54.2995792 C309.386629,54.8524461 308.713743,55.6817465 308.159602,56.7874803 L308.080439,56.7874803 C307.288809,54.4180507 305.428479,52.9569024 303.093171,52.9569024 C300.282885,52.9569024 298.620462,54.4180507 297.551761,56.4320658 L297.472598,56.4320658 L297.353854,53.3518074 L295.65185,53.3518074 C295.731013,54.8129556 295.810176,55.9186894 295.810176,57.8537236 L295.810176,72.3072441 Z M325.417134,72.3072441 L327.237883,72.3072441 L327.237883,60.4995866 C327.237883,59.8677387 327.317046,59.2358909 327.475372,58.683024 C328.069094,56.3925753 329.929425,54.5365222 332.18557,54.5365222 C335.114601,54.5365222 336.42079,57.0244232 336.42079,60.1836627 L336.42079,72.3072441 L338.28112,72.3072441 L338.28112,60.1046817 C338.28112,59.4333433 338.360283,58.8014954 338.518609,58.209138 C339.191495,56.1556324 340.893499,54.5365222 343.0309,54.5365222 C346.157838,54.5365222 347.464027,57.1428947 347.464027,60.9339821 L347.464027,72.3072441 L349.284776,72.3072441 L349.284776,60.6180581 C349.284776,54.1021267 345.564115,52.9569024 343.624622,52.9569024 C341.922618,52.9569024 340.774755,53.4307884 339.666473,54.2995792 C338.993587,54.8524461 338.320702,55.6817465 337.766561,56.7874803 L337.687398,56.7874803 C336.895768,54.4180507 335.035438,52.9569024 332.700129,52.9569024 C329.889843,52.9569024 328.22742,54.4180507 327.15872,56.4320658 L327.079557,56.4320658 L326.960813,53.3518074 L325.258808,53.3518074 C325.337971,54.8129556 325.417134,55.9186894 325.417134,57.8537236 L325.417134,72.3072441 Z M367.888079,62.4741113 C367.92766,62.1186969 367.92766,61.8422634 367.92766,61.328887 C367.92766,58.4065905 366.819379,52.9569024 361.317551,52.9569024 C356.844842,52.9569024 353.638741,56.8664613 353.638741,63.1059592 C353.638741,68.7136092 356.646934,72.6626585 361.713366,72.6626585 C364.404907,72.6626585 366.186075,71.9913201 366.977705,71.5174342 L366.502727,70.0957765 C365.592352,70.6091529 364.286163,71.0830388 361.950855,71.0830388 C358.586428,71.0830388 355.459489,69.0295332 355.459489,62.4741113 L367.888079,62.4741113 Z M355.538652,61.012963 C355.855304,58.0511761 357.478146,54.4970317 361.080062,54.4970317 C364.721559,54.4970317 366.06733,57.7747426 366.027749,61.012963 L355.538652,61.012963 Z M372.360788,72.3072441 L374.181537,72.3072441 L374.181537,61.6448109 C374.181537,61.0524535 374.221118,60.4600961 374.300281,59.9072292 C374.696096,57.1034042 376.437682,54.7734651 379.010479,54.7734651 C379.28755,54.7734651 379.525039,54.7734651 379.722946,54.8129556 L379.722946,52.9963929 C379.525039,52.9569024 379.327131,52.9569024 379.089642,52.9569024 C376.675171,52.9569024 374.814841,54.8129556 374.062792,56.9849327 L373.983629,56.9849327 L373.904466,53.3518074 L372.202462,53.3518074 C372.281625,55.0104081 372.360788,56.9059518 372.360788,58.6435335 L372.360788,72.3072441 Z M381.702021,71.3989627 C382.810303,72.1887726 384.433144,72.6626585 386.095567,72.6626585 C389.578739,72.6626585 392.111954,70.6486434 392.111954,67.252461 C392.111954,64.3301645 390.172461,62.7900352 387.480919,61.56583 C385.10603,60.3811152 383.997748,59.5518148 383.997748,57.6957616 C383.997748,56.0371609 385.185193,54.4970317 387.441338,54.4970317 C389.024598,54.4970317 390.132879,55.0893891 390.805765,55.6027655 L391.557813,54.1021267 C390.68702,53.4702789 389.34125,52.9569024 387.678827,52.9569024 C384.353981,52.9569024 382.176999,55.2078606 382.176999,57.9721951 C382.176999,60.3416247 383.918585,61.9212444 386.728871,63.2244307 C389.262087,64.4091455 390.291205,65.5938603 390.291205,67.5288944 C390.291205,69.5429096 388.905853,71.1225293 386.214311,71.1225293 C384.631052,71.1225293 383.285281,70.4511909 382.374906,69.898324 L381.702021,71.3989627 Z M396.663826,68.0817613 C396.663826,69.3059666 396.584663,71.1620198 396.5055,72.3072441 L398.128342,72.3072441 L398.247086,69.1085141 L398.365831,69.1085141 C399.592857,71.3989627 401.453187,72.702149 404.263473,72.702149 C407.944552,72.702149 411.86312,69.5429096 411.86312,62.6715638 C411.86312,56.6295183 408.775764,52.9569024 404.619707,52.9569024 C401.849002,52.9569024 399.751183,54.1811077 398.563738,56.5505373 L398.484575,56.5505373 L398.484575,44.4664464 L396.663826,44.4664464 L396.663826,68.0817613 Z M398.484575,60.9339821 C398.484575,60.3416247 398.563738,59.8282483 398.682482,59.3543623 C399.355368,56.5505373 401.651095,54.4970317 404.144729,54.4970317 C408.023715,54.4970317 410.00279,58.446081 410.00279,62.7110543 C410.00279,67.4499134 407.984134,71.1620198 404.065566,71.1620198 C401.690676,71.1620198 399.434531,69.661381 398.603319,66.5021416 C398.524157,66.1072367 398.484575,65.6333507 398.484575,65.1989553 L398.484575,60.9339821 Z M427.101996,60.0257007 C427.101996,56.2741039 425.756225,52.9569024 421.164772,52.9569024 C419.502349,52.9569024 417.602437,53.4307884 416.177504,54.4180507 L416.731644,55.7607275 C417.919089,54.9314271 419.462768,54.4970317 420.887701,54.4970317 C424.885433,54.4970317 425.281247,57.7747426 425.281247,60.0651912 L425.281247,60.6180581 C418.591975,60.5785676 414.831733,63.0664687 414.831733,67.4894039 C414.831733,70.214248 416.652481,72.702149 420.016909,72.702149 C422.629287,72.702149 424.450036,71.2410008 425.320829,69.7798525 L425.439573,69.7798525 L425.677062,72.3072441 L427.339485,72.3072441 C427.141578,70.9250768 427.101996,69.3454571 427.101996,67.8843089 L427.101996,60.0257007 Z M425.281247,66.2651986 C425.281247,66.5811226 425.241666,67.015518 425.122921,67.4104229 C424.568781,69.3849476 422.906358,71.1620198 420.214816,71.1620198 C418.433649,71.1620198 416.771226,70.0167955 416.771226,67.252461 C416.771226,62.5530923 421.956402,62.0792064 425.281247,62.1581873 L425.281247,66.2651986 Z M444.042876,70.135267 C443.09292,70.5696624 441.865894,71.0830388 440.005564,71.0830388 C436.047414,71.0830388 433.27671,67.9237993 433.27671,62.9085067 C433.27671,58.604043 435.493273,54.5365222 440.084727,54.5365222 C441.905476,54.5365222 443.172083,55.0893891 443.963713,55.5237845 L444.597017,53.9836553 C443.88455,53.5097693 442.222128,52.9569024 440.322216,52.9569024 C435.018295,52.9569024 431.416379,57.2218757 431.416379,62.9874877 C431.416379,68.8715712 434.780806,72.6626585 439.728493,72.6626585 C442.02422,72.6626585 443.726224,71.9913201 444.517854,71.5569247 L444.042876,70.135267 Z M448.594748,72.3072441 L450.415497,72.3072441 L450.415497,60.4206056 C450.415497,59.7492673 450.455079,59.2358909 450.652986,58.683024 C451.365453,56.3135944 453.304946,54.5365222 455.719418,54.5365222 C459.163008,54.5365222 460.27129,57.4588187 460.27129,60.6575486 L460.27129,72.3072441 L462.092038,72.3072441 L462.092038,60.3416247 C462.092038,53.9441648 458.015144,52.9569024 456.233977,52.9569024 C454.888206,52.9569024 453.779924,53.3123169 452.790387,53.9046743 C451.840431,54.4970317 451.00922,55.405313 450.49466,56.3530849 L450.415497,56.3530849 L450.415497,44.4664464 L448.594748,44.4664464 L448.594748,72.3072441 Z" id="TH-Köln-Campus-Gumme-Copy" fill="#1F191A" sketch:type="MSShapeGroup"></path>
            <path d="M23.2019534,28.3820466 L26.447636,28.3820466 L24.8247947,1.76545424 L20.7083192,1.76545424 L16.4730991,14.4419025 C15.3648173,17.838085 14.5336059,20.64191 13.9003019,23.445735 L13.7815574,23.445735 C13.1482535,20.6024195 12.3170421,17.759104 11.2879232,14.4419025 L7.1714477,1.76545424 L3.09455366,1.76545424 L1.31338636,28.3820466 L4.44032451,28.3820466 L5.07362844,17.0087846 C5.31111741,13.0597353 5.46944339,8.87374301 5.54860638,5.59603207 L5.62776937,5.59603207 C6.3006548,8.71578103 7.29019218,12.1119634 8.43805555,15.7450888 L12.3962051,28.2240847 L14.8106763,28.2240847 L19.0854778,15.4291649 C20.2729227,11.9540015 21.2624601,8.63680005 22.0936715,5.59603207 L22.212416,5.59603207 C22.1728345,8.79476202 22.370742,13.1387163 22.5686495,16.7718416 L23.2019534,28.3820466 Z M45.4467539,19.3387237 C45.4863354,18.9438188 45.5259169,18.4304423 45.5259169,17.680123 C45.5259169,13.9285261 43.942657,8.87374301 38.4012477,8.87374301 C33.3348162,8.87374301 30.1287151,13.2176973 30.1287151,19.1017807 C30.1287151,24.8673927 33.3348162,28.7374611 38.8366441,28.7374611 C41.4094413,28.7374611 43.3885161,28.1845942 44.575961,27.6317273 L43.9822385,25.2228072 C42.8739567,25.6966931 41.4490228,26.1310885 39.3116221,26.1310885 C36.2242654,26.1310885 33.4535607,24.3935068 33.3743977,19.3387237 L45.4467539,19.3387237 Z M33.4139792,16.9298036 C33.6514682,14.4419025 34.997239,11.3221536 38.0845957,11.3221536 C41.2511153,11.3221536 42.3593972,14.2444501 42.3198157,16.9298036 L33.4139792,16.9298036 Z M61.2793521,0.541248951 L61.2793521,11.598587 L61.2001891,11.598587 C60.3689777,10.0584578 58.5878104,8.87374301 56.0941762,8.87374301 C51.9777006,8.87374301 48.336203,12.5463589 48.336203,19.0622902 C48.336203,24.9858642 51.5423042,28.7769516 55.7775242,28.7769516 C58.5878104,28.7769516 60.6064666,27.2368223 61.516841,25.3412787 L61.6355855,25.3412787 L61.7939115,28.3820466 L64.7625237,28.3820466 C64.6833607,27.1183508 64.6041977,25.1438262 64.6041977,23.5642065 L64.6041977,0.541248951 L61.2793521,0.541248951 Z M61.2793521,20.7603814 C61.2793521,21.2737579 61.2397706,21.7476438 61.1210261,22.1820392 C60.4481407,24.8279022 58.5878104,26.0521075 56.6878986,26.0521075 C53.4026345,26.0521075 51.7402117,22.8533776 51.7402117,18.9043283 C51.7402117,14.8368075 53.4817975,11.5590965 56.7670616,11.5590965 C59.0627883,11.5590965 60.7252111,13.3361687 61.1606076,15.4686554 C61.2397706,15.9425413 61.2793521,16.4559177 61.2793521,16.8903131 L61.2793521,20.7603814 Z M73.2725452,28.3820466 L73.2725452,9.26864794 L69.9081181,9.26864794 L69.9081181,28.3820466 L73.2725452,28.3820466 Z M71.5705409,1.92341621 C70.383096,1.92341621 69.5123031,2.83169755 69.5518846,4.01641235 C69.5123031,5.20112714 70.3435145,6.10940849 71.5309594,6.10940849 C72.8371488,6.10940849 73.6287787,5.20112714 73.6287787,4.01641235 C73.6287787,2.79220706 72.8371488,1.92341621 71.5705409,1.92341621 L71.5705409,1.92341621 Z M92.667478,19.3387237 C92.7070595,18.9438188 92.746641,18.4304423 92.746641,17.680123 C92.746641,13.9285261 91.1633812,8.87374301 85.6219718,8.87374301 C80.5555404,8.87374301 77.3494393,13.2176973 77.3494393,19.1017807 C77.3494393,24.8673927 80.5555404,28.7374611 86.0573683,28.7374611 C88.6301655,28.7374611 90.6092403,28.1845942 91.7966851,27.6317273 L91.2029627,25.2228072 C90.0946808,25.6966931 88.669747,26.1310885 86.5323462,26.1310885 C83.4449896,26.1310885 80.6742849,24.3935068 80.5951219,19.3387237 L92.667478,19.3387237 Z M80.6347034,16.9298036 C80.8721924,14.4419025 82.2179632,11.3221536 85.3053199,11.3221536 C88.4718395,11.3221536 89.5801214,14.2444501 89.5405399,16.9298036 L80.6347034,16.9298036 Z M96.7839536,28.3820466 L100.148381,28.3820466 L100.148381,16.7323511 C100.148381,16.1005033 100.227544,15.5081459 100.346288,15.0737504 C100.900429,13.0992258 102.52327,11.6380775 104.502345,11.6380775 C107.431376,11.6380775 108.381332,14.1259786 108.381332,16.9692941 L108.381332,28.3820466 L111.706177,28.3820466 L111.706177,16.5743892 C111.706177,10.5718342 108.262587,8.87374301 105.610627,8.87374301 C102.800341,8.87374301 100.781685,10.4533627 99.8713102,12.1514539 L99.7525657,12.1514539 L99.5942397,9.26864794 L96.6256276,9.26864794 C96.7047906,10.8482677 96.7839536,12.3094159 96.7839536,14.3629216 L96.7839536,28.3820466 Z M120.334943,28.3820466 L120.334943,9.26864794 L116.970516,9.26864794 L116.970516,28.3820466 L120.334943,28.3820466 Z M118.632939,1.92341621 C117.445494,1.92341621 116.574701,2.83169755 116.614283,4.01641235 C116.574701,5.20112714 117.405913,6.10940849 118.593358,6.10940849 C119.899547,6.10940849 120.691177,5.20112714 120.691177,4.01641235 C120.691177,2.79220706 119.899547,1.92341621 118.632939,1.92341621 L118.632939,1.92341621 Z M125.638864,28.3820466 L129.003291,28.3820466 L129.003291,16.7323511 C129.003291,16.1005033 129.082454,15.5081459 129.201198,15.0737504 C129.755339,13.0992258 131.378181,11.6380775 133.357255,11.6380775 C136.286286,11.6380775 137.236242,14.1259786 137.236242,16.9692941 L137.236242,28.3820466 L140.561088,28.3820466 L140.561088,16.5743892 C140.561088,10.5718342 137.117497,8.87374301 134.465537,8.87374301 C131.655251,8.87374301 129.636595,10.4533627 128.72622,12.1514539 L128.607476,12.1514539 L128.44915,9.26864794 L125.480538,9.26864794 C125.559701,10.8482677 125.638864,12.3094159 125.638864,14.3629216 L125.638864,28.3820466 Z M149.585669,28.3820466 L149.585669,11.83553 L153.900052,11.83553 L153.900052,9.26864794 L149.585669,9.26864794 L149.585669,8.20240462 C149.585669,5.39857961 150.298135,2.87118805 152.989677,2.87118805 C153.939633,2.87118805 154.572937,3.06864051 155.087496,3.26609298 L155.562474,0.699210924 C154.889589,0.383286978 153.939633,0.14634402 152.752188,0.14634402 C151.287673,0.14634402 149.585669,0.620229937 148.319061,1.88392572 C146.814964,3.42405495 146.260823,5.79348454 146.260823,8.28138561 L146.260823,9.26864794 L143.688026,9.26864794 L143.688026,11.83553 L146.260823,11.83553 L146.260823,28.3820466 L149.585669,28.3820466 Z M163.597518,8.87374301 C158.926902,8.87374301 155.008333,12.3883969 155.008333,18.9438188 C155.008333,25.1833167 158.649831,28.7769516 163.320448,28.7769516 C167.436923,28.7769516 171.909632,25.8546551 171.909632,18.7068758 C171.909632,12.6253399 168.466042,8.87374301 163.597518,8.87374301 L163.597518,8.87374301 Z M163.478774,11.4406251 C167.199434,11.4406251 168.505623,15.6266173 168.505623,18.7858568 C168.505623,22.6954156 166.605712,26.24956 163.478774,26.24956 C160.272672,26.24956 158.412342,22.7349061 158.412342,18.8648378 C158.412342,15.4291649 159.837276,11.4406251 163.478774,11.4406251 L163.478774,11.4406251 Z M175.986526,28.3820466 L179.311372,28.3820466 L179.311372,18.0750279 C179.311372,17.4826705 179.350953,16.8903131 179.469698,16.4164272 C179.865513,13.9285261 181.527935,12.1119634 183.823662,12.1119634 C184.219477,12.1119634 184.536129,12.1119634 184.852781,12.1909444 L184.852781,8.95272399 C184.575711,8.9132335 184.29864,8.87374301 183.981988,8.87374301 C181.805006,8.87374301 179.865513,10.4533627 179.034301,12.7833018 L178.915557,12.7833018 L178.796812,9.26864794 L175.8282,9.26864794 C175.907363,10.9667391 175.986526,12.8622828 175.986526,14.9157885 L175.986526,28.3820466 Z M187.979719,28.3820466 L191.264983,28.3820466 L191.264983,16.6928607 C191.264983,16.1005033 191.344146,15.5081459 191.502472,14.9947694 C192.017032,13.1782068 193.481547,11.6380775 195.381459,11.6380775 C197.914675,11.6380775 198.983375,13.8495451 198.983375,16.6138797 L198.983375,28.3820466 L202.268639,28.3820466 L202.268639,16.4164272 C202.268639,15.7845793 202.347802,15.1922219 202.506128,14.6788455 C203.060269,12.9807543 204.445621,11.6380775 206.226789,11.6380775 C208.878749,11.6380775 209.947449,13.8890356 209.947449,17.2457276 L209.947449,28.3820466 L213.232713,28.3820466 L213.232713,16.6928607 C213.232713,10.6113247 209.987031,8.87374301 207.414234,8.87374301 C205.870555,8.87374301 204.722692,9.26864794 203.693573,10.0584578 C202.901943,10.5718342 202.189476,11.4011346 201.595754,12.4278874 L201.516591,12.4278874 C200.724961,10.2559103 198.904212,8.87374301 196.529322,8.87374301 C193.679455,8.87374301 192.017032,10.4138722 191.027494,12.1514539 L190.948331,12.1514539 L190.750424,9.26864794 L187.821393,9.26864794 C187.900556,10.8482677 187.979719,12.3094159 187.979719,14.3629216 L187.979719,28.3820466 Z M230.925642,16.4164272 C230.925642,12.4278874 229.461127,8.87374301 224.196788,8.87374301 C221.940642,8.87374301 219.76366,9.54508139 218.417889,10.4138722 L219.169938,12.7043208 C220.396964,11.8750205 222.019805,11.4011346 223.603065,11.4011346 C227.086237,11.3616441 227.600796,13.9285261 227.600796,15.7845793 L227.600796,16.2584652 C221.109431,16.2189747 217.072118,18.6278948 217.072118,23.287773 C217.072118,26.2100695 219.051193,28.7769516 222.534365,28.7769516 C224.948836,28.7769516 226.809166,27.5922368 227.798704,26.091598 L227.917448,26.091598 L228.194519,28.3820466 L231.202712,28.3820466 C231.004805,27.0788603 230.925642,25.4597501 230.925642,23.8801304 L230.925642,16.4164272 Z M227.640378,22.0635677 C227.640378,22.4189822 227.640378,22.8138871 227.521633,23.1693015 C227.007074,24.8673927 225.58214,26.24956 223.405158,26.24956 C221.861479,26.24956 220.436546,25.2622977 220.436546,22.9323586 C220.436546,19.1017807 224.553021,18.5489138 227.640378,18.5884043 L227.640378,22.0635677 Z M236.664959,5.83297503 L236.664959,9.26864794 L233.894254,9.26864794 L233.894254,11.83553 L236.664959,11.83553 L236.664959,22.4584727 C236.664959,24.7884117 237.060774,26.3680315 237.971148,27.3552938 C238.762778,28.2635751 240.029386,28.7374611 241.493901,28.7374611 C242.760509,28.7374611 243.710465,28.5794991 244.343769,28.3030656 L244.185443,25.7756741 C243.710465,25.8941456 243.195905,25.9731265 242.404276,25.9731265 C240.702271,25.9731265 239.989804,24.8279022 239.989804,22.4189822 L239.989804,11.83553 L244.581258,11.83553 L244.581258,9.26864794 L239.989804,9.26864794 L239.989804,4.72724123 L236.664959,5.83297503 Z M251.468438,28.3820466 L251.468438,9.26864794 L248.104011,9.26864794 L248.104011,28.3820466 L251.468438,28.3820466 Z M249.766434,1.92341621 C248.578989,1.92341621 247.708196,2.83169755 247.747777,4.01641235 C247.708196,5.20112714 248.539407,6.10940849 249.726852,6.10940849 C251.033042,6.10940849 251.824671,5.20112714 251.824671,4.01641235 C251.824671,2.79220706 251.033042,1.92341621 249.766434,1.92341621 L249.766434,1.92341621 Z M260.097204,0.541248951 L256.772358,0.541248951 L256.772358,28.3820466 L260.097204,28.3820466 L260.097204,21.1947769 L261.680464,19.2597427 L267.538525,28.3820466 L271.536256,28.3820466 L263.976191,17.2062371 L270.665463,9.26864794 L266.746895,9.26864794 L261.680464,15.9030508 C261.165904,16.5743892 260.611764,17.364199 260.176367,18.0750279 L260.097204,18.0750279 L260.097204,0.541248951 Z" id="Medieninformatik-Copy" fill="#DD1166" sketch:type="MSShapeGroup"></path>
        </g>
    </g>
</svg>