<?xml version="1.0" encoding="UTF-8" standalone="no"?>
<svg width="751px" height="200px" viewBox="0 0 751 200" version="1.1" xmlns="http://www.w3.org/2000/svg" xmlns:xlink="http://www.w3.org/1999/xlink" xmlns:sketch="http://www.bohemiancoding.com/sketch/ns">
    <!-- Generator: Sketch 3.5.1 (25234) - http://www.bohemiancoding.com/sketch -->
    <title>Group 3</title>
    <desc>Created with Sketch.</desc>
    <defs></defs>
    <g id="Logo-lang" stroke="none" stroke-width="1" fill="none" fill-rule="evenodd" sketch:type="MSPage">
        <g id="Group-3" sketch:type="MSLayerGroup">
            <path d="M34.2829895,63.6669228 L53.5378193,2.79953845 L38.7914375,2.79953845 L31.8409136,28.8081537 C30.0563196,35.761846 28.2717256,42.9864613 26.9567616,50.2110767 L26.6749836,50.2110767 C25.3600196,42.805846 23.6693517,35.761846 21.7908317,28.717846 L15.0281598,2.79953845 L0,2.79953845 L18.4094957,63.6669228 L34.2829895,63.6669228 Z M70.914129,63.6669228 L70.914129,19.5064614 L57.2009332,19.5064614 L57.2009332,63.6669228 L70.914129,63.6669228 Z M64.0575311,0.632153843 C59.8308612,0.632153843 56.8252292,3.43169229 56.9191552,7.40523073 C56.8252292,11.1981538 59.7369352,14.0879999 63.8696791,14.0879999 C68.3781271,14.0879999 71.289833,11.1981538 71.195907,7.40523073 C71.195907,3.43169229 68.3781271,0.632153843 64.0575311,0.632153843 L64.0575311,0.632153843 Z M119.567796,45.9666152 C119.849574,44.7926152 120.037426,42.8961536 120.037426,40.2772306 C120.037426,28.6275383 114.401866,18.5130768 100.970449,18.5130768 C86.7876228,18.5130768 79.2735429,29.891846 79.2735429,42.2639998 C79.2735429,55.990769 87.5390308,64.479692 102.191487,64.479692 C107.920973,64.479692 113.36868,63.5766151 117.689276,61.9510766 L115.810756,52.9203074 C112.42942,54.0039997 108.766306,54.6361536 104.351785,54.6361536 C98.0587426,54.6361536 92.7049607,52.0172305 92.3292567,45.9666152 L119.567796,45.9666152 Z M92.3292567,36.8455383 C92.6110347,32.9623075 94.7713327,27.543846 100.219041,27.543846 C105.854601,27.543846 107.451343,32.8719998 107.357417,36.8455383 L92.3292567,36.8455383 Z M128.021136,63.6669228 L141.734332,63.6669228 L141.734332,0 L128.021136,0 L128.021136,63.6669228 Z M197.714227,0 L197.714227,23.3896922 L197.526375,23.3896922 C195.741781,20.4998461 191.984741,18.5130768 186.724885,18.5130768 C176.76873,18.5130768 167.84576,26.9116922 167.939686,41.902769 C167.939686,55.1779997 175.35984,64.5699997 185.973477,64.5699997 C191.327259,64.5699997 196.305337,62.0413843 198.841339,57.6163074 L199.123117,57.6163074 L199.686673,63.6669228 L211.803127,63.6669228 C211.615275,60.4158459 211.427423,55.2683074 211.427423,50.4819998 L211.427423,0 L197.714227,0 Z M197.714227,45.2441536 C197.714227,46.3278459 197.620301,47.4115382 197.338523,48.2243075 C196.493189,51.8366151 193.581483,54.0039997 190.294073,54.0039997 C185.128143,54.0039997 181.746807,49.3983075 181.746807,41.631846 C181.746807,34.6781537 184.564587,28.8984614 190.387999,28.8984614 C194.238965,28.8984614 196.868893,31.7883075 197.526375,35.2199998 C197.714227,35.9424614 197.714227,36.935846 197.714227,37.6583075 L197.714227,45.2441536 Z M221.947135,63.6669228 L235.660331,63.6669228 L235.660331,41.2706152 C235.660331,39.9159998 235.848183,38.7419998 236.036035,37.8389229 C237.069221,33.413846 240.638409,31.065846 245.146857,31.065846 C246.555747,31.065846 247.588933,31.1561537 248.622119,31.3367691 L248.622119,18.7839999 C247.682859,18.6033845 247.025377,18.5130768 245.710413,18.5130768 C241.577669,18.5130768 236.505665,21.2223076 234.251441,27.0923076 L233.969663,27.0923076 L233.406107,19.5064614 L221.571431,19.5064614 C221.853209,23.3896922 221.947135,27.8147691 221.947135,33.6847691 L221.947135,63.6669228 Z M268.910134,63.6669228 L268.910134,19.5064614 L255.196938,19.5064614 L255.196938,63.6669228 L268.910134,63.6669228 Z M262.053536,0.632153843 C257.826866,0.632153843 254.821234,3.43169229 254.91516,7.40523073 C254.821234,11.1981538 257.73294,14.0879999 261.865684,14.0879999 C266.374132,14.0879999 269.285838,11.1981538 269.191912,7.40523073 C269.191912,3.43169229 266.374132,0.632153843 262.053536,0.632153843 L262.053536,0.632153843 Z M279.523772,63.6669228 L293.236968,63.6669228 L293.236968,37.7486152 C293.236968,36.3939998 293.42482,35.0393844 293.800524,34.1363075 C294.739784,31.6076922 296.900082,29.3499999 300.281418,29.3499999 C304.977718,29.3499999 306.668386,33.1429229 306.668386,38.2001537 L306.668386,63.6669228 L320.475508,63.6669228 L320.475508,36.8455383 C320.475508,24.7443076 314.464244,18.5130768 305.259496,18.5130768 C298.402898,18.5130768 293.988376,22.2156922 291.922004,25.2861537 L291.734152,25.2861537 L291.07667,19.5064614 L279.148068,19.5064614 C279.33592,23.4799999 279.523772,27.9953845 279.523772,33.3235383 L279.523772,63.6669228 Z" id="Viel-drin--Copy-2" fill="#1F191A" sketch:type="MSShapeGroup"></path>
            <g id="Group" transform="translate(0.000000, 90.000000)" sketch:type="MSShapeGroup">
                <path d="M10.536218,98.3886256 L17.8684399,98.3886256 L17.8684399,64.5023697 L28.4662731,64.5023697 L28.4662731,58.4597156 L0,58.4597156 L0,64.5023697 L10.536218,64.5023697 L10.536218,98.3886256 Z M33.1490367,58.4597156 L33.1490367,98.3886256 L40.4196433,98.3886256 L40.4196433,80.7938389 L55.7002401,80.7938389 L55.7002401,98.3886256 L62.9708467,98.3886256 L62.9708467,58.4597156 L55.7002401,58.4597156 L55.7002401,74.5734597 L40.4196433,74.5734597 L40.4196433,58.4597156 L33.1490367,58.4597156 Z M83.0574377,98.3886256 L90.3280442,98.3886256 L90.3280442,84.2890995 L93.5320403,80.2606635 L103.883412,98.3886256 L112.263095,98.3886256 L98.646111,75.521327 L111.585326,58.4597156 L102.835952,58.4597156 L93.2855791,72.3222749 C92.3613494,73.7440758 91.3755045,75.2843602 90.4512748,76.8246445 L90.3280442,76.8246445 L90.3280442,58.4597156 L83.0574377,58.4597156 L83.0574377,98.3886256 Z M121.751852,65.035545 C123.785157,65.035545 125.263925,63.436019 125.263925,61.5402844 C125.263925,59.4668246 123.723542,57.985782 121.751852,57.985782 C119.718547,57.985782 118.054934,59.5260664 118.054934,61.5402844 C118.054934,63.436019 119.656932,65.035545 121.690237,65.035545 L121.751852,65.035545 Z M133.397146,65.035545 C135.492066,65.035545 136.970834,63.436019 136.970834,61.5402844 C136.970834,59.4668246 135.430451,57.985782 133.397146,57.985782 C131.363841,57.985782 129.761843,59.5260664 129.761843,61.5402844 C129.761843,63.436019 131.302225,65.035545 133.33553,65.035545 L133.397146,65.035545 Z M127.790153,68.9454976 C119.780162,68.9454976 113.680247,74.3957346 113.680247,84.1113744 C113.680247,93.5308057 119.533701,98.9810427 127.358845,98.9810427 C134.13653,98.9810427 141.407136,94.6563981 141.407136,83.7559242 C141.407136,74.7511848 135.923373,68.9454976 127.790153,68.9454976 L127.790153,68.9454976 Z M127.605307,74.0995261 C132.28807,74.0995261 133.951684,79.4905213 133.951684,83.9336493 C133.951684,89.2654028 131.671917,93.8270142 127.605307,93.8270142 C123.35385,93.8270142 121.074084,89.3246445 121.074084,83.992891 C121.074084,79.3720379 122.860928,74.0995261 127.605307,74.0995261 L127.605307,74.0995261 Z M147.260591,98.3886256 L154.592812,98.3886256 L154.592812,56.6232227 L147.260591,56.6232227 L147.260591,98.3886256 Z M162.233111,98.3886256 L169.565333,98.3886256 L169.565333,81.1492891 C169.565333,80.2606635 169.688563,79.3720379 169.873409,78.7796209 C170.612793,76.4691943 172.522868,74.6919431 175.110711,74.6919431 C178.869244,74.6919431 180.163166,77.7725118 180.163166,81.5047393 L180.163166,98.3886256 L187.433773,98.3886256 L187.433773,80.7345972 C187.433773,72.3222749 182.87424,68.9454976 177.698554,68.9454976 C173.262251,68.9454976 170.243101,71.3151659 168.887564,73.6255924 L168.702718,73.6255924 L168.333026,69.5379147 L161.98665,69.5379147 C162.10988,72.0853081 162.233111,74.6919431 162.233111,78.0094787 L162.233111,98.3886256 Z M232.351333,93.2345972 C230.564489,94.063981 227.730185,94.6563981 224.895881,94.6563981 C216.331353,94.6563981 210.84759,89.0876777 210.84759,78.542654 C210.84759,67.5829384 216.885891,62.1327014 225.080727,62.1327014 C228.099877,62.1327014 230.441259,62.7843602 232.166487,63.5545024 L233.398794,59.4668246 C232.166487,58.8151659 229.270568,57.9265403 224.957496,57.9265403 C213.928356,57.9265403 205.363828,65.3317536 205.363828,78.8388626 C205.363828,92.049763 213.250587,98.9218009 223.848421,98.9218009 C228.161492,98.9218009 231.61195,98.1516588 233.337178,97.2630332 L232.351333,93.2345972 Z M258.168148,80.4383886 C258.168148,74.4549763 255.888382,69.1232227 247.693546,69.1232227 C244.181473,69.1232227 240.792631,70.1303318 238.69771,71.4336493 L239.868401,74.8696682 C241.778476,73.6255924 244.304703,72.9146919 246.769316,72.9146919 C252.191463,72.8554502 252.992462,76.7061611 252.992462,79.4905213 L252.992462,80.2014218 C242.887551,80.1421801 236.60279,83.7559242 236.60279,90.7464455 C236.60279,95.1303318 239.683555,98.9810427 245.105703,98.9810427 C248.864236,98.9810427 251.760156,97.2037915 253.300539,94.9526066 L253.485385,94.9526066 L253.916692,98.3886256 L258.599455,98.3886256 C258.291379,96.4336493 258.168148,94.0047393 258.168148,91.6350711 L258.168148,80.4383886 Z M253.054077,88.9099526 C253.054077,89.443128 253.054077,90.035545 252.869232,90.5687204 C252.068233,93.1161137 249.850081,95.1895735 246.461239,95.1895735 C244.058242,95.1895735 241.840091,93.7085308 241.840091,90.2132701 C241.840091,84.4668246 248.248083,83.6374408 253.054077,83.6966825 L253.054077,88.9099526 Z M266.301369,98.3886256 L271.41544,98.3886256 L271.41544,80.8530806 C271.41544,79.964455 271.53867,79.0758294 271.785132,78.3056872 C272.586131,75.5805687 274.865897,73.2701422 277.823432,73.2701422 C281.766812,73.2701422 283.430425,76.5876777 283.430425,80.7345972 L283.430425,98.3886256 L288.544496,98.3886256 L288.544496,80.4383886 C288.544496,79.4905213 288.667727,78.6018957 288.914188,77.8317536 C289.776802,75.2843602 291.933338,73.2701422 294.706027,73.2701422 C298.834253,73.2701422 300.497866,76.6469194 300.497866,81.6824645 L300.497866,98.3886256 L305.611937,98.3886256 L305.611937,80.8530806 C305.611937,71.7298578 300.559481,69.1232227 296.554486,69.1232227 C294.151489,69.1232227 292.364645,69.7156398 290.762647,70.9004739 C289.530341,71.6706161 288.421265,72.9146919 287.497036,74.4549763 L287.373805,74.4549763 C286.141499,71.1966825 283.307195,69.1232227 279.610276,69.1232227 C275.173974,69.1232227 272.586131,71.4336493 271.045748,74.0402844 L270.922517,74.0402844 L270.614441,69.7156398 L266.054908,69.7156398 C266.178138,72.0853081 266.301369,74.2772512 266.301369,77.3578199 L266.301369,98.3886256 Z M313.745158,110 L318.920844,110 L318.920844,94.8341232 L319.044074,94.8341232 C320.522842,97.3222749 323.418761,98.9810427 327.054065,98.9810427 C333.338826,98.9810427 339.315511,94.1824645 339.315511,83.7559242 C339.315511,74.8104265 334.447902,69.1232227 327.855064,69.1232227 C323.788453,69.1232227 320.584457,70.9004739 318.551152,74.2180095 L318.427921,74.2180095 L318.18146,69.7156398 L313.498696,69.7156398 C313.621927,72.2037915 313.745158,75.0473934 313.745158,78.957346 L313.745158,110 Z M318.920844,81.3862559 C318.920844,80.6753555 319.044074,79.964455 319.22892,79.2535545 C320.029919,75.7582938 323.049069,73.2109005 326.253066,73.2109005 C331.428752,73.2109005 334.016595,78.1279621 334.016595,83.9336493 C334.016595,90.2725118 331.367136,95.0118483 326.129835,95.0118483 C323.049069,95.0118483 320.15315,93.056872 319.167305,89.2654028 C318.982459,88.6137441 318.920844,87.8436019 318.920844,87.0734597 L318.920844,81.3862559 Z M368.459553,69.7156398 L363.283867,69.7156398 L363.283867,87.6658768 C363.283867,88.6729858 363.099021,89.5616114 362.85256,90.3317536 C362.113176,92.3459716 359.95664,94.8341232 356.567798,94.8341232 C352.193111,94.8341232 350.714344,91.2203791 350.714344,86.0663507 L350.714344,69.7156398 L345.538658,69.7156398 L345.538658,86.8957346 C345.538658,96.0781991 350.036575,98.9810427 354.904185,98.9810427 C359.586948,98.9810427 362.482868,96.2559242 363.715174,94.1824645 L363.838405,94.1824645 L364.146481,98.3886256 L368.706014,98.3886256 C368.582783,96.1374408 368.459553,93.5900474 368.459553,90.5687204 L368.459553,69.7156398 Z M374.744314,97.0260664 C376.592774,98.1516588 379.427078,98.9218009 382.384613,98.9218009 C388.792605,98.9218009 392.859216,95.6042654 392.859216,90.3317536 C392.859216,86.1255924 390.209757,83.6374408 385.526994,81.6824645 C381.953306,80.0829384 380.474538,79.0165877 380.474538,76.7654028 C380.474538,74.6919431 382.076536,72.9146919 385.095686,72.9146919 C387.498684,72.9146919 389.408758,73.8033175 390.579449,74.514218 L391.873371,70.8412322 C390.332988,69.8933649 387.991606,69.1232227 385.157302,69.1232227 C379.303847,69.1232227 375.483698,72.7962085 375.483698,77.4170616 C375.483698,80.7938389 377.886695,83.5189573 382.877535,85.5331754 C386.512839,87.1327014 387.868375,88.4952607 387.868375,90.8649289 C387.868375,93.3530806 386.081531,95.1303318 382.507843,95.1303318 C380.043231,95.1303318 377.455388,94.1232227 376.038236,93.2345972 L374.744314,97.0260664 Z M439.810082,77.4763033 L427.302174,77.4763033 L427.302174,81.5047393 L434.757626,81.5047393 L434.757626,93.7085308 C433.771781,94.1824645 431.861707,94.5971564 428.904172,94.5971564 C420.64772,94.5971564 414.732651,89.2061611 414.732651,78.4834123 C414.732651,67.7606635 421.079027,62.3104265 429.643555,62.3104265 C433.278859,62.3104265 435.620241,62.9620853 437.530315,63.7914692 L438.762621,59.7037915 C437.160623,58.9336493 433.895012,58.0450237 429.705171,58.0450237 C417.813416,58.0450237 409.372119,65.7464455 409.310503,78.7796209 C409.310503,85.2962085 411.467039,90.6872038 414.855881,93.8862559 C418.491184,97.4407583 423.173948,98.8033175 428.657711,98.8033175 C433.340474,98.8033175 437.59193,97.6777251 439.810082,96.8483412 L439.810082,77.4763033 Z M470.001583,69.7156398 L464.825897,69.7156398 L464.825897,87.6658768 C464.825897,88.6729858 464.641051,89.5616114 464.39459,90.3317536 C463.655207,92.3459716 461.498671,94.8341232 458.109829,94.8341232 C453.735142,94.8341232 452.256374,91.2203791 452.256374,86.0663507 L452.256374,69.7156398 L447.080688,69.7156398 L447.080688,86.8957346 C447.080688,96.0781991 451.578606,98.9810427 456.446215,98.9810427 C461.128979,98.9810427 464.024898,96.2559242 465.257205,94.1824645 L465.380435,94.1824645 L465.688512,98.3886256 L470.248045,98.3886256 C470.124814,96.1374408 470.001583,93.5900474 470.001583,90.5687204 L470.001583,69.7156398 Z M478.31965,98.3886256 L483.433721,98.3886256 L483.433721,80.8530806 C483.433721,79.964455 483.556952,79.0758294 483.803413,78.3056872 C484.604412,75.5805687 486.884178,73.2701422 489.841713,73.2701422 C493.785093,73.2701422 495.448706,76.5876777 495.448706,80.7345972 L495.448706,98.3886256 L500.562777,98.3886256 L500.562777,80.4383886 C500.562777,79.4905213 500.686008,78.6018957 500.932469,77.8317536 C501.795083,75.2843602 503.951619,73.2701422 506.724308,73.2701422 C510.852534,73.2701422 512.516147,76.6469194 512.516147,81.6824645 L512.516147,98.3886256 L517.630218,98.3886256 L517.630218,80.8530806 C517.630218,71.7298578 512.577763,69.1232227 508.572767,69.1232227 C506.16977,69.1232227 504.382926,69.7156398 502.780928,70.9004739 C501.548622,71.6706161 500.439546,72.9146919 499.515317,74.4549763 L499.392086,74.4549763 C498.15978,71.1966825 495.325476,69.1232227 491.628557,69.1232227 C487.192255,69.1232227 484.604412,71.4336493 483.064029,74.0402844 L482.940798,74.0402844 L482.632722,69.7156398 L478.073189,69.7156398 C478.19642,72.0853081 478.31965,74.2772512 478.31965,77.3578199 L478.31965,98.3886256 Z M525.763439,98.3886256 L530.87751,98.3886256 L530.87751,80.8530806 C530.87751,79.964455 531.00074,79.0758294 531.247201,78.3056872 C532.0482,75.5805687 534.327967,73.2701422 537.285502,73.2701422 C541.228882,73.2701422 542.892495,76.5876777 542.892495,80.7345972 L542.892495,98.3886256 L548.006566,98.3886256 L548.006566,80.4383886 C548.006566,79.4905213 548.129796,78.6018957 548.376258,77.8317536 C549.238872,75.2843602 551.395408,73.2701422 554.168097,73.2701422 C558.296322,73.2701422 559.959936,76.6469194 559.959936,81.6824645 L559.959936,98.3886256 L565.074006,98.3886256 L565.074006,80.8530806 C565.074006,71.7298578 560.021551,69.1232227 556.016556,69.1232227 C553.613559,69.1232227 551.826715,69.7156398 550.224717,70.9004739 C548.992411,71.6706161 547.883335,72.9146919 546.959105,74.4549763 L546.835875,74.4549763 C545.603569,71.1966825 542.769264,69.1232227 539.072346,69.1232227 C534.636043,69.1232227 532.0482,71.4336493 530.507818,74.0402844 L530.384587,74.0402844 L530.076511,69.7156398 L525.516978,69.7156398 C525.640208,72.0853081 525.763439,74.2772512 525.763439,77.3578199 L525.763439,98.3886256 Z M595.142278,84.8222749 C595.203893,84.2298578 595.265508,83.4597156 595.265508,82.3341232 C595.265508,76.7061611 592.800896,69.1232227 584.174753,69.1232227 C576.287993,69.1232227 571.297153,75.6398104 571.297153,84.4668246 C571.297153,93.1161137 576.287993,98.9218009 584.852521,98.9218009 C588.857516,98.9218009 591.938282,98.0924171 593.786741,97.2630332 L592.862511,93.6492891 C591.137283,94.3601896 588.919131,95.0118483 585.591905,95.0118483 C580.785911,95.0118483 576.472839,92.4052133 576.349608,84.8222749 L595.142278,84.8222749 Z M576.411224,81.2085308 C576.780915,77.4763033 578.875836,72.7962085 583.68183,72.7962085 C588.611055,72.7962085 590.336284,77.1800948 590.274668,81.2085308 L576.411224,81.2085308 Z M601.55027,98.3886256 L606.725956,98.3886256 L606.725956,82.9265403 C606.725956,82.0379147 606.787571,81.1492891 606.972417,80.4383886 C607.58857,76.7061611 610.176413,73.9810427 613.750101,73.9810427 C614.366254,73.9810427 614.859177,73.9810427 615.352099,74.0995261 L615.352099,69.2417062 C614.920792,69.1824645 614.489485,69.1232227 613.996563,69.1232227 C610.60772,69.1232227 607.58857,71.492891 606.294649,74.9881517 L606.109803,74.9881517 L605.924957,69.7156398 L601.303809,69.7156398 C601.427039,72.2630332 601.55027,75.1066351 601.55027,78.1872038 L601.55027,98.3886256 Z M618.186404,97.0260664 C620.034863,98.1516588 622.869167,98.9218009 625.826702,98.9218009 C632.234694,98.9218009 636.301305,95.6042654 636.301305,90.3317536 C636.301305,86.1255924 633.651846,83.6374408 628.969083,81.6824645 C625.395395,80.0829384 623.916627,79.0165877 623.916627,76.7654028 C623.916627,74.6919431 625.518625,72.9146919 628.537776,72.9146919 C630.940773,72.9146919 632.850847,73.8033175 634.021538,74.514218 L635.31546,70.8412322 C633.775077,69.8933649 631.433695,69.1232227 628.599391,69.1232227 C622.745937,69.1232227 618.925787,72.7962085 618.925787,77.4170616 C618.925787,80.7938389 621.328784,83.5189573 626.319624,85.5331754 C629.954928,87.1327014 631.310465,88.4952607 631.310465,90.8649289 C631.310465,93.3530806 629.523621,95.1303318 625.949933,95.1303318 C623.48532,95.1303318 620.897477,94.1232227 619.480325,93.2345972 L618.186404,97.0260664 Z M642.647682,91.1611374 C642.647682,93.5308057 642.524451,96.492891 642.40122,98.3886256 L646.899138,98.3886256 L647.145599,93.9454976 L647.330445,93.9454976 C649.24052,97.3222749 652.136439,98.9810427 656.079819,98.9810427 C662.118119,98.9810427 668.218035,94.0047393 668.218035,83.6966825 C668.218035,74.8104265 663.535272,69.1232227 656.942433,69.1232227 C652.814208,69.1232227 649.733442,70.8412322 647.946598,73.9810427 L647.823368,73.9810427 L647.823368,56.6232227 L642.647682,56.6232227 L642.647682,91.1611374 Z M647.823368,81.3270142 C647.823368,80.556872 647.946598,79.8459716 648.069829,79.1943128 C648.994058,75.6990521 651.951593,73.1516588 655.155589,73.1516588 C660.392891,73.1516588 662.980734,78.1279621 662.980734,83.9336493 C662.980734,90.3317536 660.208045,94.9526066 655.093974,94.9526066 C651.951593,94.9526066 649.117289,92.9976303 648.069829,89.1469194 C647.884983,88.6137441 647.823368,87.9620853 647.823368,87.3104265 L647.823368,81.3270142 Z M693.973235,80.4383886 C693.973235,74.4549763 691.693468,69.1232227 683.498632,69.1232227 C679.986559,69.1232227 676.597717,70.1303318 674.502797,71.4336493 L675.673488,74.8696682 C677.583562,73.6255924 680.10979,72.9146919 682.574402,72.9146919 C687.99655,72.8554502 688.797549,76.7061611 688.797549,79.4905213 L688.797549,80.2014218 C678.692638,80.1421801 672.407876,83.7559242 672.407876,90.7464455 C672.407876,95.1303318 675.488642,98.9810427 680.910789,98.9810427 C684.669323,98.9810427 687.565242,97.2037915 689.105625,94.9526066 L689.290471,94.9526066 L689.721778,98.3886256 L694.404542,98.3886256 C694.096465,96.4336493 693.973235,94.0047393 693.973235,91.6350711 L693.973235,80.4383886 Z M688.859164,88.9099526 C688.859164,89.443128 688.859164,90.035545 688.674318,90.5687204 C687.873319,93.1161137 685.655168,95.1895735 682.266326,95.1895735 C679.863329,95.1895735 677.645178,93.7085308 677.645178,90.2132701 C677.645178,84.4668246 684.05317,83.6374408 688.859164,83.6966825 L688.859164,88.9099526 Z M720.529433,93.6492891 C719.112281,94.2417062 717.387052,94.8341232 714.860825,94.8341232 C709.377062,94.8341232 705.495298,90.8056872 705.495298,84.1113744 C705.495298,78.3056872 708.699294,73.2109005 714.92244,73.2109005 C717.448668,73.2109005 719.235512,73.8625592 720.344587,74.3957346 L721.515278,70.485782 C720.221357,69.8341232 717.695129,69.1824645 714.984055,69.1824645 C705.926605,69.1824645 700.196381,75.6990521 700.196381,84.3483412 C700.196381,93.2938389 705.680144,98.9218009 713.87498,98.9218009 C717.325437,98.9218009 720.036511,98.0924171 721.392048,97.4407583 L720.529433,93.6492891 Z M726.999041,98.3886256 L732.236342,98.3886256 L732.236342,80.6753555 C732.236342,79.8459716 732.297957,79.0165877 732.544419,78.3056872 C733.468648,75.4620853 735.871645,73.3293839 739.014026,73.3293839 C743.573559,73.3293839 745.052327,77.0023697 745.052327,81.3270142 L745.052327,98.3886256 L750.228013,98.3886256 L750.228013,80.7345972 C750.228013,71.6706161 744.867481,69.1232227 740.862485,69.1232227 C738.952411,69.1232227 737.288797,69.6563981 735.81003,70.485782 C734.392878,71.2559242 733.160572,72.4407583 732.359573,73.8033175 L732.236342,73.8033175 L732.236342,56.6232227 L726.999041,56.6232227 L726.999041,98.3886256 Z" id="TH-Köln-Campus-Gumme-Copy-2" fill="#AC0FC8"></path>
                <path d="M37.1540318,43.0459351 L44.1165618,43.0459351 L41.7135648,3.11702515 L32.6561142,3.11702515 L27.4804282,19.1715275 C26.0016608,24.0293474 24.7077392,28.7094422 23.7218943,33.0933285 L23.5370484,33.0933285 C22.6128187,28.5909588 21.3805125,24.0293474 19.9017451,19.1715275 L14.9725203,3.11702515 L5.85345443,3.11702515 L3.08076549,43.0459351 L9.79683426,43.0459351 L10.6594486,27.2283996 C10.9059098,22.0151294 11.2139864,15.9724754 11.337217,10.9369304 L11.4604476,10.9369304 C12.4462926,15.7947503 13.8634447,21.1265038 15.2805968,25.925082 L20.3946676,42.5720015 L25.8168148,42.5720015 L31.3621927,25.6288735 C32.9025755,20.9487787 34.4429582,15.6762669 35.6752644,10.9369304 L35.8601103,10.9369304 C35.798495,16.0909588 36.0449563,22.0743711 36.3530328,26.9914327 L37.1540318,43.0459351 Z M74.7393708,30.5459351 C74.8626014,29.8942763 74.9858321,28.8279256 74.9858321,27.4061247 C74.9858321,20.6525702 71.781836,13.6028071 63.0940773,13.6028071 C54.4063186,13.6028071 49.4770938,20.5933285 49.4770938,29.0648925 C49.4770938,37.8919067 54.7143951,43.5791105 63.833461,43.5791105 C67.7152255,43.5791105 71.0424522,42.86821 73.4454493,41.9203427 L72.3363737,37.0032811 C70.3646838,37.7734233 68.0233021,38.2473569 64.9425366,38.2473569 C60.5062343,38.2473569 56.6244697,36.1146555 56.4396238,30.5459351 L74.7393708,30.5459351 Z M56.4396238,25.6288735 C56.7477004,22.5483048 58.472929,18.5198688 62.6011548,18.5198688 C66.8526112,18.5198688 68.208148,22.3705797 68.1465327,25.6288735 L56.4396238,25.6288735 Z M98.7693417,1.28053226 L98.7693417,17.1573095 L98.646111,17.1573095 C97.4138048,15.0838498 94.8259618,13.6028071 91.1906586,13.6028071 C84.721051,13.6028071 78.9292119,19.1122858 78.9908272,28.8871673 C78.9908272,37.7141816 83.920052,43.6383522 90.6977361,43.6383522 C94.5795006,43.6383522 97.7834967,41.6833759 99.3854948,38.839774 L99.5087254,38.839774 L99.8784172,43.0459351 L106.286409,43.0459351 C106.163179,41.0317171 106.039948,37.832665 106.039948,35.0483048 L106.039948,1.28053226 L98.7693417,1.28053226 Z M98.7693417,31.2568356 C98.7693417,31.9677361 98.7077264,32.6786365 98.5228804,33.2710536 C97.7834967,36.410864 95.4421149,38.0103901 92.9158872,38.0103901 C88.7260462,38.0103901 86.3230491,34.1596792 86.3230491,28.7094422 C86.3230491,23.4369304 88.6028155,19.1715275 92.9775025,19.1715275 C95.9350374,19.1715275 98.0915733,21.4227124 98.646111,24.0885891 C98.7693417,24.6217645 98.7693417,25.332665 98.7693417,25.925082 L98.7693417,31.2568356 Z M120.950853,43.0459351 L120.950853,14.1952242 L113.618631,14.1952242 L113.618631,43.0459351 L120.950853,43.0459351 Z M117.253935,2.40612468 C114.912553,2.40612468 113.248939,4.06489245 113.248939,6.31607729 C113.248939,8.44877871 114.850938,10.1075465 117.192319,10.1075465 C119.718547,10.1075465 121.320545,8.44877871 121.25893,6.31607729 C121.25893,4.06489245 119.656932,2.40612468 117.253935,2.40612468 L117.253935,2.40612468 Z M152.066585,30.5459351 C152.189815,29.8942763 152.313046,28.8279256 152.313046,27.4061247 C152.313046,20.6525702 149.10905,13.6028071 140.421291,13.6028071 C131.733532,13.6028071 126.804308,20.5933285 126.804308,29.0648925 C126.804308,37.8919067 132.041609,43.5791105 141.160675,43.5791105 C145.042439,43.5791105 148.369666,42.86821 150.772663,41.9203427 L149.663588,37.0032811 C147.691898,37.7734233 145.350516,38.2473569 142.26975,38.2473569 C137.833448,38.2473569 133.951684,36.1146555 133.766838,30.5459351 L152.066585,30.5459351 Z M133.766838,25.6288735 C134.074914,22.5483048 135.800143,18.5198688 139.928369,18.5198688 C144.179825,18.5198688 145.535362,22.3705797 145.473747,25.6288735 L133.766838,25.6288735 Z M157.981654,43.0459351 L165.313876,43.0459351 L165.313876,25.8065986 C165.313876,24.917973 165.437107,24.0293474 165.621953,23.4369304 C166.361337,21.1265038 168.271411,19.3492526 170.859254,19.3492526 C174.617788,19.3492526 175.91171,22.4298214 175.91171,26.1620489 L175.91171,43.0459351 L183.182316,43.0459351 L183.182316,25.3919067 C183.182316,16.9795844 178.622783,13.6028071 173.447097,13.6028071 C169.010795,13.6028071 165.991645,15.9724754 164.636108,18.2829019 L164.451262,18.2829019 L164.08157,14.1952242 L157.735193,14.1952242 C157.858424,16.7426176 157.981654,19.3492526 157.981654,22.6667882 L157.981654,43.0459351 Z M197.969991,43.0459351 L197.969991,14.1952242 L190.637769,14.1952242 L190.637769,43.0459351 L197.969991,43.0459351 Z M194.273072,2.40612468 C191.93169,2.40612468 190.268077,4.06489245 190.268077,6.31607729 C190.268077,8.44877871 191.870075,10.1075465 194.211457,10.1075465 C196.737684,10.1075465 198.339682,8.44877871 198.278067,6.31607729 C198.278067,4.06489245 196.676069,2.40612468 194.273072,2.40612468 L194.273072,2.40612468 Z M205.487058,43.0459351 L212.81928,43.0459351 L212.81928,25.8065986 C212.81928,24.917973 212.942511,24.0293474 213.127357,23.4369304 C213.86674,21.1265038 215.776815,19.3492526 218.364658,19.3492526 C222.123192,19.3492526 223.417113,22.4298214 223.417113,26.1620489 L223.417113,43.0459351 L230.68772,43.0459351 L230.68772,25.3919067 C230.68772,16.9795844 226.128187,13.6028071 220.952501,13.6028071 C216.516199,13.6028071 213.497049,15.9724754 212.141512,18.2829019 L211.956666,18.2829019 L211.586974,14.1952242 L205.240597,14.1952242 C205.363828,16.7426176 205.487058,19.3492526 205.487058,22.6667882 L205.487058,43.0459351 Z M246.399624,43.0459351 L246.399624,19.4084943 L252.561155,19.4084943 L252.561155,14.1952242 L246.338009,14.1952242 L246.338009,12.6549398 C246.338009,9.2781626 247.5087,6.31607729 251.020772,6.31607729 C252.376309,6.31607729 253.300539,6.55304411 254.101538,6.79001094 L254.717691,1.39901568 C253.547,1.04356544 252.006617,0.688115202 250.034927,0.688115202 C247.447084,0.688115202 244.61278,1.45825738 242.51786,3.41323369 C240.053247,5.78290193 239.129017,9.3374043 239.129017,12.8919067 L239.129017,14.1952242 L235.062407,14.1952242 L235.062407,19.4084943 L239.129017,19.4084943 L239.129017,43.0459351 L246.399624,43.0459351 Z M268.581136,13.6028071 C260.571145,13.6028071 254.47123,19.0530441 254.47123,28.7686839 C254.47123,38.1881152 260.324684,43.6383522 268.149828,43.6383522 C274.927512,43.6383522 282.198119,39.3137076 282.198119,28.4132337 C282.198119,19.4084943 276.714356,13.6028071 268.581136,13.6028071 L268.581136,13.6028071 Z M268.39629,18.7568356 C273.079053,18.7568356 274.742667,24.1478308 274.742667,28.5909588 C274.742667,33.9227124 272.4629,38.4843237 268.39629,38.4843237 C264.144833,38.4843237 261.865067,33.9819541 261.865067,28.6502005 C261.865067,24.0293474 263.651911,18.7568356 268.39629,18.7568356 L268.39629,18.7568356 Z M288.051573,43.0459351 L295.32218,43.0459351 L295.32218,27.9985417 C295.32218,27.1099162 295.445411,26.2805323 295.568641,25.6288735 C296.24641,22.3705797 298.711022,20.2971199 301.915018,20.2971199 C302.716017,20.2971199 303.33217,20.3563616 303.886708,20.4748451 L303.886708,13.7212906 C303.33217,13.6620489 302.900863,13.6028071 302.223095,13.6028071 C299.203945,13.6028071 295.999948,15.6170252 294.644412,19.3492526 L294.459566,19.3492526 L294.151489,14.1952242 L287.805112,14.1952242 C287.928343,16.7426176 288.051573,19.6454612 288.051573,23.1407218 L288.051573,43.0459351 Z M308.446241,43.0459351 L315.593617,43.0459351 L315.593617,25.6288735 C315.593617,24.7994896 315.716848,23.9701057 315.963309,23.2592052 C316.641077,21.1857455 318.427921,19.3492526 320.830918,19.3492526 C324.21976,19.3492526 325.513682,22.1928545 325.513682,25.8658403 L325.513682,43.0459351 L332.661058,43.0459351 L332.661058,25.3919067 C332.661058,24.5625228 332.722673,23.6738972 332.969134,23.0222384 C333.708518,20.9487787 335.433747,19.3492526 337.775129,19.3492526 C341.163971,19.3492526 342.519507,22.2520962 342.519507,26.6359825 L342.519507,43.0459351 L349.666883,43.0459351 L349.666883,25.5696318 C349.666883,16.9795844 345.292196,13.6028071 340.424587,13.6028071 C338.206436,13.6028071 336.419592,14.1359825 334.879209,15.0838498 C333.585287,15.9132337 332.352981,17.0980678 331.428752,18.5791105 L331.305521,18.5791105 C330.073215,15.4985417 327.238911,13.6028071 323.541992,13.6028071 C319.044074,13.6028071 316.394616,15.9724754 314.977464,18.2236602 L314.792618,18.2236602 L314.484541,14.1952242 L308.19978,14.1952242 C308.32301,16.7426176 308.446241,19.3492526 308.446241,22.6667882 L308.446241,43.0459351 Z M378.87254,25.5103901 C378.87254,19.2307692 376.407928,13.6028071 367.350477,13.6028071 C362.914175,13.6028071 359.278872,14.846883 357.245566,16.0317171 L358.662719,20.6525702 C360.572793,19.4677361 363.283867,18.6383522 365.99494,18.6383522 C370.677704,18.6383522 371.601934,21.4819541 371.601934,23.6738972 L371.601934,24.2663143 C361.805099,24.2663143 355.150646,27.7615749 355.150646,35.1075465 C355.150646,39.6691579 358.477873,43.6383522 364.023251,43.6383522 C367.535323,43.6383522 370.431243,42.1573095 372.094856,39.9061247 L372.279702,39.9061247 L372.772625,43.0459351 L379.365463,43.0459351 C378.995771,41.2094422 378.87254,38.7212906 378.87254,36.2331389 L378.87254,25.5103901 Z M371.78678,33.2118119 C371.78678,33.7449872 371.725164,34.2781626 371.601934,34.811338 C370.924165,36.9440394 368.89086,38.5435654 366.303017,38.5435654 C364.208096,38.5435654 362.298022,37.2994896 362.298022,34.3374043 C362.298022,29.7757929 367.288862,28.7686839 371.78678,28.8279256 L371.78678,33.2118119 Z M387.190607,8.92271236 L387.190607,14.1952242 L383.123997,14.1952242 L383.123997,19.4084943 L387.190607,19.4084943 L387.190607,33.389537 C387.190607,37.2994896 387.929991,39.7876413 389.470373,41.3871673 C390.887526,42.8089683 393.044061,43.5791105 395.631904,43.5791105 C397.911671,43.5791105 399.698515,43.2829019 400.80759,42.9274517 L400.68436,37.5364564 C399.883361,37.7734233 399.205592,37.832665 397.973286,37.832665 C395.447059,37.832665 394.337983,36.2923806 394.337983,32.7971199 L394.337983,19.4084943 L401.115667,19.4084943 L401.115667,14.1952242 L394.337983,14.1952242 L394.337983,6.84925264 L387.190607,8.92271236 Z M413.623575,43.0459351 L413.623575,14.1952242 L406.291353,14.1952242 L406.291353,43.0459351 L413.623575,43.0459351 Z M409.926656,2.40612468 C407.585275,2.40612468 405.921661,4.06489245 405.921661,6.31607729 C405.921661,8.44877871 407.523659,10.1075465 409.865041,10.1075465 C412.391269,10.1075465 413.993267,8.44877871 413.931651,6.31607729 C413.931651,4.06489245 412.329653,2.40612468 409.926656,2.40612468 L409.926656,2.40612468 Z M428.411249,1.28053226 L421.140643,1.28053226 L421.140643,43.0459351 L428.411249,43.0459351 L428.411249,33.1525702 L430.6294,30.3089683 L438.269699,43.0459351 L447.019073,43.0459351 L435.681856,26.1028071 L445.725151,14.1952242 L437.222239,14.1952242 L430.691016,23.4961721 C429.951632,24.5032811 429.212248,25.7473569 428.53448,26.932191 L428.411249,26.932191 L428.411249,1.28053226 Z" id="Medieninformatik-Copy-2" fill="#DD1166"></path>
            </g>
        </g>
    </g>
</svg>