<?xml version="1.0" encoding="UTF-8" standalone="no"?>
<svg width="464px" height="122px" viewBox="0 0 464 122" version="1.1" xmlns="http://www.w3.org/2000/svg" xmlns:xlink="http://www.w3.org/1999/xlink" xmlns:sketch="http://www.bohemiancoding.com/sketch/ns">
    <!-- Generator: Sketch 3.5.1 (25234) - http://www.bohemiancoding.com/sketch -->
    <title>Group 2</title>
    <desc>Created with Sketch.</desc>
    <defs></defs>
    <g id="Logo-lang" stroke="none" stroke-width="1" fill="none" fill-rule="evenodd" sketch:type="MSPage">
        <g id="Group-2" sketch:type="MSLayerGroup">
            <path d="M21.1600968,38.8368229 L33.0445348,1.70771845 L23.9427945,1.70771845 L19.6528023,17.5729738 C18.5513178,21.8147261 17.4498333,26.2217414 16.6382131,30.6287568 L16.4642945,30.6287568 C15.6526744,26.111566 14.6091628,21.8147261 13.4497054,17.5178861 L9.27565889,1.70771845 L0,1.70771845 L11.3626821,38.8368229 L21.1600968,38.8368229 Z M43.7695154,38.8368229 L43.7695154,11.8989415 L35.3054767,11.8989415 L35.3054767,38.8368229 L43.7695154,38.8368229 Z M39.537496,0.385613844 C36.928717,0.385613844 35.0735852,2.0933323 35.1315581,4.51719075 C35.0735852,6.83087381 36.8707441,8.59367996 39.4215503,8.59367996 C42.204248,8.59367996 44.0014069,6.83087381 43.943434,4.51719075 C43.943434,2.0933323 42.204248,0.385613844 39.537496,0.385613844 L39.537496,0.385613844 Z M73.7994611,28.0396353 C73.9733797,27.3234953 74.0893254,26.1666537 74.0893254,24.5691107 C74.0893254,17.4627984 70.6109533,11.2929769 62.3208332,11.2929769 C53.5669301,11.2929769 48.9291007,18.2340261 48.9291007,25.7810399 C48.9291007,34.1543691 54.030713,39.3326121 63.0744805,39.3326121 C66.6108254,39.3326121 69.9732518,38.7817352 72.6400037,37.7901567 L71.4805463,32.2813875 C69.3935231,32.9424398 67.1325812,33.3280537 64.4078564,33.3280537 C60.5236743,33.3280537 57.2192208,31.7305106 56.9873293,28.0396353 L73.7994611,28.0396353 Z M56.9873293,22.4757784 C57.1612479,20.1070076 58.4946239,16.8017461 61.8570502,16.8017461 C65.3354223,16.8017461 66.3209611,20.0519199 66.2629882,22.4757784 L56.9873293,22.4757784 Z M79.0170192,38.8368229 L87.4810579,38.8368229 L87.4810579,0 L79.0170192,0 L79.0170192,38.8368229 Z M122.032887,0 L122.032887,14.2677122 L121.916942,14.2677122 C120.815457,12.5049061 118.496542,11.2929769 115.250062,11.2929769 C109.104938,11.2929769 103.597515,16.4161322 103.655488,25.5606891 C103.655488,33.6585798 108.235345,39.3876998 114.786279,39.3876998 C118.090732,39.3876998 121.163294,37.8452444 122.728562,35.1459475 L122.90248,35.1459475 L123.250318,38.8368229 L130.728817,38.8368229 C130.612872,36.853666 130.496926,33.7136675 130.496926,30.7940199 L130.496926,0 L122.032887,0 Z M122.032887,27.5989337 C122.032887,28.259986 121.974914,28.9210383 121.800996,29.4168276 C121.27924,31.6203352 119.482081,32.9424398 117.453031,32.9424398 C114.264523,32.9424398 112.1775,30.1329675 112.1775,25.395426 C112.1775,21.1536737 113.916686,17.6280615 117.511004,17.6280615 C119.887891,17.6280615 121.511131,19.3908676 121.916942,21.4841999 C122.032887,21.9249014 122.032887,22.530866 122.032887,22.9715676 L122.032887,27.5989337 Z M136.989887,38.8368229 L145.453926,38.8368229 L145.453926,25.1750753 C145.453926,24.3487599 145.569872,23.6326199 145.685817,23.081743 C146.323519,20.3824461 148.526488,18.9501661 151.309186,18.9501661 C152.178779,18.9501661 152.81648,19.0052538 153.454182,19.1154291 L153.454182,11.4582399 C152.874453,11.3480646 152.468643,11.2929769 151.657023,11.2929769 C149.106217,11.2929769 145.975682,12.9456076 144.584333,16.5263076 L144.410414,16.5263076 L144.062577,11.8989415 L136.757996,11.8989415 C136.931914,14.2677122 136.989887,16.9670092 136.989887,20.5477091 L136.989887,38.8368229 Z M165.976321,38.8368229 L165.976321,11.8989415 L157.512283,11.8989415 L157.512283,38.8368229 L165.976321,38.8368229 Z M161.744302,0.385613844 C159.135523,0.385613844 157.280391,2.0933323 157.338364,4.51719075 C157.280391,6.83087381 159.07755,8.59367996 161.628356,8.59367996 C164.411054,8.59367996 166.208213,6.83087381 166.15024,4.51719075 C166.15024,2.0933323 164.411054,0.385613844 161.744302,0.385613844 L161.744302,0.385613844 Z M172.527255,38.8368229 L180.991294,38.8368229 L180.991294,23.0266553 C180.991294,22.2003399 181.10724,21.3740245 181.339131,20.8231476 C181.91886,19.2806922 183.252236,17.9034999 185.339259,17.9034999 C188.237903,17.9034999 189.281414,20.217183 189.281414,23.3020937 L189.281414,38.8368229 L197.803426,38.8368229 L197.803426,22.4757784 C197.803426,15.0940276 194.093162,11.2929769 188.411821,11.2929769 C184.179802,11.2929769 181.455077,13.5515722 180.179674,15.4245538 L180.063728,15.4245538 L179.657918,11.8989415 L172.295364,11.8989415 C172.41131,14.3227999 172.527255,17.0771845 172.527255,20.3273584 L172.527255,38.8368229 Z" id="Viel-drin--Copy-3" fill="#1F191A" sketch:type="MSShapeGroup"></path>
            <g id="Group-Copy" transform="translate(0.000000, 54.900000)" sketch:type="MSShapeGroup">
                <path d="M6.50314911,60.0170616 L11.0287324,60.0170616 L11.0287324,39.3464455 L17.5699116,39.3464455 L17.5699116,35.6604265 L0,35.6604265 L0,39.3464455 L6.50314911,39.3464455 L6.50314911,60.0170616 Z M20.4602001,35.6604265 L20.4602001,60.0170616 L24.9477533,60.0170616 L24.9477533,49.2842417 L34.379221,49.2842417 L34.379221,60.0170616 L38.8667742,60.0170616 L38.8667742,35.6604265 L34.379221,35.6604265 L34.379221,45.4898104 L24.9477533,45.4898104 L24.9477533,35.6604265 L20.4602001,35.6604265 Z M51.2645907,60.0170616 L55.7521438,60.0170616 L55.7521438,51.4163507 L57.7297097,48.9590047 L64.1187684,60.0170616 L69.2908636,60.0170616 L60.8862089,46.0680095 L68.8725324,35.6604265 L63.4722565,35.6604265 L57.5775892,44.1165877 C57.0071375,44.9838863 56.3986557,45.9234597 55.8282041,46.8630332 L55.7521438,46.8630332 L55.7521438,35.6604265 L51.2645907,35.6604265 L51.2645907,60.0170616 Z M75.1475008,39.6716825 C76.4024945,39.6716825 77.3152172,38.6959716 77.3152172,37.5395735 C77.3152172,36.274763 76.3644644,35.371327 75.1475008,35.371327 C73.8925072,35.371327 72.8656941,36.3109005 72.8656941,37.5395735 C72.8656941,38.6959716 73.854477,39.6716825 75.1094707,39.6716825 L75.1475008,39.6716825 Z M82.335192,39.6716825 C83.6282158,39.6716825 84.5409385,38.6959716 84.5409385,37.5395735 C84.5409385,36.274763 83.5901857,35.371327 82.335192,35.371327 C81.0801983,35.371327 80.0914154,36.3109005 80.0914154,37.5395735 C80.0914154,38.6959716 81.0421682,39.6716825 82.2971619,39.6716825 L82.335192,39.6716825 Z M78.8744518,42.0567536 C73.9305373,42.0567536 70.1655562,45.3813981 70.1655562,51.3079384 C70.1655562,57.0537915 73.7784168,60.378436 78.608241,60.378436 C82.7915533,60.378436 87.2791065,57.7404028 87.2791065,51.0911137 C87.2791065,45.5982227 83.8944266,42.0567536 78.8744518,42.0567536 L78.8744518,42.0567536 Z M78.7603615,45.2007109 C81.65065,45.2007109 82.677463,48.489218 82.677463,51.1995261 C82.677463,54.4518957 81.2703488,57.2344787 78.7603615,57.2344787 C76.1362838,57.2344787 74.7291696,54.4880332 74.7291696,51.2356635 C74.7291696,48.4169431 75.8320429,45.2007109 78.7603615,45.2007109 L78.7603615,45.2007109 Z M90.8919671,60.0170616 L95.4175504,60.0170616 L95.4175504,34.5401659 L90.8919671,34.5401659 L90.8919671,60.0170616 Z M100.133284,60.0170616 L104.658868,60.0170616 L104.658868,49.5010664 C104.658868,48.9590047 104.734928,48.4169431 104.849018,48.0555687 C105.305379,46.6462085 106.484313,45.5620853 108.081578,45.5620853 C110.401414,45.5620853 111.200047,47.4412322 111.200047,49.717891 L111.200047,60.0170616 L115.6876,60.0170616 L115.6876,49.2481043 C115.6876,44.1165877 112.873372,42.0567536 109.678842,42.0567536 C106.940674,42.0567536 105.077199,43.5022512 104.240536,44.9116114 L104.126446,44.9116114 L103.898265,42.418128 L99.9811638,42.418128 C100.057224,43.9720379 100.133284,45.5620853 100.133284,47.585782 L100.133284,60.0170616 Z M143.411551,56.8731043 C142.308678,57.3790284 140.559293,57.7404028 138.809908,57.7404028 C133.523722,57.7404028 130.139042,54.3434834 130.139042,47.911019 C130.139042,41.2255924 133.865993,37.9009479 138.923998,37.9009479 C140.787474,37.9009479 142.232618,38.2984597 143.297461,38.7682464 L144.058063,36.274763 C143.297461,35.8772512 141.510046,35.3351896 138.847938,35.3351896 C132.040548,35.3351896 126.754363,39.8523697 126.754363,48.0917062 C126.754363,56.1503555 131.622217,60.3422986 138.163396,60.3422986 C140.825504,60.3422986 142.95519,59.8725118 144.020033,59.3304502 L143.411551,56.8731043 Z M159.346168,49.0674171 C159.346168,45.4175355 157.939054,42.1651659 152.881049,42.1651659 C150.713333,42.1651659 148.621677,42.7795024 147.328653,43.5745261 L148.051225,45.6704976 C149.230159,44.9116114 150.789393,44.4779621 152.310598,44.4779621 C155.657247,44.4418246 156.151639,46.7907583 156.151639,48.489218 L156.151639,48.9228673 C149.914701,48.8867299 146.035629,51.0911137 146.035629,55.3553318 C146.035629,58.0295024 147.937135,60.378436 151.283785,60.378436 C153.603621,60.378436 155.391037,59.2943128 156.341789,57.92109 L156.45588,57.92109 L156.722091,60.0170616 L159.612379,60.0170616 C159.422229,58.8245261 159.346168,57.342891 159.346168,55.8973934 L159.346168,49.0674171 Z M156.189669,54.2350711 C156.189669,54.5603081 156.189669,54.9216825 156.075579,55.2469194 C155.581187,56.8008294 154.212103,58.0656398 152.120447,58.0656398 C150.637273,58.0656398 149.268189,57.1622038 149.268189,55.0300948 C149.268189,51.524763 153.22332,51.0188389 156.189669,51.0549763 L156.189669,54.2350711 Z M164.366143,60.0170616 L167.522642,60.0170616 L167.522642,49.3203791 C167.522642,48.7783175 167.598703,48.2362559 167.750823,47.7664692 C168.245214,46.1041469 169.652329,44.6947867 171.477774,44.6947867 C173.911701,44.6947867 174.938514,46.7184834 174.938514,49.2481043 L174.938514,60.0170616 L178.095013,60.0170616 L178.095013,49.0674171 C178.095013,48.489218 178.171074,47.9471564 178.323194,47.4773697 C178.855616,45.9234597 180.18667,44.6947867 181.898025,44.6947867 C184.446042,44.6947867 185.472855,46.7546209 185.472855,49.8263033 L185.472855,60.0170616 L188.629354,60.0170616 L188.629354,49.3203791 C188.629354,43.7552133 185.510885,42.1651659 183.038928,42.1651659 C181.555754,42.1651659 180.45288,42.5265403 179.464097,43.2492891 C178.703495,43.7190758 178.018953,44.4779621 177.448501,45.4175355 L177.372441,45.4175355 C176.611839,43.4299763 174.862454,42.1651659 172.580647,42.1651659 C169.842479,42.1651659 168.245214,43.5745261 167.294462,45.1645735 L167.218401,45.1645735 L167.028251,42.5265403 L164.214023,42.5265403 C164.290083,43.9720379 164.366143,45.3091232 164.366143,47.1882701 L164.366143,60.0170616 Z M193.649329,67.1 L196.843859,67.1 L196.843859,57.8488152 L196.919919,57.8488152 C197.832641,59.3665877 199.620057,60.378436 201.863833,60.378436 C205.742905,60.378436 209.431825,57.4513033 209.431825,51.0911137 C209.431825,45.6343602 206.427447,42.1651659 202.358225,42.1651659 C199.848237,42.1651659 197.870672,43.2492891 196.615678,45.2729858 L196.539618,45.2729858 L196.387497,42.5265403 L193.497209,42.5265403 C193.573269,44.0443128 193.649329,45.77891 193.649329,48.163981 L193.649329,67.1 Z M196.843859,49.6456161 C196.843859,49.2119668 196.919919,48.7783175 197.034009,48.3446682 C197.528401,46.2125592 199.391876,44.6586493 201.369442,44.6586493 C204.563971,44.6586493 206.161236,47.6580569 206.161236,51.1995261 C206.161236,55.0662322 204.525941,57.9572275 201.293382,57.9572275 C199.391876,57.9572275 197.604461,56.7646919 196.995979,54.4518957 C196.881889,54.0543839 196.843859,53.5845972 196.843859,53.1148104 L196.843859,49.6456161 Z M227.420068,42.5265403 L224.225539,42.5265403 L224.225539,53.4761848 C224.225539,54.0905213 224.111449,54.6325829 223.959328,55.1023697 C223.502967,56.3310427 222.171913,57.8488152 220.080257,57.8488152 C217.380119,57.8488152 216.467396,55.6444313 216.467396,52.5004739 L216.467396,42.5265403 L213.272867,42.5265403 L213.272867,53.0063981 C213.272867,58.6077014 216.049065,60.378436 219.053444,60.378436 C221.943732,60.378436 223.731148,58.7161137 224.49175,57.4513033 L224.56781,57.4513033 L224.757961,60.0170616 L227.572189,60.0170616 C227.496129,58.6438389 227.420068,57.0899289 227.420068,55.2469194 L227.420068,42.5265403 Z M231.29914,59.1859005 C232.440043,59.8725118 234.189428,60.3422986 236.014874,60.3422986 C239.970005,60.3422986 242.479993,58.3186019 242.479993,55.1023697 C242.479993,52.5366114 240.844698,51.0188389 237.954409,49.8263033 C235.748663,48.8505924 234.83594,48.2001185 234.83594,46.8268957 C234.83594,45.5620853 235.824723,44.4779621 237.688199,44.4779621 C239.171373,44.4779621 240.350306,45.0200237 241.072878,45.453673 L241.871511,43.2131517 C240.920758,42.6349526 239.475614,42.1651659 237.726229,42.1651659 C234.113368,42.1651659 231.755501,44.4056872 231.755501,47.2244076 C231.755501,49.2842417 233.238675,50.946564 236.319115,52.175237 C238.562891,53.1509479 239.399554,53.982109 239.399554,55.4276066 C239.399554,56.9453791 238.29668,58.0295024 236.090934,58.0295024 C234.569729,58.0295024 232.972465,57.4151659 232.097772,56.8731043 L231.29914,59.1859005 Z M271.458938,47.260545 L263.738825,47.260545 L263.738825,49.717891 L268.340469,49.717891 L268.340469,57.1622038 C267.731987,57.4513033 266.553053,57.7042654 264.727608,57.7042654 C259.631573,57.7042654 255.980682,54.4157583 255.980682,47.8748815 C255.980682,41.3340047 259.897784,38.0093602 265.183969,38.0093602 C267.427746,38.0093602 268.87289,38.406872 270.051824,38.9127962 L270.812426,36.4193128 C269.823643,35.9495261 267.808047,35.4074645 265.221999,35.4074645 C257.882188,35.4074645 252.672063,40.1053318 252.634032,48.0555687 C252.634032,52.0306872 253.965086,55.3191943 256.056743,57.2706161 C258.300519,59.4388626 261.190808,60.2700237 264.575488,60.2700237 C267.465776,60.2700237 270.089854,59.5834123 271.458938,59.0774882 L271.458938,47.260545 Z M290.093693,42.5265403 L286.899163,42.5265403 L286.899163,53.4761848 C286.899163,54.0905213 286.785073,54.6325829 286.632952,55.1023697 C286.176591,56.3310427 284.845537,57.8488152 282.753881,57.8488152 C280.053743,57.8488152 279.14102,55.6444313 279.14102,52.5004739 L279.14102,42.5265403 L275.946491,42.5265403 L275.946491,53.0063981 C275.946491,58.6077014 278.722689,60.378436 281.727068,60.378436 C284.617356,60.378436 286.404772,58.7161137 287.165374,57.4513033 L287.241434,57.4513033 L287.431585,60.0170616 L290.245813,60.0170616 C290.169753,58.6438389 290.093693,57.0899289 290.093693,55.2469194 L290.093693,42.5265403 Z M295.227758,60.0170616 L298.384257,60.0170616 L298.384257,49.3203791 C298.384257,48.7783175 298.460317,48.2362559 298.612438,47.7664692 C299.106829,46.1041469 300.513943,44.6947867 302.339389,44.6947867 C304.773316,44.6947867 305.800129,46.7184834 305.800129,49.2481043 L305.800129,60.0170616 L308.956628,60.0170616 L308.956628,49.0674171 C308.956628,48.489218 309.032688,47.9471564 309.184809,47.4773697 C309.71723,45.9234597 311.048284,44.6947867 312.759639,44.6947867 C315.307657,44.6947867 316.33447,46.7546209 316.33447,49.8263033 L316.33447,60.0170616 L319.490969,60.0170616 L319.490969,49.3203791 C319.490969,43.7552133 316.3725,42.1651659 313.900543,42.1651659 C312.417368,42.1651659 311.314495,42.5265403 310.325712,43.2492891 C309.56511,43.7190758 308.880568,44.4779621 308.310116,45.4175355 L308.234056,45.4175355 C307.473454,43.4299763 305.724068,42.1651659 303.442262,42.1651659 C300.704094,42.1651659 299.106829,43.5745261 298.156076,45.1645735 L298.080016,45.1645735 L297.889865,42.5265403 L295.075637,42.5265403 C295.151697,43.9720379 295.227758,45.3091232 295.227758,47.1882701 L295.227758,60.0170616 Z M324.510944,60.0170616 L327.667443,60.0170616 L327.667443,49.3203791 C327.667443,48.7783175 327.743503,48.2362559 327.895624,47.7664692 C328.390015,46.1041469 329.797129,44.6947867 331.622575,44.6947867 C334.056502,44.6947867 335.083315,46.7184834 335.083315,49.2481043 L335.083315,60.0170616 L338.239814,60.0170616 L338.239814,49.0674171 C338.239814,48.489218 338.315874,47.9471564 338.467995,47.4773697 C339.000416,45.9234597 340.33147,44.6947867 342.042825,44.6947867 C344.590843,44.6947867 345.617656,46.7546209 345.617656,49.8263033 L345.617656,60.0170616 L348.774155,60.0170616 L348.774155,49.3203791 C348.774155,43.7552133 345.655686,42.1651659 343.183729,42.1651659 C341.700554,42.1651659 340.597681,42.5265403 339.608898,43.2492891 C338.848296,43.7190758 338.163754,44.4779621 337.593302,45.4175355 L337.517242,45.4175355 C336.75664,43.4299763 335.007255,42.1651659 332.725448,42.1651659 C329.98728,42.1651659 328.390015,43.5745261 327.439262,45.1645735 L327.363202,45.1645735 L327.173052,42.5265403 L324.358823,42.5265403 C324.434883,43.9720379 324.510944,45.3091232 324.510944,47.1882701 L324.510944,60.0170616 Z M367.33285,51.7415877 C367.37088,51.3802133 367.40891,50.9104265 367.40891,50.2238152 C367.40891,46.7907583 365.887705,42.1651659 360.56349,42.1651659 C355.695635,42.1651659 352.615196,46.1402844 352.615196,51.524763 C352.615196,56.8008294 355.695635,60.3422986 360.981821,60.3422986 C363.453778,60.3422986 365.355284,59.8363744 366.496187,59.3304502 L365.925735,57.1260664 C364.860892,57.5597156 363.491808,57.9572275 361.438182,57.9572275 C358.471834,57.9572275 355.809726,56.3671801 355.733665,51.7415877 L367.33285,51.7415877 Z M355.771696,49.5372038 C355.999876,47.260545 357.2929,44.4056872 360.259249,44.4056872 C363.301658,44.4056872 364.366501,47.0798578 364.328471,49.5372038 L355.771696,49.5372038 Z M371.287981,60.0170616 L374.482511,60.0170616 L374.482511,50.5851896 C374.482511,50.043128 374.520541,49.5010664 374.634631,49.0674171 C375.014932,46.7907583 376.612197,45.128436 378.817943,45.128436 C379.198244,45.128436 379.502485,45.128436 379.806726,45.2007109 L379.806726,42.2374408 C379.540515,42.2013033 379.274305,42.1651659 378.970064,42.1651659 C376.878408,42.1651659 375.014932,43.6106635 374.2163,45.7427725 L374.102209,45.7427725 L373.988119,42.5265403 L371.135861,42.5265403 C371.211921,44.0804502 371.287981,45.8150474 371.287981,47.6941943 L371.287981,60.0170616 Z M381.556111,59.1859005 C382.697015,59.8725118 384.4464,60.3422986 386.271845,60.3422986 C390.226977,60.3422986 392.736964,58.3186019 392.736964,55.1023697 C392.736964,52.5366114 391.101669,51.0188389 388.211381,49.8263033 C386.005634,48.8505924 385.092912,48.2001185 385.092912,46.8268957 C385.092912,45.5620853 386.081695,44.4779621 387.94517,44.4779621 C389.428344,44.4779621 390.607278,45.0200237 391.32985,45.453673 L392.128482,43.2131517 C391.17773,42.6349526 389.732585,42.1651659 387.9832,42.1651659 C384.37034,42.1651659 382.012473,44.4056872 382.012473,47.2244076 C382.012473,49.2842417 383.495647,50.946564 386.576086,52.175237 C388.819863,53.1509479 389.656525,53.982109 389.656525,55.4276066 C389.656525,56.9453791 388.553652,58.0295024 386.347905,58.0295024 C384.826701,58.0295024 383.229436,57.4151659 382.354744,56.8731043 L381.556111,59.1859005 Z M396.654066,55.6082938 C396.654066,57.0537915 396.578005,58.8606635 396.501945,60.0170616 L399.278143,60.0170616 L399.430264,57.3067536 L399.544354,57.3067536 C400.723288,59.3665877 402.510703,60.378436 404.94463,60.378436 C408.671581,60.378436 412.436562,57.342891 412.436562,51.0549763 C412.436562,45.6343602 409.546274,42.1651659 405.477052,42.1651659 C402.929034,42.1651659 401.027529,43.2131517 399.924655,45.128436 L399.848595,45.128436 L399.848595,34.5401659 L396.654066,34.5401659 L396.654066,55.6082938 Z M399.848595,49.6094787 C399.848595,49.1396919 399.924655,48.7060427 400.000716,48.3085308 C400.571167,46.1764218 402.396613,44.6225118 404.374178,44.6225118 C407.606738,44.6225118 409.204003,47.6580569 409.204003,51.1995261 C409.204003,55.1023697 407.492648,57.92109 404.336148,57.92109 C402.396613,57.92109 400.647227,56.7285545 400.000716,54.3796209 C399.886625,54.0543839 399.848595,53.656872 399.848595,53.2593602 L399.848595,49.6094787 Z M428.333149,49.0674171 C428.333149,45.4175355 426.926035,42.1651659 421.86803,42.1651659 C419.700313,42.1651659 417.608657,42.7795024 416.315634,43.5745261 L417.038206,45.6704976 C418.217139,44.9116114 419.776374,44.4779621 421.297578,44.4779621 C424.644228,44.4418246 425.138619,46.7907583 425.138619,48.489218 L425.138619,48.9228673 C418.901681,48.8867299 415.02261,51.0911137 415.02261,55.3553318 C415.02261,58.0295024 416.924115,60.378436 420.270765,60.378436 C422.590602,60.378436 424.378017,59.2943128 425.32877,57.92109 L425.44286,57.92109 L425.709071,60.0170616 L428.59936,60.0170616 C428.409209,58.8245261 428.333149,57.342891 428.333149,55.8973934 L428.333149,49.0674171 Z M425.17665,54.2350711 C425.17665,54.5603081 425.17665,54.9216825 425.062559,55.2469194 C424.568168,56.8008294 423.199084,58.0656398 421.107428,58.0656398 C419.624253,58.0656398 418.255169,57.1622038 418.255169,55.0300948 C418.255169,51.524763 422.210301,51.0188389 425.17665,51.0549763 L425.17665,54.2350711 Z M444.724127,57.1260664 C443.849434,57.4874408 442.784591,57.8488152 441.225357,57.8488152 C437.840677,57.8488152 435.44478,55.3914692 435.44478,51.3079384 C435.44478,47.7664692 437.422346,44.6586493 441.263387,44.6586493 C442.822621,44.6586493 443.925495,45.0561611 444.610037,45.3813981 L445.332609,42.996327 C444.533976,42.5988152 442.974742,42.2013033 441.301417,42.2013033 C435.710991,42.2013033 432.17419,46.1764218 432.17419,51.4524882 C432.17419,56.9092417 435.55887,60.3422986 440.616875,60.3422986 C442.746561,60.3422986 444.419886,59.8363744 445.256549,59.4388626 L444.724127,57.1260664 Z M448.717289,60.0170616 L451.949848,60.0170616 L451.949848,49.2119668 C451.949848,48.7060427 451.987878,48.2001185 452.139999,47.7664692 C452.71045,46.031872 454.193625,44.7309242 456.133161,44.7309242 C458.947389,44.7309242 459.860111,46.9714455 459.860111,49.6094787 L459.860111,60.0170616 L463.054641,60.0170616 L463.054641,49.2481043 C463.054641,43.7190758 459.746021,42.1651659 457.274064,42.1651659 C456.09513,42.1651659 455.068317,42.4904028 454.155595,42.996327 C453.280902,43.4661137 452.5203,44.1888626 452.025908,45.0200237 L451.949848,45.0200237 L451.949848,34.5401659 L448.717289,34.5401659 L448.717289,60.0170616 Z" id="TH-Köln-Campus-Gumme-Copy-2" fill="#AC0FC8"></path>
                <path d="M22.9321574,26.2580204 L27.22956,26.2580204 L25.7463857,1.90138534 L20.1559592,1.90138534 L16.9614298,11.6946318 C16.0487072,14.6579019 15.2500748,17.5127598 14.641593,20.1869304 L14.5275027,20.1869304 C13.957051,17.4404849 13.1964488,14.6579019 12.2837261,11.6946318 L9.24131716,1.90138534 L3.61286062,1.90138534 L1.90150559,26.2580204 L6.04678777,26.2580204 L6.57920934,16.6093237 C6.73132978,13.4292289 6.92148034,9.74320999 6.99754056,6.67152752 L7.07360079,6.67152752 C7.68208258,9.63479767 8.55677515,12.8871673 9.43146772,15.8143 L12.587967,25.9689209 L15.9346168,25.9689209 L19.3573269,15.6336128 C20.3080797,12.778755 21.2588325,9.56252279 22.0194347,6.67152752 L22.133525,6.67152752 C22.0954949,9.81548487 22.2476154,13.4653664 22.4377659,16.464774 L22.9321574,26.2580204 Z M46.1305256,18.6330204 C46.2065858,18.2355086 46.282646,17.5850346 46.282646,16.7177361 C46.282646,12.5980678 44.3050802,8.29771236 38.9428344,8.29771236 C33.5805887,8.29771236 30.5381797,12.5619304 30.5381797,17.7295844 C30.5381797,23.1140631 33.7707392,26.5832574 39.3991958,26.5832574 C41.7950928,26.5832574 43.8487189,26.1496081 45.3318932,25.571409 L44.6473512,22.5720015 C43.4303876,23.0417882 41.9852434,23.3308877 40.0837378,23.3308877 C37.3455698,23.3308877 34.9496727,22.0299398 34.8355824,18.6330204 L46.1305256,18.6330204 Z M34.8355824,15.6336128 C35.0257329,13.7544659 36.0905761,11.2971199 38.6385936,11.2971199 C41.2626713,11.2971199 42.0993337,13.6460536 42.0613036,15.6336128 L34.8355824,15.6336128 Z M60.9622692,0.781124681 L60.9622692,10.4659588 L60.8862089,10.4659588 C60.1256067,9.20114838 58.528342,8.29771236 56.2845654,8.29771236 C52.2914037,8.29771236 48.7165732,11.6584943 48.7546033,17.6211721 C48.7546033,23.0056507 51.7970122,26.6193948 55.9803245,26.6193948 C58.3762216,26.6193948 60.3537874,25.4268593 61.3425703,23.6922621 L61.4186305,23.6922621 L61.6468112,26.2580204 L65.6019428,26.2580204 C65.5258826,25.0293474 65.4498223,23.0779256 65.4498223,21.3794659 L65.4498223,0.781124681 L60.9622692,0.781124681 Z M60.9622692,19.0666697 C60.9622692,19.500319 60.924239,19.9339683 60.8101487,20.2953427 C60.3537874,22.2106271 58.9086431,23.186338 57.3494085,23.186338 C54.7633609,23.186338 53.2801866,20.8374043 53.2801866,17.5127598 C53.2801866,14.2965275 54.6873007,11.6946318 57.3874387,11.6946318 C59.212884,11.6946318 60.5439379,13.0678545 60.8862089,14.6940394 C60.9622692,15.0192763 60.9622692,15.4529256 60.9622692,15.8143 L60.9622692,19.0666697 Z M74.6531094,26.2580204 L74.6531094,8.65908677 L70.1275261,8.65908677 L70.1275261,26.2580204 L74.6531094,26.2580204 Z M72.3713027,1.46773606 C70.9261584,1.46773606 69.8993454,2.4795844 69.8993454,3.85280715 C69.8993454,5.15375501 70.8881283,6.16560335 72.3332726,6.16560335 C73.8925072,6.16560335 74.8812901,5.15375501 74.84326,3.85280715 C74.84326,2.4795844 73.854477,1.46773606 72.3713027,1.46773606 L72.3713027,1.46773606 Z M93.8583158,18.6330204 C93.9343761,18.2355086 94.0104363,17.5850346 94.0104363,16.7177361 C94.0104363,12.5980678 92.0328705,8.29771236 86.6706247,8.29771236 C81.308379,8.29771236 78.26597,12.5619304 78.26597,17.7295844 C78.26597,23.1140631 81.4985295,26.5832574 87.1269861,26.5832574 C89.5228831,26.5832574 91.5765091,26.1496081 93.0596835,25.571409 L92.3751415,22.5720015 C91.1581779,23.0417882 89.7130337,23.3308877 87.8115281,23.3308877 C85.07336,23.3308877 82.677463,22.0299398 82.5633726,18.6330204 L93.8583158,18.6330204 Z M82.5633726,15.6336128 C82.7535232,13.7544659 83.8183663,11.2971199 86.3663838,11.2971199 C88.9904615,11.2971199 89.827124,13.6460536 89.7890939,15.6336128 L82.5633726,15.6336128 Z M97.5092066,26.2580204 L102.03479,26.2580204 L102.03479,15.7420252 C102.03479,15.1999635 102.11085,14.6579019 102.22494,14.2965275 C102.681302,12.8871673 103.860235,11.8030441 105.4575,11.8030441 C107.777337,11.8030441 108.575969,13.682191 108.575969,15.9588498 L108.575969,26.2580204 L113.063522,26.2580204 L113.063522,15.4890631 C113.063522,10.3575465 110.249294,8.29771236 107.054765,8.29771236 C104.316597,8.29771236 102.453121,9.74320999 101.616459,11.1525702 L101.502368,11.1525702 L101.274188,8.65908677 L97.3570861,8.65908677 C97.4331463,10.2129967 97.5092066,11.8030441 97.5092066,13.8267408 L97.5092066,26.2580204 Z M122.190749,26.2580204 L122.190749,8.65908677 L117.665166,8.65908677 L117.665166,26.2580204 L122.190749,26.2580204 Z M119.908942,1.46773606 C118.463798,1.46773606 117.436985,2.4795844 117.436985,3.85280715 C117.436985,5.15375501 118.425768,6.16560335 119.870912,6.16560335 C121.430147,6.16560335 122.41893,5.15375501 122.3809,3.85280715 C122.3809,2.4795844 121.392117,1.46773606 119.908942,1.46773606 L119.908942,1.46773606 Z M126.830423,26.2580204 L131.356006,26.2580204 L131.356006,15.7420252 C131.356006,15.1999635 131.432066,14.6579019 131.546157,14.2965275 C132.002518,12.8871673 133.181451,11.8030441 134.778716,11.8030441 C137.098553,11.8030441 137.897185,13.682191 137.897185,15.9588498 L137.897185,26.2580204 L142.384738,26.2580204 L142.384738,15.4890631 C142.384738,10.3575465 139.57051,8.29771236 136.375981,8.29771236 C133.637813,8.29771236 131.774337,9.74320999 130.937675,11.1525702 L130.823584,11.1525702 L130.595404,8.65908677 L126.678302,8.65908677 C126.754363,10.2129967 126.830423,11.8030441 126.830423,13.8267408 L126.830423,26.2580204 Z M152.082417,26.2580204 L152.082417,11.8391816 L155.885428,11.8391816 L155.885428,8.65908677 L152.044387,8.65908677 L152.044387,7.71951331 C152.044387,5.65967918 152.766959,3.85280715 154.934675,3.85280715 C155.771338,3.85280715 156.341789,3.99735691 156.836181,4.14190667 L157.216482,0.853399563 C156.49391,0.636574918 155.543157,0.419750273 154.326194,0.419750273 C152.728929,0.419750273 150.979544,0.889537003 149.68652,2.08207255 C148.165315,3.52757018 147.594864,5.69581662 147.594864,7.86406307 L147.594864,8.65908677 L145.084876,8.65908677 L145.084876,11.8391816 L147.594864,11.8391816 L147.594864,26.2580204 L152.082417,26.2580204 Z M165.773257,8.29771236 C160.829343,8.29771236 157.064362,11.6223569 157.064362,17.5488972 C157.064362,23.2947503 160.677222,26.6193948 165.507046,26.6193948 C169.690359,26.6193948 174.177912,23.9813616 174.177912,17.3320725 C174.177912,11.8391816 170.793232,8.29771236 165.773257,8.29771236 L165.773257,8.29771236 Z M165.659167,11.4416697 C168.549455,11.4416697 169.576268,14.7301768 169.576268,17.4404849 C169.576268,20.6928545 168.169154,23.4754375 165.659167,23.4754375 C163.035089,23.4754375 161.627975,20.728992 161.627975,17.4766223 C161.627975,14.6579019 162.730848,11.4416697 165.659167,11.4416697 L165.659167,11.4416697 Z M177.790773,26.2580204 L182.278326,26.2580204 L182.278326,17.0791105 C182.278326,16.5370489 182.354386,16.0311247 182.430446,15.6336128 C182.848777,13.6460536 184.369982,12.3812432 186.347548,12.3812432 C186.841939,12.3812432 187.22224,12.4173806 187.564511,12.4896555 L187.564511,8.36998724 C187.22224,8.3338498 186.956029,8.29771236 186.537698,8.29771236 C184.674223,8.29771236 182.696657,9.52638534 181.859994,11.8030441 L181.745904,11.8030441 L181.555754,8.65908677 L177.638652,8.65908677 C177.714712,10.2129967 177.790773,11.9837313 177.790773,14.1158403 L177.790773,26.2580204 Z M190.378739,26.2580204 L194.790232,26.2580204 L194.790232,15.6336128 C194.790232,15.1276887 194.866293,14.6217645 195.018413,14.1881152 C195.436744,12.9233048 196.539618,11.8030441 198.022792,11.8030441 C200.114448,11.8030441 200.91308,13.5376413 200.91308,15.7781626 L200.91308,26.2580204 L205.324573,26.2580204 L205.324573,15.4890631 C205.324573,14.9831389 205.362604,14.4410773 205.514724,14.0435654 C205.971085,12.778755 207.035928,11.8030441 208.481073,11.8030441 C210.572729,11.8030441 211.409391,13.5737787 211.409391,16.2479493 L211.409391,26.2580204 L215.820884,26.2580204 L215.820884,15.5974754 C215.820884,10.3575465 213.120746,8.29771236 210.116368,8.29771236 C208.747283,8.29771236 207.64441,8.62294933 206.693657,9.20114838 C205.895025,9.70707255 205.134423,10.4298214 204.563971,11.3332574 L204.487911,11.3332574 C203.727309,9.45411046 201.977924,8.29771236 199.696117,8.29771236 C196.919919,8.29771236 195.284624,9.74320999 194.409931,11.1164327 L194.295841,11.1164327 L194.10569,8.65908677 L190.226619,8.65908677 C190.302679,10.2129967 190.378739,11.8030441 190.378739,13.8267408 L190.378739,26.2580204 Z M233.847157,15.561338 C233.847157,11.7307692 232.325953,8.29771236 226.735526,8.29771236 C223.997358,8.29771236 221.753582,9.05659861 220.498588,9.77934743 L221.373281,12.5980678 C222.552214,11.875319 224.225539,11.3693948 225.898864,11.3693948 C228.789152,11.3693948 229.359604,13.103992 229.359604,14.4410773 L229.359604,14.8024517 C223.312816,14.8024517 219.205564,16.9345607 219.205564,21.4156034 C219.205564,24.1981863 221.25919,26.6193948 224.6819,26.6193948 C226.849617,26.6193948 228.637032,25.7159588 229.663845,24.3427361 L229.777935,24.3427361 L230.082176,26.2580204 L234.151398,26.2580204 C233.923217,25.1377598 233.847157,23.6199872 233.847157,22.1022147 L233.847157,15.561338 Z M229.473694,20.2592052 C229.473694,20.5844422 229.435664,20.9096792 229.359604,21.2349162 C228.941273,22.535864 227.686279,23.5115749 226.089014,23.5115749 C224.795991,23.5115749 223.617057,22.7526887 223.617057,20.9458166 C223.617057,18.1632337 226.697496,17.5488972 229.473694,17.5850346 L229.473694,20.2592052 Z M238.981222,5.44285454 L238.981222,8.65908677 L236.471235,8.65908677 L236.471235,11.8391816 L238.981222,11.8391816 L238.981222,20.3676176 C238.981222,22.7526887 239.437584,24.2704612 240.388336,25.2461721 C241.263029,26.1134707 242.594083,26.5832574 244.191348,26.5832574 C245.598462,26.5832574 246.701335,26.4025702 247.385877,26.1857455 L247.309817,22.8972384 C246.815425,23.0417882 246.397094,23.0779256 245.636492,23.0779256 C244.077257,23.0779256 243.392715,22.1383522 243.392715,20.0062432 L243.392715,11.8391816 L247.576028,11.8391816 L247.576028,8.65908677 L243.392715,8.65908677 L243.392715,4.17804411 L238.981222,5.44285454 Z M255.29614,26.2580204 L255.29614,8.65908677 L250.770557,8.65908677 L250.770557,26.2580204 L255.29614,26.2580204 Z M253.014334,1.46773606 C251.569189,1.46773606 250.542376,2.4795844 250.542376,3.85280715 C250.542376,5.15375501 251.531159,6.16560335 252.976303,6.16560335 C254.535538,6.16560335 255.524321,5.15375501 255.486291,3.85280715 C255.486291,2.4795844 254.497508,1.46773606 253.014334,1.46773606 L253.014334,1.46773606 Z M264.423367,0.781124681 L259.935814,0.781124681 L259.935814,26.2580204 L264.423367,26.2580204 L264.423367,20.2230678 L265.792451,18.4884707 L270.508185,26.2580204 L275.908461,26.2580204 L268.91092,15.9227124 L275.109829,8.65908677 L269.861673,8.65908677 L265.830481,14.332665 C265.37412,14.9470015 264.917759,15.7058877 264.499427,16.4286365 L264.423367,16.4286365 L264.423367,0.781124681 Z" id="Medieninformatik-Copy-2" fill="#FF0D68"></path>
            </g>
        </g>
    </g>
</svg>